<svg width="116" height="24" viewBox="0 0 116 24" fill="none" xmlns="http://www.w3.org/2000/svg">
<path d="M12.8559 14.1097C12.8559 14.2055 12.848 14.2853 12.832 14.3491C12.824 14.413 12.812 14.4808 12.7961 14.5526C12.7562 14.776 12.6963 15.0154 12.6165 15.2708C12.5846 15.4065 12.5607 15.4942 12.5447 15.5341C12.5287 15.582 12.4928 15.6658 12.437 15.7855C12.3891 15.9052 12.3452 15.997 12.3053 16.0608C12.2734 16.1247 12.2175 16.2005 12.1377 16.2883C12.026 16.408 11.8983 16.5077 11.7547 16.5875C11.7148 16.6115 11.6589 16.6394 11.5871 16.6713C11.5153 16.7032 11.4355 16.7391 11.3477 16.779C11.2679 16.8189 11.1642 16.9147 11.0365 17.0663C10.9168 17.21 10.8051 17.3097 10.7013 17.3656C10.6056 17.4214 10.5058 17.4693 10.4021 17.5092C10.3063 17.5491 10.2265 17.581 10.1627 17.605C10.0988 17.6289 9.9871 17.6648 9.8275 17.7127C9.6679 17.7526 9.54421 17.7805 9.45643 17.7965C9.36865 17.8125 9.28486 17.8284 9.20506 17.8444C9.13324 17.8524 8.91379 17.8723 8.5467 17.9042L7.74471 18C7.51329 18 7.24197 17.996 6.93074 17.988C6.6275 17.9721 6.45992 17.9641 6.428 17.9641L5.76965 18C5.64995 18 5.50631 18.004 5.33872 18.012C5.17912 18.0279 5.09134 18.0359 5.07538 18.0359C4.99558 18.0359 4.88785 18.0199 4.75219 17.988C4.62451 17.9561 4.54471 17.9401 4.51279 17.9401C4.19359 17.9002 3.85444 17.8803 3.49533 17.8803C3.37563 17.8803 3.2679 17.8923 3.17214 17.9162C3.08436 17.9322 2.9886 17.9481 2.88486 17.9641C2.78112 17.98 2.64147 17.996 2.46591 18.012C2.29833 18.0279 2.16267 18.0359 2.05892 18.0359C1.9472 18.0359 1.84745 18.0319 1.75967 18.0239C1.67189 18.0239 1.56017 18.004 1.42451 17.9641C1.25693 17.9401 1.12127 17.9162 1.01753 17.8923C0.913787 17.8683 0.861917 17.8045 0.861917 17.7007C0.861917 17.613 0.901817 17.5411 0.981618 17.4853C1.06142 17.4214 1.14122 17.3616 1.22102 17.3057C1.42052 17.1701 1.62002 17.0304 1.81952 16.8868C1.96316 16.7192 2.06291 16.5317 2.11877 16.3242C2.11079 16.1646 2.1068 16.0489 2.1068 15.977C2.1068 15.9052 2.11877 15.8494 2.14272 15.8095C2.15868 15.7855 2.19459 15.7536 2.25045 15.7137C2.31429 15.6738 2.35818 15.6379 2.38212 15.606C2.44596 15.5262 2.47788 15.4184 2.47788 15.2828C2.47788 15.211 2.4699 15.1192 2.45394 15.0075C2.44596 14.8957 2.44197 14.8359 2.44197 14.8279C2.44197 14.6444 2.44995 14.4209 2.46591 14.1576C2.48985 13.8863 2.50182 13.7107 2.50182 13.6309C2.50182 13.4713 2.48985 13.2798 2.46591 13.0563C2.44995 12.8249 2.44197 12.6773 2.44197 12.6134C2.44197 12.4139 2.43798 12.1506 2.43 11.8234C2.42202 11.4962 2.41803 11.2289 2.41803 11.0214L2.38212 9.10622V7.72966C2.38212 7.65784 2.37813 7.5541 2.37015 7.41844C2.36217 7.2748 2.35818 7.16707 2.35818 7.09525C2.35818 6.97554 2.37813 6.80796 2.41803 6.5925C2.42601 6.54462 2.46192 6.45684 2.52576 6.32916C2.5896 6.1935 2.62152 6.08178 2.62152 5.994C2.6295 5.88228 2.62152 5.78253 2.59758 5.69475C2.58162 5.59899 2.55768 5.48328 2.52576 5.34761C2.49384 5.21195 2.45793 5.06033 2.41803 4.89275C2.41005 4.83689 2.40606 4.78502 2.40606 4.73714C2.40606 4.69724 2.40606 4.66931 2.40606 4.65335C2.40606 4.54961 2.41005 4.41794 2.41803 4.25834C2.43399 4.09874 2.44197 4.01096 2.44197 3.995C2.44197 3.86731 2.43798 3.74761 2.43 3.63589C2.43 3.52417 2.40606 3.3925 2.35818 3.24088C2.31828 3.08926 2.27838 2.97355 2.23848 2.89375C2.20656 2.81395 2.1467 2.71021 2.05892 2.58253C2.01902 2.52667 1.97912 2.47081 1.93922 2.41495C1.85144 2.31121 1.75967 2.22742 1.66391 2.16357C1.63199 2.13963 1.58411 2.1117 1.52027 2.07978C1.41653 2.02392 1.31678 1.98801 1.22102 1.97205C1.13324 1.94811 1.04147 1.92417 0.945707 1.90023C0.857927 1.85235 0.790096 1.78452 0.742216 1.69674C0.694336 1.60896 0.682366 1.51719 0.706306 1.42143C0.722266 1.35759 0.758176 1.30173 0.814037 1.25385C0.837977 1.23789 0.885857 1.20597 0.957678 1.15809C1.03748 1.11021 1.1093 1.08228 1.17314 1.0743C1.23698 1.06632 1.31678 1.06233 1.41254 1.06233C1.48436 1.06233 1.54022 1.06233 1.58012 1.06233C1.72376 1.06233 1.85144 1.06632 1.96316 1.0743C2.08286 1.08228 2.20656 1.09425 2.33424 1.11021C2.46192 1.12617 2.58561 1.15011 2.70531 1.18203C2.83299 1.20597 2.93673 1.22592 3.01653 1.24188L3.57912 1.36158C3.76266 1.3935 3.89035 1.41744 3.96217 1.4334C4.03399 1.44138 4.10581 1.44537 4.17763 1.44537C4.28137 1.44537 4.38511 1.4334 4.48885 1.40946C4.60057 1.38552 4.72825 1.35759 4.87189 1.32567C5.04745 1.31769 5.22301 1.30572 5.39857 1.28976C5.47838 1.29774 5.54222 1.30173 5.5901 1.30173C5.63798 1.30173 5.7497 1.32168 5.92526 1.36158C5.99708 1.37754 6.06491 1.38552 6.12875 1.38552C6.20855 1.3935 6.35219 1.40148 6.55967 1.40946C6.77513 1.41744 6.89084 1.42143 6.90681 1.42143L7.4694 1.44537H8.34321C8.51079 1.44537 8.65843 1.45734 8.78611 1.48128C8.91379 1.49724 9.07339 1.53714 9.26491 1.60098C9.45643 1.64886 9.60007 1.69674 9.69583 1.74462C9.79159 1.7925 10.0071 1.92417 10.3422 2.13963C10.414 2.18751 10.4898 2.23939 10.5696 2.29525C10.6893 2.39101 10.813 2.48677 10.9407 2.58253L11.3357 2.88178C11.4235 2.9536 11.5073 3.0334 11.5871 3.12118C11.6669 3.20098 11.7507 3.28078 11.8385 3.36058C11.9263 3.4324 11.9901 3.49225 12.03 3.54013C12.0779 3.58003 12.1258 3.63988 12.1736 3.71968C12.2295 3.7915 12.2734 3.89126 12.3053 4.01894C12.3372 4.13864 12.3652 4.24637 12.3891 4.34213C12.413 4.42991 12.441 4.52567 12.4729 4.62941C12.5048 4.73315 12.5248 4.84088 12.5327 4.9526C12.5248 5.08826 12.5208 5.18801 12.5208 5.25185C12.5208 5.32367 12.5248 5.3915 12.5327 5.45534C12.5407 5.5112 12.5726 5.60297 12.6285 5.73066C12.6844 5.85036 12.7203 5.95011 12.7362 6.02991C12.7522 6.10173 12.7602 6.19749 12.7602 6.31719C12.7602 6.42891 12.7642 6.52068 12.7721 6.5925C12.7402 6.86382 12.6604 7.10323 12.5327 7.31071C12.421 7.51819 12.2814 7.67779 12.1138 7.78951C12.0579 7.82143 11.9701 7.85734 11.8504 7.89724C11.7307 7.92916 11.635 7.96507 11.5632 8.00497C11.4993 8.03689 11.4554 8.06083 11.4315 8.07679C11.3756 8.12467 11.3317 8.16058 11.2998 8.18452C11.2679 8.20846 11.22 8.26033 11.1562 8.34013C11.1003 8.41195 11.0604 8.45983 11.0365 8.48377C10.9806 8.52367 10.9048 8.56756 10.809 8.61544C10.7133 8.65534 10.6574 8.67929 10.6415 8.68727C10.6095 8.70323 10.5377 8.73115 10.426 8.77106C10.3223 8.80298 10.2544 8.85086 10.2225 8.9147C10.1986 8.97056 10.1866 9.02642 10.1866 9.08228C10.1866 9.14612 10.1906 9.194 10.1986 9.22592C10.2145 9.29774 10.2664 9.36557 10.3542 9.42941C10.4499 9.48527 10.5577 9.54911 10.6774 9.62093C10.8849 9.81245 11.0923 9.99998 11.2998 10.1835C11.3477 10.2234 11.4275 10.2793 11.5392 10.3511C11.6509 10.4149 11.7307 10.4788 11.7786 10.5426C11.8265 10.6065 11.8664 10.6783 11.8983 10.7581C11.9302 10.8379 11.9622 10.9177 11.9941 10.9975C12.1138 11.197 12.2335 11.3965 12.3532 11.596C12.3851 11.6758 12.413 11.7915 12.437 11.9431C12.4609 12.0947 12.4809 12.2065 12.4968 12.2783L12.6524 12.9127C12.7003 13.0962 12.7442 13.2838 12.7841 13.4753C12.832 13.6588 12.8559 13.8703 12.8559 14.1097ZM10.019 5.49126C10.019 5.40347 10.019 5.31968 10.019 5.23988C10.019 5.1521 10.023 5.06432 10.031 4.97654C10.031 4.88078 10.027 4.79699 10.019 4.72517C10.011 4.65335 9.99109 4.57754 9.95917 4.49774C9.93523 4.40996 9.91528 4.34213 9.89932 4.29425C9.85942 4.18253 9.81952 4.07081 9.77962 3.95909C9.7477 3.84737 9.69583 3.74761 9.62401 3.65983C9.59209 3.61195 9.53224 3.55609 9.44446 3.49225C9.36466 3.42841 9.31678 3.38452 9.30082 3.36058L9.14521 3.12118C9.07339 3.01744 9.0295 2.9536 9.01354 2.92966C8.95768 2.85784 8.90182 2.80198 8.84596 2.76208C8.71828 2.66632 8.55069 2.59849 8.34321 2.55859L7.9482 2.52268C7.90032 2.52268 7.8285 2.51869 7.73274 2.51071C7.63698 2.50273 7.56117 2.49874 7.50531 2.49874C7.44945 2.49874 7.38162 2.51071 7.30182 2.53465C7.22202 2.55061 7.17015 2.55859 7.14621 2.55859C7.05045 2.55859 6.96267 2.55061 6.88286 2.53465C6.81104 2.51869 6.7472 2.50672 6.69134 2.49874C6.6674 2.49076 6.61553 2.47081 6.53573 2.43889C6.45593 2.39899 6.3881 2.37904 6.33224 2.37904C6.18062 2.36308 6.00905 2.39101 5.81753 2.46283C5.63399 2.53465 5.47838 2.66632 5.35069 2.85784C5.27089 2.96956 5.21503 3.07729 5.18311 3.18103C5.15119 3.27679 5.13523 3.39649 5.13523 3.54013C5.13523 3.60397 5.15119 3.67579 5.18311 3.75559C5.25493 3.93914 5.29084 4.05884 5.29084 4.1147C5.29084 4.17056 5.27488 4.24238 5.24296 4.33016C5.21902 4.41794 5.20306 4.48577 5.19508 4.53365L5.07538 4.97654C5.03548 5.1122 5.00755 5.21594 4.99159 5.28776C4.98361 5.3516 4.97164 5.43938 4.95568 5.55111C4.95568 5.61495 4.95169 5.67879 4.94371 5.74263C4.94371 5.79849 4.94371 5.85435 4.94371 5.91021C4.94371 5.99001 4.9477 6.05784 4.95568 6.1137C4.97164 6.16956 5.00755 6.24936 5.06341 6.3531C5.11927 6.44886 5.15518 6.53265 5.17114 6.60447C5.19508 6.66831 5.21503 6.73215 5.23099 6.79599C5.24695 6.85983 5.25493 6.93165 5.25493 7.01145V7.40647C5.27089 7.54213 5.28286 7.64188 5.29084 7.70572C5.3068 7.76956 5.33872 7.84138 5.3866 7.92118C5.43449 8.00098 5.49035 8.0728 5.55419 8.13664C5.62601 8.1925 5.76566 8.25634 5.97314 8.32816C6.06092 8.36008 6.13274 8.38003 6.1886 8.38801C6.25244 8.39599 6.32825 8.39998 6.41603 8.39998C6.58361 8.392 6.71528 8.38801 6.81104 8.38801L7.52925 8.36407C7.64895 8.36407 7.73274 8.36407 7.78062 8.36407C7.95618 8.36407 8.10381 8.3521 8.22351 8.32816C8.34321 8.30422 8.45493 8.27629 8.55867 8.24437C8.66242 8.20447 8.75818 8.16058 8.84596 8.1127C8.93374 8.05684 9.02152 7.98502 9.1093 7.89724C9.1492 7.85734 9.22102 7.78153 9.32476 7.66981C9.39658 7.59799 9.44446 7.55011 9.4684 7.52617C9.51628 7.47829 9.56017 7.42642 9.60007 7.37056C9.71179 7.22692 9.77563 7.13913 9.79159 7.10721C9.84745 7.01943 9.89134 6.91569 9.92326 6.79599C9.96316 6.67629 9.98311 6.53664 9.98311 6.37704C9.98311 6.26532 9.98311 6.17754 9.98311 6.1137L10.019 5.49126ZM10.2824 13.212C10.2744 13.1481 10.2504 13.0683 10.2105 12.9726C10.1706 12.8688 10.1467 12.797 10.1387 12.7571C10.1068 12.6454 10.0789 12.5456 10.0549 12.4578C10.039 12.3621 10.027 12.2823 10.019 12.2184L9.92326 11.8354C9.88336 11.6199 9.84346 11.4005 9.80356 11.177C9.77164 11.0494 9.73972 10.9456 9.7078 10.8658C9.64396 10.7461 9.59608 10.6504 9.56416 10.5785C9.47638 10.403 9.42052 10.2913 9.39658 10.2434C9.33274 10.1396 9.25294 10.0439 9.15718 9.95609C9.06142 9.86831 8.98561 9.80846 8.92975 9.77654C8.84197 9.72068 8.75419 9.67679 8.66641 9.64487C8.5068 9.58901 8.3472 9.56108 8.1876 9.56108C8.1078 9.56108 8.01204 9.57305 7.90032 9.59699C7.7886 9.61295 7.71678 9.62093 7.68486 9.62093C7.61304 9.61295 7.52925 9.58901 7.43349 9.54911C7.33773 9.50123 7.24995 9.4733 7.17015 9.46532C7.09833 9.44936 7.02251 9.43739 6.94271 9.42941C6.86291 9.41345 6.75917 9.40547 6.63149 9.40547C6.51977 9.40547 6.41204 9.40946 6.3083 9.41744C6.21254 9.41744 6.11279 9.4334 6.00905 9.46532C5.90531 9.49724 5.81354 9.54113 5.73374 9.59699C5.68586 9.62891 5.60606 9.69674 5.49434 9.80048C5.19907 10.0878 5.05144 10.4349 5.05144 10.8419C5.05144 10.9297 5.07538 11.0414 5.12326 11.177C5.17114 11.3127 5.19508 11.4204 5.19508 11.5002C5.19508 11.6439 5.17513 11.7835 5.13523 11.9192C5.09533 12.0469 5.0674 12.1386 5.05144 12.1945C4.93174 12.4179 4.83997 12.5815 4.77613 12.6853C4.72027 12.789 4.69234 12.8928 4.69234 12.9965C4.69234 13.0763 4.69633 13.1322 4.70431 13.1641C4.71229 13.212 4.7482 13.2957 4.81204 13.4154C4.828 13.4633 4.87588 13.5272 4.95568 13.607C5.03548 13.6868 5.08735 13.7626 5.11129 13.8344C5.13523 13.9062 5.1472 13.978 5.1472 14.0499C5.1472 14.1057 5.13922 14.1815 5.12326 14.2773C5.11528 14.3731 5.11129 14.4249 5.11129 14.4329C5.11129 14.5366 5.10331 14.6324 5.08735 14.7202C5.07937 14.8 5.05543 14.9037 5.01553 15.0314C4.95169 15.191 4.89184 15.3506 4.83598 15.5102C4.828 15.5501 4.82401 15.61 4.82401 15.6898C4.82401 15.8174 4.85992 15.9491 4.93174 16.0848C4.97962 16.1726 5.05942 16.2484 5.17114 16.3122C5.28286 16.3681 5.37065 16.412 5.43449 16.4439L5.85344 16.6234C6.02102 16.6873 6.16466 16.7351 6.28436 16.7671C6.40406 16.799 6.55169 16.8309 6.72725 16.8628C6.79109 16.8708 6.87887 16.8788 6.99059 16.8868C7.10232 16.8947 7.20207 16.8987 7.28985 16.8987C7.39359 16.8987 7.49733 16.8987 7.60107 16.8987C7.71279 16.8987 7.8285 16.8947 7.9482 16.8868C8.24346 16.8868 8.53473 16.8389 8.82202 16.7431C8.9497 16.6952 9.04147 16.6593 9.09733 16.6354C9.20107 16.5875 9.28885 16.5317 9.36067 16.4678C9.43249 16.404 9.50032 16.3282 9.56416 16.2404C9.59608 16.1925 9.64795 16.1007 9.71977 15.9651C9.75967 15.8693 9.79558 15.7496 9.8275 15.606C9.8674 15.4623 9.90331 15.3546 9.93523 15.2828C9.96715 15.211 10.0031 15.1272 10.043 15.0314C10.0509 15.0075 10.0589 14.9676 10.0669 14.9117C10.0669 14.8718 10.0709 14.8319 10.0789 14.792C10.0789 14.7521 10.0789 14.7122 10.0789 14.6723C10.0709 14.6005 10.0629 14.5247 10.0549 14.4449C10.0549 14.4129 10.0629 14.3571 10.0789 14.2773C10.0948 14.1975 10.1268 14.1097 10.1746 14.0139C10.2225 13.9102 10.2544 13.8105 10.2704 13.7147C10.2864 13.6189 10.2943 13.5152 10.2943 13.4035C10.2943 13.3237 10.2903 13.2598 10.2824 13.212Z" fill="#212121"/>
<path d="M21.4187 17.2818C21.3868 17.3456 21.331 17.4134 21.2512 17.4853C21.1714 17.5491 21.1075 17.601 21.0596 17.6409C20.9319 17.7366 20.8123 17.8125 20.7005 17.8683C20.5968 17.9242 20.4771 17.9681 20.3414 18C20.2137 18.0319 20.0861 18.0479 19.9584 18.0479C19.7908 18.0399 19.6591 18.0359 19.5634 18.0359C19.2601 18.0359 18.9689 17.9721 18.6896 17.8444C18.6497 17.8284 18.5778 17.7765 18.4741 17.6888C18.3783 17.593 18.2906 17.5451 18.2108 17.5451C18.1389 17.5451 18.0751 17.5611 18.0192 17.593C17.9235 17.6568 17.8277 17.7207 17.7319 17.7845C17.6601 17.8164 17.5763 17.8563 17.4806 17.9042C17.3928 17.9441 17.2891 17.976 17.1694 18C17.0497 18.0239 16.9379 18.0359 16.8342 18.0359C16.7464 18.0359 16.6307 18.0279 16.4871 18.012C16.3434 18.004 16.2596 18 16.2357 18C16.092 18 15.9843 18 15.9125 18C15.7928 18 15.6811 17.992 15.5773 17.976C15.4736 17.9521 15.3699 17.9082 15.2661 17.8444C15.1704 17.7805 15.0906 17.7087 15.0267 17.6289C14.9469 17.5012 14.8791 17.4015 14.8232 17.3297C14.7674 17.2499 14.7075 17.1661 14.6437 17.0783C14.5798 16.9825 14.5439 16.8788 14.5359 16.7671C14.5359 16.7032 14.5439 16.6274 14.5599 16.5396C14.5838 16.4439 14.5958 16.38 14.5958 16.3481C14.5958 16.2524 14.5998 16.1247 14.6078 15.9651C14.6157 15.7975 14.6197 15.6658 14.6197 15.5701L14.6796 15.0673C14.7275 14.8678 14.7674 14.7282 14.7993 14.6484C14.8312 14.5686 14.903 14.4688 15.0147 14.3491C15.0626 14.2932 15.1344 14.2334 15.2302 14.1696C15.326 14.1057 15.3938 14.0538 15.4337 14.0139C15.5135 13.9262 15.5933 13.8424 15.6731 13.7626C15.7609 13.6748 15.8965 13.599 16.0801 13.5351C16.2716 13.4713 16.4033 13.4234 16.4751 13.3915C16.5868 13.3356 16.7105 13.2678 16.8462 13.188C16.926 13.1401 17.0297 13.0763 17.1574 12.9965C17.293 12.9087 17.4127 12.8289 17.5165 12.7571C17.6282 12.6853 17.7319 12.5975 17.8277 12.4937C17.9793 12.3341 18.0831 12.2105 18.1389 12.1227C18.2028 12.0269 18.2626 11.8992 18.3185 11.7396C18.3823 11.58 18.4262 11.4204 18.4502 11.2608C18.4741 11.1012 18.4861 10.9416 18.4861 10.782C18.4861 10.7022 18.4901 10.6264 18.498 10.5546C18.506 10.4748 18.514 10.399 18.522 10.3272C18.522 10.2075 18.4901 10.0997 18.4262 10.004C18.3624 9.90821 18.2826 9.8324 18.1868 9.77654C18.099 9.7127 17.9993 9.68078 17.8876 9.68078C17.7918 9.68078 17.692 9.70871 17.5883 9.76457C17.4925 9.82043 17.4008 9.8723 17.313 9.92018C17.1215 10.0319 16.9339 10.1396 16.7504 10.2434C16.6546 10.2833 16.5469 10.3152 16.4272 10.3391C16.3075 10.3631 16.1798 10.387 16.0442 10.411C15.9085 10.4269 15.7609 10.4469 15.6013 10.4708C15.5215 10.4708 15.4377 10.4548 15.3499 10.4229C15.2621 10.383 15.1823 10.3391 15.1105 10.2913C15.0467 10.2434 15.0028 10.1795 14.9788 10.0997C14.9549 10.0199 14.9589 9.93614 14.9908 9.84836C15.1105 9.68078 15.1983 9.5531 15.2541 9.46532C15.3419 9.32966 15.4377 9.21395 15.5414 9.11819C15.5973 9.06233 15.717 8.97056 15.9005 8.84288C16.092 8.70722 16.2596 8.59948 16.4033 8.51968C16.5469 8.43988 16.7225 8.37604 16.93 8.32816C17.1374 8.2723 17.3968 8.24437 17.708 8.24437C17.9714 8.24437 18.2068 8.2723 18.4142 8.32816C18.6217 8.38402 18.8531 8.47579 19.1085 8.60347C19.308 8.69924 19.4397 8.76707 19.5035 8.80696C19.6232 8.87879 19.727 8.97854 19.8147 9.10622C19.9105 9.22592 19.9863 9.37355 20.0422 9.54911C20.0661 9.62093 20.106 9.78452 20.1619 10.0399C20.2177 10.2952 20.2457 10.5426 20.2457 10.782C20.2457 10.8618 20.2417 10.9895 20.2337 11.1651C20.2257 11.3406 20.2217 11.4843 20.2217 11.596L20.2457 13.3317C20.2457 13.4753 20.2417 13.6668 20.2337 13.9062C20.2257 14.1456 20.2217 14.3411 20.2217 14.4928C20.2217 14.5965 20.1978 14.7401 20.1499 14.9237C20.11 15.1072 20.0901 15.2309 20.0901 15.2947C20.0901 15.3586 20.094 15.4105 20.102 15.4504C20.1499 15.6898 20.1938 15.8494 20.2337 15.9292C20.2816 16.009 20.3574 16.0888 20.4611 16.1686C20.517 16.2085 20.6048 16.2524 20.7245 16.3002C20.8442 16.3401 20.9399 16.3721 21.0117 16.396C21.0836 16.4199 21.1514 16.4439 21.2152 16.4678C21.2791 16.4918 21.3349 16.5317 21.3828 16.5875C21.4626 16.6913 21.5025 16.807 21.5025 16.9346C21.5025 17.0224 21.4746 17.1381 21.4187 17.2818ZM18.4262 16.0848C18.4502 16.0209 18.4621 15.9611 18.4621 15.9052C18.4621 15.8573 18.4541 15.8015 18.4382 15.7376C18.4222 15.6738 18.4023 15.598 18.3783 15.5102C18.3544 15.4224 18.3305 15.3227 18.3065 15.211C18.3065 15.1711 18.3265 15.1192 18.3664 15.0553C18.4063 14.9915 18.4262 14.9356 18.4262 14.8878C18.4262 14.8239 18.4023 14.7521 18.3544 14.6723C18.3065 14.5925 18.2786 14.5326 18.2706 14.4928C18.2626 14.4129 18.2706 14.3212 18.2945 14.2174C18.3185 14.1137 18.3305 14.0459 18.3305 14.0139C18.3384 13.9661 18.3424 13.8982 18.3424 13.8105C18.3424 13.7626 18.3384 13.7227 18.3305 13.6908C18.2985 13.5312 18.2546 13.4274 18.1988 13.3795C18.1509 13.3237 18.095 13.2957 18.0312 13.2957C17.9434 13.2957 17.8357 13.3596 17.708 13.4873C17.5165 13.6788 17.4048 13.7865 17.3728 13.8105C17.2292 13.9142 17.1295 13.99 17.0736 14.0379C16.9778 14.1177 16.898 14.2095 16.8342 14.3132C16.7464 14.4728 16.6826 14.6324 16.6427 14.792C16.6028 14.9516 16.5748 15.0713 16.5589 15.1511C16.5509 15.2229 16.5469 15.3027 16.5469 15.3905C16.5469 15.4384 16.5549 15.5341 16.5709 15.6778C16.5868 15.8134 16.6028 15.9172 16.6187 15.989C16.6427 16.0529 16.6945 16.1327 16.7743 16.2284C16.918 16.404 17.0975 16.5037 17.313 16.5277C17.4487 16.5516 17.5684 16.5436 17.6721 16.5037C17.7838 16.4558 17.8636 16.4239 17.9115 16.408C18.0871 16.3361 18.1868 16.2962 18.2108 16.2883C18.3145 16.2404 18.3863 16.1726 18.4262 16.0848Z" fill="#212121"/>
<path d="M29.3535 8.98652C29.3694 9.02642 29.3694 9.08627 29.3535 9.16607C29.3375 9.24587 29.3295 9.29774 29.3295 9.32168C29.3295 9.40946 29.3295 9.47729 29.3295 9.52517C29.3295 9.66083 29.3176 9.77255 29.2936 9.86033C29.2458 10.0598 29.166 10.2274 29.0542 10.3631C28.8946 10.5706 28.7071 10.6903 28.4916 10.7222C28.4597 10.7302 28.4118 10.7341 28.348 10.7341C28.2682 10.7341 28.1844 10.7222 28.0966 10.6982C28.0168 10.6743 27.949 10.6543 27.8931 10.6384C27.7734 10.5985 27.6817 10.5666 27.6178 10.5426C27.562 10.5187 27.5061 10.4828 27.4502 10.4349C27.4024 10.387 27.3585 10.3112 27.3186 10.2075C27.2787 10.0957 27.2388 10.0199 27.1989 9.98003C27.159 9.93215 27.1151 9.88427 27.0672 9.83639C27.0193 9.78851 26.9635 9.76457 26.8996 9.76457C26.8597 9.77255 26.7919 9.8324 26.6961 9.94412C26.6323 10.0159 26.5884 10.0638 26.5645 10.0878C26.5166 10.1356 26.4807 10.1875 26.4567 10.2434C26.4089 10.3312 26.3769 10.4389 26.361 10.5666C26.345 10.6863 26.337 10.7581 26.337 10.782C26.337 10.8538 26.345 10.9456 26.361 11.0573C26.3849 11.1611 26.3969 11.2289 26.3969 11.2608L26.361 11.7995L26.3011 12.6733L26.2772 13.2718V14.5526C26.2772 14.7122 26.2732 14.8598 26.2652 14.9955C26.2572 15.1312 26.2493 15.2628 26.2413 15.3905C26.2413 15.4703 26.2453 15.5541 26.2532 15.6419C26.2612 15.7217 26.2772 15.8095 26.3011 15.9052C26.3251 15.993 26.349 16.0768 26.3729 16.1566C26.4049 16.2364 26.4448 16.3202 26.4926 16.408C26.5485 16.4957 26.6522 16.5875 26.8039 16.6833C26.9555 16.7711 27.0592 16.8509 27.1151 16.9227C27.1789 16.9945 27.2428 17.0703 27.3066 17.1501C27.3704 17.2219 27.3944 17.3057 27.3784 17.4015C27.3784 17.5292 27.2986 17.6369 27.139 17.7247C27.0752 17.7646 27.0034 17.7845 26.9236 17.7845C26.8118 17.7686 26.7241 17.7606 26.6602 17.7606H25.8582H25.3196C25.2398 17.7606 25.164 17.7606 25.0921 17.7606C25.0762 17.7606 24.9525 17.7805 24.7211 17.8204C24.6413 17.8284 24.5535 17.8484 24.4577 17.8803C24.3699 17.9042 24.2981 17.9242 24.2423 17.9401C24.1944 17.9481 24.1186 17.9681 24.0148 18C23.9111 18.0399 23.8273 18.0598 23.7635 18.0598C23.6438 18.0758 23.5241 18.0918 23.4044 18.1077C23.3405 18.1077 23.2807 18.0918 23.2248 18.0598C23.1211 17.996 23.0532 17.9122 23.0213 17.8085C22.9974 17.6967 22.9854 17.6289 22.9854 17.605C22.9854 17.4853 23.0333 17.3576 23.1291 17.2219C23.1769 17.1581 23.2488 17.1022 23.3445 17.0543C23.4403 17.0065 23.5081 16.9706 23.548 16.9466C23.7076 16.8668 23.8193 16.811 23.8832 16.779C24.0029 16.7152 24.0906 16.6394 24.1465 16.5516C24.2103 16.4638 24.2463 16.3481 24.2542 16.2045C24.2702 16.0608 24.2822 15.9411 24.2901 15.8454C24.3061 15.7496 24.3141 15.6738 24.3141 15.6179C24.3141 15.5541 24.3141 15.5102 24.3141 15.4863C24.3141 15.3506 24.3141 15.2349 24.3141 15.1391C24.3141 15.0354 24.3221 14.9197 24.338 14.792C24.362 14.6563 24.3899 14.4967 24.4218 14.3132C24.4138 14.2414 24.3819 14.1576 24.3261 14.0618C24.2782 13.9581 24.2502 13.8823 24.2423 13.8344C24.2343 13.8025 24.2303 13.7745 24.2303 13.7506C24.2303 13.7107 24.2303 13.6828 24.2303 13.6668C24.2303 13.595 24.2383 13.5112 24.2542 13.4154C24.2702 13.3117 24.2862 13.212 24.3021 13.1162C24.3021 13.0284 24.3101 12.9167 24.3261 12.781C24.35 12.6374 24.362 12.5496 24.362 12.5177C24.362 12.374 24.358 12.2464 24.35 12.1346C24.342 12.0149 24.3261 11.8952 24.3021 11.7755C24.2862 11.6479 24.2702 11.5441 24.2542 11.4643C24.2383 11.3845 24.2103 11.2928 24.1704 11.189C24.1385 11.0773 24.1066 10.9696 24.0747 10.8658C24.0268 10.7621 23.967 10.6823 23.8951 10.6264C23.8313 10.5626 23.7395 10.5227 23.6198 10.5067C23.5001 10.4828 23.4044 10.4548 23.3325 10.4229C23.2687 10.391 23.2009 10.3591 23.1291 10.3272C23.0572 10.2873 23.0094 10.2394 22.9854 10.1835C22.9615 10.1197 22.9495 10.0638 22.9495 10.0159C22.9495 9.9122 22.9894 9.80048 23.0692 9.68078C23.1251 9.60098 23.2009 9.54512 23.2966 9.5132C23.4004 9.4733 23.5041 9.43739 23.6079 9.40547L24.2423 9.20198C24.3939 9.14612 24.4777 9.1142 24.4936 9.10622C24.5814 9.06632 24.6652 9.02642 24.745 8.98652C24.8807 8.92268 25.0044 8.85086 25.1161 8.77106C25.2597 8.65933 25.3754 8.57155 25.4632 8.50771C25.4872 8.49175 25.551 8.4319 25.6547 8.32816C25.7266 8.25634 25.7944 8.21644 25.8582 8.20846C25.954 8.20048 26.0298 8.20846 26.0857 8.2324C26.1495 8.25634 26.2054 8.3122 26.2532 8.39998C26.3011 8.48776 26.349 8.54362 26.3969 8.56756C26.4847 8.6314 26.5724 8.66332 26.6602 8.66332C26.732 8.66332 26.7919 8.64736 26.8398 8.61544C26.9276 8.5516 27.0193 8.48776 27.1151 8.42392C27.2827 8.34412 27.4303 8.28826 27.558 8.25634C27.6857 8.22442 27.7934 8.20048 27.8812 8.18452C27.9769 8.16058 28.0607 8.14861 28.1325 8.14861C28.2283 8.14861 28.3161 8.16457 28.3959 8.19649C28.4198 8.20447 28.4996 8.24836 28.6353 8.32816C28.7071 8.36806 28.7749 8.42791 28.8388 8.50771C28.9106 8.57953 28.9824 8.65135 29.0542 8.72318C29.0702 8.73914 29.1181 8.77505 29.1979 8.83091C29.2857 8.88677 29.3375 8.93864 29.3535 8.98652Z" fill="#212121"/>
<path d="M41.212 17.7247C41.1881 17.8603 41.1162 17.9721 40.9965 18.0598C40.9487 18.0997 40.8808 18.1197 40.7931 18.1197C40.7452 18.1197 40.6694 18.1077 40.5656 18.0838C40.4699 18.0678 40.406 18.0598 40.3741 18.0598C40.2464 18.0598 40.1586 18.0558 40.1108 18.0479C39.9671 18.0159 39.8235 17.988 39.6798 17.9641L38.6025 17.8803L38.1836 17.8444C38.0958 17.8444 37.9841 17.8603 37.8484 17.8923C37.7207 17.9162 37.613 17.9361 37.5252 17.9521C37.4454 17.9681 37.3457 17.984 37.226 18C37.1063 17.992 36.9985 17.9441 36.9028 17.8563C36.807 17.7606 36.7512 17.6768 36.7352 17.605C36.7192 17.5331 36.7113 17.4653 36.7113 17.4015C36.7113 17.3536 36.7192 17.2898 36.7352 17.21C36.7591 17.1302 36.7751 17.0743 36.7831 17.0424C36.8469 16.8908 36.9148 16.7391 36.9866 16.5875L37.0225 16.2643C37.0145 16.1606 36.9786 16.0648 36.9148 15.977C36.8589 15.8813 36.803 15.7895 36.7472 15.7017C36.6993 15.606 36.6394 15.5062 36.5676 15.4025C36.4958 15.2908 36.436 15.199 36.3881 15.1272C36.3003 14.9835 36.2365 14.8798 36.1965 14.8159C36.1566 14.7441 36.0928 14.6524 36.005 14.5406C35.9172 14.4209 35.8295 14.3012 35.7417 14.1815C35.6539 14.0618 35.5661 13.9661 35.4783 13.8942C35.3906 13.8224 35.3267 13.7706 35.2868 13.7386C35.215 13.6828 35.1432 13.6548 35.0714 13.6548C34.9995 13.6548 34.9437 13.6628 34.9038 13.6788C34.8559 13.6947 34.7721 13.7466 34.6524 13.8344C34.5008 13.9701 34.401 14.1416 34.3532 14.3491C34.3372 14.4289 34.3412 14.5287 34.3651 14.6484C34.397 14.7681 34.413 14.8479 34.413 14.8878C34.413 14.9596 34.417 15.0274 34.425 15.0913C34.433 15.1551 34.4409 15.2189 34.4489 15.2828C34.4489 15.3466 34.437 15.4144 34.413 15.4863C34.3172 15.59 34.2574 15.6818 34.2335 15.7616C34.2095 15.8414 34.1975 15.9132 34.1975 15.977C34.1975 16.0409 34.2095 16.1087 34.2335 16.1805C34.2574 16.2444 34.2893 16.3042 34.3292 16.3601C34.3691 16.408 34.413 16.4678 34.4609 16.5396C34.5088 16.6035 34.5606 16.6713 34.6165 16.7431C34.6724 16.807 34.7242 16.8668 34.7721 16.9227C34.8838 17.0264 34.9956 17.1262 35.1073 17.2219C35.1631 17.2937 35.219 17.3656 35.2749 17.4374C35.3387 17.5012 35.3706 17.577 35.3706 17.6648C35.3706 17.8324 35.3227 17.9561 35.227 18.0359C35.1951 18.0598 35.0953 18.0798 34.9277 18.0957H34.4729L33.9342 18.0598L33.5512 18C33.4474 18 33.3237 18.004 33.1801 18.012C33.0364 18.0279 32.9606 18.0359 32.9527 18.0359C32.7771 18.0279 32.6454 18.0239 32.5576 18.0239C32.4619 18.0239 32.3821 18.0279 32.3182 18.0359C32.2783 18.0359 32.1866 18.0558 32.0429 18.0957C31.9871 18.1117 31.9312 18.1197 31.8754 18.1197C31.8115 18.1197 31.7676 18.1197 31.7437 18.1197C31.624 18.1197 31.5123 18.1037 31.4085 18.0718C31.3048 18.0399 31.2369 18.0159 31.205 18C31.1571 17.976 31.0893 17.9322 31.0015 17.8683C30.9217 17.8045 30.8739 17.7366 30.8579 17.6648C30.8419 17.593 30.8659 17.5292 30.9297 17.4733C30.9936 17.4095 31.0614 17.3376 31.1332 17.2578C31.205 17.178 31.2609 17.1142 31.3008 17.0663C31.3726 16.9865 31.4444 16.9267 31.5163 16.8868C31.6439 16.8389 31.7716 16.791 31.8993 16.7431C31.9951 16.6793 32.0709 16.5915 32.1267 16.4798C32.1826 16.3681 32.2105 16.2524 32.2105 16.1327C32.1946 15.997 32.1866 15.8893 32.1866 15.8095C32.1946 15.7616 32.1985 15.7217 32.1985 15.6898L32.2943 15.1511L32.3182 14.7322C32.3182 14.6524 32.3063 14.5566 32.2823 14.4449C32.2664 14.3331 32.2584 14.2613 32.2584 14.2294C32.2584 14.1257 32.2624 14.0459 32.2704 13.99C32.2863 13.9262 32.3023 13.8543 32.3182 13.7745L32.4379 13.1162C32.4699 12.9327 32.5018 12.7451 32.5337 12.5536C32.5337 12.402 32.5257 12.2304 32.5098 12.0389C32.5018 11.8394 32.4978 11.7317 32.4978 11.7157C32.4978 11.6359 32.5018 11.5441 32.5098 11.4404C32.5257 11.3287 32.5337 11.2688 32.5337 11.2608C32.5257 11.189 32.4978 11.1012 32.4499 10.9975C32.41 10.8937 32.3821 10.806 32.3661 10.7341C32.3581 10.6543 32.3542 10.5346 32.3542 10.375C32.3542 10.2154 32.3542 10.0838 32.3542 9.98003C32.3542 9.78851 32.3621 9.56108 32.3781 9.29774C32.402 9.0344 32.414 8.87081 32.414 8.80696L32.4379 7.94512C32.4379 7.86532 32.4419 7.77355 32.4499 7.66981C32.4659 7.55809 32.4739 7.49824 32.4739 7.49026C32.4659 7.4344 32.4459 7.36657 32.414 7.28677C32.3821 7.19899 32.3621 7.14711 32.3542 7.13116C32.3382 7.06731 32.3182 6.99151 32.2943 6.90372C32.2704 6.80796 32.2584 6.70422 32.2584 6.5925C32.2664 6.54462 32.2783 6.49275 32.2943 6.43689C32.3103 6.38103 32.3342 6.30123 32.3661 6.19749C32.406 6.08577 32.4499 5.95809 32.4978 5.81445C32.4978 5.75859 32.4778 5.69475 32.4379 5.62293C32.406 5.54313 32.3861 5.48726 32.3781 5.45534C32.3701 5.3915 32.3701 5.32367 32.3781 5.25185C32.3861 5.18003 32.3941 5.10821 32.402 5.03639C32.402 4.97255 32.3901 4.9127 32.3661 4.85684C32.3502 4.80098 32.3063 4.73714 32.2345 4.66532C32.1706 4.5935 32.1148 4.53764 32.0669 4.49774C32.027 4.44986 31.9591 4.39799 31.8634 4.34213C31.7676 4.27829 31.6998 4.23041 31.6599 4.19849C31.5801 4.12667 31.5322 4.08278 31.5163 4.06682C31.4764 4.01894 31.4404 3.97106 31.4085 3.92317C31.3766 3.87529 31.3527 3.8314 31.3367 3.7915C31.2888 3.7117 31.2689 3.63988 31.2768 3.57604C31.2768 3.5122 31.2928 3.46033 31.3247 3.42043C31.3407 3.40447 31.4245 3.34462 31.5761 3.24088C31.6479 3.193 31.7277 3.16108 31.8155 3.14512C31.9033 3.12916 31.9911 3.1132 32.0788 3.09724L32.6773 2.91769C32.821 2.86183 32.9606 2.80198 33.0963 2.73814C33.1522 2.7142 33.2798 2.64637 33.4793 2.53465C33.6788 2.42293 33.7906 2.35909 33.8145 2.34312C33.9422 2.26333 34.0419 2.18751 34.1138 2.11569C34.1856 2.03589 34.2534 1.92417 34.3172 1.78053C34.3891 1.63689 34.4409 1.54512 34.4729 1.50522C34.5367 1.38552 34.5886 1.29375 34.6285 1.22991C34.6764 1.15809 34.7442 1.12218 34.832 1.12218C34.9277 1.10622 35.0075 1.12218 35.0714 1.17006C35.1432 1.20996 35.199 1.26582 35.2389 1.33764C35.2788 1.40946 35.2988 1.48128 35.2988 1.5531C35.2988 1.60098 35.2908 1.65684 35.2749 1.72068C35.2589 1.77654 35.2389 1.85634 35.215 1.96008C35.199 2.06382 35.1751 2.15958 35.1432 2.24736C35.0873 2.38303 35.0434 2.48677 35.0115 2.55859C34.9078 2.74213 34.808 2.92168 34.7123 3.09724C34.7043 3.12118 34.6923 3.16906 34.6763 3.24088C34.6604 3.30472 34.6524 3.35659 34.6524 3.39649C34.6524 3.44437 34.6564 3.50023 34.6644 3.56407C34.6803 3.61993 34.6963 3.68377 34.7123 3.75559C34.7123 3.80347 34.7163 3.86333 34.7242 3.93515C34.7322 3.99899 34.7362 4.06682 34.7362 4.13864C34.7362 4.18652 34.7282 4.25834 34.7123 4.3541C34.7043 4.44188 34.6883 4.52168 34.6644 4.5935C34.6404 4.65734 34.6165 4.72916 34.5926 4.80896C34.5766 4.88876 34.5606 4.96457 34.5447 5.03639C34.5367 5.10023 34.5327 5.192 34.5327 5.3117C34.5327 5.36756 34.5487 5.45135 34.5806 5.56308C34.6125 5.66682 34.6285 5.74263 34.6285 5.79051C34.6285 5.88627 34.6245 5.96208 34.6165 6.01794C34.5846 6.2334 34.5686 6.35709 34.5686 6.38901V6.7122C34.5686 6.76806 34.5567 6.83988 34.5327 6.92766C34.5168 7.01544 34.5088 7.07529 34.5088 7.10721C34.5088 7.13913 34.5287 7.22293 34.5686 7.35859C34.5846 7.41445 34.5926 7.47031 34.5926 7.52617C34.6085 7.60597 34.6165 7.70971 34.6165 7.83739C34.6165 7.96507 34.6205 8.06881 34.6285 8.14861C34.6285 8.27629 34.6245 8.36407 34.6165 8.41195C34.5846 8.55559 34.5567 8.69924 34.5327 8.84288L34.5088 9.34562V9.76457C34.5088 9.85235 34.5088 9.93215 34.5088 10.004C34.5088 10.0678 34.5128 10.1476 34.5207 10.2434C34.5367 10.3312 34.5606 10.4269 34.5926 10.5307C34.6325 10.6264 34.6524 10.7022 34.6524 10.7581C34.6604 10.8219 34.6604 10.8858 34.6524 10.9496C34.6444 11.0055 34.6365 11.0613 34.6285 11.1172C34.5965 11.3007 34.5646 11.4843 34.5327 11.6678C34.5327 11.7955 34.5646 11.8913 34.6285 11.9551C34.6923 12.011 34.7801 12.0389 34.8918 12.0389C34.9716 12.0389 35.0434 12.0149 35.1073 11.9671C35.1791 11.9112 35.2469 11.8553 35.3108 11.7995C35.4464 11.7117 35.5621 11.6239 35.6579 11.5361C35.6978 11.4962 35.8015 11.3845 35.9691 11.201C36.0569 11.1052 36.1646 10.9735 36.2923 10.806C36.42 10.6384 36.5237 10.5027 36.6035 10.399L36.9626 9.92018C36.9706 9.90422 37.0265 9.84038 37.1302 9.72866C37.202 9.64886 37.2459 9.57305 37.2619 9.50123C37.2699 9.47729 37.2739 9.45335 37.2739 9.42941C37.2739 9.39749 37.2739 9.37754 37.2739 9.36956C37.2739 9.26582 37.2539 9.17006 37.214 9.08228C37.1821 8.9945 37.1262 8.9147 37.0464 8.84288C36.9746 8.77106 36.9267 8.7112 36.9028 8.66332C36.8709 8.61544 36.8429 8.56357 36.819 8.50771C36.7951 8.45185 36.7911 8.392 36.807 8.32816C36.831 8.24836 36.8868 8.1925 36.9746 8.16058C37.0704 8.12866 37.1462 8.10472 37.202 8.08876C37.2659 8.0728 37.3138 8.06482 37.3457 8.06482C37.4175 8.06482 37.5133 8.08477 37.633 8.12467C37.7606 8.15659 37.8724 8.18053 37.9681 8.19649C38.0639 8.20447 38.2075 8.20846 38.399 8.20846C38.5906 8.20846 38.7781 8.20846 38.9616 8.20846L39.5601 8.26831C39.7197 8.28427 39.8474 8.29624 39.9432 8.30422C40.0389 8.3122 40.1307 8.33215 40.2185 8.36407C40.3063 8.39599 40.3941 8.42791 40.4818 8.45983C40.5696 8.49175 40.6215 8.54761 40.6374 8.62741C40.6534 8.70722 40.6375 8.78303 40.5896 8.85485C40.5417 8.91869 40.5098 8.96258 40.4938 8.98652C40.438 9.06632 40.3382 9.13415 40.1946 9.19001C40.0509 9.24587 39.9472 9.29375 39.8833 9.33365C39.8275 9.37355 39.7477 9.44537 39.6439 9.54911C39.5402 9.64487 39.4644 9.70871 39.4165 9.74063L38.9616 9.94412C38.9058 9.97604 38.818 10.0439 38.6983 10.1476C38.5866 10.2434 38.4948 10.3152 38.423 10.3631L37.7407 10.8179C37.6369 10.8818 37.5332 10.9496 37.4295 11.0214C37.3337 11.0853 37.2499 11.1531 37.1781 11.2249C37.1063 11.2967 37.0584 11.3446 37.0345 11.3686C36.9467 11.4563 36.8908 11.5361 36.8669 11.608C36.8509 11.6798 36.8429 11.7317 36.8429 11.7636C36.8429 11.8274 36.8549 11.8992 36.8788 11.979C36.9028 12.0509 36.9307 12.1227 36.9626 12.1945C37.0105 12.3621 37.0863 12.5297 37.1901 12.6972C37.2938 12.8568 37.3975 13.0164 37.5013 13.176C37.613 13.4075 37.6888 13.5711 37.7287 13.6668C37.7766 13.7546 37.8684 13.9102 38.004 14.1336C38.0439 14.2055 38.1078 14.3092 38.1956 14.4449C38.2833 14.5726 38.3591 14.6803 38.423 14.7681C38.5347 14.9197 38.6305 15.0434 38.7103 15.1391C38.798 15.2269 38.8938 15.3227 38.9975 15.4264C39.1172 15.578 39.205 15.6858 39.2609 15.7496C39.4045 15.9252 39.5641 16.0967 39.7397 16.2643C39.8833 16.392 40.015 16.5037 40.1347 16.5995C40.398 16.799 40.5377 16.9067 40.5537 16.9227C40.6973 17.0105 40.7971 17.0703 40.8529 17.1022C40.9566 17.1661 41.0404 17.2578 41.1043 17.3775C41.1761 17.4972 41.212 17.6129 41.212 17.7247Z" fill="#212121"/>
<path d="M46.9193 3.39649C46.9193 3.50023 46.8794 3.61993 46.7996 3.75559C46.7756 3.79549 46.7397 3.83938 46.6918 3.88726C46.644 3.93514 46.612 3.97106 46.5961 3.995L46.4764 4.19849C46.4445 4.23041 46.4006 4.26233 46.3447 4.29425C46.2888 4.32617 46.233 4.3541 46.1771 4.37804C46.0814 4.44188 45.9896 4.50173 45.9018 4.55759C45.8539 4.57355 45.7542 4.57355 45.6026 4.55759C45.4669 4.55759 45.3312 4.53764 45.1956 4.49774C45.0679 4.45784 44.9881 4.4339 44.9562 4.42592C44.8684 4.394 44.8006 4.34612 44.7527 4.28228C44.7048 4.21844 44.6729 4.15859 44.6569 4.10273C44.6489 4.04687 44.633 3.94712 44.609 3.80347C44.5851 3.65983 44.5731 3.57604 44.5731 3.5521C44.5652 3.49624 44.5612 3.41644 44.5612 3.3127C44.5612 3.17704 44.5771 3.05734 44.609 2.9536C44.6489 2.84986 44.6809 2.77006 44.7048 2.7142C44.7287 2.65834 44.7647 2.61046 44.8125 2.57056C44.8684 2.52268 44.9282 2.48677 44.9921 2.46283C45.0559 2.43889 45.1198 2.41894 45.1836 2.40298C45.2554 2.38702 45.3273 2.37904 45.3991 2.37904C45.4709 2.37904 45.5307 2.37904 45.5786 2.37904C45.6983 2.37904 45.7861 2.38303 45.842 2.39101C45.8819 2.39899 45.9657 2.42293 46.0933 2.46283C46.229 2.50273 46.3088 2.53066 46.3327 2.54662C46.3487 2.5546 46.3926 2.58652 46.4644 2.64238C46.5362 2.69026 46.5881 2.73814 46.62 2.78602C46.644 2.81794 46.6799 2.8738 46.7277 2.9536C46.7756 3.0334 46.8195 3.10921 46.8594 3.18103C46.8993 3.24487 46.9193 3.31669 46.9193 3.39649ZM47.6375 17.7606C47.6135 17.7925 47.5736 17.8244 47.5178 17.8563C47.4699 17.8883 47.41 17.9162 47.3382 17.9401C47.2664 17.9561 47.1986 17.9641 47.1347 17.9641C47.0709 17.9641 47.011 17.9641 46.9552 17.9641C46.9233 17.9721 46.8754 17.984 46.8115 18C46.7557 18.0239 46.7118 18.0359 46.6799 18.0359C46.616 18.0359 46.5362 18.0159 46.4405 17.976C46.3527 17.9361 46.2769 17.9122 46.213 17.9042C46.1572 17.8883 46.0574 17.8803 45.9138 17.8803C45.826 17.8803 45.7542 17.8803 45.6983 17.8803C45.5946 17.8803 45.4749 17.9002 45.3392 17.9401C45.2036 17.9721 45.0839 18.004 44.9801 18.0359C44.9083 18.0359 44.8205 18.0279 44.7168 18.012C44.621 18.004 44.5691 18 44.5612 18C44.5213 18 44.4654 18.0159 44.3936 18.0479C44.3218 18.0798 44.2659 18.0957 44.226 18.0957L43.9028 18.0598C43.8629 18.0598 43.7871 18.0678 43.6754 18.0838C43.5637 18.1077 43.4799 18.1117 43.424 18.0957C43.3761 18.0798 43.3362 18.0638 43.3043 18.0479C43.2724 18.0319 43.2125 17.984 43.1248 17.9042C43.0689 17.8723 43.013 17.8364 42.9572 17.7965C42.9013 17.7486 42.8654 17.6967 42.8494 17.6409C42.8415 17.5611 42.8494 17.4932 42.8734 17.4374C42.8973 17.3975 42.9372 17.3416 42.9931 17.2698C43.0489 17.19 43.1208 17.1341 43.2085 17.1022C43.2963 17.0703 43.3881 17.0384 43.4839 17.0065C43.6913 16.9267 43.8988 16.8469 44.1063 16.7671C44.242 16.6713 44.3417 16.5436 44.4056 16.384C44.4455 16.2962 44.4694 16.1885 44.4774 16.0608C44.4854 15.9332 44.4933 15.8095 44.5013 15.6898C44.5013 15.5302 44.5053 15.3626 44.5133 15.187C44.5213 15.0035 44.5253 14.8918 44.5253 14.8519C44.5253 14.7721 44.5332 14.6643 44.5492 14.5287C44.5652 14.393 44.5731 14.2933 44.5731 14.2294C44.5731 14.1257 44.5572 14.0219 44.5253 13.9182C44.4933 13.8144 44.4654 13.7187 44.4415 13.6309C44.4255 13.5351 44.4175 13.4713 44.4175 13.4394C44.4175 13.3995 44.4175 13.3596 44.4175 13.3197C44.4255 13.2479 44.4335 13.1721 44.4415 13.0923C44.4415 12.9327 44.4614 12.793 44.5013 12.6733C44.5412 12.5935 44.5811 12.5137 44.621 12.4339C44.621 12.402 44.613 12.3621 44.5971 12.3142C44.5731 12.2583 44.5612 12.2184 44.5612 12.1945L44.5253 11.7755C44.5332 11.6798 44.5372 11.612 44.5372 11.5721C44.5372 11.4683 44.5093 11.3765 44.4534 11.2967C44.4056 11.2169 44.3337 11.1651 44.238 11.1411C44.1502 11.1092 44.0943 11.0933 44.0704 11.0933C43.9587 11.0933 43.8908 11.0893 43.8669 11.0813C43.811 11.0653 43.7592 11.0374 43.7113 10.9975C43.6634 10.9576 43.6275 10.9257 43.6036 10.9017C43.5477 10.8618 43.5078 10.8339 43.4839 10.8179C43.42 10.7701 43.3801 10.7102 43.3642 10.6384C43.3482 10.5586 43.3761 10.4588 43.4479 10.3391C43.4879 10.2833 43.5397 10.2354 43.6036 10.1955C43.6993 10.1556 43.7672 10.1237 43.8071 10.0997C43.8629 10.0678 43.9627 10.0199 44.1063 9.95609C44.1382 9.94013 44.1981 9.90821 44.2859 9.86033C44.4215 9.78851 44.5053 9.74063 44.5372 9.71669C44.641 9.65285 44.7168 9.60098 44.7647 9.56108C44.8125 9.52118 44.8724 9.45335 44.9442 9.35759C45.024 9.25385 45.0958 9.18203 45.1597 9.14213C45.3193 9.08627 45.4789 9.02642 45.6385 8.96258C45.6624 8.93864 45.6943 8.90273 45.7342 8.85485C45.814 8.74313 45.8619 8.67928 45.8779 8.66332C45.9258 8.59948 45.9736 8.54362 46.0215 8.49574C46.0694 8.44786 46.1173 8.40796 46.1652 8.37604C46.213 8.34412 46.2649 8.30821 46.3208 8.26831C46.3846 8.22841 46.4564 8.20846 46.5362 8.20846C46.6001 8.20846 46.6479 8.21245 46.6799 8.22043C46.7278 8.23639 46.7716 8.2723 46.8115 8.32816C46.8594 8.37604 46.8754 8.46781 46.8594 8.60347C46.8355 8.66732 46.8155 8.73115 46.7996 8.795C46.7836 8.85884 46.7677 8.97056 46.7517 9.13016C46.7357 9.28178 46.7238 9.38552 46.7158 9.44138C46.6599 9.70472 46.608 9.96407 46.5602 10.2194C46.5522 10.403 46.5442 10.5346 46.5362 10.6144C46.5362 10.6942 46.5362 10.7701 46.5362 10.8419C46.5362 11.0095 46.5362 11.1411 46.5362 11.2369C46.5362 11.4045 46.5243 11.608 46.5003 11.8474C46.4844 12.0868 46.4764 12.2424 46.4764 12.3142C46.4764 12.3701 46.4963 12.5097 46.5362 12.7332C46.5522 12.8209 46.5602 12.9087 46.5602 12.9965C46.5602 13.0843 46.5562 13.204 46.5482 13.3556C46.5402 13.5072 46.5362 13.6269 46.5362 13.7147V14.6125C46.5362 14.7641 46.5402 14.9037 46.5482 15.0314C46.5562 15.1511 46.5681 15.2908 46.5841 15.4504C46.608 15.61 46.628 15.7735 46.644 15.9411C46.6679 16.1087 46.7158 16.2524 46.7876 16.3721C46.8674 16.4838 46.9552 16.5835 47.0509 16.6713C47.1467 16.7431 47.2185 16.799 47.2664 16.8389C47.3223 16.8788 47.3861 16.9267 47.4579 16.9825C47.5297 17.0304 47.5816 17.0903 47.6135 17.1621C47.6854 17.3057 47.7213 17.4254 47.7213 17.5212C47.7213 17.6169 47.6933 17.6967 47.6375 17.7606Z" fill="#212121"/>
<path d="M58.2578 17.581C58.2259 17.6449 58.174 17.6928 58.1022 17.7247C58.0384 17.7566 57.9506 17.7885 57.8389 17.8204C57.791 17.8284 57.7311 17.8324 57.6593 17.8324C57.6114 17.8324 57.5636 17.8324 57.5157 17.8324C57.4598 17.8324 57.408 17.8284 57.3601 17.8204C57.2643 17.8204 57.1885 17.8164 57.1326 17.8085C56.9172 17.7765 56.7935 17.7606 56.7616 17.7606C56.6738 17.7606 56.598 17.7686 56.5341 17.7845C56.4783 17.7925 56.4144 17.8045 56.3426 17.8204L55.8997 17.8803L55.6244 17.9042L54.9421 17.9401C54.8144 17.9481 54.7227 17.9521 54.6668 17.9521C54.579 17.9521 54.4793 17.9361 54.3676 17.9042C54.2638 17.8643 54.184 17.8045 54.1282 17.7247C54.1122 17.7087 54.0962 17.6648 54.0803 17.593C54.0723 17.5212 54.0484 17.4853 54.0085 17.4853C53.9765 17.4853 53.9446 17.5092 53.9127 17.5571C53.8967 17.589 53.8808 17.6169 53.8648 17.6409C53.801 17.6967 53.7371 17.7526 53.6733 17.8085C53.6174 17.8643 53.5496 17.9082 53.4698 17.9401C53.39 17.9721 53.3022 17.992 53.2065 18C53.1187 18 53.0469 18 52.991 18H52.3326L51.5306 17.9641C51.4429 17.9641 51.3551 17.9681 51.2673 17.976C51.1875 17.976 51.1077 17.976 51.0279 17.976C50.8763 17.976 50.7047 17.9641 50.5132 17.9401C50.3616 17.9082 50.21 17.8763 50.0583 17.8444C50.0025 17.8444 49.9306 17.8563 49.8429 17.8803C49.7631 17.8962 49.7152 17.9042 49.6992 17.9042C49.6833 17.9042 49.6434 17.8962 49.5795 17.8803C49.3641 17.7925 49.2563 17.6329 49.2563 17.4015C49.2563 17.3057 49.2843 17.2219 49.3401 17.1501C49.372 17.1102 49.4439 17.0424 49.5556 16.9466C49.6114 16.8987 49.6912 16.8628 49.795 16.8389C49.9067 16.807 49.9865 16.775 50.0344 16.7431C50.0743 16.7112 50.1182 16.6793 50.1661 16.6474C50.2139 16.6075 50.2499 16.5676 50.2738 16.5277C50.2977 16.4957 50.3137 16.4519 50.3217 16.396C50.3376 16.3322 50.3496 16.2763 50.3576 16.2284L50.4174 15.9292C50.4334 15.8494 50.4414 15.7456 50.4414 15.6179C50.4414 15.5062 50.4414 15.4105 50.4414 15.3307C50.4414 15.2429 50.4454 15.1631 50.4533 15.0913C50.4533 15.0514 50.4733 14.9676 50.5132 14.8399C50.5292 14.792 50.5371 14.7401 50.5371 14.6843C50.5371 14.6364 50.5172 14.5805 50.4773 14.5167C50.4454 14.4529 50.4254 14.405 50.4174 14.3731C50.4095 14.3252 50.4055 14.2613 50.4055 14.1815C50.4134 14.0459 50.4174 13.9421 50.4174 13.8703C50.4174 13.7985 50.4254 13.7107 50.4414 13.607C50.4653 13.5032 50.4773 13.4394 50.4773 13.4154V12.9726L50.5371 12.5536C50.5691 12.402 50.601 12.2504 50.6329 12.0987C50.6329 11.9711 50.6329 11.8793 50.6329 11.8234C50.6329 11.7037 50.6209 11.612 50.597 11.5481C50.581 11.4763 50.5531 11.4125 50.5132 11.3566C50.4813 11.3007 50.4454 11.2329 50.4055 11.1531C50.3656 11.0733 50.3217 10.9815 50.2738 10.8778C50.2658 10.8219 50.2778 10.7501 50.3097 10.6623C50.3416 10.5666 50.3576 10.4987 50.3576 10.4588C50.3735 10.3312 50.3735 10.2514 50.3576 10.2194C50.3336 10.1636 50.2897 10.1277 50.2259 10.1117C50.1701 10.0957 50.0982 10.0758 50.0104 10.0519C49.9306 10.0279 49.8548 10.004 49.783 9.98003C49.7112 9.95609 49.6553 9.91619 49.6154 9.86033C49.5516 9.77255 49.5197 9.6728 49.5197 9.56108C49.5197 9.48926 49.5396 9.42542 49.5795 9.36956C49.5875 9.36158 49.6434 9.3137 49.7471 9.22592C49.8508 9.13016 49.9945 9.06233 50.178 9.02243C50.2099 9.01445 50.2498 9.01046 50.2977 9.01046C50.4095 9.01844 50.5212 9.02243 50.6329 9.02243C50.7207 9.00647 50.8085 8.97056 50.8962 8.9147C50.992 8.85086 51.0838 8.78702 51.1715 8.72318L51.6503 8.38801C51.7701 8.30821 51.8898 8.22841 52.0095 8.14861C52.193 8.06083 52.3725 8.00098 52.5481 7.96906C52.6678 7.96108 52.7875 7.94911 52.9072 7.93315C53.0189 7.93315 53.1027 7.9531 53.1586 7.993C53.2144 8.0329 53.2663 8.06482 53.3142 8.08876C53.402 8.1526 53.4459 8.2324 53.4459 8.32816C53.4459 8.38402 53.4139 8.44786 53.3501 8.51968C53.2863 8.5915 53.2464 8.64737 53.2304 8.68727C53.1905 8.77505 53.1626 8.8349 53.1466 8.86682C53.1227 8.93066 53.1227 8.99051 53.1466 9.04637C53.1865 9.11819 53.2743 9.17006 53.41 9.20198C53.5217 9.22592 53.6454 9.18602 53.781 9.08228C53.8768 9.01046 53.9526 8.95859 54.0085 8.92667C54.1441 8.83889 54.2838 8.7511 54.4274 8.66332C54.5391 8.62342 54.6109 8.59948 54.6429 8.59151C54.7067 8.57554 54.7865 8.56756 54.8823 8.56756C55.0658 8.56756 55.2334 8.58751 55.385 8.62741C55.5366 8.65933 55.7202 8.71918 55.9356 8.80696C56.1511 8.89475 56.3466 9.00647 56.5222 9.14213C56.6179 9.21395 56.7137 9.28976 56.8095 9.36956C56.9132 9.44138 56.989 9.53315 57.0369 9.64487C57.0608 9.70073 57.0768 9.77255 57.0848 9.86033C57.1007 9.94811 57.1167 10.0319 57.1326 10.1117C57.1566 10.1835 57.1765 10.2354 57.1925 10.2673C57.2404 10.3631 57.2763 10.4349 57.3002 10.4828C57.38 10.6184 57.4598 10.7501 57.5396 10.8778C57.5556 10.9576 57.5636 11.0174 57.5636 11.0573C57.5636 11.0813 57.5556 11.1491 57.5396 11.2608C57.5396 11.3167 57.5277 11.3726 57.5037 11.4284C57.4798 11.4843 57.4518 11.5481 57.4199 11.6199C57.4119 11.7077 57.4159 11.8075 57.4319 11.9192C57.4479 12.0309 57.4558 12.0908 57.4558 12.0987C57.4558 12.1466 57.4399 12.2224 57.408 12.3262C57.376 12.4219 57.3601 12.4778 57.3601 12.4937C57.3521 12.5496 57.3481 12.5975 57.3481 12.6374C57.3481 12.7012 57.3481 12.7491 57.3481 12.781C57.3481 12.9007 57.3521 12.9965 57.3601 13.0683C57.3681 13.1322 57.38 13.188 57.396 13.2359C57.4518 13.4194 57.4838 13.5471 57.4917 13.6189C57.4997 13.6828 57.5157 13.7745 57.5396 13.8942C57.5396 13.974 57.5396 14.0538 57.5396 14.1336V14.5287C57.5396 14.5845 57.5277 14.6563 57.5037 14.7441C57.4878 14.8319 57.4798 14.8878 57.4798 14.9117C57.4878 14.9596 57.5037 15.0115 57.5277 15.0673C57.5516 15.1232 57.5676 15.1631 57.5755 15.187C57.5915 15.2588 57.6035 15.3267 57.6114 15.3905C57.6274 15.4464 57.6354 15.5262 57.6354 15.6299L57.5995 15.9292C57.5915 16.0249 57.5835 16.1167 57.5755 16.2045C57.5755 16.2843 57.5955 16.3601 57.6354 16.4319C57.6833 16.5037 57.7431 16.5755 57.8149 16.6474C57.8389 16.6713 57.8907 16.7032 57.9705 16.7431C58.0503 16.775 58.1062 16.8149 58.1381 16.8628C58.202 16.9506 58.2379 17.0504 58.2459 17.1621C58.2618 17.2658 58.2778 17.3576 58.2937 17.4374C58.2937 17.4853 58.2818 17.5331 58.2578 17.581ZM55.4209 14.7681L55.3611 14.4688C55.3451 14.381 55.3252 14.2773 55.3012 14.1576C55.2773 14.0299 55.2653 13.9022 55.2653 13.7745L55.3012 13.1162L55.3611 12.5775C55.3611 12.4499 55.3651 12.3302 55.373 12.2184C55.381 12.1067 55.389 11.991 55.397 11.8713C55.397 11.8075 55.397 11.7596 55.397 11.7277C55.389 11.6798 55.385 11.6439 55.385 11.6199C55.385 11.4444 55.377 11.3207 55.3611 11.2489C55.3531 11.1691 55.3212 11.0653 55.2653 10.9376C55.2095 10.802 55.1177 10.6703 54.99 10.5426C54.8703 10.4149 54.7346 10.3072 54.583 10.2194C54.5351 10.1955 54.4793 10.1676 54.4154 10.1356C54.3596 10.0957 54.3037 10.0718 54.2479 10.0638H54.0085C53.9606 10.0718 53.9047 10.1037 53.8409 10.1596C53.777 10.2075 53.7052 10.2434 53.6254 10.2673C53.5536 10.2833 53.4698 10.3072 53.374 10.3391C53.2863 10.3631 53.2264 10.391 53.1945 10.4229C53.1466 10.4628 53.0868 10.5346 53.0149 10.6384C52.9511 10.7341 52.9032 10.8259 52.8713 10.9137C52.8394 10.9935 52.7955 11.1292 52.7396 11.3207C52.6917 11.5122 52.6678 11.7117 52.6678 11.9192C52.6678 12.0788 52.6758 12.2663 52.6917 12.4818C52.7157 12.6972 52.7277 12.8289 52.7277 12.8768L52.6917 13.176C52.6518 13.3037 52.6239 13.4035 52.608 13.4753C52.5681 13.6588 52.5481 13.8504 52.5481 14.0499C52.5481 14.1297 52.5521 14.2334 52.5601 14.3611C52.5681 14.4888 52.572 14.5925 52.572 14.6723C52.572 14.7601 52.5681 14.8758 52.5601 15.0194C52.5521 15.1631 52.5481 15.2788 52.5481 15.3666C52.5481 15.5661 52.5521 15.7097 52.5601 15.7975C52.576 15.8773 52.6119 15.997 52.6678 16.1566C52.7237 16.3082 52.7676 16.4199 52.7995 16.4918C52.8394 16.5556 52.9032 16.6274 52.991 16.7072C53.0389 16.7551 53.1147 16.807 53.2184 16.8628C53.3302 16.9107 53.4139 16.9506 53.4698 16.9825C53.4778 16.9905 53.5496 17.0464 53.6853 17.1501C53.7651 17.2139 53.8449 17.2459 53.9247 17.2459C53.9965 17.2538 54.0763 17.2499 54.1641 17.2339C54.2598 17.21 54.3396 17.1661 54.4035 17.1022C54.5232 16.9905 54.591 16.9307 54.607 16.9227C54.7027 16.8668 54.7745 16.8229 54.8224 16.791C54.8783 16.7591 54.9421 16.7072 55.0139 16.6354C55.0858 16.5636 55.1336 16.5117 55.1576 16.4798C55.1975 16.4239 55.2294 16.3601 55.2533 16.2883C55.2853 16.2164 55.3012 16.1247 55.3012 16.013C55.3012 15.9332 55.3012 15.8693 55.3012 15.8214C55.3012 15.7656 55.3012 15.7217 55.3012 15.6898L55.3611 15.2469C55.3611 15.175 55.3691 15.0873 55.385 14.9835C55.409 14.8718 55.4209 14.8 55.4209 14.7681Z" fill="#212121"/>
<path d="M68.5194 18.8977C68.5194 19.0174 68.5154 19.173 68.5075 19.3646C68.4995 19.5561 68.4955 19.7117 68.4955 19.8314C68.4955 19.9351 68.4955 20.011 68.4955 20.0588C68.4955 20.1147 68.4955 20.1745 68.4955 20.2384C68.4795 20.3182 68.4636 20.398 68.4476 20.4778C68.4316 20.5656 68.4077 20.6414 68.3758 20.7052C68.3598 20.7371 68.308 20.8249 68.2202 20.9686C68.1883 21.0244 68.1364 21.0883 68.0646 21.1601C67.9927 21.2319 67.9369 21.2957 67.897 21.3516C67.7613 21.5272 67.6257 21.7027 67.49 21.8783C67.3623 22.0618 67.2426 22.2055 67.1309 22.3092C67.0511 22.389 66.9115 22.5047 66.712 22.6563C66.5204 22.808 66.3608 22.9237 66.2331 23.0035C66.1134 23.0913 65.9499 23.191 65.7424 23.3027C65.6067 23.3745 65.475 23.4424 65.3474 23.5062C65.2197 23.578 65.092 23.6259 64.9643 23.6499C64.8446 23.6818 64.7528 23.7017 64.689 23.7097C64.6252 23.7257 64.5653 23.7336 64.5095 23.7336C64.4456 23.7336 64.3977 23.7297 64.3658 23.7217C64.3259 23.7057 64.274 23.6778 64.2102 23.6379C64.1464 23.598 64.0985 23.574 64.0666 23.5661C64.0187 23.5581 63.9309 23.5621 63.8032 23.578C63.6755 23.594 63.6037 23.602 63.5878 23.602C63.5 23.602 63.3763 23.586 63.2167 23.5541C63.0571 23.5222 62.9254 23.5062 62.8217 23.5062C62.7658 23.5062 62.7219 23.5062 62.69 23.5062C62.5464 23.5062 62.4307 23.4903 62.3429 23.4583C62.2551 23.4344 62.1673 23.3985 62.0795 23.3506C61.9997 23.3027 61.912 23.2628 61.8162 23.2309C61.7284 23.199 61.6207 23.1631 61.493 23.1232C61.4292 23.0833 61.3613 22.9835 61.2895 22.8239C61.2576 22.7521 61.2137 22.6883 61.1578 22.6324C61.102 22.5845 61.0142 22.5327 60.8945 22.4768C60.7828 22.4209 60.699 22.373 60.6431 22.3331C60.5873 22.2932 60.4955 22.2015 60.3678 22.0578C60.2481 21.9142 60.1444 21.7506 60.0566 21.5671C60.0167 21.4873 59.9808 21.3875 59.9489 21.2678C59.9249 21.1481 59.901 21.0563 59.877 20.9925L59.7214 20.6932C59.6735 20.5895 59.6257 20.4898 59.5778 20.394C59.5618 20.3222 59.5658 20.2424 59.5898 20.1546C59.6137 20.0748 59.6297 19.999 59.6376 19.9272C59.6536 19.8633 59.6735 19.7995 59.6975 19.7356C59.7055 19.7197 59.7334 19.6519 59.7813 19.5322C59.8052 19.4683 59.8491 19.3805 59.9129 19.2688C59.9848 19.1651 60.0326 19.0932 60.0566 19.0533C60.1124 18.9097 60.1723 18.7701 60.2361 18.6344C60.276 18.5785 60.312 18.5346 60.3439 18.5027C60.4716 18.383 60.5434 18.3152 60.5593 18.2992C60.6312 18.1636 60.703 18.0319 60.7748 17.9042C60.8626 17.8005 60.9504 17.7207 61.0381 17.6648C61.0701 17.6489 61.1179 17.6289 61.1818 17.605C61.2456 17.581 61.2895 17.5531 61.3134 17.5212C61.3374 17.4733 61.3494 17.4294 61.3494 17.3895C61.3334 17.3017 61.3214 17.2339 61.3134 17.186C61.2975 17.1381 61.2815 17.0982 61.2656 17.0663C61.2177 17.0025 61.1738 16.9346 61.1339 16.8628C61.0701 16.7591 61.0222 16.6793 60.9903 16.6234C60.9583 16.5676 60.9224 16.4918 60.8825 16.396C60.8426 16.2923 60.8067 16.2045 60.7748 16.1327C60.7509 16.0528 60.7389 15.9651 60.7389 15.8693C60.7389 15.7496 60.7469 15.6259 60.7628 15.4982C60.7788 15.3706 60.7908 15.2588 60.7987 15.1631C60.8147 15.0673 60.8466 14.9755 60.8945 14.8878C60.9743 14.792 61.0381 14.7122 61.086 14.6484C61.1419 14.5845 61.2057 14.5127 61.2775 14.4329C61.3254 14.3292 61.3454 14.2294 61.3374 14.1336C61.3374 14.0778 61.3174 14.0139 61.2775 13.9421C61.2217 13.8703 61.1818 13.8144 61.1578 13.7745C61.1259 13.7346 61.074 13.6868 61.0022 13.6309C60.9304 13.575 60.8825 13.5351 60.8586 13.5112C60.8107 13.4474 60.7668 13.3716 60.7269 13.2838C60.695 13.188 60.6711 13.1122 60.6551 13.0563C60.6152 12.9686 60.5753 12.8808 60.5354 12.793C60.5035 12.7052 60.4716 12.6055 60.4396 12.4937C60.4157 12.374 60.3997 12.3062 60.3918 12.2903C60.3678 12.2025 60.3558 12.1307 60.3558 12.0748L60.3199 11.5361C60.3199 11.4404 60.3199 11.3646 60.3199 11.3087C60.3199 11.2449 60.3399 11.1691 60.3798 11.0813C60.4197 10.9935 60.4556 10.9177 60.4875 10.8538C60.5194 10.782 60.5354 10.6982 60.5354 10.6025C60.5434 10.4987 60.5514 10.391 60.5593 10.2793C60.5753 10.1676 60.5952 10.0479 60.6192 9.92018C60.6511 9.85634 60.7189 9.7925 60.8227 9.72866C60.9344 9.66482 61.0102 9.61295 61.0501 9.57305C61.098 9.53315 61.1738 9.44936 61.2775 9.32168C61.3494 9.22592 61.4012 9.16607 61.4332 9.14213C61.505 9.07031 61.5768 9.00248 61.6486 8.93864C61.7204 8.8748 61.7923 8.81894 61.8641 8.77106C61.9439 8.72318 62.0197 8.67928 62.0915 8.63938C62.1633 8.59948 62.311 8.52766 62.5344 8.42392C62.678 8.34412 62.7818 8.29225 62.8456 8.26831C62.8855 8.25235 62.9773 8.22841 63.1209 8.19649C63.2646 8.16457 63.4481 8.14861 63.6716 8.14861H64.6292L65.108 8.20846L65.5269 8.24437C65.5987 8.25235 65.6985 8.2723 65.8262 8.30422C65.9538 8.33614 66.0695 8.36008 66.1733 8.37604C66.277 8.38402 66.3808 8.38801 66.4845 8.38801C66.5883 8.38801 66.7 8.38801 66.8197 8.38801C66.8995 8.38801 67.0032 8.38003 67.1309 8.36407C67.2586 8.34013 67.3424 8.32816 67.3823 8.32816C67.4461 8.32816 67.506 8.32816 67.5618 8.32816C67.6257 8.32816 67.6895 8.32417 67.7533 8.31619C67.8172 8.31619 67.877 8.32018 67.9329 8.32816C67.9888 8.33614 68.0446 8.35609 68.1005 8.38801C68.2202 8.45185 68.288 8.48776 68.304 8.49574C68.3598 8.53564 68.3997 8.58751 68.4237 8.65135C68.4476 8.70721 68.4596 8.74712 68.4596 8.77106C68.4596 8.80298 68.4596 8.83091 68.4596 8.85485C68.4596 8.95859 68.4316 9.05435 68.3758 9.14213C68.3119 9.20597 68.2521 9.26582 68.1962 9.32168C68.1723 9.36158 68.1603 9.41744 68.1603 9.48926C68.1603 9.56108 68.1524 9.61295 68.1364 9.64487C68.0725 9.72467 68.0127 9.80447 67.9568 9.88427C67.9409 9.92417 67.9329 9.98402 67.9329 10.0638C67.9329 10.0957 67.9369 10.1556 67.9449 10.2434C67.9608 10.3232 67.9888 10.407 68.0287 10.4947C68.0765 10.5745 68.1005 10.6224 68.1005 10.6384C68.1404 10.7182 68.1643 10.774 68.1723 10.806C68.1883 10.8538 68.2042 10.9097 68.2202 10.9735C68.2361 11.0374 68.2441 11.1092 68.2441 11.189C68.2441 11.2608 68.2481 11.3167 68.2561 11.3566C68.2561 11.4843 68.2561 11.584 68.2561 11.6558L68.1962 12.0149C68.1883 12.0788 68.1803 12.1426 68.1723 12.2065C68.1723 12.2623 68.1683 12.3062 68.1603 12.3381C68.1444 12.394 68.1164 12.4499 68.0765 12.5057C68.0047 12.6015 67.9648 12.6573 67.9568 12.6733C67.909 12.7611 67.8651 12.8768 67.8252 13.0204C67.7853 13.1641 67.7533 13.2678 67.7294 13.3317C67.7134 13.3875 67.6935 13.4514 67.6696 13.5232C67.6456 13.595 67.6217 13.6509 67.5977 13.6908C67.5738 13.7307 67.5419 13.7666 67.502 13.7985C67.4062 13.8703 67.3304 13.9302 67.2745 13.978C67.2267 14.0179 67.1588 14.0658 67.0711 14.1217C66.9833 14.1696 66.8875 14.2214 66.7838 14.2773C66.68 14.3252 66.5843 14.3691 66.4965 14.409C66.4167 14.4409 66.3449 14.4688 66.281 14.4928C66.2172 14.5326 66.1693 14.5566 66.1374 14.5646C66.0975 14.5805 66.0456 14.5965 65.9818 14.6125C65.9578 14.6204 65.91 14.6284 65.8381 14.6364C65.7743 14.6444 65.7025 14.6484 65.6227 14.6484C65.5748 14.6484 65.5349 14.6484 65.503 14.6484H65.2277C65.1558 14.6563 65.0721 14.6883 64.9763 14.7441C64.8885 14.792 64.8167 14.8239 64.7608 14.8399C64.705 14.8479 64.6491 14.8598 64.5933 14.8758C64.5374 14.8838 64.4616 14.8878 64.3658 14.8878C64.302 14.8878 64.2102 14.8798 64.0905 14.8638C63.9708 14.8399 63.891 14.8279 63.8511 14.8279L63.3484 14.7681C63.3005 14.7601 63.2247 14.7282 63.1209 14.6723C63.0252 14.6164 62.9454 14.5885 62.8815 14.5885C62.7937 14.5805 62.7299 14.5765 62.69 14.5765C62.6341 14.5765 62.5942 14.5805 62.5703 14.5885C62.4666 14.6444 62.4147 14.7521 62.4147 14.9117C62.4147 14.9995 62.4346 15.0753 62.4745 15.1391C62.5224 15.203 62.5743 15.2668 62.6302 15.3307C62.8137 15.5701 63.0411 15.7217 63.3125 15.7855C63.4082 15.8015 63.472 15.8095 63.504 15.8095C63.5598 15.8095 63.6237 15.8055 63.6955 15.7975C63.7673 15.7815 63.8511 15.7656 63.9469 15.7496C63.9868 15.7496 64.0586 15.7376 64.1623 15.7137C64.274 15.6818 64.3618 15.6658 64.4257 15.6658C64.5055 15.6658 64.5893 15.6818 64.677 15.7137C64.7728 15.7456 64.8486 15.7696 64.9045 15.7855L65.2037 15.9052C65.2755 15.9292 65.3833 15.9411 65.5269 15.9411C65.6705 15.9411 65.7903 15.9491 65.886 15.9651L66.3409 16.0489C66.5085 16.0888 66.6481 16.1327 66.7598 16.1805C66.8795 16.2284 67.0072 16.2962 67.1429 16.384C67.2067 16.4239 67.2745 16.4758 67.3464 16.5396C67.4262 16.5955 67.486 16.6514 67.5259 16.7072C67.5658 16.7551 67.6017 16.811 67.6336 16.8748C67.7134 17.0583 67.7613 17.1621 67.7773 17.186C67.8252 17.2658 67.881 17.3376 67.9449 17.4015C68.0566 17.5052 68.1204 17.5731 68.1364 17.605C68.272 17.8204 68.3678 18.0399 68.4237 18.2633C68.4875 18.4868 68.5194 18.6982 68.5194 18.8977ZM66.281 10.6982C66.2571 10.5626 66.2172 10.4229 66.1613 10.2793C66.1294 10.2234 66.0775 10.1516 66.0057 10.0638C65.9339 9.97604 65.886 9.91619 65.8621 9.88427C65.8461 9.86831 65.7903 9.77255 65.6945 9.59699C65.6307 9.49325 65.5588 9.41345 65.479 9.35759C65.3992 9.30173 65.3154 9.26183 65.2277 9.23789C65.1399 9.21395 65.0521 9.19001 64.9643 9.16607C64.7169 9.10223 64.5494 9.06233 64.4616 9.04637C64.3818 9.03041 64.2581 9.02243 64.0905 9.02243C63.9548 9.00647 63.8232 8.98652 63.6955 8.96258C63.6317 8.96258 63.5838 8.97056 63.5519 8.98652C63.504 9.00248 63.4481 9.04238 63.3843 9.10622C63.3204 9.17006 63.2765 9.20996 63.2526 9.22592C63.2047 9.26582 63.1249 9.3137 63.0132 9.36956C62.9015 9.41744 62.8137 9.47729 62.7499 9.54911C62.694 9.61295 62.6461 9.73265 62.6062 9.90821C62.5663 10.0758 62.5344 10.1875 62.5105 10.2434C62.4147 10.403 62.3229 10.5626 62.2351 10.7222C62.2032 10.802 62.1833 10.8778 62.1753 10.9496C62.1673 11.0214 62.1633 11.0972 62.1633 11.177C62.1713 11.3127 62.1753 11.4204 62.1753 11.5002C62.1913 11.6519 62.2032 11.7396 62.2112 11.7636C62.2272 11.8274 62.2511 11.8992 62.283 11.979C62.3149 12.0509 62.3548 12.1267 62.4027 12.2065C62.4586 12.2783 62.5025 12.3421 62.5344 12.398C62.5903 12.5496 62.6501 12.7012 62.7139 12.8528C62.7618 12.9327 62.8097 12.9965 62.8576 13.0444C62.8815 13.0683 62.9454 13.1242 63.0491 13.212C63.1129 13.2598 63.2047 13.3157 63.3244 13.3795C63.4521 13.4354 63.5598 13.4873 63.6476 13.5351C63.7753 13.6149 63.903 13.6947 64.0307 13.7745C64.1105 13.7905 64.1663 13.7985 64.1982 13.7985C64.2302 13.7985 64.286 13.7945 64.3658 13.7865C64.4536 13.7785 64.5015 13.7745 64.5095 13.7745C64.6451 13.7825 64.7409 13.7865 64.7967 13.7865C64.8925 13.7865 64.9643 13.7745 65.0122 13.7506C65.0681 13.7267 65.1199 13.6908 65.1678 13.6429C65.2237 13.587 65.2755 13.5312 65.3234 13.4753C65.4591 13.3317 65.5987 13.184 65.7424 13.0324C65.8621 12.9446 65.9818 12.8528 66.1015 12.7571C66.1573 12.6773 66.1972 12.5935 66.2212 12.5057C66.2451 12.41 66.2571 12.3341 66.2571 12.2783C66.2571 12.1985 66.2451 12.1107 66.2212 12.0149C66.1813 11.9192 66.1414 11.8194 66.1015 11.7157C66.1015 11.6678 66.1174 11.608 66.1494 11.5361C66.1893 11.4643 66.2132 11.4125 66.2212 11.3805C66.2691 11.189 66.293 11.0214 66.293 10.8778C66.293 10.798 66.289 10.7381 66.281 10.6982ZM66.8795 20.6932C66.9035 20.5735 66.9154 20.4578 66.9154 20.3461C66.9154 20.2184 66.8915 20.1067 66.8436 20.011C66.7798 19.9152 66.7199 19.8234 66.6641 19.7356C66.6561 19.6957 66.6561 19.6319 66.6641 19.5441C66.6721 19.4643 66.6721 19.4085 66.6641 19.3765C66.6401 19.2808 66.6042 19.201 66.5563 19.1371C66.5164 19.0733 66.4845 19.0254 66.4606 18.9935C66.4047 18.9137 66.3449 18.8459 66.281 18.79C66.2571 18.7661 66.1853 18.7142 66.0656 18.6344C66.0017 18.5785 65.9179 18.5227 65.8142 18.4668C65.7184 18.411 65.6426 18.3671 65.5868 18.3351C65.483 18.2633 65.4112 18.2154 65.3713 18.1915C65.2915 18.1436 65.2157 18.0997 65.1439 18.0598C65.072 18.0199 65.0202 17.992 64.9883 17.976C64.9324 17.9441 64.8686 17.9202 64.7967 17.9042C64.7329 17.8883 64.6371 17.8803 64.5095 17.8803C64.4137 17.8803 64.3219 17.8883 64.2341 17.9042C64.1544 17.9202 64.0666 17.9401 63.9708 17.9641C63.883 17.98 63.7753 18.004 63.6476 18.0359C63.5678 18.0359 63.4721 18.0279 63.3603 18.012C63.2566 18.004 63.2007 18 63.1928 18L62.9534 18.0359C62.8177 18.0758 62.7179 18.1436 62.6541 18.2394C62.6302 18.2793 62.6142 18.3272 62.6062 18.383C62.5982 18.4469 62.5942 18.5107 62.5942 18.5745C62.6262 18.6783 62.6581 18.786 62.69 18.8977C62.674 18.9456 62.6302 18.9935 62.5583 19.0414C62.4865 19.0972 62.4386 19.1411 62.4147 19.173C62.311 19.3167 62.2192 19.4643 62.1394 19.6159C62.0596 19.7755 62.0117 19.8673 61.9957 19.8913C61.9479 19.987 61.912 20.0828 61.888 20.1785C61.8641 20.2823 61.8401 20.39 61.8162 20.5017C61.7923 20.6134 61.7803 20.7012 61.7803 20.7651C61.7803 20.8289 61.7883 20.9486 61.8042 21.1242C61.8282 21.2997 61.9638 21.4873 62.2112 21.6868C62.283 21.7426 62.3748 21.7905 62.4865 21.8304C62.6062 21.8703 62.698 21.9022 62.7618 21.9262C62.8336 21.9581 62.9214 21.998 63.0252 22.0459C63.1369 22.1017 63.2446 22.1376 63.3484 22.1536C63.4601 22.1775 63.5439 22.1895 63.5997 22.1895C63.6636 22.1895 63.7274 22.1895 63.7913 22.1895L64.3658 22.2254C64.4616 22.2254 64.5653 22.2294 64.677 22.2374C64.7967 22.2454 64.8725 22.2494 64.9045 22.2494C65.072 22.2494 65.2277 22.2294 65.3713 22.1895C65.5149 22.1576 65.6227 22.1297 65.6945 22.1057C65.7663 22.0818 65.8621 22.0299 65.9818 21.9501C66.1095 21.8703 66.2092 21.7905 66.281 21.7107C66.3209 21.6708 66.3967 21.5671 66.5085 21.3995C66.6202 21.2399 66.696 21.1282 66.7359 21.0643C66.8077 20.9446 66.8556 20.8209 66.8795 20.6932Z" fill="#212121"/>
<path d="M93.6425 11.2369C93.6425 11.4524 93.6305 11.6359 93.6066 11.7875C93.5906 11.9391 93.5547 12.0868 93.4989 12.2304C93.451 12.374 93.3991 12.4858 93.3432 12.5656C93.2954 12.6454 93.2435 12.7292 93.1876 12.8169C93.1078 12.9686 93.024 13.1242 92.9363 13.2838C92.8565 13.4434 92.7926 13.599 92.7447 13.7506C92.7288 13.8543 92.7168 13.9262 92.7088 13.9661C92.7009 14.006 92.6809 14.0419 92.649 14.0738C92.5851 14.1137 92.5373 14.1456 92.5053 14.1696C92.4575 14.2015 92.4136 14.2573 92.3737 14.3371C92.3338 14.409 92.2979 14.4808 92.2659 14.5526C92.0904 14.8239 91.9627 15.0154 91.8829 15.1272C91.7632 15.2947 91.6196 15.4743 91.452 15.6658C91.2206 15.9292 90.9692 16.1686 90.6979 16.384C90.4824 16.5516 90.1951 16.7591 89.836 17.0065C89.5248 17.2139 89.2535 17.3855 89.022 17.5212C88.7906 17.6568 88.5153 17.7965 88.1961 17.9401C88.0046 18.0279 87.8051 18.1157 87.5976 18.2035C87.3981 18.2992 87.2066 18.3631 87.023 18.395C86.9592 18.403 86.8914 18.407 86.8196 18.407C86.7477 18.4149 86.6959 18.4189 86.6639 18.4189C86.5363 18.4189 86.3607 18.407 86.1373 18.383C85.9218 18.3671 85.7782 18.3591 85.7063 18.3591L84.5692 18.4189C84.5213 18.4269 84.4415 18.4389 84.3298 18.4548C84.226 18.4708 84.1462 18.4788 84.0904 18.4788C84.0186 18.4788 83.9467 18.4788 83.8749 18.4788C83.8031 18.4788 83.7353 18.4828 83.6714 18.4908C83.6076 18.4908 83.5358 18.4868 83.456 18.4788C83.3762 18.4788 83.2684 18.4588 83.1328 18.4189C83.1009 18.411 83.049 18.391 82.9772 18.3591C82.9133 18.3272 82.8575 18.3072 82.8096 18.2992C82.7856 18.2913 82.7617 18.2873 82.7378 18.2873C82.7058 18.2873 82.6859 18.2873 82.6779 18.2873C82.63 18.2873 82.5582 18.2952 82.4624 18.3112C82.3667 18.3272 82.2909 18.3351 82.235 18.3351C82.0515 18.3351 81.8999 18.3232 81.7802 18.2992C81.6605 18.2753 81.4849 18.2274 81.2535 18.1556C80.9423 18.0598 80.643 17.9282 80.3557 17.7606C80.244 17.6967 80.1123 17.597 79.9607 17.4613C79.7373 17.2698 79.6096 17.1581 79.5777 17.1262L79.063 16.7072C78.9592 16.6354 78.8874 16.5875 78.8475 16.5636C78.7597 16.5077 78.6919 16.4558 78.644 16.408C78.5562 16.3282 78.4724 16.1965 78.3926 16.013C78.3128 15.8214 78.249 15.6937 78.2011 15.6299C78.1612 15.5581 78.1213 15.4903 78.0814 15.4264C78.0096 15.3227 77.9378 15.2309 77.8659 15.1511C77.8021 15.0713 77.7143 14.9915 77.6026 14.9117C77.3632 14.7361 77.2156 14.6125 77.1597 14.5406C77.1038 14.4688 77.044 14.373 76.9802 14.2533C76.9163 14.1336 76.8485 14.0219 76.7767 13.9182C76.7128 13.8144 76.649 13.7067 76.5851 13.595C76.5213 13.4753 76.4615 13.3556 76.4056 13.2359C76.1742 12.9327 76.0146 12.7092 75.9268 12.5656C75.839 12.4219 75.7792 12.2743 75.7472 12.1227C75.7233 11.9711 75.7113 11.8434 75.7113 11.7396C75.7113 11.6918 75.7113 11.6519 75.7113 11.6199L75.6874 10.7581L75.6515 9.92018C75.6515 9.81644 75.6435 9.71669 75.6275 9.62093C75.5876 9.37355 75.5677 9.21395 75.5677 9.14213C75.5437 9.00647 75.5278 8.90672 75.5198 8.84288C75.5198 8.77904 75.5198 8.69525 75.5198 8.59151C75.5278 8.52766 75.5318 8.47978 75.5318 8.44786C75.5398 8.34412 75.5597 8.24038 75.5916 8.13664C75.6236 8.0329 75.6555 7.92916 75.6874 7.82542L75.8669 7.22692C75.9068 7.1152 75.9547 6.9915 76.0106 6.85584C76.0345 6.79998 76.0864 6.68427 76.1662 6.50871C76.2141 6.39699 76.2659 6.28128 76.3218 6.16158C76.3777 6.0339 76.4255 5.93016 76.4654 5.85036L76.6689 5.49126C76.7487 5.34761 76.8086 5.24387 76.8485 5.18003C76.9203 5.06033 76.9602 4.9925 76.9682 4.97654C77.04 4.89674 77.1118 4.81694 77.1836 4.73714C77.2076 4.69724 77.2196 4.63739 77.2196 4.55759C77.2196 4.43789 77.2275 4.35809 77.2435 4.31819C77.2674 4.25435 77.3033 4.19849 77.3512 4.15061C77.439 4.07081 77.5308 3.98702 77.6265 3.89923C77.6585 3.86731 77.7423 3.76357 77.8779 3.58801C77.9657 3.46831 78.0614 3.37255 78.1652 3.30073L78.5602 3.06133C78.632 3.00547 78.7358 2.90572 78.8714 2.76208C79.0151 2.61844 79.1428 2.50672 79.2545 2.42692C79.3742 2.34712 79.5298 2.26332 79.7213 2.17554C79.9208 2.08776 80.0764 2.01993 80.1881 1.97205C80.2999 1.91619 80.4116 1.86033 80.5233 1.80447C80.643 1.74861 80.7467 1.70472 80.8345 1.6728C80.9223 1.6329 81.046 1.58901 81.2056 1.54113C81.3652 1.48527 81.4889 1.44936 81.5767 1.4334C81.6724 1.40946 81.8001 1.38552 81.9597 1.36158C82.1193 1.33764 82.231 1.31769 82.2949 1.30173C82.5263 1.22193 82.7577 1.14213 82.9891 1.06233C83.061 1.04637 83.1607 1.03839 83.2884 1.03839C83.3442 1.03839 83.432 1.04238 83.5517 1.05036C83.6714 1.05834 83.7712 1.06233 83.851 1.06233L84.6889 1.00248C84.8325 1.00248 84.9442 0.998487 85.024 0.990508C85.3432 0.958587 85.5228 0.942627 85.5627 0.942627L86.3048 0.966567C86.4325 0.966567 86.5442 0.974547 86.64 0.990508C86.7358 0.998487 86.8954 1.02642 87.1188 1.0743C87.3423 1.1142 87.5856 1.19001 87.849 1.30173C87.9368 1.33365 88.1921 1.45335 88.6151 1.66083C88.7587 1.73265 88.8944 1.80048 89.022 1.86432C89.1497 1.92018 89.2934 1.99998 89.453 2.10372C89.836 2.35909 90.1632 2.65036 90.4345 2.97754C90.4904 3.04138 90.5702 3.14911 90.6739 3.30073C90.7777 3.44437 90.8654 3.56407 90.9373 3.65983C91.0171 3.75559 91.0969 3.84736 91.1767 3.93515C91.2086 3.97505 91.3522 4.1147 91.6076 4.3541C91.7831 4.52168 91.9627 4.68926 92.1462 4.85684C92.2021 4.92068 92.258 5.00447 92.3138 5.10821C92.3697 5.20397 92.4136 5.27978 92.4455 5.33564C92.5173 5.45535 92.6689 5.68278 92.9004 6.01794C93.0839 6.28926 93.2196 6.52068 93.3073 6.7122C93.3472 6.80796 93.3871 6.89574 93.427 6.97554C93.4669 7.05534 93.5068 7.17505 93.5467 7.33465C93.5866 7.48627 93.6106 7.59799 93.6186 7.66981C93.6345 7.74163 93.6425 7.84138 93.6425 7.96906C93.6425 8.05684 93.6226 8.16058 93.5826 8.28028C93.5507 8.39998 93.5308 8.49574 93.5228 8.56756C93.4909 8.76707 93.459 8.96657 93.427 9.16607C93.435 9.24587 93.455 9.32168 93.4869 9.3935C93.5827 9.60896 93.6345 9.76058 93.6425 9.84836C93.6585 9.93614 93.6664 9.99998 93.6664 10.0399C93.6664 10.0798 93.6625 10.1556 93.6545 10.2673C93.6465 10.379 93.6425 10.4708 93.6425 10.5426V11.2369ZM90.4345 10.6384C90.4345 10.4149 90.4066 10.2234 90.3507 10.0638C90.3268 10.008 90.263 9.91619 90.1592 9.78851C90.1033 9.72467 90.0634 9.66482 90.0395 9.60896C90.0156 9.54512 89.9916 9.4733 89.9677 9.3935C89.9517 9.3137 89.9437 9.24188 89.9437 9.17804C89.9437 9.12218 89.9517 9.06632 89.9677 9.01046C89.9916 8.9546 90.0196 8.88677 90.0515 8.80696C90.0595 8.74312 90.0555 8.67928 90.0395 8.61544C90.0235 8.54362 90.0076 8.45983 89.9916 8.36407C89.9916 8.29225 89.9956 8.20048 90.0036 8.08876C90.0116 7.96906 90.0156 7.88128 90.0156 7.82542C90.0315 7.6339 90.0435 7.52218 90.0515 7.49026C90.0674 7.41844 90.0954 7.31071 90.1353 7.16707C90.1432 7.13515 90.1871 7.05933 90.2669 6.93963C90.3228 6.85185 90.3507 6.76806 90.3507 6.68826C90.3507 6.52866 90.3148 6.37704 90.243 6.2334C90.1792 6.08178 90.1193 5.97006 90.0634 5.89824C90.0076 5.82642 89.9238 5.75061 89.8121 5.67081C89.7482 5.62293 89.6684 5.57904 89.5727 5.53913C89.429 5.4753 89.3492 5.43938 89.3333 5.4314C89.1976 5.3516 89.0779 5.2718 88.9742 5.192C88.8784 5.1122 88.7787 5.01245 88.6749 4.89275C88.6031 4.82093 88.5353 4.72517 88.4714 4.60547C88.3278 4.35011 88.2241 4.18652 88.1602 4.1147C88.0565 3.97904 87.9487 3.85933 87.837 3.75559C87.6854 3.61195 87.5657 3.50023 87.4779 3.42043L86.9991 3.00148C86.8714 2.9137 86.7797 2.84986 86.7238 2.80996C86.628 2.73814 86.5403 2.66233 86.4605 2.58253C86.4126 2.53465 86.3647 2.46283 86.3168 2.36707C86.2211 2.18352 86.1373 2.06781 86.0654 2.01993C85.9537 1.93215 85.8221 1.88427 85.6704 1.87629C85.5188 1.86033 85.3911 1.84836 85.2874 1.84038C84.9841 1.7925 84.7248 1.76856 84.5093 1.76856C84.3098 1.76856 84.0664 1.7925 83.7792 1.84038C83.4919 1.88028 83.2086 1.96008 82.9293 2.07978C82.7856 2.13564 82.654 2.19549 82.5343 2.25934C82.4704 2.29125 82.3428 2.37106 82.1512 2.49874C82.0555 2.56258 81.9477 2.64238 81.828 2.73814C81.5487 2.97754 81.3772 3.11719 81.3133 3.15709C81.2495 3.19699 81.2016 3.22492 81.1697 3.24088C81.1138 3.2728 81.062 3.3127 81.0141 3.36058C80.9742 3.40048 80.9343 3.46033 80.8944 3.54013C80.8305 3.67579 80.7906 3.75559 80.7747 3.77953C80.7268 3.84338 80.655 3.92318 80.5592 4.01894C80.4634 4.10672 80.3956 4.17854 80.3557 4.2344C80.3158 4.29026 80.256 4.37405 80.1762 4.48577C80.0964 4.59749 80.0365 4.69325 79.9966 4.77305C79.9168 4.92467 79.845 5.10023 79.7812 5.29973C79.6854 5.61096 79.6255 5.79849 79.6016 5.86233C79.5777 5.91819 79.5577 5.97405 79.5418 6.02991C79.5019 6.13365 79.458 6.23739 79.4101 6.34113C79.3702 6.44487 79.3103 6.55659 79.2305 6.67629C79.1507 6.78801 79.0749 6.89973 79.0031 7.01145C78.9951 7.02741 78.9353 7.11918 78.8235 7.28677C78.7597 7.39051 78.7118 7.49026 78.6799 7.58602C78.624 7.72966 78.5921 7.81744 78.5841 7.84936C78.5762 7.88128 78.5722 7.93315 78.5722 8.00497C78.5722 8.05285 78.5762 8.09275 78.5841 8.12467C78.6001 8.18851 78.636 8.25634 78.6919 8.32816C78.7477 8.392 78.7916 8.44387 78.8235 8.48377C78.9193 8.57155 79.0191 8.65934 79.1228 8.74712C79.1707 8.82692 79.1946 8.92268 79.1946 9.0344C79.1866 9.13016 79.1826 9.20597 79.1826 9.26183C79.1826 9.36557 79.1587 9.50522 79.1108 9.68078C79.063 9.85634 79.039 9.99599 79.039 10.0997C79.0151 10.3312 79.0031 10.5307 79.0031 10.6982C79.0031 10.8339 79.0111 10.9815 79.027 11.1411C79.051 11.3007 79.0909 11.4803 79.1467 11.6798C79.2106 11.8793 79.2425 12.0389 79.2425 12.1586C79.2425 12.3341 79.2385 12.5177 79.2305 12.7092C79.2225 12.9007 79.2186 13.0164 79.2186 13.0563C79.2186 13.2638 79.2305 13.4434 79.2545 13.595C79.2784 13.7466 79.3263 13.9182 79.3981 14.1097C79.446 14.2533 79.5258 14.405 79.6375 14.5646C79.829 14.8519 79.9288 14.9995 79.9368 15.0075C79.9527 15.0314 80.0046 15.1192 80.0924 15.2708C80.1482 15.3666 80.2041 15.4464 80.26 15.5102C80.3956 15.6698 80.5592 15.8055 80.7507 15.9172C80.8784 15.981 80.9981 16.0409 81.1098 16.0967C81.2215 16.1526 81.3213 16.2045 81.4091 16.2524C81.5049 16.2923 81.6126 16.3242 81.7323 16.3481C81.86 16.3721 81.9876 16.392 82.1153 16.408C82.2191 16.4957 82.2989 16.5556 82.3547 16.5875C82.5063 16.6833 82.622 16.7511 82.7019 16.791C82.7896 16.8309 82.8774 16.8588 82.9652 16.8748C83.061 16.8908 83.1487 16.8987 83.2285 16.8987C83.3083 16.8987 83.4081 16.8947 83.5278 16.8868C83.6555 16.8708 83.7233 16.8628 83.7313 16.8628C83.8669 16.8628 83.9866 16.8708 84.0904 16.8868C84.1941 16.9027 84.3058 16.9346 84.4255 16.9825C84.4894 17.0065 84.5692 17.0543 84.6649 17.1262C84.7607 17.19 84.8445 17.2299 84.9163 17.2459C84.9881 17.2618 85.044 17.2698 85.0839 17.2698C85.1637 17.2698 85.2555 17.2538 85.3592 17.2219C85.4709 17.19 85.5787 17.1621 85.6824 17.1381C85.7861 17.1062 85.9058 17.0663 86.0415 17.0184C86.1772 16.9626 86.2849 16.9187 86.3647 16.8868L86.9632 16.6474C87.3303 16.4798 87.6814 16.2803 88.0166 16.0489C88.224 15.9132 88.3956 15.7855 88.5313 15.6658C88.7068 15.5142 88.8625 15.3626 88.9981 15.211C89.1737 15.0115 89.2774 14.8957 89.3093 14.8638C89.4051 14.7441 89.4969 14.6005 89.5846 14.4329C89.6724 14.2653 89.7363 14.0459 89.7762 13.7745C89.8241 13.5032 89.856 13.3237 89.8719 13.2359C89.9278 12.8529 89.9876 12.4658 90.0515 12.0748C90.0754 11.987 90.0994 11.9192 90.1233 11.8713C90.1792 11.7596 90.235 11.6479 90.2909 11.5361C90.3866 11.2409 90.4345 10.9416 90.4345 10.6384Z" fill="#212121"/>
<path d="M108.77 9.02243C108.77 9.10223 108.75 9.17405 108.71 9.23789C108.678 9.29375 108.618 9.36956 108.531 9.46532C108.483 9.52118 108.443 9.56108 108.411 9.58502C108.291 9.64886 108.199 9.70073 108.135 9.74063C108.08 9.78053 108.02 9.81644 107.956 9.84836C107.892 9.88028 107.84 9.91619 107.8 9.95609C107.76 9.99599 107.721 10.0479 107.681 10.1117C107.665 10.1356 107.609 10.2514 107.513 10.4588L107.274 10.9975C107.258 11.0454 107.23 11.1332 107.19 11.2608C107.158 11.3885 107.126 11.4962 107.094 11.584C107.062 11.6718 107.022 11.7636 106.974 11.8593C106.927 11.9551 106.887 12.0349 106.855 12.0987C106.767 12.3142 106.703 12.4658 106.663 12.5536C106.599 12.7052 106.524 12.8529 106.436 12.9965C106.356 13.1322 106.276 13.2638 106.196 13.3915C106.172 13.4633 106.156 13.5591 106.148 13.6788C106.14 13.7905 106.125 13.8743 106.101 13.9302C106.085 13.986 106.049 14.0618 105.993 14.1576C105.937 14.2454 105.897 14.3092 105.873 14.3491C105.857 14.381 105.817 14.4409 105.753 14.5287C105.698 14.6164 105.658 14.6923 105.634 14.7561C105.61 14.8199 105.586 14.9117 105.562 15.0314C105.538 15.1511 105.51 15.2548 105.478 15.3426C105.446 15.4304 105.422 15.4903 105.406 15.5222C105.358 15.594 105.323 15.6499 105.299 15.6898C105.283 15.7217 105.251 15.7696 105.203 15.8334C105.163 15.8893 105.135 15.9332 105.119 15.9651C105.095 16.0289 105.075 16.1047 105.059 16.1925C105.051 16.2723 105.043 16.3242 105.035 16.3481L104.856 16.9825C104.8 17.1421 104.748 17.3017 104.7 17.4613C104.636 17.581 104.576 17.7007 104.521 17.8204C104.441 17.9401 104.341 18 104.221 18C104.07 18 103.954 17.98 103.874 17.9401C103.794 17.9002 103.734 17.8284 103.695 17.7247C103.655 17.6209 103.619 17.5371 103.587 17.4733C103.563 17.4095 103.535 17.3097 103.503 17.174C103.471 17.0384 103.439 16.9267 103.407 16.8389C103.375 16.7431 103.339 16.6593 103.3 16.5875C103.26 16.5157 103.22 16.4439 103.18 16.3721C103.148 16.2923 103.116 16.2164 103.084 16.1446C103.02 16.009 102.976 15.9012 102.952 15.8214C102.929 15.7336 102.905 15.6259 102.881 15.4982C102.865 15.3706 102.841 15.2548 102.809 15.1511C102.785 15.0394 102.765 14.9636 102.749 14.9237C102.733 14.8758 102.701 14.796 102.653 14.6843C102.605 14.5726 102.573 14.4928 102.557 14.4449C102.518 14.3571 102.466 14.3052 102.402 14.2893C102.33 14.2653 102.23 14.2853 102.103 14.3491C102.023 14.389 101.963 14.4529 101.923 14.5406C101.883 14.6683 101.851 14.7641 101.827 14.8279C101.811 14.8678 101.799 14.9396 101.791 15.0434C101.783 15.1391 101.767 15.2149 101.743 15.2708C101.72 15.3187 101.672 15.3825 101.6 15.4623C101.528 15.5421 101.476 15.61 101.444 15.6658C101.436 15.6818 101.416 15.7376 101.384 15.8334C101.352 15.9212 101.321 15.993 101.289 16.0489C101.217 16.1526 101.149 16.2524 101.085 16.3481C101.061 16.404 101.045 16.4838 101.037 16.5875C101.029 16.6913 101.013 16.7711 100.989 16.8269C100.973 16.8828 100.953 16.9267 100.93 16.9586C100.882 17.0304 100.838 17.0942 100.798 17.1501C100.766 17.198 100.738 17.2698 100.714 17.3656C100.69 17.4613 100.662 17.5331 100.63 17.581C100.566 17.7007 100.527 17.7726 100.511 17.7965C100.463 17.8763 100.403 17.9322 100.331 17.9641C100.235 18.0279 100.128 18.0598 100.008 18.0598C99.8801 18.0598 99.7844 18.0519 99.7205 18.0359C99.6647 18.0279 99.6048 18 99.541 17.9521C99.4771 17.8962 99.4293 17.8364 99.3973 17.7726C99.3654 17.7087 99.3335 17.6369 99.3016 17.5571C99.2776 17.4693 99.2657 17.4095 99.2657 17.3775C99.2736 17.2339 99.2816 17.0903 99.2896 16.9466C99.2736 16.8748 99.2377 16.799 99.1819 16.7192C99.1021 16.5995 99.0582 16.5277 99.0502 16.5037L98.8347 15.9292C98.7869 15.7935 98.7589 15.7177 98.751 15.7017C98.6951 15.606 98.6552 15.5341 98.6313 15.4863C98.4876 15.3187 98.348 15.1471 98.2123 14.9716C98.1963 14.9077 98.1884 14.8638 98.1884 14.8399C98.1884 14.792 98.1924 14.7322 98.2003 14.6603C98.2163 14.5885 98.2243 14.5486 98.2243 14.5406C98.2243 14.4928 98.2203 14.4568 98.2123 14.4329C98.1963 14.385 98.1724 14.3332 98.1405 14.2773C98.0846 14.1895 98.0288 14.1017 97.9729 14.0139C97.9569 13.982 97.913 13.9142 97.8412 13.8105C97.7774 13.6987 97.7255 13.603 97.6856 13.5232C97.6537 13.4434 97.6138 13.3317 97.5659 13.188C97.55 13.1401 97.526 13.0843 97.4941 13.0204C97.4702 12.9486 97.4103 12.8289 97.3145 12.6613C97.2746 12.5975 97.2347 12.5297 97.1948 12.4578C97.0911 12.2982 96.9914 12.1386 96.8956 11.979L96.6801 11.5361C96.6243 11.3765 96.5804 11.2568 96.5485 11.177C96.5245 11.0893 96.5046 11.0015 96.4886 10.9137C96.4726 10.8259 96.4607 10.7262 96.4527 10.6144C96.4527 10.4947 96.4367 10.411 96.4048 10.3631C96.3809 10.3072 96.341 10.2553 96.2851 10.2075C96.1894 10.1356 96.1335 10.0878 96.1175 10.0638L95.8183 9.70472L95.543 9.44138L95.3036 9.10622C95.2796 9.0743 95.2597 9.03839 95.2437 8.99849C95.1958 8.92667 95.1639 8.85485 95.148 8.78303C95.14 8.70323 95.136 8.64337 95.136 8.60347C95.136 8.53963 95.1519 8.48776 95.1839 8.44786C95.2238 8.40796 95.2836 8.38402 95.3634 8.37604C95.4512 8.36008 95.5071 8.3521 95.531 8.3521C95.5629 8.3521 95.5829 8.3521 95.5909 8.3521C95.6547 8.3521 95.7345 8.36008 95.8303 8.37604C95.934 8.38402 95.9899 8.38801 95.9978 8.38801L96.9554 8.48377C97.0512 8.48377 97.1669 8.49574 97.3026 8.51968C97.4462 8.53564 97.538 8.54362 97.5779 8.54362C97.6737 8.54362 97.7614 8.53564 97.8412 8.51968C97.929 8.50372 98.0328 8.47978 98.1525 8.44786L98.4756 8.38801C98.5235 8.38801 98.5754 8.38402 98.6313 8.37604C98.6791 8.36806 98.727 8.36008 98.7749 8.3521C98.8387 8.3521 98.8906 8.37604 98.9305 8.42392C98.9704 8.4718 98.9904 8.5516 98.9904 8.66332C98.9904 8.71918 98.9704 8.78303 98.9305 8.85485C98.8906 8.91869 98.8547 8.98253 98.8228 9.04637C98.7909 9.11021 98.7549 9.17006 98.715 9.22592C98.6751 9.28178 98.6392 9.33764 98.6073 9.3935C98.5754 9.44138 98.5275 9.50921 98.4637 9.59699C98.3998 9.67679 98.3639 9.74462 98.3559 9.80048C98.34 9.88826 98.348 9.97604 98.3799 10.0638C98.4437 10.1835 98.4876 10.2753 98.5116 10.3391C98.5355 10.395 98.5754 10.4708 98.6313 10.5666C98.6871 10.6543 98.727 10.7182 98.751 10.7581C98.8068 10.8778 98.8507 10.9935 98.8826 11.1052C98.9145 11.2169 98.9505 11.3287 98.9904 11.4404L99.134 11.8952L99.2896 12.2783C99.3694 12.4778 99.4492 12.6773 99.529 12.8768C99.537 12.9007 99.549 12.9805 99.5649 13.1162C99.5809 13.2439 99.6048 13.3396 99.6367 13.4035C99.6766 13.4593 99.7086 13.4992 99.7325 13.5232C99.8442 13.6189 99.9041 13.6748 99.912 13.6908C99.944 13.7386 99.9719 13.8025 99.9958 13.8823C100.02 13.9541 100.048 14.0299 100.08 14.1097C100.112 14.1895 100.135 14.2454 100.151 14.2773C100.207 14.3571 100.247 14.4209 100.271 14.4688C100.327 14.5885 100.371 14.6843 100.403 14.7561C100.443 14.8279 100.499 14.8838 100.57 14.9237C100.642 14.9556 100.706 14.9755 100.762 14.9835C100.81 14.9915 100.858 14.9875 100.906 14.9716C100.953 14.9556 100.993 14.9277 101.025 14.8878C101.049 14.8558 101.073 14.812 101.097 14.7561C101.129 14.7002 101.145 14.6324 101.145 14.5526C101.137 14.4409 101.133 14.3531 101.133 14.2893C101.133 14.2334 101.137 14.1935 101.145 14.1696C101.161 14.0977 101.181 14.0419 101.205 14.002C101.229 13.9461 101.257 13.8903 101.289 13.8344L101.504 13.4154C101.56 13.3197 101.62 13.2199 101.684 13.1162C101.7 13.0683 101.708 13.0045 101.708 12.9247C101.708 12.8608 101.696 12.785 101.672 12.6972C101.648 12.6095 101.628 12.5257 101.612 12.4459C101.596 12.3661 101.572 12.2903 101.54 12.2184C101.484 12.1067 101.44 12.0149 101.408 11.9431C101.376 11.8633 101.321 11.7636 101.241 11.6439C101.169 11.5242 101.117 11.4284 101.085 11.3566C100.957 11.0933 100.846 10.8219 100.75 10.5426C100.742 10.5267 100.722 10.4469 100.69 10.3032C100.658 10.1596 100.618 10.0519 100.57 9.98003C100.491 9.82841 100.371 9.69674 100.211 9.58502C100.155 9.54512 100.088 9.50921 100.008 9.47729C99.928 9.43739 99.8682 9.40547 99.8283 9.38153L99.5529 9.20198C99.5051 9.16208 99.4572 9.11819 99.4093 9.07031C99.3614 9.02243 99.3295 8.96258 99.3135 8.89076C99.2976 8.81894 99.2896 8.76308 99.2896 8.72318C99.2896 8.61145 99.3255 8.52367 99.3973 8.45983C99.4692 8.39599 99.5809 8.36407 99.7325 8.36407C99.8362 8.36407 99.9081 8.36806 99.948 8.37604C100.012 8.392 100.124 8.41195 100.283 8.43589C100.443 8.45983 100.65 8.48377 100.906 8.50771C101.073 8.54761 101.241 8.58751 101.408 8.62741C101.488 8.62741 101.564 8.61943 101.636 8.60347C101.716 8.58751 101.847 8.56756 102.031 8.54362C102.222 8.5117 102.45 8.49574 102.713 8.49574C102.849 8.49574 102.988 8.49973 103.132 8.50771C103.284 8.50771 103.439 8.50771 103.599 8.50771C103.687 8.50771 103.794 8.51569 103.922 8.53165C104.058 8.53963 104.13 8.54362 104.137 8.54362C104.305 8.5117 104.473 8.47978 104.64 8.44786C104.8 8.48776 104.908 8.54761 104.963 8.62741C105.019 8.70722 105.047 8.79899 105.047 8.90273C105.047 8.98253 105.039 9.05036 105.023 9.10622C105.015 9.16208 105.003 9.20996 104.987 9.24986C104.971 9.28178 104.935 9.33365 104.88 9.40547C104.832 9.47729 104.748 9.54113 104.628 9.59699C104.564 9.62891 104.493 9.66881 104.413 9.71669C104.341 9.75659 104.289 9.78452 104.257 9.80048C104.153 9.85634 104.066 9.92417 103.994 10.004C103.922 10.0758 103.862 10.1596 103.814 10.2553C103.766 10.3431 103.723 10.4309 103.683 10.5187C103.603 10.6703 103.547 10.778 103.515 10.8419C103.459 10.9536 103.411 11.0693 103.371 11.189C103.339 11.3007 103.316 11.3925 103.3 11.4643C103.284 11.5361 103.284 11.608 103.3 11.6798C103.316 11.7436 103.347 11.8035 103.395 11.8593C103.443 11.9152 103.491 11.9671 103.539 12.0149L103.683 12.2543C103.738 12.3661 103.786 12.5217 103.826 12.7212C103.866 12.9207 103.89 13.0324 103.898 13.0563L104.042 13.6309C104.082 13.7825 104.122 13.9302 104.161 14.0738C104.217 14.1775 104.265 14.2613 104.305 14.3252C104.353 14.381 104.433 14.4369 104.544 14.4928C104.656 14.5406 104.748 14.5526 104.82 14.5287C104.892 14.5047 104.935 14.4489 104.951 14.3611C104.967 14.2653 104.983 14.1696 104.999 14.0738C105.055 13.9302 105.115 13.7825 105.179 13.6309C105.195 13.599 105.231 13.5591 105.287 13.5112C105.342 13.4633 105.378 13.4234 105.394 13.3915C105.418 13.3436 105.438 13.2798 105.454 13.2C105.47 13.1122 105.486 13.0164 105.502 12.9127C105.526 12.801 105.542 12.7132 105.55 12.6494C105.566 12.5855 105.594 12.5217 105.634 12.4578C105.698 12.394 105.765 12.3262 105.837 12.2543C105.877 12.1825 105.897 12.0987 105.897 12.003C105.897 11.9152 105.897 11.8514 105.897 11.8115C105.897 11.7556 105.897 11.7117 105.897 11.6798C105.905 11.6159 105.925 11.5202 105.957 11.3925C105.997 11.2648 106.017 11.1611 106.017 11.0813V10.5785C106.017 10.5147 106.025 10.4349 106.041 10.3391C106.057 10.2434 106.065 10.1716 106.065 10.1237C106.065 10.0598 106.061 10.012 106.053 9.98003C106.037 9.92417 106.021 9.87629 106.005 9.83639C105.981 9.78851 105.937 9.71669 105.873 9.62093C105.777 9.53315 105.686 9.44138 105.598 9.34562C105.55 9.25784 105.51 9.17405 105.478 9.09425C105.454 9.00647 105.454 8.92268 105.478 8.84288C105.534 8.65934 105.646 8.54761 105.813 8.50771C105.861 8.49973 105.909 8.50372 105.957 8.51968C106.005 8.53564 106.089 8.55559 106.208 8.57953C106.328 8.60347 106.484 8.6314 106.675 8.66332C106.731 8.65534 106.795 8.63141 106.867 8.59151C106.946 8.5516 107.03 8.52367 107.118 8.50771C107.206 8.48377 107.298 8.4718 107.393 8.4718C107.561 8.47978 107.693 8.48377 107.788 8.48377C107.852 8.48377 107.932 8.47579 108.028 8.45983C108.132 8.43589 108.191 8.42392 108.207 8.42392C108.239 8.42392 108.287 8.4319 108.351 8.44786C108.495 8.49574 108.606 8.57554 108.686 8.68727C108.742 8.79101 108.77 8.90273 108.77 9.02243ZM103.144 9.74063C103.144 9.71669 103.104 9.64487 103.024 9.52517C102.992 9.48527 102.964 9.44537 102.94 9.40547C102.917 9.38153 102.873 9.3536 102.809 9.32168C102.753 9.28178 102.697 9.26183 102.641 9.26183C102.53 9.26183 102.442 9.29774 102.378 9.36956C102.314 9.4334 102.282 9.5132 102.282 9.60896C102.282 9.65684 102.29 9.74462 102.306 9.8723C102.33 9.99998 102.39 10.1037 102.486 10.1835C102.526 10.2234 102.565 10.2593 102.605 10.2913C102.653 10.3232 102.705 10.3391 102.761 10.3391C102.825 10.3391 102.873 10.3032 102.905 10.2314C102.936 10.1516 102.968 10.0758 103 10.004C103.048 9.94811 103.08 9.90821 103.096 9.88427C103.136 9.83639 103.152 9.78851 103.144 9.74063Z" fill="#212121"/>
<path d="M115.735 17.5212C115.735 17.6568 115.676 17.7765 115.556 17.8803C115.5 17.9202 115.424 17.9441 115.328 17.9521C115.241 17.9601 115.165 17.9641 115.101 17.9641C115.013 17.9641 114.906 17.9561 114.778 17.9401C114.65 17.9162 114.57 17.9042 114.538 17.9042C114.451 17.9042 114.331 17.9002 114.179 17.8923C114.028 17.8843 113.908 17.8803 113.82 17.8803C113.701 17.8803 113.593 17.8883 113.497 17.9042C113.401 17.9202 113.31 17.9361 113.222 17.9521C113.134 17.9601 113.026 17.984 112.899 18.0239C112.771 18.0638 112.679 18.0878 112.623 18.0957H111.869H111.067C110.947 18.0878 110.852 18.0798 110.78 18.0718C110.708 18.0718 110.648 18.0519 110.6 18.012C110.552 17.9721 110.517 17.9282 110.493 17.8803C110.477 17.8484 110.453 17.7845 110.421 17.6888C110.389 17.593 110.373 17.5371 110.373 17.5212C110.373 17.4334 110.409 17.3576 110.481 17.2937C110.584 17.2219 110.664 17.1621 110.72 17.1142C110.784 17.0663 110.864 17.0224 110.959 16.9825C111.135 16.9107 111.231 16.8708 111.247 16.8628C111.326 16.8149 111.41 16.7671 111.498 16.7192C111.586 16.6633 111.662 16.5995 111.725 16.5277C111.797 16.4479 111.857 16.3521 111.905 16.2404C111.929 16.1925 111.965 16.0928 112.013 15.9411C112.061 15.7895 112.093 15.6658 112.109 15.5701C112.132 15.4743 112.144 15.3706 112.144 15.2588C112.136 15.1072 112.132 14.9915 112.132 14.9117C112.132 14.8479 112.14 14.788 112.156 14.7322C112.18 14.6763 112.216 14.6164 112.264 14.5526C112.312 14.4808 112.34 14.4329 112.348 14.409C112.388 14.2972 112.412 14.2134 112.42 14.1576C112.436 14.0937 112.444 14.0259 112.444 13.9541C112.436 13.8823 112.424 13.8224 112.408 13.7745C112.368 13.6628 112.348 13.603 112.348 13.595C112.34 13.5471 112.336 13.4753 112.336 13.3795C112.336 13.3077 112.344 13.2 112.36 13.0563C112.376 12.9127 112.384 12.793 112.384 12.6972C112.384 12.5855 112.376 12.4898 112.36 12.41C112.304 12.1307 112.276 11.987 112.276 11.979C112.276 11.8913 112.288 11.8154 112.312 11.7516C112.336 11.6878 112.376 11.6199 112.432 11.5481C112.488 11.4683 112.52 11.4125 112.527 11.3805C112.575 11.2449 112.599 11.1212 112.599 11.0095C112.599 10.9616 112.595 10.9017 112.587 10.8299C112.579 10.7581 112.571 10.7022 112.563 10.6623C112.555 10.6065 112.531 10.5227 112.492 10.411C112.46 10.2992 112.444 10.2354 112.444 10.2194C112.42 10.0598 112.408 9.92018 112.408 9.80048C112.408 9.73664 112.408 9.68477 112.408 9.64487C112.416 9.56507 112.452 9.45335 112.516 9.30971C112.587 9.16607 112.623 9.05036 112.623 8.96258C112.623 8.8748 112.615 8.76308 112.599 8.62741C112.591 8.48377 112.587 8.40397 112.587 8.38801L112.563 7.78951C112.563 7.63789 112.559 7.51819 112.551 7.43041C112.52 7.08726 112.504 6.88776 112.504 6.8319C112.504 6.72018 112.508 6.6324 112.516 6.56856C112.516 6.56058 112.527 6.49275 112.551 6.36507C112.575 6.22941 112.599 6.11769 112.623 6.02991C112.623 5.95809 112.619 5.90622 112.611 5.8743C112.579 5.7945 112.551 5.7147 112.527 5.6349C112.52 5.61096 112.512 5.52318 112.504 5.37156C112.504 5.21993 112.488 5.10422 112.456 5.02442C112.432 4.94462 112.4 4.87679 112.36 4.82093C112.328 4.76507 112.264 4.68926 112.168 4.5935C112.121 4.54562 112.073 4.50173 112.025 4.46183C111.985 4.41395 111.917 4.37405 111.821 4.34213C111.733 4.31021 111.63 4.2743 111.51 4.2344C111.374 4.12268 111.307 3.98303 111.307 3.81544C111.307 3.70372 111.33 3.60796 111.378 3.52816C111.402 3.48826 111.466 3.41245 111.57 3.30073C111.626 3.24487 111.694 3.19699 111.773 3.15709C111.893 3.09325 111.965 3.05335 111.989 3.03739L112.324 2.76208C112.452 2.6344 112.579 2.50672 112.707 2.37904C112.851 2.30722 112.95 2.25534 113.006 2.22343C113.07 2.18352 113.134 2.13564 113.198 2.07978C113.27 2.01594 113.337 1.95609 113.401 1.90023C113.505 1.80447 113.613 1.70472 113.725 1.60098C113.924 1.45734 114.124 1.34562 114.323 1.26582C114.395 1.2339 114.455 1.20597 114.503 1.18203C114.558 1.15809 114.61 1.14612 114.658 1.14612C114.754 1.14612 114.834 1.16607 114.898 1.20597C114.961 1.23789 115.025 1.29375 115.089 1.37355C115.153 1.44537 115.185 1.53714 115.185 1.64886C115.169 1.7925 115.161 1.90422 115.161 1.98402C115.161 2.1117 115.145 2.24338 115.113 2.37904C115.081 2.50672 115.049 2.6344 115.017 2.76208L114.862 3.33664L114.742 3.8753L114.682 4.43789V4.77305L114.718 5.85036L114.742 6.98751V7.82542C114.742 7.90522 114.75 8.00497 114.766 8.12467C114.782 8.23639 114.786 8.32417 114.778 8.38801C114.762 8.45185 114.73 8.53165 114.682 8.62741C114.634 8.72318 114.606 8.795 114.598 8.84288C114.542 8.97056 114.503 9.07031 114.479 9.14213C114.455 9.20597 114.443 9.28577 114.443 9.38153C114.443 9.48527 114.455 9.58502 114.479 9.68078C114.503 9.77654 114.523 9.85634 114.538 9.92018C114.546 9.9521 114.562 10.008 114.586 10.0878C114.61 10.1596 114.622 10.2234 114.622 10.2793C114.622 10.3431 114.61 10.4229 114.586 10.5187C114.57 10.6065 114.562 10.6663 114.562 10.6982V11.3207V11.7157C114.562 11.8194 114.562 11.9072 114.562 11.979C114.562 12.0429 114.57 12.1067 114.586 12.1706C114.602 12.2344 114.626 12.2903 114.658 12.3381C114.746 12.4818 114.794 12.5616 114.802 12.5775C114.858 12.7052 114.89 12.805 114.898 12.8768C114.898 12.9486 114.894 13.0005 114.886 13.0324C114.854 13.1122 114.826 13.192 114.802 13.2718L114.742 13.8344C114.734 13.9062 114.71 13.994 114.67 14.0977C114.638 14.2015 114.622 14.2733 114.622 14.3132C114.622 14.409 114.626 14.5007 114.634 14.5885C114.642 14.6683 114.654 14.7441 114.67 14.8159C114.686 14.8878 114.718 14.9676 114.766 15.0553C114.814 15.1351 114.838 15.199 114.838 15.2469C114.838 15.2868 114.818 15.3386 114.778 15.4025C114.746 15.4663 114.726 15.5142 114.718 15.5461C114.702 15.594 114.69 15.6459 114.682 15.7017C114.674 15.7576 114.67 15.8095 114.67 15.8573C114.67 15.9052 114.678 15.9651 114.694 16.0369C114.71 16.1087 114.726 16.1845 114.742 16.2643C114.79 16.4159 114.87 16.5636 114.981 16.7072C115.029 16.7711 115.073 16.8229 115.113 16.8628C115.201 16.9426 115.293 17.0224 115.388 17.1022C115.484 17.182 115.556 17.2419 115.604 17.2818C115.692 17.3536 115.735 17.4334 115.735 17.5212Z" fill="#212121"/>
</svg>
