<svg width="116" height="24" viewBox="0 0 116 24" fill="none" xmlns="http://www.w3.org/2000/svg">
<path d="M12.8558 14.11C12.8558 14.2057 12.8478 14.2855 12.8319 14.3494C12.8239 14.4132 12.8119 14.481 12.796 14.5528C12.7561 14.7763 12.6962 15.0157 12.6164 15.271C12.5845 15.4067 12.5605 15.4945 12.5446 15.5344C12.5286 15.5823 12.4927 15.6661 12.4369 15.7858C12.389 15.9055 12.3451 15.9972 12.3052 16.0611C12.2733 16.1249 12.2174 16.2007 12.1376 16.2885C12.0259 16.4082 11.8982 16.508 11.7546 16.5878C11.7147 16.6117 11.6588 16.6396 11.587 16.6715C11.5152 16.7035 11.4354 16.7394 11.3476 16.7793C11.2678 16.8192 11.164 16.9149 11.0364 17.0666C10.9167 17.2102 10.8049 17.31 10.7012 17.3658C10.6054 17.4217 10.5057 17.4696 10.4019 17.5095C10.3062 17.5494 10.2264 17.5813 10.1625 17.6052C10.0987 17.6292 9.98698 17.6651 9.82738 17.7129C9.66778 17.7528 9.54409 17.7808 9.45631 17.7967C9.36853 17.8127 9.28474 17.8287 9.20494 17.8446C9.13312 17.8526 8.91366 17.8725 8.54658 17.9045L7.74459 18.0002C7.51317 18.0002 7.24184 17.9962 6.93062 17.9883C6.62738 17.9723 6.4598 17.9643 6.42788 17.9643L5.76953 18.0002C5.64982 18.0002 5.50618 18.0042 5.3386 18.0122C5.179 18.0282 5.09122 18.0361 5.07526 18.0361C4.99546 18.0361 4.88773 18.0202 4.75207 17.9883C4.62439 17.9563 4.54459 17.9404 4.51267 17.9404C4.19347 17.9005 3.85431 17.8805 3.49521 17.8805C3.37551 17.8805 3.26778 17.8925 3.17202 17.9164C3.08424 17.9324 2.98848 17.9484 2.88474 17.9643C2.781 17.9803 2.64135 17.9962 2.46578 18.0122C2.2982 18.0282 2.16254 18.0361 2.0588 18.0361C1.94708 18.0361 1.84733 18.0321 1.75955 18.0242C1.67177 18.0242 1.56005 18.0042 1.42439 17.9643C1.25681 17.9404 1.12115 17.9164 1.01741 17.8925C0.913665 17.8686 0.861795 17.8047 0.861795 17.701C0.861795 17.6132 0.901695 17.5414 0.981496 17.4855C1.0613 17.4217 1.1411 17.3618 1.2209 17.306C1.4204 17.1703 1.6199 17.0307 1.8194 16.887C1.96304 16.7194 2.06279 16.5319 2.11865 16.3244C2.11067 16.1648 2.10668 16.0491 2.10668 15.9773C2.10668 15.9055 2.11865 15.8496 2.14259 15.8097C2.15855 15.7858 2.19446 15.7538 2.25032 15.7139C2.31416 15.674 2.35805 15.6381 2.38199 15.6062C2.44583 15.5264 2.47775 15.4187 2.47775 15.283C2.47775 15.2112 2.46977 15.1194 2.45381 15.0077C2.44583 14.896 2.44184 14.8361 2.44184 14.8282C2.44184 14.6446 2.44982 14.4212 2.46578 14.1578C2.48972 13.8865 2.5017 13.7109 2.5017 13.6311C2.5017 13.4715 2.48972 13.28 2.46578 13.0566C2.44982 12.8252 2.44184 12.6775 2.44184 12.6137C2.44184 12.4142 2.43785 12.1509 2.42987 11.8237C2.42189 11.4965 2.4179 11.2292 2.4179 11.0217L2.38199 9.10646V7.7299C2.38199 7.65808 2.378 7.55434 2.37002 7.41868C2.36204 7.27504 2.35805 7.16731 2.35805 7.09549C2.35805 6.97579 2.378 6.80821 2.4179 6.59275C2.42588 6.54487 2.46179 6.45709 2.52564 6.3294C2.58948 6.19374 2.6214 6.08202 2.6214 5.99424C2.62938 5.88252 2.6214 5.78277 2.59746 5.69499C2.5815 5.59923 2.55756 5.48352 2.52564 5.34786C2.49372 5.2122 2.4578 5.06058 2.4179 4.893C2.40992 4.83714 2.40593 4.78526 2.40593 4.73738C2.40593 4.69748 2.40593 4.66955 2.40593 4.65359C2.40593 4.54985 2.40992 4.41818 2.4179 4.25858C2.43386 4.09898 2.44184 4.0112 2.44184 3.99524C2.44184 3.86756 2.43785 3.74786 2.42987 3.63614C2.42987 3.52442 2.40593 3.39275 2.35805 3.24113C2.31815 3.0895 2.27825 2.97379 2.23835 2.89399C2.20643 2.81419 2.14658 2.71045 2.0588 2.58277C2.0189 2.52691 1.979 2.47105 1.9391 2.41519C1.85132 2.31145 1.75955 2.22766 1.66379 2.16382C1.63187 2.13988 1.58399 2.11195 1.52015 2.08003C1.41641 2.02417 1.31666 1.98826 1.2209 1.9723C1.13312 1.94836 1.04135 1.92442 0.945585 1.90048C0.857805 1.8526 0.789974 1.78477 0.742094 1.69699C0.694214 1.60921 0.682244 1.51743 0.706184 1.42167C0.722144 1.35783 0.758054 1.30197 0.813915 1.25409C0.837855 1.23813 0.885735 1.20621 0.957556 1.15833C1.03736 1.11045 1.10918 1.08252 1.17302 1.07454C1.23686 1.06656 1.31666 1.06257 1.41242 1.06257C1.48424 1.06257 1.5401 1.06257 1.58 1.06257C1.72364 1.06257 1.85132 1.06656 1.96304 1.07454C2.08274 1.08252 2.20643 1.09449 2.33411 1.11045C2.46179 1.12641 2.58549 1.15035 2.70519 1.18227C2.83287 1.20621 2.93661 1.22616 3.01641 1.24212L3.579 1.36182C3.76254 1.39374 3.89022 1.41768 3.96204 1.43364C4.03386 1.44162 4.10568 1.44561 4.17751 1.44561C4.28125 1.44561 4.38499 1.43364 4.48873 1.4097C4.60045 1.38576 4.72813 1.35783 4.87177 1.32591C5.04733 1.31793 5.22289 1.30596 5.39845 1.29C5.47825 1.29798 5.54209 1.30197 5.58997 1.30197C5.63785 1.30197 5.74958 1.32192 5.92514 1.36182C5.99696 1.37778 6.06479 1.38576 6.12863 1.38576C6.20843 1.39374 6.35207 1.40172 6.55955 1.4097C6.77501 1.41768 6.89072 1.42167 6.90668 1.42167L7.46928 1.44561H8.34309C8.51067 1.44561 8.6583 1.45758 8.78598 1.48152C8.91366 1.49748 9.07327 1.53738 9.26479 1.60123C9.45631 1.64911 9.59995 1.69699 9.69571 1.74487C9.79147 1.79275 10.0069 1.92442 10.3421 2.13988C10.4139 2.18776 10.4897 2.23963 10.5695 2.29549C10.6892 2.39125 10.8129 2.48701 10.9406 2.58277L11.3356 2.88202C11.4234 2.95384 11.5072 3.03364 11.587 3.12142C11.6668 3.20122 11.7506 3.28103 11.8384 3.36083C11.9261 3.43265 11.99 3.4925 12.0299 3.54038C12.0778 3.58028 12.1256 3.64013 12.1735 3.71993C12.2294 3.79175 12.2733 3.8915 12.3052 4.01918C12.3371 4.13888 12.365 4.24661 12.389 4.34237C12.4129 4.43015 12.4408 4.52591 12.4728 4.62965C12.5047 4.73339 12.5246 4.84113 12.5326 4.95285C12.5246 5.08851 12.5206 5.18826 12.5206 5.2521C12.5206 5.32392 12.5246 5.39175 12.5326 5.45559C12.5406 5.51145 12.5725 5.60322 12.6284 5.7309C12.6842 5.8506 12.7201 5.95035 12.7361 6.03015C12.7521 6.10197 12.76 6.19773 12.76 6.31743C12.76 6.42915 12.764 6.52093 12.772 6.59275C12.7401 6.86407 12.6603 7.10347 12.5326 7.31095C12.4209 7.51843 12.2812 7.67803 12.1137 7.78975C12.0578 7.82167 11.97 7.85758 11.8503 7.89748C11.7306 7.9294 11.6349 7.96531 11.563 8.00521C11.4992 8.03714 11.4553 8.06108 11.4314 8.07704C11.3755 8.12492 11.3316 8.16083 11.2997 8.18477C11.2678 8.20871 11.2199 8.26058 11.1561 8.34038C11.1002 8.4122 11.0603 8.46008 11.0364 8.48402C10.9805 8.52392 10.9047 8.56781 10.8089 8.61569C10.7132 8.65559 10.6573 8.67953 10.6413 8.68751C10.6094 8.70347 10.5376 8.7314 10.4259 8.7713C10.3221 8.80322 10.2543 8.8511 10.2224 8.91494C10.1985 8.9708 10.1865 9.02666 10.1865 9.08252C10.1865 9.14636 10.1905 9.19424 10.1985 9.22616C10.2144 9.29798 10.2663 9.36581 10.3541 9.42965C10.4498 9.48551 10.5576 9.54935 10.6773 9.62117C10.8847 9.8127 11.0922 10.0002 11.2997 10.1838C11.3476 10.2237 11.4274 10.2795 11.5391 10.3513C11.6508 10.4152 11.7306 10.479 11.7785 10.5429C11.8264 10.6067 11.8663 10.6785 11.8982 10.7583C11.9301 10.8381 11.962 10.9179 11.994 10.9977C12.1137 11.1972 12.2334 11.3967 12.3531 11.5962C12.385 11.676 12.4129 11.7917 12.4369 11.9434C12.4608 12.095 12.4807 12.2067 12.4967 12.2785L12.6523 12.9129C12.7002 13.0965 12.7441 13.284 12.784 13.4755C12.8319 13.6591 12.8558 13.8706 12.8558 14.11ZM10.0189 5.4915C10.0189 5.40372 10.0189 5.31993 10.0189 5.24013C10.0189 5.15235 10.0229 5.06457 10.0309 4.97679C10.0309 4.88103 10.0269 4.79724 10.0189 4.72541C10.0109 4.65359 9.99097 4.57778 9.95905 4.49798C9.93511 4.4102 9.91516 4.34237 9.8992 4.29449C9.8593 4.18277 9.8194 4.07105 9.7795 3.95933C9.74758 3.84761 9.69571 3.74786 9.62389 3.66008C9.59197 3.6122 9.53212 3.55634 9.44434 3.4925C9.36454 3.42866 9.31666 3.38477 9.3007 3.36083L9.14509 3.12142C9.07327 3.01768 9.02938 2.95384 9.01342 2.9299C8.95755 2.85808 8.9017 2.80222 8.84583 2.76232C8.71815 2.66656 8.55057 2.59873 8.34309 2.55883L7.94808 2.52292C7.9002 2.52292 7.82838 2.51893 7.73262 2.51095C7.63686 2.50297 7.56105 2.49898 7.50519 2.49898C7.44933 2.49898 7.3815 2.51095 7.30169 2.53489C7.22189 2.55085 7.17002 2.55883 7.14608 2.55883C7.05032 2.55883 6.96254 2.55085 6.88274 2.53489C6.81092 2.51893 6.74708 2.50696 6.69122 2.49898C6.66728 2.491 6.61541 2.47105 6.53561 2.43913C6.45581 2.39923 6.38798 2.37928 6.33212 2.37928C6.1805 2.36332 6.00893 2.39125 5.81741 2.46307C5.63386 2.53489 5.47825 2.66656 5.35057 2.85808C5.27077 2.9698 5.21491 3.07753 5.18299 3.18128C5.15107 3.27704 5.13511 3.39674 5.13511 3.54038C5.13511 3.60422 5.15107 3.67604 5.18299 3.75584C5.25481 3.93938 5.29072 4.05908 5.29072 4.11494C5.29072 4.1708 5.27476 4.24262 5.24284 4.3304C5.2189 4.41818 5.20294 4.48601 5.19496 4.53389L5.07526 4.97679C5.03536 5.11245 5.00743 5.21619 4.99147 5.28801C4.98349 5.35185 4.97152 5.43963 4.95556 5.55135C4.95556 5.61519 4.95157 5.67903 4.94359 5.74287C4.94359 5.79873 4.94359 5.85459 4.94359 5.91045C4.94359 5.99025 4.94758 6.05808 4.95556 6.11394C4.97152 6.1698 5.00743 6.2496 5.06329 6.35334C5.11915 6.4491 5.15506 6.5329 5.17102 6.60472C5.19496 6.66856 5.21491 6.7324 5.23087 6.79624C5.24683 6.86008 5.25481 6.9319 5.25481 7.0117V7.40671C5.27077 7.54237 5.28274 7.64212 5.29072 7.70596C5.30668 7.7698 5.3386 7.84162 5.38648 7.92142C5.43436 8.00122 5.49022 8.07305 5.55406 8.13689C5.62588 8.19275 5.76554 8.25659 5.97302 8.32841C6.0608 8.36033 6.13262 8.38028 6.18848 8.38826C6.25232 8.39624 6.32813 8.40023 6.41591 8.40023C6.58349 8.39225 6.71516 8.38826 6.81092 8.38826L7.52913 8.36432C7.64883 8.36432 7.73262 8.36432 7.7805 8.36432C7.95606 8.36432 8.10369 8.35235 8.22339 8.32841C8.34309 8.30447 8.45481 8.27654 8.55855 8.24462C8.66229 8.20472 8.75805 8.16083 8.84583 8.11295C8.93361 8.05709 9.02139 7.98526 9.10918 7.89748C9.14908 7.85758 9.2209 7.78177 9.32464 7.67005C9.39646 7.59823 9.44434 7.55035 9.46828 7.52641C9.51616 7.47853 9.56005 7.42666 9.59995 7.3708C9.71167 7.22716 9.77551 7.13938 9.79147 7.10746C9.84733 7.01968 9.89122 6.91594 9.92314 6.79624C9.96304 6.67654 9.98299 6.53689 9.98299 6.37729C9.98299 6.26556 9.98299 6.17778 9.98299 6.11394L10.0189 5.4915ZM10.2822 13.2122C10.2743 13.1484 10.2503 13.0686 10.2104 12.9728C10.1705 12.8691 10.1466 12.7972 10.1386 12.7573C10.1067 12.6456 10.0788 12.5459 10.0548 12.4581C10.0389 12.3623 10.0269 12.2825 10.0189 12.2187L9.92314 11.8356C9.88324 11.6202 9.84334 11.4007 9.80344 11.1773C9.77152 11.0496 9.7396 10.9459 9.70768 10.8661C9.64384 10.7464 9.59596 10.6506 9.56404 10.5788C9.47626 10.4032 9.4204 10.2915 9.39646 10.2436C9.33262 10.1399 9.25282 10.0441 9.15706 9.95634C9.0613 9.86856 8.98549 9.80871 8.92962 9.77679C8.84184 9.72093 8.75406 9.67703 8.66628 9.64511C8.50668 9.58925 8.34708 9.56132 8.18748 9.56132C8.10768 9.56132 8.01192 9.57329 7.9002 9.59723C7.78848 9.6132 7.71666 9.62117 7.68474 9.62117C7.61292 9.6132 7.52913 9.58925 7.43337 9.54935C7.33761 9.50147 7.24982 9.47354 7.17002 9.46556C7.0982 9.4496 7.02239 9.43763 6.94259 9.42965C6.86279 9.41369 6.75905 9.40571 6.63137 9.40571C6.51965 9.40571 6.41192 9.4097 6.30818 9.41768C6.21242 9.41768 6.11267 9.43364 6.00893 9.46556C5.90519 9.49748 5.81342 9.54137 5.73361 9.59723C5.68573 9.62916 5.60593 9.69699 5.49421 9.80073C5.19895 10.088 5.05132 10.4351 5.05132 10.8421C5.05132 10.9299 5.07526 11.0416 5.12314 11.1773C5.17102 11.3129 5.19496 11.4207 5.19496 11.5005C5.19496 11.6441 5.17501 11.7838 5.13511 11.9194C5.09521 12.0471 5.06728 12.1389 5.05132 12.1947C4.93162 12.4182 4.83985 12.5818 4.77601 12.6855C4.72015 12.7893 4.69222 12.893 4.69222 12.9967C4.69222 13.0765 4.69621 13.1324 4.70419 13.1643C4.71217 13.2122 4.74808 13.296 4.81192 13.4157C4.82788 13.4636 4.87576 13.5274 4.95556 13.6072C5.03536 13.687 5.08723 13.7628 5.11117 13.8346C5.13511 13.9065 5.14708 13.9783 5.14708 14.0501C5.14708 14.106 5.1391 14.1818 5.12314 14.2775C5.11516 14.3733 5.11117 14.4252 5.11117 14.4331C5.11117 14.5369 5.10319 14.6326 5.08723 14.7204C5.07925 14.8002 5.05531 14.904 5.01541 15.0316C4.95157 15.1912 4.89172 15.3509 4.83586 15.5105C4.82788 15.5504 4.82389 15.6102 4.82389 15.69C4.82389 15.8177 4.8598 15.9494 4.93162 16.085C4.9795 16.1728 5.0593 16.2486 5.17102 16.3124C5.28274 16.3683 5.37052 16.4122 5.43436 16.4441L5.85332 16.6237C6.0209 16.6875 6.16454 16.7354 6.28424 16.7673C6.40394 16.7992 6.55157 16.8311 6.72713 16.8631C6.79097 16.871 6.87875 16.879 6.99047 16.887C7.10219 16.895 7.20194 16.899 7.28973 16.899C7.39347 16.899 7.49721 16.899 7.60095 16.899C7.71267 16.899 7.82838 16.895 7.94808 16.887C8.24334 16.887 8.53461 16.8391 8.82189 16.7434C8.94958 16.6955 9.04135 16.6596 9.09721 16.6356C9.20095 16.5878 9.28873 16.5319 9.36055 16.4681C9.43237 16.4042 9.5002 16.3284 9.56404 16.2406C9.59596 16.1927 9.64783 16.101 9.71965 15.9653C9.75955 15.8696 9.79546 15.7499 9.82738 15.6062C9.86728 15.4626 9.90319 15.3548 9.93511 15.283C9.96703 15.2112 10.0029 15.1274 10.0428 15.0316C10.0508 15.0077 10.0588 14.9678 10.0668 14.9119C10.0668 14.872 10.0708 14.8321 10.0788 14.7922C10.0788 14.7523 10.0788 14.7124 10.0788 14.6725C10.0708 14.6007 10.0628 14.5249 10.0548 14.4451C10.0548 14.4132 10.0628 14.3573 10.0788 14.2775C10.0947 14.1977 10.1266 14.11 10.1745 14.0142C10.2224 13.9105 10.2543 13.8107 10.2703 13.7149C10.2862 13.6192 10.2942 13.5154 10.2942 13.4037C10.2942 13.3239 10.2902 13.2601 10.2822 13.2122Z" fill="#212121"/>
<path d="M21.4186 17.282C21.3867 17.3459 21.3308 17.4137 21.251 17.4855C21.1712 17.5494 21.1074 17.6012 21.0595 17.6411C20.9318 17.7369 20.8121 17.8127 20.7004 17.8686C20.5967 17.9244 20.477 17.9683 20.3413 18.0002C20.2136 18.0321 20.0859 18.0481 19.9583 18.0481C19.7907 18.0401 19.659 18.0361 19.5632 18.0361C19.26 18.0361 18.9687 17.9723 18.6894 17.8446C18.6495 17.8287 18.5777 17.7768 18.474 17.689C18.3782 17.5932 18.2904 17.5454 18.2106 17.5454C18.1388 17.5454 18.075 17.5613 18.0191 17.5932C17.9233 17.6571 17.8276 17.7209 17.7318 17.7848C17.66 17.8167 17.5762 17.8566 17.4805 17.9045C17.3927 17.9444 17.2889 17.9763 17.1692 18.0002C17.0495 18.0242 16.9378 18.0361 16.8341 18.0361C16.7463 18.0361 16.6306 18.0282 16.4869 18.0122C16.3433 18.0042 16.2595 18.0002 16.2356 18.0002C16.0919 18.0002 15.9842 18.0002 15.9124 18.0002C15.7927 18.0002 15.681 17.9922 15.5772 17.9763C15.4735 17.9523 15.3697 17.9085 15.266 17.8446C15.1702 17.7808 15.0904 17.709 15.0266 17.6292C14.9468 17.5015 14.879 17.4017 14.8231 17.3299C14.7672 17.2501 14.7074 17.1663 14.6435 17.0785C14.5797 16.9828 14.5438 16.879 14.5358 16.7673C14.5358 16.7035 14.5438 16.6277 14.5598 16.5399C14.5837 16.4441 14.5957 16.3803 14.5957 16.3484C14.5957 16.2526 14.5997 16.1249 14.6076 15.9653C14.6156 15.7977 14.6196 15.6661 14.6196 15.5703L14.6795 15.0676C14.7273 14.8681 14.7672 14.7284 14.7992 14.6486C14.8311 14.5688 14.9029 14.4691 15.0146 14.3494C15.0625 14.2935 15.1343 14.2336 15.2301 14.1698C15.3258 14.106 15.3937 14.0541 15.4336 14.0142C15.5134 13.9264 15.5932 13.8426 15.673 13.7628C15.7608 13.675 15.8964 13.5992 16.08 13.5354C16.2715 13.4715 16.4031 13.4237 16.475 13.3917C16.5867 13.3359 16.7104 13.2681 16.846 13.1883C16.9258 13.1404 17.0296 13.0765 17.1573 12.9967C17.2929 12.909 17.4126 12.8292 17.5164 12.7573C17.6281 12.6855 17.7318 12.5977 17.8276 12.494C17.9792 12.3344 18.0829 12.2107 18.1388 12.1229C18.2027 12.0272 18.2625 11.8995 18.3184 11.7399C18.3822 11.5803 18.4261 11.4207 18.45 11.2611C18.474 11.1015 18.4859 10.9419 18.4859 10.7823C18.4859 10.7025 18.4899 10.6267 18.4979 10.5548C18.5059 10.475 18.5139 10.3992 18.5219 10.3274C18.5219 10.2077 18.4899 10.1 18.4261 10.0042C18.3623 9.90846 18.2825 9.83265 18.1867 9.77679C18.0989 9.71295 17.9992 9.68103 17.8874 9.68103C17.7917 9.68103 17.6919 9.70896 17.5882 9.76482C17.4924 9.82068 17.4007 9.87255 17.3129 9.92043C17.1214 10.0321 16.9338 10.1399 16.7503 10.2436C16.6545 10.2835 16.5468 10.3154 16.4271 10.3394C16.3074 10.3633 16.1797 10.3873 16.044 10.4112C15.9084 10.4272 15.7608 10.4471 15.6012 10.4711C15.5214 10.4711 15.4376 10.4551 15.3498 10.4232C15.262 10.3833 15.1822 10.3394 15.1104 10.2915C15.0465 10.2436 15.0026 10.1798 14.9787 10.1C14.9548 10.0202 14.9588 9.93639 14.9907 9.84861C15.1104 9.68102 15.1982 9.55334 15.254 9.46556C15.3418 9.3299 15.4376 9.21419 15.5413 9.11843C15.5972 9.06257 15.7169 8.9708 15.9004 8.84312C16.0919 8.70746 16.2595 8.59973 16.4031 8.51993C16.5468 8.44013 16.7224 8.37629 16.9298 8.32841C17.1373 8.27255 17.3967 8.24462 17.7079 8.24462C17.9712 8.24462 18.2066 8.27255 18.4141 8.32841C18.6216 8.38427 18.853 8.47604 19.1084 8.60372C19.3079 8.69948 19.4396 8.76731 19.5034 8.80721C19.6231 8.87903 19.7268 8.97878 19.8146 9.10646C19.9104 9.22616 19.9862 9.37379 20.0421 9.54935C20.066 9.62117 20.1059 9.78477 20.1618 10.0401C20.2176 10.2955 20.2455 10.5429 20.2455 10.7823C20.2455 10.8621 20.2416 10.9898 20.2336 11.1653C20.2256 11.3409 20.2216 11.4845 20.2216 11.5962L20.2455 13.3319C20.2455 13.4755 20.2416 13.6671 20.2336 13.9065C20.2256 14.1459 20.2216 14.3414 20.2216 14.493C20.2216 14.5967 20.1977 14.7404 20.1498 14.9239C20.1099 15.1075 20.0899 15.2311 20.0899 15.295C20.0899 15.3588 20.0939 15.4107 20.1019 15.4506C20.1498 15.69 20.1937 15.8496 20.2336 15.9294C20.2815 16.0092 20.3573 16.089 20.461 16.1688C20.5169 16.2087 20.6046 16.2526 20.7243 16.3005C20.844 16.3404 20.9398 16.3723 21.0116 16.3962C21.0834 16.4202 21.1513 16.4441 21.2151 16.4681C21.279 16.492 21.3348 16.5319 21.3827 16.5878C21.4625 16.6915 21.5024 16.8072 21.5024 16.9349C21.5024 17.0227 21.4745 17.1384 21.4186 17.282ZM18.4261 16.085C18.45 16.0212 18.462 15.9613 18.462 15.9055C18.462 15.8576 18.454 15.8017 18.4381 15.7379C18.4221 15.674 18.4022 15.5982 18.3782 15.5105C18.3543 15.4227 18.3303 15.3229 18.3064 15.2112C18.3064 15.1713 18.3263 15.1194 18.3662 15.0556C18.4061 14.9917 18.4261 14.9359 18.4261 14.888C18.4261 14.8242 18.4022 14.7523 18.3543 14.6725C18.3064 14.5927 18.2785 14.5329 18.2705 14.493C18.2625 14.4132 18.2705 14.3214 18.2944 14.2177C18.3184 14.1139 18.3303 14.0461 18.3303 14.0142C18.3383 13.9663 18.3423 13.8985 18.3423 13.8107C18.3423 13.7628 18.3383 13.7229 18.3303 13.691C18.2984 13.5314 18.2545 13.4277 18.1987 13.3798C18.1508 13.3239 18.0949 13.296 18.0311 13.296C17.9433 13.296 17.8356 13.3598 17.7079 13.4875C17.5164 13.679 17.4046 13.7868 17.3727 13.8107C17.2291 13.9144 17.1293 13.9903 17.0735 14.0381C16.9777 14.1179 16.8979 14.2097 16.8341 14.3134C16.7463 14.473 16.6825 14.6326 16.6426 14.7922C16.6027 14.9518 16.5747 15.0715 16.5588 15.1514C16.5508 15.2232 16.5468 15.303 16.5468 15.3908C16.5468 15.4386 16.5548 15.5344 16.5707 15.678C16.5867 15.8137 16.6026 15.9174 16.6186 15.9893C16.6425 16.0531 16.6944 16.1329 16.7742 16.2287C16.9179 16.4042 17.0974 16.504 17.3129 16.5279C17.4485 16.5518 17.5682 16.5439 17.672 16.504C17.7837 16.4561 17.8635 16.4242 17.9114 16.4082C18.0869 16.3364 18.1867 16.2965 18.2106 16.2885C18.3144 16.2406 18.3862 16.1728 18.4261 16.085Z" fill="#212121"/>
<path d="M29.3534 8.98676C29.3693 9.02666 29.3693 9.08651 29.3534 9.16631C29.3374 9.24611 29.3294 9.29798 29.3294 9.32192C29.3294 9.4097 29.3294 9.47753 29.3294 9.52541C29.3294 9.66108 29.3175 9.7728 29.2935 9.86058C29.2456 10.0601 29.1658 10.2277 29.0541 10.3633C28.8945 10.5708 28.707 10.6905 28.4915 10.7224C28.4596 10.7304 28.4117 10.7344 28.3479 10.7344C28.2681 10.7344 28.1843 10.7224 28.0965 10.6985C28.0167 10.6745 27.9489 10.6546 27.893 10.6386C27.7733 10.5987 27.6815 10.5668 27.6177 10.5429C27.5618 10.5189 27.506 10.483 27.4501 10.4351C27.4022 10.3873 27.3584 10.3114 27.3185 10.2077C27.2786 10.096 27.2387 10.0202 27.1988 9.98028C27.1589 9.9324 27.115 9.88452 27.0671 9.83664C27.0192 9.78876 26.9633 9.76482 26.8995 9.76482C26.8596 9.7728 26.7918 9.83265 26.696 9.94437C26.6322 10.0162 26.5883 10.0641 26.5643 10.088C26.5165 10.1359 26.4806 10.1878 26.4566 10.2436C26.4087 10.3314 26.3768 10.4391 26.3608 10.5668C26.3449 10.6865 26.3369 10.7583 26.3369 10.7823C26.3369 10.8541 26.3449 10.9459 26.3608 11.0576C26.3848 11.1613 26.3968 11.2292 26.3968 11.2611L26.3608 11.7997L26.301 12.6735L26.2771 13.272V14.5528C26.2771 14.7124 26.2731 14.8601 26.2651 14.9957C26.2571 15.1314 26.2491 15.2631 26.2411 15.3908C26.2411 15.4706 26.2451 15.5543 26.2531 15.6421C26.2611 15.7219 26.2771 15.8097 26.301 15.9055C26.3249 15.9932 26.3489 16.077 26.3728 16.1568C26.4047 16.2366 26.4446 16.3204 26.4925 16.4082C26.5484 16.496 26.6521 16.5878 26.8037 16.6835C26.9554 16.7713 27.0591 16.8511 27.115 16.9229C27.1788 16.9947 27.2426 17.0706 27.3065 17.1504C27.3703 17.2222 27.3943 17.306 27.3783 17.4017C27.3783 17.5294 27.2985 17.6371 27.1389 17.7249C27.0751 17.7648 27.0032 17.7848 26.9234 17.7848C26.8117 17.7688 26.7239 17.7608 26.6601 17.7608H25.8581H25.3195C25.2397 17.7608 25.1638 17.7608 25.092 17.7608C25.0761 17.7608 24.9524 17.7808 24.7209 17.8207C24.6411 17.8287 24.5534 17.8486 24.4576 17.8805C24.3698 17.9045 24.298 17.9244 24.2421 17.9404C24.1943 17.9484 24.1185 17.9683 24.0147 18.0002C23.911 18.0401 23.8272 18.0601 23.7633 18.0601C23.6436 18.076 23.5239 18.092 23.4042 18.108C23.3404 18.108 23.2806 18.092 23.2247 18.0601C23.1209 17.9962 23.0531 17.9124 23.0212 17.8087C22.9973 17.697 22.9853 17.6292 22.9853 17.6052C22.9853 17.4855 23.0332 17.3578 23.1289 17.2222C23.1768 17.1583 23.2486 17.1025 23.3444 17.0546C23.4402 17.0067 23.508 16.9708 23.5479 16.9469C23.7075 16.8671 23.8192 16.8112 23.883 16.7793C24.0027 16.7154 24.0905 16.6396 24.1464 16.5518C24.2102 16.4641 24.2461 16.3484 24.2541 16.2047C24.2701 16.0611 24.282 15.9414 24.29 15.8456C24.306 15.7499 24.314 15.674 24.314 15.6182C24.314 15.5543 24.314 15.5105 24.314 15.4865C24.314 15.3509 24.314 15.2351 24.314 15.1394C24.314 15.0356 24.3219 14.9199 24.3379 14.7922C24.3618 14.6566 24.3898 14.497 24.4217 14.3134C24.4137 14.2416 24.3818 14.1578 24.3259 14.0621C24.2781 13.9583 24.2501 13.8825 24.2421 13.8346C24.2342 13.8027 24.2302 13.7748 24.2302 13.7509C24.2302 13.711 24.2302 13.683 24.2302 13.6671C24.2302 13.5952 24.2382 13.5114 24.2541 13.4157C24.2701 13.3119 24.286 13.2122 24.302 13.1164C24.302 13.0287 24.31 12.9169 24.3259 12.7813C24.3499 12.6376 24.3618 12.5499 24.3618 12.5179C24.3618 12.3743 24.3579 12.2466 24.3499 12.1349C24.3419 12.0152 24.3259 11.8955 24.302 11.7758C24.286 11.6481 24.2701 11.5444 24.2541 11.4646C24.2382 11.3848 24.2102 11.293 24.1703 11.1893C24.1384 11.0775 24.1065 10.9698 24.0746 10.8661C24.0267 10.7623 23.9668 10.6825 23.895 10.6267C23.8312 10.5628 23.7394 10.5229 23.6197 10.507C23.5 10.483 23.4042 10.4551 23.3324 10.4232C23.2686 10.3913 23.2008 10.3593 23.1289 10.3274C23.0571 10.2875 23.0092 10.2396 22.9853 10.1838C22.9613 10.1199 22.9494 10.0641 22.9494 10.0162C22.9494 9.91245 22.9893 9.80073 23.0691 9.68103C23.1249 9.60122 23.2007 9.54536 23.2965 9.51344C23.4002 9.47355 23.504 9.43763 23.6077 9.40571L24.2421 9.20222C24.3938 9.14636 24.4776 9.11444 24.4935 9.10646C24.5813 9.06656 24.6651 9.02666 24.7449 8.98676C24.8805 8.92292 25.0042 8.8511 25.116 8.7713C25.2596 8.65958 25.3753 8.5718 25.4631 8.50796C25.487 8.492 25.5509 8.43215 25.6546 8.32841C25.7264 8.25659 25.7943 8.21669 25.8581 8.20871C25.9539 8.20073 26.0297 8.20871 26.0855 8.23265C26.1494 8.25659 26.2052 8.31245 26.2531 8.40023C26.301 8.48801 26.3489 8.54387 26.3968 8.56781C26.4845 8.63165 26.5723 8.66357 26.6601 8.66357C26.7319 8.66357 26.7918 8.64761 26.8397 8.61569C26.9274 8.55185 27.0192 8.48801 27.115 8.42417C27.2825 8.34437 27.4302 8.28851 27.5579 8.25659C27.6855 8.22467 27.7933 8.20073 27.881 8.18477C27.9768 8.16083 28.0606 8.14886 28.1324 8.14886C28.2282 8.14886 28.316 8.16482 28.3958 8.19674C28.4197 8.20472 28.4995 8.24861 28.6352 8.32841C28.707 8.36831 28.7748 8.42816 28.8387 8.50796C28.9105 8.57978 28.9823 8.6516 29.0541 8.72342C29.0701 8.73938 29.118 8.77529 29.1978 8.83115C29.2855 8.88701 29.3374 8.93888 29.3534 8.98676Z" fill="#212121"/>
<path d="M41.2119 17.7249C41.1879 17.8606 41.1161 17.9723 40.9964 18.0601C40.9485 18.1 40.8807 18.1199 40.7929 18.1199C40.7451 18.1199 40.6692 18.108 40.5655 18.084C40.4697 18.0681 40.4059 18.0601 40.374 18.0601C40.2463 18.0601 40.1585 18.0561 40.1106 18.0481C39.967 18.0162 39.8234 17.9883 39.6797 17.9643L38.6024 17.8805L38.1835 17.8446C38.0957 17.8446 37.984 17.8606 37.8483 17.8925C37.7206 17.9164 37.6129 17.9364 37.5251 17.9523C37.4453 17.9683 37.3456 17.9843 37.2259 18.0002C37.1062 17.9922 36.9984 17.9444 36.9027 17.8566C36.8069 17.7608 36.751 17.677 36.7351 17.6052C36.7191 17.5334 36.7111 17.4656 36.7111 17.4017C36.7111 17.3538 36.7191 17.29 36.7351 17.2102C36.759 17.1304 36.775 17.0745 36.783 17.0426C36.8468 16.891 36.9146 16.7394 36.9865 16.5878L37.0224 16.2646C37.0144 16.1608 36.9785 16.0651 36.9146 15.9773C36.8588 15.8815 36.8029 15.7898 36.7471 15.702C36.6992 15.6062 36.6393 15.5065 36.5675 15.4027C36.4957 15.291 36.4358 15.1992 36.3879 15.1274C36.3002 14.9838 36.2363 14.88 36.1964 14.8162C36.1565 14.7444 36.0927 14.6526 36.0049 14.5409C35.9171 14.4212 35.8293 14.3015 35.7416 14.1818C35.6538 14.0621 35.566 13.9663 35.4782 13.8945C35.3904 13.8227 35.3266 13.7708 35.2867 13.7389C35.2149 13.683 35.1431 13.6551 35.0712 13.6551C34.9994 13.6551 34.9436 13.6631 34.9037 13.679C34.8558 13.695 34.772 13.7469 34.6523 13.8346C34.5007 13.9703 34.4009 14.1419 34.353 14.3494C34.3371 14.4292 34.3411 14.5289 34.365 14.6486C34.3969 14.7683 34.4129 14.8481 34.4129 14.888C34.4129 14.9598 34.4169 15.0277 34.4249 15.0915C34.4328 15.1553 34.4408 15.2192 34.4488 15.283C34.4488 15.3469 34.4368 15.4147 34.4129 15.4865C34.3171 15.5903 34.2573 15.682 34.2333 15.7618C34.2094 15.8416 34.1974 15.9134 34.1974 15.9773C34.1974 16.0411 34.2094 16.109 34.2333 16.1808C34.2573 16.2446 34.2892 16.3045 34.3291 16.3603C34.369 16.4082 34.4129 16.4681 34.4608 16.5399C34.5086 16.6037 34.5605 16.6715 34.6164 16.7434C34.6722 16.8072 34.7241 16.8671 34.772 16.9229C34.8837 17.0267 34.9954 17.1264 35.1072 17.2222C35.163 17.294 35.2189 17.3658 35.2747 17.4376C35.3386 17.5015 35.3705 17.5773 35.3705 17.6651C35.3705 17.8326 35.3226 17.9563 35.2269 18.0361C35.1949 18.0601 35.0952 18.08 34.9276 18.096H34.4727L33.9341 18.0601L33.551 18.0002C33.4473 18.0002 33.3236 18.0042 33.18 18.0122C33.0363 18.0282 32.9605 18.0361 32.9525 18.0361C32.777 18.0282 32.6453 18.0242 32.5575 18.0242C32.4618 18.0242 32.382 18.0282 32.3181 18.0361C32.2782 18.0361 32.1865 18.0561 32.0428 18.096C31.987 18.1119 31.9311 18.1199 31.8752 18.1199C31.8114 18.1199 31.7675 18.1199 31.7436 18.1199C31.6239 18.1199 31.5121 18.104 31.4084 18.072C31.3047 18.0401 31.2368 18.0162 31.2049 18.0002C31.157 17.9763 31.0892 17.9324 31.0014 17.8686C30.9216 17.8047 30.8737 17.7369 30.8578 17.6651C30.8418 17.5932 30.8658 17.5294 30.9296 17.4735C30.9934 17.4097 31.0613 17.3379 31.1331 17.2581C31.2049 17.1783 31.2608 17.1144 31.3007 17.0666C31.3725 16.9868 31.4443 16.9269 31.5161 16.887C31.6438 16.8391 31.7715 16.7913 31.8992 16.7434C31.9949 16.6795 32.0707 16.5917 32.1266 16.48C32.1825 16.3683 32.2104 16.2526 32.2104 16.1329C32.1944 15.9972 32.1865 15.8895 32.1865 15.8097C32.1944 15.7618 32.1984 15.7219 32.1984 15.69L32.2942 15.1514L32.3181 14.7324C32.3181 14.6526 32.3062 14.5568 32.2822 14.4451C32.2663 14.3334 32.2583 14.2616 32.2583 14.2297C32.2583 14.1259 32.2623 14.0461 32.2702 13.9903C32.2862 13.9264 32.3022 13.8546 32.3181 13.7748L32.4378 13.1164C32.4697 12.9329 32.5017 12.7454 32.5336 12.5538C32.5336 12.4022 32.5256 12.2306 32.5096 12.0391C32.5017 11.8396 32.4977 11.7319 32.4977 11.7159C32.4977 11.6361 32.5017 11.5444 32.5096 11.4406C32.5256 11.3289 32.5336 11.2691 32.5336 11.2611C32.5256 11.1893 32.4977 11.1015 32.4498 10.9977C32.4099 10.894 32.382 10.8062 32.366 10.7344C32.358 10.6546 32.354 10.5349 32.354 10.3753C32.354 10.2157 32.354 10.084 32.354 9.98028C32.354 9.78876 32.362 9.56133 32.378 9.29798C32.4019 9.03464 32.4139 8.87105 32.4139 8.80721L32.4378 7.94536C32.4378 7.86556 32.4418 7.77379 32.4498 7.67005C32.4658 7.55833 32.4737 7.49848 32.4737 7.4905C32.4658 7.43464 32.4458 7.36681 32.4139 7.28701C32.382 7.19923 32.362 7.14736 32.354 7.1314C32.3381 7.06756 32.3181 6.99175 32.2942 6.90397C32.2702 6.80821 32.2583 6.70447 32.2583 6.59275C32.2663 6.54487 32.2782 6.493 32.2942 6.43714C32.3101 6.38128 32.3341 6.30147 32.366 6.19773C32.4059 6.08601 32.4498 5.95833 32.4977 5.81469C32.4977 5.75883 32.4777 5.69499 32.4378 5.62317C32.4059 5.54337 32.386 5.48751 32.378 5.45559C32.37 5.39175 32.37 5.32392 32.378 5.2521C32.386 5.18028 32.3939 5.10846 32.4019 5.03664C32.4019 4.9728 32.3899 4.91295 32.366 4.85709C32.35 4.80122 32.3062 4.73738 32.2343 4.66556C32.1705 4.59374 32.1146 4.53788 32.0668 4.49798C32.0269 4.4501 31.959 4.39823 31.8633 4.34237C31.7675 4.27853 31.6997 4.23065 31.6598 4.19873C31.58 4.12691 31.5321 4.08302 31.5161 4.06706C31.4762 4.01918 31.4403 3.9713 31.4084 3.92342C31.3765 3.87554 31.3525 3.83165 31.3366 3.79175C31.2887 3.71195 31.2687 3.64013 31.2767 3.57629C31.2767 3.51245 31.2927 3.46058 31.3246 3.42068C31.3406 3.40472 31.4244 3.34487 31.576 3.24113C31.6478 3.19324 31.7276 3.16132 31.8154 3.14536C31.9032 3.1294 31.9909 3.11344 32.0787 3.09748L32.6772 2.91793C32.8209 2.86207 32.9605 2.80222 33.0962 2.73838C33.152 2.71444 33.2797 2.64661 33.4792 2.53489C33.6787 2.42317 33.7904 2.35933 33.8144 2.34337C33.9421 2.26357 34.0418 2.18776 34.1136 2.11594C34.1855 2.03614 34.2533 1.92442 34.3171 1.78078C34.3889 1.63714 34.4408 1.54536 34.4727 1.50546C34.5366 1.38576 34.5884 1.29399 34.6283 1.23015C34.6762 1.15833 34.7441 1.12242 34.8318 1.12242C34.9276 1.10646 35.0074 1.12242 35.0712 1.1703C35.1431 1.2102 35.1989 1.26606 35.2388 1.33788C35.2787 1.4097 35.2987 1.48152 35.2987 1.55334C35.2987 1.60122 35.2907 1.65709 35.2747 1.72093C35.2588 1.77679 35.2388 1.85659 35.2149 1.96033C35.1989 2.06407 35.175 2.15983 35.1431 2.24761C35.0872 2.38327 35.0433 2.48701 35.0114 2.55883C34.9076 2.74237 34.8079 2.92192 34.7121 3.09748C34.7042 3.12142 34.6922 3.1693 34.6762 3.24113C34.6603 3.30497 34.6523 3.35684 34.6523 3.39674C34.6523 3.44462 34.6563 3.50048 34.6643 3.56432C34.6802 3.62018 34.6962 3.68402 34.7121 3.75584C34.7121 3.80372 34.7161 3.86357 34.7241 3.93539C34.7321 3.99923 34.7361 4.06706 34.7361 4.13888C34.7361 4.18676 34.7281 4.25858 34.7121 4.35434C34.7042 4.44212 34.6882 4.52192 34.6643 4.59374C34.6403 4.65758 34.6164 4.7294 34.5924 4.8092C34.5765 4.889 34.5605 4.96482 34.5446 5.03664C34.5366 5.10048 34.5326 5.19225 34.5326 5.31195C34.5326 5.36781 34.5485 5.4516 34.5805 5.56332C34.6124 5.66706 34.6283 5.74287 34.6283 5.79075C34.6283 5.88651 34.6244 5.96232 34.6164 6.01818C34.5845 6.23364 34.5685 6.35733 34.5685 6.38925V6.71245C34.5685 6.76831 34.5565 6.84013 34.5326 6.92791C34.5166 7.01569 34.5086 7.07554 34.5086 7.10746C34.5086 7.13938 34.5286 7.22317 34.5685 7.35883C34.5845 7.41469 34.5924 7.47055 34.5924 7.52641C34.6084 7.60621 34.6164 7.70995 34.6164 7.83763C34.6164 7.96531 34.6204 8.06906 34.6283 8.14886C34.6283 8.27654 34.6244 8.36432 34.6164 8.4122C34.5845 8.55584 34.5565 8.69948 34.5326 8.84312L34.5086 9.34586V9.76482C34.5086 9.8526 34.5086 9.9324 34.5086 10.0042C34.5086 10.0681 34.5126 10.1479 34.5206 10.2436C34.5366 10.3314 34.5605 10.4272 34.5924 10.5309C34.6323 10.6267 34.6523 10.7025 34.6523 10.7583C34.6603 10.8222 34.6603 10.886 34.6523 10.9499C34.6443 11.0057 34.6363 11.0616 34.6283 11.1174C34.5964 11.301 34.5645 11.4845 34.5326 11.6681C34.5326 11.7957 34.5645 11.8915 34.6283 11.9553C34.6922 12.0112 34.78 12.0391 34.8917 12.0391C34.9715 12.0391 35.0433 12.0152 35.1072 11.9673C35.179 11.9114 35.2468 11.8556 35.3106 11.7997C35.4463 11.7119 35.562 11.6242 35.6578 11.5364C35.6977 11.4965 35.8014 11.3848 35.969 11.2012C36.0568 11.1055 36.1645 10.9738 36.2922 10.8062C36.4199 10.6386 36.5236 10.503 36.6034 10.3992L36.9625 9.92043C36.9705 9.90447 37.0264 9.84063 37.1301 9.72891C37.2019 9.64911 37.2458 9.5733 37.2618 9.50147C37.2697 9.47753 37.2737 9.45359 37.2737 9.42965C37.2737 9.39773 37.2737 9.37778 37.2737 9.3698C37.2737 9.26606 37.2538 9.1703 37.2139 9.08252C37.182 8.99474 37.1261 8.91494 37.0463 8.84312C36.9745 8.7713 36.9266 8.71145 36.9027 8.66357C36.8707 8.61569 36.8428 8.56382 36.8189 8.50796C36.7949 8.4521 36.7909 8.39225 36.8069 8.32841C36.8308 8.24861 36.8867 8.19275 36.9745 8.16083C37.0702 8.12891 37.1461 8.10497 37.2019 8.08901C37.2658 8.07305 37.3136 8.06507 37.3456 8.06507C37.4174 8.06507 37.5131 8.08502 37.6328 8.12492C37.7605 8.15684 37.8722 8.18078 37.968 8.19674C38.0638 8.20472 38.2074 8.20871 38.3989 8.20871C38.5904 8.20871 38.778 8.20871 38.9615 8.20871L39.56 8.26856C39.7196 8.28452 39.8473 8.29649 39.9431 8.30447C40.0388 8.31245 40.1306 8.3324 40.2184 8.36432C40.3062 8.39624 40.3939 8.42816 40.4817 8.46008C40.5695 8.492 40.6214 8.54786 40.6373 8.62766C40.6533 8.70746 40.6373 8.78327 40.5894 8.85509C40.5416 8.91893 40.5096 8.96282 40.4937 8.98676C40.4378 9.06656 40.3381 9.13439 40.1944 9.19025C40.0508 9.24611 39.947 9.29399 39.8832 9.33389C39.8274 9.37379 39.7476 9.44561 39.6438 9.54935C39.5401 9.64511 39.4643 9.70895 39.4164 9.74088L38.9615 9.94437C38.9057 9.97629 38.8179 10.0441 38.6982 10.1479C38.5865 10.2436 38.4947 10.3154 38.4229 10.3633L37.7406 10.8182C37.6368 10.882 37.5331 10.9499 37.4293 11.0217C37.3336 11.0855 37.2498 11.1533 37.178 11.2252C37.1062 11.297 37.0583 11.3449 37.0343 11.3688C36.9466 11.4566 36.8907 11.5364 36.8668 11.6082C36.8508 11.68 36.8428 11.7319 36.8428 11.7638C36.8428 11.8277 36.8548 11.8995 36.8787 11.9793C36.9027 12.0511 36.9306 12.1229 36.9625 12.1947C37.0104 12.3623 37.0862 12.5299 37.1899 12.6975C37.2937 12.8571 37.3974 13.0167 37.5012 13.1763C37.6129 13.4077 37.6887 13.5713 37.7286 13.6671C37.7765 13.7548 37.8682 13.9105 38.0039 14.1339C38.0438 14.2057 38.1077 14.3095 38.1954 14.4451C38.2832 14.5728 38.359 14.6805 38.4229 14.7683C38.5346 14.9199 38.6303 15.0436 38.7101 15.1394C38.7979 15.2272 38.8937 15.3229 38.9974 15.4267C39.1171 15.5783 39.2049 15.686 39.2608 15.7499C39.4044 15.9254 39.564 16.097 39.7396 16.2646C39.8832 16.3922 40.0149 16.504 40.1346 16.5997C40.3979 16.7992 40.5376 16.907 40.5535 16.9229C40.6972 17.0107 40.7969 17.0706 40.8528 17.1025C40.9565 17.1663 41.0403 17.2581 41.1042 17.3778C41.176 17.4975 41.2119 17.6132 41.2119 17.7249Z" fill="#212121"/>
<path d="M46.9191 3.39674C46.9191 3.50048 46.8792 3.62018 46.7994 3.75584C46.7755 3.79574 46.7396 3.83963 46.6917 3.88751C46.6438 3.93539 46.6119 3.9713 46.596 3.99524L46.4763 4.19873C46.4443 4.23065 46.4004 4.26257 46.3446 4.29449C46.2887 4.32641 46.2329 4.35434 46.177 4.37828C46.0812 4.44212 45.9895 4.50197 45.9017 4.55783C45.8538 4.57379 45.7541 4.57379 45.6024 4.55783C45.4668 4.55783 45.3311 4.53788 45.1955 4.49798C45.0678 4.45808 44.988 4.43414 44.9561 4.42616C44.8683 4.39424 44.8004 4.34636 44.7526 4.28252C44.7047 4.21868 44.6728 4.15883 44.6568 4.10297C44.6488 4.04711 44.6329 3.94736 44.6089 3.80372C44.585 3.66008 44.573 3.57629 44.573 3.55235C44.565 3.49649 44.561 3.41669 44.561 3.31295C44.561 3.17729 44.577 3.05758 44.6089 2.95384C44.6488 2.8501 44.6807 2.7703 44.7047 2.71444C44.7286 2.65858 44.7645 2.6107 44.8124 2.5708C44.8683 2.52292 44.9281 2.48701 44.992 2.46307C45.0558 2.43913 45.1196 2.41918 45.1835 2.40322C45.2553 2.38726 45.3271 2.37928 45.3989 2.37928C45.4708 2.37928 45.5306 2.37928 45.5785 2.37928C45.6982 2.37928 45.786 2.38327 45.8418 2.39125C45.8817 2.39923 45.9655 2.42317 46.0932 2.46307C46.2289 2.50297 46.3087 2.5309 46.3326 2.54686C46.3486 2.55484 46.3925 2.58676 46.4643 2.64262C46.5361 2.6905 46.588 2.73838 46.6199 2.78626C46.6438 2.81818 46.6797 2.87404 46.7276 2.95384C46.7755 3.03364 46.8194 3.10945 46.8593 3.18128C46.8992 3.24512 46.9191 3.31694 46.9191 3.39674ZM47.6374 17.7608C47.6134 17.7927 47.5735 17.8247 47.5177 17.8566C47.4698 17.8885 47.4099 17.9164 47.3381 17.9404C47.2663 17.9563 47.1984 17.9643 47.1346 17.9643C47.0708 17.9643 47.0109 17.9643 46.9551 17.9643C46.9231 17.9723 46.8753 17.9843 46.8114 18.0002C46.7556 18.0242 46.7117 18.0361 46.6797 18.0361C46.6159 18.0361 46.5361 18.0162 46.4403 17.9763C46.3526 17.9364 46.2768 17.9124 46.2129 17.9045C46.1571 17.8885 46.0573 17.8805 45.9137 17.8805C45.8259 17.8805 45.7541 17.8805 45.6982 17.8805C45.5945 17.8805 45.4748 17.9005 45.3391 17.9404C45.2034 17.9723 45.0837 18.0042 44.98 18.0361C44.9082 18.0361 44.8204 18.0282 44.7167 18.0122C44.6209 18.0042 44.569 18.0002 44.561 18.0002C44.5211 18.0002 44.4653 18.0162 44.3935 18.0481C44.3216 18.08 44.2658 18.096 44.2259 18.096L43.9027 18.0601C43.8628 18.0601 43.787 18.0681 43.6753 18.084C43.5635 18.108 43.4797 18.1119 43.4239 18.096C43.376 18.08 43.3361 18.0641 43.3042 18.0481C43.2723 18.0321 43.2124 17.9843 43.1246 17.9045C43.0688 17.8725 43.0129 17.8366 42.9571 17.7967C42.9012 17.7489 42.8653 17.697 42.8493 17.6411C42.8413 17.5613 42.8493 17.4935 42.8733 17.4376C42.8972 17.3977 42.9371 17.3419 42.993 17.2701C43.0488 17.1903 43.1206 17.1344 43.2084 17.1025C43.2962 17.0706 43.388 17.0386 43.4837 17.0067C43.6912 16.9269 43.8987 16.8471 44.1062 16.7673C44.2418 16.6715 44.3416 16.5439 44.4054 16.3843C44.4453 16.2965 44.4693 16.1888 44.4773 16.0611C44.4852 15.9334 44.4932 15.8097 44.5012 15.69C44.5012 15.5304 44.5052 15.3628 44.5132 15.1873C44.5211 15.0037 44.5251 14.892 44.5251 14.8521C44.5251 14.7723 44.5331 14.6646 44.5491 14.5289C44.565 14.3932 44.573 14.2935 44.573 14.2297C44.573 14.1259 44.5571 14.0222 44.5251 13.9184C44.4932 13.8147 44.4653 13.7189 44.4413 13.6311C44.4254 13.5354 44.4174 13.4715 44.4174 13.4396C44.4174 13.3997 44.4174 13.3598 44.4174 13.3199C44.4254 13.2481 44.4334 13.1723 44.4413 13.0925C44.4413 12.9329 44.4613 12.7932 44.5012 12.6735C44.5411 12.5937 44.581 12.5139 44.6209 12.4341C44.6209 12.4022 44.6129 12.3623 44.597 12.3144C44.573 12.2586 44.561 12.2187 44.561 12.1947L44.5251 11.7758C44.5331 11.68 44.5371 11.6122 44.5371 11.5723C44.5371 11.4686 44.5092 11.3768 44.4533 11.297C44.4054 11.2172 44.3336 11.1653 44.2379 11.1414C44.1501 11.1095 44.0942 11.0935 44.0703 11.0935C43.9585 11.0935 43.8907 11.0895 43.8668 11.0815C43.8109 11.0656 43.7591 11.0376 43.7112 10.9977C43.6633 10.9578 43.6274 10.9259 43.6034 10.902C43.5476 10.8621 43.5077 10.8341 43.4837 10.8182C43.4199 10.7703 43.38 10.7105 43.364 10.6386C43.3481 10.5588 43.376 10.4591 43.4478 10.3394C43.4877 10.2835 43.5396 10.2356 43.6034 10.1957C43.6992 10.1558 43.767 10.1239 43.8069 10.1C43.8628 10.0681 43.9625 10.0202 44.1062 9.95634C44.1381 9.94038 44.198 9.90846 44.2857 9.86058C44.4214 9.78876 44.5052 9.74088 44.5371 9.71694C44.6408 9.6531 44.7167 9.60122 44.7645 9.56132C44.8124 9.52142 44.8723 9.45359 44.9441 9.35783C45.0239 9.25409 45.0957 9.18227 45.1595 9.14237C45.3191 9.08651 45.4788 9.02666 45.6384 8.96282C45.6623 8.93888 45.6942 8.90297 45.7341 8.85509C45.8139 8.74337 45.8618 8.67953 45.8778 8.66357C45.9256 8.59973 45.9735 8.54387 46.0214 8.49599C46.0693 8.44811 46.1172 8.40821 46.165 8.37629C46.2129 8.34437 46.2648 8.30846 46.3206 8.26856C46.3845 8.22866 46.4563 8.20871 46.5361 8.20871C46.5999 8.20871 46.6478 8.2127 46.6797 8.22068C46.7276 8.23664 46.7715 8.27255 46.8114 8.32841C46.8593 8.37629 46.8753 8.46806 46.8593 8.60372C46.8354 8.66756 46.8154 8.7314 46.7994 8.79524C46.7835 8.85908 46.7675 8.9708 46.7516 9.1304C46.7356 9.28202 46.7236 9.38576 46.7157 9.44162C46.6598 9.70497 46.6079 9.96432 46.56 10.2197C46.5521 10.4032 46.5441 10.5349 46.5361 10.6147C46.5361 10.6945 46.5361 10.7703 46.5361 10.8421C46.5361 11.0097 46.5361 11.1414 46.5361 11.2371C46.5361 11.4047 46.5241 11.6082 46.5002 11.8476C46.4842 12.087 46.4763 12.2426 46.4763 12.3144C46.4763 12.3703 46.4962 12.51 46.5361 12.7334C46.5521 12.8212 46.56 12.909 46.56 12.9967C46.56 13.0845 46.5561 13.2042 46.5481 13.3558C46.5401 13.5075 46.5361 13.6272 46.5361 13.7149V14.6127C46.5361 14.7643 46.5401 14.904 46.5481 15.0316C46.5561 15.1513 46.568 15.291 46.584 15.4506C46.6079 15.6102 46.6279 15.7738 46.6438 15.9414C46.6678 16.109 46.7157 16.2526 46.7875 16.3723C46.8673 16.484 46.9551 16.5838 47.0508 16.6715C47.1466 16.7434 47.2184 16.7992 47.2663 16.8391C47.3221 16.879 47.386 16.9269 47.4578 16.9828C47.5296 17.0307 47.5815 17.0905 47.6134 17.1623C47.6852 17.306 47.7211 17.4257 47.7211 17.5214C47.7211 17.6172 47.6932 17.697 47.6374 17.7608Z" fill="#212121"/>
<path d="M58.2577 17.5813C58.2258 17.6451 58.1739 17.693 58.1021 17.7249C58.0383 17.7568 57.9505 17.7888 57.8388 17.8207C57.7909 17.8287 57.731 17.8326 57.6592 17.8326C57.6113 17.8326 57.5634 17.8326 57.5156 17.8326C57.4597 17.8326 57.4078 17.8287 57.36 17.8207C57.2642 17.8207 57.1884 17.8167 57.1325 17.8087C56.9171 17.7768 56.7934 17.7608 56.7614 17.7608C56.6737 17.7608 56.5979 17.7688 56.534 17.7848C56.4782 17.7927 56.4143 17.8047 56.3425 17.8207L55.8996 17.8805L55.6243 17.9045L54.942 17.9404C54.8143 17.9484 54.7225 17.9523 54.6667 17.9523C54.5789 17.9523 54.4792 17.9364 54.3674 17.9045C54.2637 17.8646 54.1839 17.8047 54.128 17.7249C54.1121 17.709 54.0961 17.6651 54.0802 17.5932C54.0722 17.5214 54.0482 17.4855 54.0083 17.4855C53.9764 17.4855 53.9445 17.5095 53.9126 17.5573C53.8966 17.5893 53.8806 17.6172 53.8647 17.6411C53.8008 17.697 53.737 17.7528 53.6732 17.8087C53.6173 17.8646 53.5495 17.9085 53.4697 17.9404C53.3899 17.9723 53.3021 17.9922 53.2063 18.0002C53.1186 18.0002 53.0467 18.0002 52.9909 18.0002H52.3325L51.5305 17.9643C51.4427 17.9643 51.355 17.9683 51.2672 17.9763C51.1874 17.9763 51.1076 17.9763 51.0278 17.9763C50.8762 17.9763 50.7046 17.9643 50.5131 17.9404C50.3614 17.9085 50.2098 17.8765 50.0582 17.8446C50.0023 17.8446 49.9305 17.8566 49.8427 17.8805C49.7629 17.8965 49.7151 17.9045 49.6991 17.9045C49.6831 17.9045 49.6432 17.8965 49.5794 17.8805C49.3639 17.7927 49.2562 17.6331 49.2562 17.4017C49.2562 17.306 49.2841 17.2222 49.34 17.1504C49.3719 17.1105 49.4437 17.0426 49.5555 16.9469C49.6113 16.899 49.6911 16.8631 49.7949 16.8391C49.9066 16.8072 49.9864 16.7753 50.0343 16.7434C50.0742 16.7114 50.1181 16.6795 50.1659 16.6476C50.2138 16.6077 50.2497 16.5678 50.2737 16.5279C50.2976 16.496 50.3136 16.4521 50.3215 16.3962C50.3375 16.3324 50.3495 16.2765 50.3575 16.2287L50.4173 15.9294C50.4333 15.8496 50.4412 15.7459 50.4412 15.6182C50.4412 15.5065 50.4412 15.4107 50.4412 15.3309C50.4412 15.2431 50.4452 15.1633 50.4532 15.0915C50.4532 15.0516 50.4732 14.9678 50.5131 14.8401C50.529 14.7922 50.537 14.7404 50.537 14.6845C50.537 14.6366 50.5171 14.5808 50.4772 14.5169C50.4452 14.4531 50.4253 14.4052 50.4173 14.3733C50.4093 14.3254 50.4053 14.2616 50.4053 14.1818C50.4133 14.0461 50.4173 13.9424 50.4173 13.8706C50.4173 13.7987 50.4253 13.711 50.4412 13.6072C50.4652 13.5035 50.4772 13.4396 50.4772 13.4157V12.9728L50.537 12.5538C50.5689 12.4022 50.6008 12.2506 50.6328 12.099C50.6328 11.9713 50.6328 11.8795 50.6328 11.8237C50.6328 11.704 50.6208 11.6122 50.5969 11.5484C50.5809 11.4765 50.553 11.4127 50.5131 11.3568C50.4811 11.301 50.4452 11.2331 50.4053 11.1533C50.3654 11.0735 50.3216 10.9818 50.2737 10.878C50.2657 10.8222 50.2777 10.7504 50.3096 10.6626C50.3415 10.5668 50.3575 10.499 50.3575 10.4591C50.3734 10.3314 50.3734 10.2516 50.3575 10.2197C50.3335 10.1638 50.2896 10.1279 50.2258 10.1119C50.1699 10.096 50.0981 10.076 50.0103 10.0521C49.9305 10.0282 49.8547 10.0042 49.7829 9.98028C49.7111 9.95634 49.6552 9.91644 49.6153 9.86058C49.5515 9.7728 49.5196 9.67305 49.5196 9.56132C49.5196 9.4895 49.5395 9.42566 49.5794 9.3698C49.5874 9.36182 49.6432 9.31394 49.747 9.22616C49.8507 9.1304 49.9944 9.06257 50.1779 9.02267C50.2098 9.01469 50.2497 9.0107 50.2976 9.0107C50.4093 9.01868 50.521 9.02267 50.6328 9.02267C50.7206 9.00671 50.8083 8.9708 50.8961 8.91494C50.9919 8.8511 51.0836 8.78726 51.1714 8.72342L51.6502 8.38826C51.7699 8.30846 51.8896 8.22866 52.0093 8.14886C52.1929 8.06108 52.3724 8.00123 52.548 7.96931C52.6677 7.96133 52.7874 7.94935 52.9071 7.93339C53.0188 7.93339 53.1026 7.95334 53.1585 7.99325C53.2143 8.03315 53.2662 8.06507 53.3141 8.08901C53.4018 8.15285 53.4457 8.23265 53.4457 8.32841C53.4457 8.38427 53.4138 8.44811 53.35 8.51993C53.2861 8.59175 53.2462 8.64761 53.2303 8.68751C53.1904 8.77529 53.1624 8.83514 53.1465 8.86706C53.1225 8.9309 53.1225 8.99075 53.1465 9.04661C53.1864 9.11843 53.2742 9.1703 53.4098 9.20222C53.5215 9.22616 53.6452 9.18626 53.7809 9.08252C53.8767 9.0107 53.9525 8.95883 54.0083 8.92691C54.144 8.83913 54.2836 8.75135 54.4273 8.66357C54.539 8.62367 54.6108 8.59973 54.6427 8.59175C54.7066 8.57579 54.7864 8.56781 54.8821 8.56781C55.0657 8.56781 55.2333 8.58776 55.3849 8.62766C55.5365 8.65958 55.7201 8.71943 55.9355 8.80721C56.151 8.89499 56.3465 9.00671 56.522 9.14237C56.6178 9.21419 56.7136 9.29 56.8093 9.3698C56.9131 9.44162 56.9889 9.53339 57.0368 9.64511C57.0607 9.70098 57.0767 9.7728 57.0846 9.86058C57.1006 9.94836 57.1166 10.0321 57.1325 10.1119C57.1565 10.1838 57.1764 10.2356 57.1924 10.2676C57.2402 10.3633 57.2762 10.4351 57.3001 10.483C57.3799 10.6187 57.4597 10.7504 57.5395 10.878C57.5555 10.9578 57.5634 11.0177 57.5634 11.0576C57.5634 11.0815 57.5555 11.1494 57.5395 11.2611C57.5395 11.3169 57.5275 11.3728 57.5036 11.4287C57.4797 11.4845 57.4517 11.5484 57.4198 11.6202C57.4118 11.708 57.4158 11.8077 57.4318 11.9194C57.4477 12.0312 57.4557 12.091 57.4557 12.099C57.4557 12.1469 57.4398 12.2227 57.4078 12.3264C57.3759 12.4222 57.36 12.478 57.36 12.494C57.352 12.5499 57.348 12.5977 57.348 12.6376C57.348 12.7015 57.348 12.7494 57.348 12.7813C57.348 12.901 57.352 12.9967 57.36 13.0686C57.3679 13.1324 57.3799 13.1883 57.3959 13.2361C57.4517 13.4197 57.4836 13.5474 57.4916 13.6192C57.4996 13.683 57.5156 13.7748 57.5395 13.8945C57.5395 13.9743 57.5395 14.0541 57.5395 14.1339V14.5289C57.5395 14.5848 57.5275 14.6566 57.5036 14.7444C57.4876 14.8321 57.4797 14.888 57.4797 14.9119C57.4876 14.9598 57.5036 15.0117 57.5275 15.0676C57.5515 15.1234 57.5674 15.1633 57.5754 15.1873C57.5914 15.2591 57.6033 15.3269 57.6113 15.3908C57.6273 15.4466 57.6353 15.5264 57.6353 15.6302L57.5994 15.9294C57.5914 16.0252 57.5834 16.1169 57.5754 16.2047C57.5754 16.2845 57.5954 16.3603 57.6353 16.4321C57.6831 16.504 57.743 16.5758 57.8148 16.6476C57.8388 16.6715 57.8906 16.7035 57.9704 16.7434C58.0502 16.7753 58.1061 16.8152 58.138 16.8631C58.2018 16.9508 58.2378 17.0506 58.2457 17.1623C58.2617 17.2661 58.2777 17.3578 58.2936 17.4376C58.2936 17.4855 58.2817 17.5334 58.2577 17.5813ZM55.4208 14.7683L55.361 14.4691C55.345 14.3813 55.325 14.2775 55.3011 14.1578C55.2772 14.0302 55.2652 13.9025 55.2652 13.7748L55.3011 13.1164L55.361 12.5778C55.361 12.4501 55.3649 12.3304 55.3729 12.2187C55.3809 12.107 55.3889 11.9913 55.3969 11.8715C55.3969 11.8077 55.3969 11.7598 55.3969 11.7279C55.3889 11.68 55.3849 11.6441 55.3849 11.6202C55.3849 11.4446 55.3769 11.3209 55.361 11.2491C55.353 11.1693 55.3211 11.0656 55.2652 10.9379C55.2093 10.8022 55.1176 10.6706 54.9899 10.5429C54.8702 10.4152 54.7345 10.3075 54.5829 10.2197C54.535 10.1957 54.4792 10.1678 54.4153 10.1359C54.3595 10.096 54.3036 10.072 54.2477 10.0641H54.0083C53.9604 10.072 53.9046 10.104 53.8408 10.1598C53.7769 10.2077 53.7051 10.2436 53.6253 10.2676C53.5535 10.2835 53.4697 10.3075 53.3739 10.3394C53.2861 10.3633 53.2263 10.3913 53.1944 10.4232C53.1465 10.4631 53.0866 10.5349 53.0148 10.6386C52.951 10.7344 52.9031 10.8262 52.8712 10.9139C52.8393 10.9937 52.7954 11.1294 52.7395 11.3209C52.6916 11.5124 52.6677 11.7119 52.6677 11.9194C52.6677 12.079 52.6757 12.2666 52.6916 12.482C52.7156 12.6975 52.7275 12.8292 52.7275 12.877L52.6916 13.1763C52.6517 13.304 52.6238 13.4037 52.6078 13.4755C52.5679 13.6591 52.548 13.8506 52.548 14.0501C52.548 14.1299 52.552 14.2336 52.56 14.3613C52.5679 14.489 52.5719 14.5927 52.5719 14.6725C52.5719 14.7603 52.5679 14.876 52.56 15.0197C52.552 15.1633 52.548 15.279 52.548 15.3668C52.548 15.5663 52.552 15.71 52.56 15.7977C52.5759 15.8775 52.6118 15.9972 52.6677 16.1568C52.7235 16.3085 52.7674 16.4202 52.7994 16.492C52.8393 16.5558 52.9031 16.6277 52.9909 16.7075C53.0388 16.7553 53.1146 16.8072 53.2183 16.8631C53.33 16.9109 53.4138 16.9509 53.4697 16.9828C53.4777 16.9908 53.5495 17.0466 53.6851 17.1504C53.7649 17.2142 53.8447 17.2461 53.9245 17.2461C53.9964 17.2541 54.0762 17.2501 54.1639 17.2341C54.2597 17.2102 54.3395 17.1663 54.4033 17.1025C54.523 16.9908 54.5909 16.9309 54.6068 16.9229C54.7026 16.8671 54.7744 16.8232 54.8223 16.7913C54.8782 16.7593 54.942 16.7075 55.0138 16.6356C55.0856 16.5638 55.1335 16.5119 55.1575 16.48C55.1974 16.4242 55.2293 16.3603 55.2532 16.2885C55.2851 16.2167 55.3011 16.1249 55.3011 16.0132C55.3011 15.9334 55.3011 15.8696 55.3011 15.8217C55.3011 15.7658 55.3011 15.7219 55.3011 15.69L55.361 15.2471C55.361 15.1753 55.3689 15.0875 55.3849 14.9838C55.4088 14.872 55.4208 14.8002 55.4208 14.7683Z" fill="#212121"/>
<path d="M68.5193 18.898C68.5193 19.0177 68.5153 19.1733 68.5073 19.3648C68.4994 19.5563 68.4954 19.7119 68.4954 19.8316C68.4954 19.9354 68.4954 20.0112 68.4954 20.0591C68.4954 20.1149 68.4954 20.1748 68.4954 20.2386C68.4794 20.3184 68.4634 20.3982 68.4475 20.478C68.4315 20.5658 68.4076 20.6416 68.3757 20.7055C68.3597 20.7374 68.3078 20.8252 68.2201 20.9688C68.1881 21.0247 68.1363 21.0885 68.0644 21.1603C67.9926 21.2321 67.9368 21.296 67.8969 21.3518C67.7612 21.5274 67.6255 21.703 67.4899 21.8785C67.3622 22.0621 67.2425 22.2057 67.1308 22.3095C67.051 22.3893 66.9113 22.505 66.7118 22.6566C66.5203 22.8082 66.3607 22.9239 66.233 23.0037C66.1133 23.0915 65.9497 23.1912 65.7422 23.303C65.6066 23.3748 65.4749 23.4426 65.3472 23.5065C65.2196 23.5783 65.0919 23.6262 64.9642 23.6501C64.8445 23.682 64.7527 23.702 64.6889 23.71C64.625 23.7259 64.5652 23.7339 64.5093 23.7339C64.4455 23.7339 64.3976 23.7299 64.3657 23.7219C64.3258 23.706 64.2739 23.678 64.2101 23.6381C64.1462 23.5982 64.0984 23.5743 64.0664 23.5663C64.0186 23.5583 63.9308 23.5623 63.8031 23.5783C63.6754 23.5942 63.6036 23.6022 63.5876 23.6022C63.4999 23.6022 63.3762 23.5863 63.2166 23.5543C63.057 23.5224 62.9253 23.5065 62.8216 23.5065C62.7657 23.5065 62.7218 23.5065 62.6899 23.5065C62.5462 23.5065 62.4305 23.4905 62.3428 23.4586C62.255 23.4346 62.1672 23.3987 62.0794 23.3509C61.9996 23.303 61.9118 23.2631 61.8161 23.2311C61.7283 23.1992 61.6206 23.1633 61.4929 23.1234C61.429 23.0835 61.3612 22.9838 61.2894 22.8242C61.2575 22.7523 61.2136 22.6885 61.1577 22.6326C61.1019 22.5848 61.0141 22.5329 60.8944 22.477C60.7827 22.4212 60.6989 22.3733 60.643 22.3334C60.5871 22.2935 60.4954 22.2017 60.3677 22.0581C60.248 21.9144 60.1442 21.7508 60.0565 21.5673C60.0166 21.4875 59.9807 21.3878 59.9487 21.2681C59.9248 21.1484 59.9009 21.0566 59.8769 20.9927L59.7213 20.6935C59.6734 20.5898 59.6255 20.49 59.5777 20.3942C59.5617 20.3224 59.5657 20.2426 59.5896 20.1548C59.6136 20.075 59.6295 19.9992 59.6375 19.9274C59.6535 19.8636 59.6734 19.7997 59.6974 19.7359C59.7053 19.7199 59.7333 19.6521 59.7812 19.5324C59.8051 19.4686 59.849 19.3808 59.9128 19.2691C59.9846 19.1653 60.0325 19.0935 60.0565 19.0536C60.1123 18.91 60.1722 18.7703 60.236 18.6346C60.2759 18.5788 60.3118 18.5349 60.3438 18.503C60.4714 18.3833 60.5433 18.3154 60.5592 18.2995C60.631 18.1638 60.7029 18.0321 60.7747 17.9045C60.8625 17.8007 60.9502 17.7209 61.038 17.6651C61.0699 17.6491 61.1178 17.6292 61.1817 17.6052C61.2455 17.5813 61.2894 17.5533 61.3133 17.5214C61.3373 17.4735 61.3492 17.4297 61.3492 17.3898C61.3333 17.302 61.3213 17.2341 61.3133 17.1863C61.2974 17.1384 61.2814 17.0985 61.2654 17.0666C61.2176 17.0027 61.1737 16.9349 61.1338 16.8631C61.0699 16.7593 61.0221 16.6795 60.9901 16.6237C60.9582 16.5678 60.9223 16.492 60.8824 16.3962C60.8425 16.2925 60.8066 16.2047 60.7747 16.1329C60.7507 16.0531 60.7388 15.9653 60.7388 15.8696C60.7388 15.7499 60.7467 15.6262 60.7627 15.4985C60.7787 15.3708 60.7906 15.2591 60.7986 15.1633C60.8146 15.0676 60.8465 14.9758 60.8944 14.888C60.9742 14.7922 61.038 14.7124 61.0859 14.6486C61.1418 14.5848 61.2056 14.5129 61.2774 14.4331C61.3253 14.3294 61.3452 14.2297 61.3373 14.1339C61.3373 14.078 61.3173 14.0142 61.2774 13.9424C61.2216 13.8706 61.1817 13.8147 61.1577 13.7748C61.1258 13.7349 61.0739 13.687 61.0021 13.6311C60.9303 13.5753 60.8824 13.5354 60.8585 13.5114C60.8106 13.4476 60.7667 13.3718 60.7268 13.284C60.6949 13.1883 60.6709 13.1124 60.655 13.0566C60.6151 12.9688 60.5752 12.881 60.5353 12.7932C60.5033 12.7055 60.4714 12.6057 60.4395 12.494C60.4156 12.3743 60.3996 12.3065 60.3916 12.2905C60.3677 12.2027 60.3557 12.1309 60.3557 12.075L60.3198 11.5364C60.3198 11.4406 60.3198 11.3648 60.3198 11.309C60.3198 11.2451 60.3398 11.1693 60.3797 11.0815C60.4196 10.9937 60.4555 10.9179 60.4874 10.8541C60.5193 10.7823 60.5353 10.6985 60.5353 10.6027C60.5433 10.499 60.5512 10.3913 60.5592 10.2795C60.5752 10.1678 60.5951 10.0481 60.6191 9.92043C60.651 9.85659 60.7188 9.79275 60.8226 9.72891C60.9343 9.66507 61.0101 9.6132 61.05 9.57329C61.0979 9.53339 61.1737 9.4496 61.2774 9.32192C61.3492 9.22616 61.4011 9.16631 61.433 9.14237C61.5048 9.07055 61.5767 9.00272 61.6485 8.93888C61.7203 8.87504 61.7921 8.81918 61.8639 8.7713C61.9437 8.72342 62.0196 8.67953 62.0914 8.63963C62.1632 8.59973 62.3108 8.52791 62.5343 8.42417C62.6779 8.34437 62.7817 8.2925 62.8455 8.26856C62.8854 8.2526 62.9772 8.22866 63.1208 8.19674C63.2645 8.16482 63.448 8.14886 63.6714 8.14886H64.629L65.1078 8.20871L65.5268 8.24462C65.5986 8.2526 65.6984 8.27255 65.826 8.30447C65.9537 8.33639 66.0694 8.36033 66.1732 8.37629C66.2769 8.38427 66.3807 8.38826 66.4844 8.38826C66.5881 8.38826 66.6999 8.38826 66.8196 8.38826C66.8994 8.38826 67.0031 8.38028 67.1308 8.36432C67.2585 8.34038 67.3422 8.32841 67.3821 8.32841C67.446 8.32841 67.5058 8.32841 67.5617 8.32841C67.6255 8.32841 67.6894 8.32442 67.7532 8.31644C67.8171 8.31644 67.8769 8.32043 67.9328 8.32841C67.9886 8.33639 68.0445 8.35634 68.1004 8.38826C68.2201 8.4521 68.2879 8.48801 68.3038 8.49599C68.3597 8.53589 68.3996 8.58776 68.4235 8.6516C68.4475 8.70746 68.4595 8.74736 68.4595 8.7713C68.4595 8.80322 68.4595 8.83115 68.4595 8.85509C68.4595 8.95883 68.4315 9.05459 68.3757 9.14237C68.3118 9.20621 68.252 9.26606 68.1961 9.32192C68.1722 9.36182 68.1602 9.41768 68.1602 9.4895C68.1602 9.56132 68.1522 9.61319 68.1363 9.64511C68.0724 9.72492 68.0126 9.80472 67.9567 9.88452C67.9408 9.92442 67.9328 9.98427 67.9328 10.0641C67.9328 10.096 67.9368 10.1558 67.9447 10.2436C67.9607 10.3234 67.9886 10.4072 68.0285 10.495C68.0764 10.5748 68.1004 10.6227 68.1004 10.6386C68.1403 10.7184 68.1642 10.7743 68.1722 10.8062C68.1881 10.8541 68.2041 10.91 68.2201 10.9738C68.236 11.0376 68.244 11.1095 68.244 11.1893C68.244 11.2611 68.248 11.3169 68.256 11.3568C68.256 11.4845 68.256 11.5843 68.256 11.6561L68.1961 12.0152C68.1881 12.079 68.1802 12.1429 68.1722 12.2067C68.1722 12.2626 68.1682 12.3065 68.1602 12.3384C68.1442 12.3942 68.1163 12.4501 68.0764 12.506C68.0046 12.6017 67.9647 12.6576 67.9567 12.6735C67.9088 12.7613 67.8649 12.877 67.825 13.0207C67.7851 13.1643 67.7532 13.2681 67.7293 13.3319C67.7133 13.3878 67.6934 13.4516 67.6694 13.5234C67.6455 13.5952 67.6216 13.6511 67.5976 13.691C67.5737 13.7309 67.5418 13.7668 67.5019 13.7987C67.4061 13.8706 67.3303 13.9304 67.2744 13.9783C67.2265 14.0182 67.1587 14.0661 67.0709 14.1219C66.9831 14.1698 66.8874 14.2217 66.7836 14.2775C66.6799 14.3254 66.5842 14.3693 66.4964 14.4092C66.4166 14.4411 66.3447 14.4691 66.2809 14.493C66.2171 14.5329 66.1692 14.5568 66.1373 14.5648C66.0974 14.5808 66.0455 14.5967 65.9817 14.6127C65.9577 14.6207 65.9098 14.6287 65.838 14.6366C65.7742 14.6446 65.7024 14.6486 65.6226 14.6486C65.5747 14.6486 65.5348 14.6486 65.5028 14.6486H65.2275C65.1557 14.6566 65.0719 14.6885 64.9762 14.7444C64.8884 14.7922 64.8166 14.8242 64.7607 14.8401C64.7048 14.8481 64.649 14.8601 64.5931 14.876C64.5373 14.884 64.4615 14.888 64.3657 14.888C64.3019 14.888 64.2101 14.88 64.0904 14.8641C63.9707 14.8401 63.8909 14.8282 63.851 14.8282L63.3482 14.7683C63.3004 14.7603 63.2245 14.7284 63.1208 14.6725C63.025 14.6167 62.9452 14.5888 62.8814 14.5888C62.7936 14.5808 62.7298 14.5768 62.6899 14.5768C62.634 14.5768 62.5941 14.5808 62.5702 14.5888C62.4664 14.6446 62.4146 14.7523 62.4146 14.9119C62.4146 14.9997 62.4345 15.0755 62.4744 15.1394C62.5223 15.2032 62.5742 15.2671 62.63 15.3309C62.8136 15.5703 63.041 15.7219 63.3123 15.7858C63.4081 15.8017 63.4719 15.8097 63.5038 15.8097C63.5597 15.8097 63.6236 15.8057 63.6954 15.7977C63.7672 15.7818 63.851 15.7658 63.9467 15.7499C63.9866 15.7499 64.0585 15.7379 64.1622 15.7139C64.2739 15.682 64.3617 15.6661 64.4255 15.6661C64.5053 15.6661 64.5891 15.682 64.6769 15.7139C64.7727 15.7459 64.8485 15.7698 64.9043 15.7858L65.2036 15.9055C65.2754 15.9294 65.3831 15.9414 65.5268 15.9414C65.6704 15.9414 65.7901 15.9494 65.8859 15.9653L66.3408 16.0491C66.5083 16.089 66.648 16.1329 66.7597 16.1808C66.8794 16.2287 67.0071 16.2965 67.1427 16.3843C67.2066 16.4242 67.2744 16.476 67.3462 16.5399C67.426 16.5957 67.4859 16.6516 67.5258 16.7075C67.5657 16.7553 67.6016 16.8112 67.6335 16.875C67.7133 17.0586 67.7612 17.1623 67.7772 17.1863C67.825 17.2661 67.8809 17.3379 67.9447 17.4017C68.0565 17.5055 68.1203 17.5733 68.1363 17.6052C68.2719 17.8207 68.3677 18.0401 68.4235 18.2636C68.4874 18.487 68.5193 18.6985 68.5193 18.898ZM66.2809 10.6985C66.257 10.5628 66.2171 10.4232 66.1612 10.2795C66.1293 10.2237 66.0774 10.1518 66.0056 10.0641C65.9338 9.97629 65.8859 9.91644 65.862 9.88452C65.846 9.86856 65.7901 9.7728 65.6944 9.59723C65.6305 9.49349 65.5587 9.41369 65.4789 9.35783C65.3991 9.30197 65.3153 9.26207 65.2275 9.23813C65.1398 9.21419 65.052 9.19025 64.9642 9.16631C64.7168 9.10247 64.5492 9.06257 64.4615 9.04661C64.3817 9.03065 64.258 9.02267 64.0904 9.02267C63.9547 9.00671 63.8231 8.98676 63.6954 8.96282C63.6315 8.96282 63.5837 8.9708 63.5517 8.98676C63.5039 9.00272 63.448 9.04262 63.3842 9.10646C63.3203 9.1703 63.2764 9.2102 63.2525 9.22616C63.2046 9.26606 63.1248 9.31394 63.0131 9.3698C62.9014 9.41768 62.8136 9.47753 62.7497 9.54935C62.6939 9.6132 62.646 9.7329 62.6061 9.90846C62.5662 10.076 62.5343 10.1878 62.5103 10.2436C62.4146 10.4032 62.3228 10.5628 62.235 10.7224C62.2031 10.8022 62.1832 10.878 62.1752 10.9499C62.1672 11.0217 62.1632 11.0975 62.1632 11.1773C62.1712 11.3129 62.1752 11.4207 62.1752 11.5005C62.1911 11.6521 62.2031 11.7399 62.2111 11.7638C62.227 11.8277 62.251 11.8995 62.2829 11.9793C62.3148 12.0511 62.3547 12.1269 62.4026 12.2067C62.4585 12.2785 62.5024 12.3424 62.5343 12.3982C62.5901 12.5499 62.65 12.7015 62.7138 12.8531C62.7617 12.9329 62.8096 12.9967 62.8575 13.0446C62.8814 13.0686 62.9452 13.1244 63.049 13.2122C63.1128 13.2601 63.2046 13.3159 63.3243 13.3798C63.452 13.4356 63.5597 13.4875 63.6475 13.5354C63.7752 13.6152 63.9029 13.695 64.0305 13.7748C64.1103 13.7907 64.1662 13.7987 64.1981 13.7987C64.23 13.7987 64.2859 13.7947 64.3657 13.7868C64.4535 13.7788 64.5014 13.7748 64.5093 13.7748C64.645 13.7828 64.7408 13.7868 64.7966 13.7868C64.8924 13.7868 64.9642 13.7748 65.0121 13.7509C65.0679 13.7269 65.1198 13.691 65.1677 13.6431C65.2235 13.5873 65.2754 13.5314 65.3233 13.4755C65.459 13.3319 65.5986 13.1843 65.7422 13.0326C65.8619 12.9449 65.9817 12.8531 66.1014 12.7573C66.1572 12.6775 66.1971 12.5937 66.2211 12.506C66.245 12.4102 66.257 12.3344 66.257 12.2785C66.257 12.1987 66.245 12.111 66.2211 12.0152C66.1812 11.9194 66.1413 11.8197 66.1014 11.7159C66.1014 11.6681 66.1173 11.6082 66.1492 11.5364C66.1891 11.4646 66.2131 11.4127 66.2211 11.3808C66.2689 11.1893 66.2929 11.0217 66.2929 10.878C66.2929 10.7982 66.2889 10.7384 66.2809 10.6985ZM66.8794 20.6935C66.9034 20.5738 66.9153 20.4581 66.9153 20.3464C66.9153 20.2187 66.8914 20.107 66.8435 20.0112C66.7797 19.9154 66.7198 19.8237 66.6639 19.7359C66.656 19.696 66.656 19.6321 66.6639 19.5444C66.6719 19.4646 66.6719 19.4087 66.6639 19.3768C66.64 19.281 66.6041 19.2012 66.5562 19.1374C66.5163 19.0735 66.4844 19.0257 66.4605 18.9937C66.4046 18.9139 66.3447 18.8461 66.2809 18.7903C66.257 18.7663 66.1851 18.7144 66.0654 18.6346C66.0016 18.5788 65.9178 18.5229 65.8141 18.4671C65.7183 18.4112 65.6425 18.3673 65.5866 18.3354C65.4829 18.2636 65.4111 18.2157 65.3712 18.1917C65.2914 18.1439 65.2156 18.1 65.1437 18.0601C65.0719 18.0202 65.0201 17.9922 64.9881 17.9763C64.9323 17.9444 64.8684 17.9204 64.7966 17.9045C64.7328 17.8885 64.637 17.8805 64.5093 17.8805C64.4136 17.8805 64.3218 17.8885 64.234 17.9045C64.1542 17.9204 64.0664 17.9404 63.9707 17.9643C63.8829 17.9803 63.7752 18.0042 63.6475 18.0361C63.5677 18.0361 63.4719 18.0282 63.3602 18.0122C63.2565 18.0042 63.2006 18.0002 63.1926 18.0002L62.9532 18.0361C62.8176 18.076 62.7178 18.1439 62.654 18.2396C62.63 18.2795 62.6141 18.3274 62.6061 18.3833C62.5981 18.4471 62.5941 18.511 62.5941 18.5748C62.626 18.6785 62.658 18.7863 62.6899 18.898C62.6739 18.9459 62.63 18.9937 62.5582 19.0416C62.4864 19.0975 62.4385 19.1414 62.4146 19.1733C62.3108 19.3169 62.2191 19.4646 62.1393 19.6162C62.0595 19.7758 62.0116 19.8676 61.9956 19.8915C61.9477 19.9873 61.9118 20.083 61.8879 20.1788C61.8639 20.2825 61.84 20.3903 61.8161 20.502C61.7921 20.6137 61.7802 20.7015 61.7802 20.7653C61.7802 20.8292 61.7881 20.9489 61.8041 21.1244C61.828 21.3 61.9637 21.4875 62.2111 21.687C62.2829 21.7429 62.3747 21.7908 62.4864 21.8307C62.6061 21.8706 62.6979 21.9025 62.7617 21.9264C62.8335 21.9583 62.9213 21.9982 63.025 22.0461C63.1368 22.102 63.2445 22.1379 63.3482 22.1538C63.46 22.1778 63.5438 22.1898 63.5996 22.1898C63.6634 22.1898 63.7273 22.1898 63.7911 22.1898L64.3657 22.2257C64.4615 22.2257 64.5652 22.2297 64.6769 22.2376C64.7966 22.2456 64.8724 22.2496 64.9043 22.2496C65.0719 22.2496 65.2275 22.2297 65.3712 22.1898C65.5148 22.1578 65.6226 22.1299 65.6944 22.106C65.7662 22.082 65.862 22.0302 65.9817 21.9504C66.1093 21.8706 66.2091 21.7908 66.2809 21.711C66.3208 21.6711 66.3966 21.5673 66.5083 21.3997C66.6201 21.2401 66.6959 21.1284 66.7358 21.0646C66.8076 20.9449 66.8555 20.8212 66.8794 20.6935Z" fill="#212121"/>
<path d="M93.6424 11.2371C93.6424 11.4526 93.6304 11.6361 93.6065 11.7878C93.5905 11.9394 93.5546 12.087 93.4987 12.2307C93.4509 12.3743 93.399 12.486 93.3431 12.5658C93.2952 12.6456 93.2434 12.7294 93.1875 12.8172C93.1077 12.9688 93.0239 13.1244 92.9361 13.284C92.8563 13.4436 92.7925 13.5992 92.7446 13.7509C92.7287 13.8546 92.7167 13.9264 92.7087 13.9663C92.7007 14.0062 92.6808 14.0421 92.6489 14.074C92.585 14.1139 92.5371 14.1459 92.5052 14.1698C92.4573 14.2017 92.4135 14.2576 92.3736 14.3374C92.3336 14.4092 92.2977 14.481 92.2658 14.5528C92.0903 14.8242 91.9626 15.0157 91.8828 15.1274C91.7631 15.295 91.6194 15.4745 91.4519 15.6661C91.2204 15.9294 90.9691 16.1688 90.6977 16.3843C90.4823 16.5518 90.195 16.7593 89.8359 17.0067C89.5247 17.2142 89.2533 17.3858 89.0219 17.5214C88.7905 17.6571 88.5152 17.7967 88.196 17.9404C88.0045 18.0282 87.805 18.1159 87.5975 18.2037C87.398 18.2995 87.2065 18.3633 87.0229 18.3952C86.9591 18.4032 86.8913 18.4072 86.8194 18.4072C86.7476 18.4152 86.6957 18.4192 86.6638 18.4192C86.5361 18.4192 86.3606 18.4072 86.1371 18.3833C85.9217 18.3673 85.778 18.3593 85.7062 18.3593L84.5691 18.4192C84.5212 18.4272 84.4414 18.4391 84.3297 18.4551C84.2259 18.4711 84.1461 18.479 84.0903 18.479C84.0184 18.479 83.9466 18.479 83.8748 18.479C83.803 18.479 83.7351 18.483 83.6713 18.491C83.6075 18.491 83.5357 18.487 83.4558 18.479C83.376 18.479 83.2683 18.4591 83.1327 18.4192C83.1007 18.4112 83.0489 18.3912 82.977 18.3593C82.9132 18.3274 82.8573 18.3075 82.8095 18.2995C82.7855 18.2915 82.7616 18.2875 82.7376 18.2875C82.7057 18.2875 82.6858 18.2875 82.6778 18.2875C82.6299 18.2875 82.5581 18.2955 82.4623 18.3114C82.3666 18.3274 82.2908 18.3354 82.2349 18.3354C82.0514 18.3354 81.8997 18.3234 81.78 18.2995C81.6603 18.2755 81.4848 18.2277 81.2533 18.1558C80.9421 18.0601 80.6429 17.9284 80.3556 17.7608C80.2439 17.697 80.1122 17.5972 79.9606 17.4616C79.7371 17.2701 79.6095 17.1583 79.5775 17.1264L79.0628 16.7075C78.9591 16.6356 78.8873 16.5878 78.8474 16.5638C78.7596 16.508 78.6918 16.4561 78.6439 16.4082C78.5561 16.3284 78.4723 16.1967 78.3925 16.0132C78.3127 15.8217 78.2489 15.694 78.201 15.6302C78.1611 15.5583 78.1212 15.4905 78.0813 15.4267C78.0095 15.3229 77.9376 15.2312 77.8658 15.1514C77.802 15.0715 77.7142 14.9917 77.6025 14.9119C77.3631 14.7364 77.2154 14.6127 77.1596 14.5409C77.1037 14.4691 77.0439 14.3733 76.98 14.2536C76.9162 14.1339 76.8484 14.0222 76.7765 13.9184C76.7127 13.8147 76.6489 13.707 76.585 13.5952C76.5212 13.4755 76.4613 13.3558 76.4055 13.2361C76.174 12.9329 76.0145 12.7095 75.9267 12.5658C75.8389 12.4222 75.779 12.2745 75.7471 12.1229C75.7232 11.9713 75.7112 11.8436 75.7112 11.7399C75.7112 11.692 75.7112 11.6521 75.7112 11.6202L75.6873 10.7583L75.6514 9.92043C75.6514 9.81669 75.6434 9.71694 75.6274 9.62117C75.5875 9.37379 75.5676 9.21419 75.5676 9.14237C75.5436 9.00671 75.5277 8.90696 75.5197 8.84312C75.5197 8.77928 75.5197 8.69549 75.5197 8.59175C75.5277 8.52791 75.5317 8.48003 75.5317 8.44811C75.5396 8.34437 75.5596 8.24063 75.5915 8.13689C75.6234 8.03314 75.6553 7.9294 75.6873 7.82566L75.8668 7.22716C75.9067 7.11544 75.9546 6.99175 76.0105 6.85609C76.0344 6.80023 76.0863 6.68452 76.1661 6.50896C76.214 6.39723 76.2658 6.28152 76.3217 6.16182C76.3775 6.03414 76.4254 5.9304 76.4653 5.8506L76.6688 5.4915C76.7486 5.34786 76.8085 5.24412 76.8484 5.18028C76.9202 5.06058 76.9601 4.99275 76.9681 4.97679C77.0399 4.89699 77.1117 4.81719 77.1835 4.73738C77.2075 4.69748 77.2194 4.63763 77.2194 4.55783C77.2194 4.43813 77.2274 4.35833 77.2434 4.31843C77.2673 4.25459 77.3032 4.19873 77.3511 4.15085C77.4389 4.07105 77.5307 3.98726 77.6264 3.89948C77.6583 3.86756 77.7421 3.76382 77.8778 3.58826C77.9656 3.46856 78.0613 3.3728 78.1651 3.30098L78.5601 3.06157C78.6319 3.00571 78.7356 2.90596 78.8713 2.76232C79.0149 2.61868 79.1426 2.50696 79.2543 2.42716C79.374 2.34736 79.5297 2.26357 79.7212 2.17579C79.9207 2.08801 80.0763 2.02018 80.188 1.9723C80.2997 1.91644 80.4115 1.86058 80.5232 1.80472C80.6429 1.74886 80.7466 1.70497 80.8344 1.67305C80.9222 1.63314 81.0459 1.58925 81.2055 1.54137C81.3651 1.48551 81.4888 1.4496 81.5765 1.43364C81.6723 1.4097 81.8 1.38576 81.9596 1.36182C82.1192 1.33788 82.2309 1.31793 82.2947 1.30197C82.5262 1.22217 82.7576 1.14237 82.989 1.06257C83.0608 1.04661 83.1606 1.03863 83.2883 1.03863C83.3441 1.03863 83.4319 1.04262 83.5516 1.0506C83.6713 1.05858 83.7711 1.06257 83.8509 1.06257L84.6888 1.00272C84.8324 1.00272 84.9441 0.998731 85.0239 0.990752C85.3431 0.958831 85.5227 0.942871 85.5626 0.942871L86.3047 0.966811C86.4324 0.966811 86.5441 0.974791 86.6399 0.990752C86.7356 0.998731 86.8952 1.02666 87.1187 1.07454C87.3421 1.11444 87.5855 1.19025 87.8489 1.30197C87.9366 1.33389 88.192 1.45359 88.615 1.66108C88.7586 1.7329 88.8942 1.80073 89.0219 1.86457C89.1496 1.92043 89.2933 2.00023 89.4529 2.10397C89.8359 2.35933 90.1631 2.6506 90.4344 2.97778C90.4903 3.04162 90.5701 3.14935 90.6738 3.30098C90.7775 3.44462 90.8653 3.56432 90.9371 3.66008C91.0169 3.75584 91.0967 3.84761 91.1765 3.93539C91.2085 3.97529 91.3521 4.11494 91.6075 4.35434C91.783 4.52192 91.9626 4.6895 92.1461 4.85709C92.202 4.92093 92.2578 5.00472 92.3137 5.10846C92.3696 5.20422 92.4135 5.28003 92.4454 5.33589C92.5172 5.45559 92.6688 5.68302 92.9002 6.01818C93.0838 6.2895 93.2194 6.52093 93.3072 6.71245C93.3471 6.80821 93.387 6.89599 93.4269 6.97579C93.4668 7.05559 93.5067 7.17529 93.5466 7.33489C93.5865 7.48651 93.6105 7.59823 93.6184 7.67005C93.6344 7.74187 93.6424 7.84162 93.6424 7.96931C93.6424 8.05709 93.6224 8.16083 93.5825 8.28053C93.5506 8.40023 93.5307 8.49599 93.5227 8.56781C93.4908 8.76731 93.4588 8.96681 93.4269 9.16631C93.4349 9.24611 93.4548 9.32192 93.4868 9.39374C93.5825 9.60921 93.6344 9.76083 93.6424 9.84861C93.6583 9.93639 93.6663 10.0002 93.6663 10.0401C93.6663 10.08 93.6623 10.1558 93.6544 10.2676C93.6464 10.3793 93.6424 10.4711 93.6424 10.5429V11.2371ZM90.4344 10.6386C90.4344 10.4152 90.4065 10.2237 90.3506 10.0641C90.3267 10.0082 90.2628 9.91644 90.1591 9.78876C90.1032 9.72491 90.0633 9.66507 90.0394 9.60921C90.0154 9.54536 89.9915 9.47354 89.9676 9.39374C89.9516 9.31394 89.9436 9.24212 89.9436 9.17828C89.9436 9.12242 89.9516 9.06656 89.9676 9.0107C89.9915 8.95484 90.0194 8.88701 90.0514 8.80721C90.0593 8.74337 90.0553 8.67953 90.0394 8.61569C90.0234 8.54387 90.0075 8.46008 89.9915 8.36432C89.9915 8.2925 89.9955 8.20073 90.0035 8.08901C90.0115 7.9693 90.0154 7.88152 90.0154 7.82566C90.0314 7.63414 90.0434 7.52242 90.0514 7.4905C90.0673 7.41868 90.0952 7.31095 90.1351 7.16731C90.1431 7.13539 90.187 7.05958 90.2668 6.93988C90.3227 6.8521 90.3506 6.76831 90.3506 6.68851C90.3506 6.52891 90.3147 6.37728 90.2429 6.23364C90.179 6.08202 90.1192 5.9703 90.0633 5.89848C90.0075 5.82666 89.9237 5.75085 89.812 5.67105C89.7481 5.62317 89.6683 5.57928 89.5726 5.53938C89.4289 5.47554 89.3491 5.43963 89.3332 5.43165C89.1975 5.35185 89.0778 5.27205 88.9741 5.19225C88.8783 5.11245 88.7785 5.0127 88.6748 4.893C88.603 4.82118 88.5351 4.72542 88.4713 4.60571C88.3277 4.35035 88.2239 4.18676 88.1601 4.11494C88.0564 3.97928 87.9486 3.85958 87.8369 3.75584C87.6853 3.6122 87.5656 3.50048 87.4778 3.42068L86.999 3.00172C86.8713 2.91394 86.7795 2.8501 86.7237 2.8102C86.6279 2.73838 86.5401 2.66257 86.4603 2.58277C86.4125 2.53489 86.3646 2.46307 86.3167 2.36731C86.2209 2.18377 86.1371 2.06806 86.0653 2.02018C85.9536 1.9324 85.8219 1.88452 85.6703 1.87654C85.5187 1.86058 85.391 1.84861 85.2873 1.84063C84.984 1.79275 84.7247 1.76881 84.5092 1.76881C84.3097 1.76881 84.0663 1.79275 83.779 1.84063C83.4918 1.88053 83.2085 1.96033 82.9292 2.08003C82.7855 2.13589 82.6538 2.19574 82.5341 2.25958C82.4703 2.2915 82.3426 2.3713 82.1511 2.49898C82.0553 2.56282 81.9476 2.64262 81.8279 2.73838C81.5486 2.97778 81.377 3.11743 81.3132 3.15733C81.2494 3.19724 81.2015 3.22517 81.1696 3.24113C81.1137 3.27305 81.0618 3.31295 81.014 3.36083C80.9741 3.40073 80.9342 3.46058 80.8942 3.54038C80.8304 3.67604 80.7905 3.75584 80.7746 3.77978C80.7267 3.84362 80.6549 3.92342 80.5591 4.01918C80.4633 4.10696 80.3955 4.17878 80.3556 4.23464C80.3157 4.2905 80.2559 4.37429 80.176 4.48601C80.0962 4.59773 80.0364 4.69349 79.9965 4.77329C79.9167 4.92492 79.8449 5.10048 79.781 5.29998C79.6853 5.6112 79.6254 5.79873 79.6015 5.86257C79.5775 5.91843 79.5576 5.97429 79.5416 6.03015C79.5017 6.13389 79.4578 6.23763 79.41 6.34137C79.3701 6.44512 79.3102 6.55684 79.2304 6.67654C79.1506 6.78826 79.0748 6.89998 79.003 7.0117C78.995 7.02766 78.9351 7.11943 78.8234 7.28701C78.7596 7.39075 78.7117 7.4905 78.6798 7.58626C78.6239 7.7299 78.592 7.81768 78.584 7.8496C78.576 7.88152 78.5721 7.93339 78.5721 8.00521C78.5721 8.0531 78.576 8.093 78.584 8.12492C78.6 8.18876 78.6359 8.25659 78.6918 8.32841C78.7476 8.39225 78.7915 8.44412 78.8234 8.48402C78.9192 8.5718 79.0189 8.65958 79.1227 8.74736C79.1706 8.82716 79.1945 8.92292 79.1945 9.03464C79.1865 9.1304 79.1825 9.20621 79.1825 9.26207C79.1825 9.36581 79.1586 9.50546 79.1107 9.68103C79.0628 9.85659 79.0389 9.99624 79.0389 10.1C79.0149 10.3314 79.003 10.5309 79.003 10.6985C79.003 10.8341 79.011 10.9818 79.0269 11.1414C79.0509 11.301 79.0908 11.4805 79.1466 11.68C79.2105 11.8795 79.2424 12.0391 79.2424 12.1588C79.2424 12.3344 79.2384 12.5179 79.2304 12.7095C79.2224 12.901 79.2184 13.0167 79.2184 13.0566C79.2184 13.2641 79.2304 13.4436 79.2543 13.5952C79.2783 13.7469 79.3262 13.9184 79.398 14.11C79.4459 14.2536 79.5257 14.4052 79.6374 14.5648C79.8289 14.8521 79.9287 14.9997 79.9366 15.0077C79.9526 15.0316 80.0045 15.1194 80.0923 15.271C80.1481 15.3668 80.204 15.4466 80.2598 15.5105C80.3955 15.6701 80.5591 15.8057 80.7506 15.9174C80.8783 15.9813 80.998 16.0411 81.1097 16.097C81.2214 16.1528 81.3212 16.2047 81.409 16.2526C81.5047 16.2925 81.6125 16.3244 81.7322 16.3484C81.8598 16.3723 81.9875 16.3922 82.1152 16.4082C82.2189 16.496 82.2987 16.5558 82.3546 16.5878C82.5062 16.6835 82.6219 16.7514 82.7017 16.7913C82.7895 16.8312 82.8773 16.8591 82.9651 16.875C83.0608 16.891 83.1486 16.899 83.2284 16.899C83.3082 16.899 83.408 16.895 83.5277 16.887C83.6553 16.8711 83.7232 16.8631 83.7312 16.8631C83.8668 16.8631 83.9865 16.8711 84.0903 16.887C84.194 16.903 84.3057 16.9349 84.4254 16.9828C84.4893 17.0067 84.5691 17.0546 84.6648 17.1264C84.7606 17.1903 84.8444 17.2302 84.9162 17.2461C84.988 17.2621 85.0439 17.2701 85.0838 17.2701C85.1636 17.2701 85.2553 17.2541 85.3591 17.2222C85.4708 17.1903 85.5785 17.1623 85.6823 17.1384C85.786 17.1065 85.9057 17.0666 86.0414 17.0187C86.177 16.9628 86.2848 16.9189 86.3646 16.887L86.9631 16.6476C87.3302 16.48 87.6813 16.2805 88.0164 16.0491C88.2239 15.9134 88.3955 15.7858 88.5312 15.6661C88.7067 15.5144 88.8623 15.3628 88.998 15.2112C89.1736 15.0117 89.2773 14.896 89.3092 14.8641C89.405 14.7444 89.4967 14.6007 89.5845 14.4331C89.6723 14.2656 89.7361 14.0461 89.776 13.7748C89.8239 13.5035 89.8558 13.3239 89.8718 13.2361C89.9277 12.8531 89.9875 12.4661 90.0514 12.075C90.0753 11.9873 90.0992 11.9194 90.1232 11.8715C90.179 11.7598 90.2349 11.6481 90.2908 11.5364C90.3865 11.2411 90.4344 10.9419 90.4344 10.6386Z" fill="#212121"/>
<path d="M108.77 9.02267C108.77 9.10247 108.75 9.17429 108.71 9.23813C108.678 9.29399 108.618 9.3698 108.53 9.46556C108.482 9.52142 108.443 9.56132 108.411 9.58526C108.291 9.64911 108.199 9.70098 108.135 9.74088C108.08 9.78078 108.02 9.81669 107.956 9.84861C107.892 9.88053 107.84 9.91644 107.8 9.95634C107.76 9.99624 107.72 10.0481 107.681 10.1119C107.665 10.1359 107.609 10.2516 107.513 10.4591L107.274 10.9977C107.258 11.0456 107.23 11.1334 107.19 11.2611C107.158 11.3888 107.126 11.4965 107.094 11.5843C107.062 11.672 107.022 11.7638 106.974 11.8596C106.926 11.9553 106.886 12.0351 106.855 12.099C106.767 12.3144 106.703 12.4661 106.663 12.5538C106.599 12.7055 106.523 12.8531 106.436 12.9967C106.356 13.1324 106.276 13.2641 106.196 13.3917C106.172 13.4636 106.156 13.5593 106.148 13.679C106.14 13.7908 106.124 13.8745 106.1 13.9304C106.084 13.9863 106.049 14.0621 105.993 14.1578C105.937 14.2456 105.897 14.3095 105.873 14.3494C105.857 14.3813 105.817 14.4411 105.753 14.5289C105.697 14.6167 105.658 14.6925 105.634 14.7563C105.61 14.8202 105.586 14.9119 105.562 15.0316C105.538 15.1513 105.51 15.2551 105.478 15.3429C105.446 15.4307 105.422 15.4905 105.406 15.5224C105.358 15.5942 105.322 15.6501 105.298 15.69C105.283 15.7219 105.251 15.7698 105.203 15.8336C105.163 15.8895 105.135 15.9334 105.119 15.9653C105.095 16.0292 105.075 16.105 105.059 16.1927C105.051 16.2725 105.043 16.3244 105.035 16.3484L104.856 16.9828C104.8 17.1424 104.748 17.302 104.7 17.4616C104.636 17.5813 104.576 17.701 104.52 17.8207C104.441 17.9404 104.341 18.0002 104.221 18.0002C104.07 18.0002 103.954 17.9803 103.874 17.9404C103.794 17.9005 103.734 17.8287 103.694 17.7249C103.655 17.6212 103.619 17.5374 103.587 17.4735C103.563 17.4097 103.535 17.31 103.503 17.1743C103.471 17.0386 103.439 16.9269 103.407 16.8391C103.375 16.7434 103.339 16.6596 103.299 16.5878C103.26 16.5159 103.22 16.4441 103.18 16.3723C103.148 16.2925 103.116 16.2167 103.084 16.1449C103.02 16.0092 102.976 15.9015 102.952 15.8217C102.928 15.7339 102.904 15.6262 102.881 15.4985C102.865 15.3708 102.841 15.2551 102.809 15.1514C102.785 15.0396 102.765 14.9638 102.749 14.9239C102.733 14.876 102.701 14.7962 102.653 14.6845C102.605 14.5728 102.573 14.493 102.557 14.4451C102.517 14.3573 102.466 14.3055 102.402 14.2895C102.33 14.2656 102.23 14.2855 102.102 14.3494C102.023 14.3893 101.963 14.4531 101.923 14.5409C101.883 14.6686 101.851 14.7643 101.827 14.8282C101.811 14.8681 101.799 14.9399 101.791 15.0436C101.783 15.1394 101.767 15.2152 101.743 15.271C101.719 15.3189 101.672 15.3828 101.6 15.4626C101.528 15.5424 101.476 15.6102 101.444 15.6661C101.436 15.682 101.416 15.7379 101.384 15.8336C101.352 15.9214 101.32 15.9932 101.288 16.0491C101.217 16.1528 101.149 16.2526 101.085 16.3484C101.061 16.4042 101.045 16.484 101.037 16.5878C101.029 16.6915 101.013 16.7713 100.989 16.8272C100.973 16.883 100.953 16.9269 100.929 16.9588C100.882 17.0307 100.838 17.0945 100.798 17.1504C100.766 17.1982 100.738 17.2701 100.714 17.3658C100.69 17.4616 100.662 17.5334 100.63 17.5813C100.566 17.701 100.526 17.7728 100.51 17.7967C100.463 17.8765 100.403 17.9324 100.331 17.9643C100.235 18.0282 100.127 18.0601 100.008 18.0601C99.88 18.0601 99.7842 18.0521 99.7204 18.0361C99.6645 18.0282 99.6047 18.0002 99.5409 17.9523C99.477 17.8965 99.4291 17.8366 99.3972 17.7728C99.3653 17.709 99.3334 17.6371 99.3015 17.5573C99.2775 17.4696 99.2655 17.4097 99.2655 17.3778C99.2735 17.2341 99.2815 17.0905 99.2895 16.9469C99.2735 16.875 99.2376 16.7992 99.1818 16.7194C99.102 16.5997 99.0581 16.5279 99.0501 16.504L98.8346 15.9294C98.7867 15.7937 98.7588 15.7179 98.7508 15.702C98.695 15.6062 98.6551 15.5344 98.6311 15.4865C98.4875 15.3189 98.3478 15.1474 98.2122 14.9718C98.1962 14.908 98.1882 14.8641 98.1882 14.8401C98.1882 14.7922 98.1922 14.7324 98.2002 14.6606C98.2162 14.5888 98.2241 14.5489 98.2241 14.5409C98.2241 14.493 98.2202 14.4571 98.2122 14.4331C98.1962 14.3853 98.1723 14.3334 98.1404 14.2775C98.0845 14.1898 98.0286 14.102 97.9728 14.0142C97.9568 13.9823 97.9129 13.9144 97.8411 13.8107C97.7773 13.699 97.7254 13.6032 97.6855 13.5234C97.6536 13.4436 97.6137 13.3319 97.5658 13.1883C97.5498 13.1404 97.5259 13.0845 97.494 13.0207C97.47 12.9489 97.4102 12.8292 97.3144 12.6616C97.2745 12.5977 97.2346 12.5299 97.1947 12.4581C97.091 12.2985 96.9912 12.1389 96.8955 11.9793L96.68 11.5364C96.6241 11.3768 96.5803 11.2571 96.5483 11.1773C96.5244 11.0895 96.5044 11.0017 96.4885 10.9139C96.4725 10.8262 96.4606 10.7264 96.4526 10.6147C96.4526 10.495 96.4366 10.4112 96.4047 10.3633C96.3808 10.3075 96.3409 10.2556 96.285 10.2077C96.1892 10.1359 96.1334 10.088 96.1174 10.0641L95.8182 9.70497L95.5429 9.44162L95.3035 9.10646C95.2795 9.07454 95.2596 9.03863 95.2436 8.99873C95.1957 8.92691 95.1638 8.85509 95.1478 8.78327C95.1399 8.70347 95.1359 8.64362 95.1359 8.60372C95.1359 8.53988 95.1518 8.48801 95.1837 8.44811C95.2236 8.40821 95.2835 8.38427 95.3633 8.37629C95.4511 8.36033 95.5069 8.35235 95.5309 8.35235C95.5628 8.35235 95.5827 8.35235 95.5907 8.35235C95.6546 8.35235 95.7344 8.36033 95.8301 8.37629C95.9339 8.38427 95.9897 8.38826 95.9977 8.38826L96.9553 8.48402C97.0511 8.48402 97.1668 8.49599 97.3025 8.51993C97.4461 8.53589 97.5379 8.54387 97.5778 8.54387C97.6735 8.54387 97.7613 8.53589 97.8411 8.51993C97.9289 8.50397 98.0326 8.48003 98.1523 8.44811L98.4755 8.38826C98.5234 8.38826 98.5753 8.38427 98.6311 8.37629C98.679 8.36831 98.7269 8.36033 98.7748 8.35235C98.8386 8.35235 98.8905 8.37629 98.9304 8.42417C98.9703 8.47205 98.9902 8.55185 98.9902 8.66357C98.9902 8.71943 98.9703 8.78327 98.9304 8.85509C98.8905 8.91893 98.8546 8.98277 98.8227 9.04661C98.7907 9.11045 98.7548 9.1703 98.7149 9.22616C98.675 9.28202 98.6391 9.33788 98.6072 9.39374C98.5753 9.44162 98.5274 9.50945 98.4635 9.59723C98.3997 9.67704 98.3638 9.74487 98.3558 9.80073C98.3399 9.88851 98.3478 9.97629 98.3798 10.0641C98.4436 10.1838 98.4875 10.2755 98.5114 10.3394C98.5354 10.3952 98.5753 10.4711 98.6311 10.5668C98.687 10.6546 98.7269 10.7184 98.7508 10.7583C98.8067 10.878 98.8506 10.9937 98.8825 11.1055C98.9144 11.2172 98.9503 11.3289 98.9902 11.4406L99.1339 11.8955L99.2895 12.2785C99.3693 12.478 99.4491 12.6775 99.5289 12.877C99.5369 12.901 99.5488 12.9808 99.5648 13.1164C99.5808 13.2441 99.6047 13.3399 99.6366 13.4037C99.6765 13.4596 99.7084 13.4995 99.7324 13.5234C99.8441 13.6192 99.9039 13.675 99.9119 13.691C99.9438 13.7389 99.9718 13.8027 99.9957 13.8825C100.02 13.9543 100.048 14.0302 100.08 14.11C100.111 14.1898 100.135 14.2456 100.151 14.2775C100.207 14.3573 100.247 14.4212 100.271 14.4691C100.327 14.5888 100.371 14.6845 100.403 14.7563C100.443 14.8282 100.498 14.884 100.57 14.9239C100.642 14.9558 100.706 14.9758 100.762 14.9838C100.81 14.9917 100.858 14.9878 100.905 14.9718C100.953 14.9558 100.993 14.9279 101.025 14.888C101.049 14.8561 101.073 14.8122 101.097 14.7563C101.129 14.7005 101.145 14.6326 101.145 14.5528C101.137 14.4411 101.133 14.3533 101.133 14.2895C101.133 14.2336 101.137 14.1937 101.145 14.1698C101.161 14.098 101.181 14.0421 101.205 14.0022C101.229 13.9464 101.257 13.8905 101.288 13.8346L101.504 13.4157C101.56 13.3199 101.62 13.2202 101.684 13.1164C101.699 13.0686 101.707 13.0047 101.707 12.9249C101.707 12.8611 101.695 12.7853 101.672 12.6975C101.648 12.6097 101.628 12.5259 101.612 12.4461C101.596 12.3663 101.572 12.2905 101.54 12.2187C101.484 12.107 101.44 12.0152 101.408 11.9434C101.376 11.8636 101.32 11.7638 101.241 11.6441C101.169 11.5244 101.117 11.4287 101.085 11.3568C100.957 11.0935 100.846 10.8222 100.75 10.5429C100.742 10.5269 100.722 10.4471 100.69 10.3035C100.658 10.1598 100.618 10.0521 100.57 9.98028C100.49 9.82866 100.371 9.69699 100.211 9.58526C100.155 9.54536 100.087 9.50945 100.008 9.47753C99.9279 9.43763 99.868 9.40571 99.8281 9.38177L99.5528 9.20222C99.5049 9.16232 99.4571 9.11843 99.4092 9.07055C99.3613 9.02267 99.3294 8.96282 99.3134 8.891C99.2975 8.81918 99.2895 8.76332 99.2895 8.72342C99.2895 8.6117 99.3254 8.52392 99.3972 8.46008C99.469 8.39624 99.5808 8.36432 99.7324 8.36432C99.8361 8.36432 99.9079 8.36831 99.9478 8.37629C100.012 8.39225 100.123 8.4122 100.283 8.43614C100.443 8.46008 100.65 8.48402 100.905 8.50796C101.073 8.54786 101.241 8.58776 101.408 8.62766C101.488 8.62766 101.564 8.61968 101.636 8.60372C101.715 8.58776 101.847 8.56781 102.031 8.54387C102.222 8.51195 102.45 8.49599 102.713 8.49599C102.849 8.49599 102.988 8.49998 103.132 8.50796C103.284 8.50796 103.439 8.50796 103.599 8.50796C103.686 8.50796 103.794 8.51594 103.922 8.5319C104.058 8.53988 104.129 8.54387 104.137 8.54387C104.305 8.51195 104.473 8.48003 104.64 8.44811C104.8 8.48801 104.907 8.54786 104.963 8.62766C105.019 8.70746 105.047 8.79923 105.047 8.90297C105.047 8.98277 105.039 9.0506 105.023 9.10646C105.015 9.16232 105.003 9.2102 104.987 9.2501C104.971 9.28202 104.935 9.33389 104.88 9.40571C104.832 9.47753 104.748 9.54137 104.628 9.59723C104.564 9.62916 104.492 9.66905 104.413 9.71694C104.341 9.75684 104.289 9.78477 104.257 9.80073C104.153 9.85659 104.066 9.92442 103.994 10.0042C103.922 10.076 103.862 10.1598 103.814 10.2556C103.766 10.3434 103.722 10.4312 103.683 10.5189C103.603 10.6706 103.547 10.7783 103.515 10.8421C103.459 10.9538 103.411 11.0696 103.371 11.1893C103.339 11.301 103.315 11.3927 103.299 11.4646C103.284 11.5364 103.284 11.6082 103.299 11.68C103.315 11.7439 103.347 11.8037 103.395 11.8596C103.443 11.9154 103.491 11.9673 103.539 12.0152L103.683 12.2546C103.738 12.3663 103.786 12.5219 103.826 12.7214C103.866 12.9209 103.89 13.0326 103.898 13.0566L104.042 13.6311C104.082 13.7828 104.121 13.9304 104.161 14.074C104.217 14.1778 104.265 14.2616 104.305 14.3254C104.353 14.3813 104.433 14.4371 104.544 14.493C104.656 14.5409 104.748 14.5528 104.82 14.5289C104.891 14.505 104.935 14.4491 104.951 14.3613C104.967 14.2656 104.983 14.1698 104.999 14.074C105.055 13.9304 105.115 13.7828 105.179 13.6311C105.195 13.5992 105.231 13.5593 105.286 13.5114C105.342 13.4636 105.378 13.4237 105.394 13.3917C105.418 13.3439 105.438 13.28 105.454 13.2002C105.47 13.1124 105.486 13.0167 105.502 12.9129C105.526 12.8012 105.542 12.7134 105.55 12.6496C105.566 12.5858 105.594 12.5219 105.634 12.4581C105.697 12.3942 105.765 12.3264 105.837 12.2546C105.877 12.1828 105.897 12.099 105.897 12.0032C105.897 11.9154 105.897 11.8516 105.897 11.8117C105.897 11.7558 105.897 11.7119 105.897 11.68C105.905 11.6162 105.925 11.5204 105.957 11.3927C105.997 11.2651 106.017 11.1613 106.017 11.0815V10.5788C106.017 10.5149 106.025 10.4351 106.041 10.3394C106.057 10.2436 106.065 10.1718 106.065 10.1239C106.065 10.0601 106.061 10.0122 106.053 9.98028C106.037 9.92442 106.021 9.87654 106.005 9.83664C105.981 9.78876 105.937 9.71694 105.873 9.62117C105.777 9.53339 105.686 9.44162 105.598 9.34586C105.55 9.25808 105.51 9.17429 105.478 9.09449C105.454 9.00671 105.454 8.92292 105.478 8.84312C105.534 8.65958 105.646 8.54786 105.813 8.50796C105.861 8.49998 105.909 8.50397 105.957 8.51993C106.005 8.53589 106.088 8.55584 106.208 8.57978C106.328 8.60372 106.483 8.63165 106.675 8.66357C106.731 8.65559 106.795 8.63165 106.867 8.59175C106.946 8.55185 107.03 8.52392 107.118 8.50796C107.206 8.48402 107.297 8.47205 107.393 8.47205C107.561 8.48003 107.692 8.48402 107.788 8.48402C107.852 8.48402 107.932 8.47604 108.028 8.46008C108.131 8.43614 108.191 8.42417 108.207 8.42417C108.239 8.42417 108.287 8.43215 108.351 8.44811C108.494 8.49599 108.606 8.57579 108.686 8.68751C108.742 8.79125 108.77 8.90297 108.77 9.02267ZM103.144 9.74088C103.144 9.71694 103.104 9.64511 103.024 9.52541C102.992 9.48551 102.964 9.44561 102.94 9.40571C102.916 9.38177 102.873 9.35384 102.809 9.32192C102.753 9.28202 102.697 9.26207 102.641 9.26207C102.529 9.26207 102.442 9.29798 102.378 9.3698C102.314 9.43364 102.282 9.51344 102.282 9.60921C102.282 9.65709 102.29 9.74487 102.306 9.87255C102.33 10.0002 102.39 10.104 102.485 10.1838C102.525 10.2237 102.565 10.2596 102.605 10.2915C102.653 10.3234 102.705 10.3394 102.761 10.3394C102.825 10.3394 102.873 10.3035 102.904 10.2316C102.936 10.1518 102.968 10.076 103 10.0042C103.048 9.94836 103.08 9.90846 103.096 9.88452C103.136 9.83664 103.152 9.78876 103.144 9.74088Z" fill="#212121"/>
<path d="M115.735 17.5214C115.735 17.6571 115.675 17.7768 115.556 17.8805C115.5 17.9204 115.424 17.9444 115.328 17.9523C115.241 17.9603 115.165 17.9643 115.101 17.9643C115.013 17.9643 114.905 17.9563 114.778 17.9404C114.65 17.9164 114.57 17.9045 114.538 17.9045C114.451 17.9045 114.331 17.9005 114.179 17.8925C114.028 17.8845 113.908 17.8805 113.82 17.8805C113.7 17.8805 113.593 17.8885 113.497 17.9045C113.401 17.9204 113.309 17.9364 113.222 17.9523C113.134 17.9603 113.026 17.9843 112.898 18.0242C112.771 18.0641 112.679 18.088 112.623 18.096H111.869H111.067C110.947 18.088 110.852 18.08 110.78 18.072C110.708 18.072 110.648 18.0521 110.6 18.0122C110.552 17.9723 110.516 17.9284 110.492 17.8805C110.476 17.8486 110.453 17.7848 110.421 17.689C110.389 17.5932 110.373 17.5374 110.373 17.5214C110.373 17.4336 110.409 17.3578 110.48 17.294C110.584 17.2222 110.664 17.1623 110.72 17.1144C110.784 17.0666 110.864 17.0227 110.959 16.9828C111.135 16.911 111.231 16.871 111.247 16.8631C111.326 16.8152 111.41 16.7673 111.498 16.7194C111.586 16.6636 111.662 16.5997 111.725 16.5279C111.797 16.4481 111.857 16.3523 111.905 16.2406C111.929 16.1927 111.965 16.093 112.013 15.9414C112.061 15.7898 112.092 15.6661 112.108 15.5703C112.132 15.4745 112.144 15.3708 112.144 15.2591C112.136 15.1075 112.132 14.9917 112.132 14.9119C112.132 14.8481 112.14 14.7883 112.156 14.7324C112.18 14.6765 112.216 14.6167 112.264 14.5528C112.312 14.481 112.34 14.4331 112.348 14.4092C112.388 14.2975 112.412 14.2137 112.42 14.1578C112.436 14.094 112.444 14.0262 112.444 13.9543C112.436 13.8825 112.424 13.8227 112.408 13.7748C112.368 13.6631 112.348 13.6032 112.348 13.5952C112.34 13.5474 112.336 13.4755 112.336 13.3798C112.336 13.308 112.344 13.2002 112.36 13.0566C112.376 12.9129 112.384 12.7932 112.384 12.6975C112.384 12.5858 112.376 12.49 112.36 12.4102C112.304 12.1309 112.276 11.9873 112.276 11.9793C112.276 11.8915 112.288 11.8157 112.312 11.7518C112.336 11.688 112.376 11.6202 112.432 11.5484C112.487 11.4686 112.519 11.4127 112.527 11.3808C112.575 11.2451 112.599 11.1214 112.599 11.0097C112.599 10.9618 112.595 10.902 112.587 10.8302C112.579 10.7583 112.571 10.7025 112.563 10.6626C112.555 10.6067 112.531 10.5229 112.491 10.4112C112.46 10.2995 112.444 10.2356 112.444 10.2197C112.42 10.0601 112.408 9.92043 112.408 9.80073C112.408 9.73689 112.408 9.68501 112.408 9.64511C112.416 9.56531 112.452 9.45359 112.515 9.30995C112.587 9.16631 112.623 9.0506 112.623 8.96282C112.623 8.87504 112.615 8.76332 112.599 8.62766C112.591 8.48402 112.587 8.40422 112.587 8.38826L112.563 7.78975C112.563 7.63813 112.559 7.51843 112.551 7.43065C112.519 7.08751 112.503 6.88801 112.503 6.83215C112.503 6.72043 112.507 6.63265 112.515 6.56881C112.515 6.56083 112.527 6.493 112.551 6.36531C112.575 6.22965 112.599 6.11793 112.623 6.03015C112.623 5.95833 112.619 5.90646 112.611 5.87454C112.579 5.79474 112.551 5.71494 112.527 5.63514C112.519 5.6112 112.511 5.52342 112.503 5.3718C112.503 5.22018 112.487 5.10447 112.456 5.02467C112.432 4.94487 112.4 4.87704 112.36 4.82117C112.328 4.76531 112.264 4.6895 112.168 4.59374C112.12 4.54586 112.073 4.50197 112.025 4.46207C111.985 4.41419 111.917 4.37429 111.821 4.34237C111.733 4.31045 111.63 4.27454 111.51 4.23464C111.374 4.12292 111.306 3.98327 111.306 3.81569C111.306 3.70397 111.33 3.60821 111.378 3.52841C111.402 3.48851 111.466 3.4127 111.57 3.30098C111.626 3.24512 111.693 3.19724 111.773 3.15733C111.893 3.09349 111.965 3.05359 111.989 3.03763L112.324 2.76232C112.452 2.63464 112.579 2.50696 112.707 2.37928C112.851 2.30746 112.95 2.25559 113.006 2.22367C113.07 2.18377 113.134 2.13589 113.198 2.08003C113.27 2.01619 113.337 1.95634 113.401 1.90048C113.505 1.80472 113.613 1.70497 113.724 1.60123C113.924 1.45758 114.123 1.34586 114.323 1.26606C114.395 1.23414 114.455 1.20621 114.502 1.18227C114.558 1.15833 114.61 1.14636 114.658 1.14636C114.754 1.14636 114.834 1.16631 114.897 1.20621C114.961 1.23813 115.025 1.29399 115.089 1.37379C115.153 1.44561 115.185 1.53738 115.185 1.64911C115.169 1.79275 115.161 1.90447 115.161 1.98427C115.161 2.11195 115.145 2.24362 115.113 2.37928C115.081 2.50696 115.049 2.63464 115.017 2.76232L114.862 3.33689L114.742 3.87554L114.682 4.43813V4.77329L114.718 5.8506L114.742 6.98776V7.82566C114.742 7.90546 114.75 8.00522 114.766 8.12492C114.782 8.23664 114.786 8.32442 114.778 8.38826C114.762 8.4521 114.73 8.5319 114.682 8.62766C114.634 8.72342 114.606 8.79524 114.598 8.84312C114.542 8.9708 114.502 9.07055 114.478 9.14237C114.455 9.20621 114.443 9.28601 114.443 9.38177C114.443 9.48551 114.455 9.58526 114.478 9.68103C114.502 9.77679 114.522 9.85659 114.538 9.92043C114.546 9.95235 114.562 10.0082 114.586 10.088C114.61 10.1598 114.622 10.2237 114.622 10.2795C114.622 10.3434 114.61 10.4232 114.586 10.5189C114.57 10.6067 114.562 10.6666 114.562 10.6985V11.3209V11.7159C114.562 11.8197 114.562 11.9075 114.562 11.9793C114.562 12.0431 114.57 12.107 114.586 12.1708C114.602 12.2346 114.626 12.2905 114.658 12.3384C114.746 12.482 114.794 12.5618 114.802 12.5778C114.858 12.7055 114.889 12.8052 114.897 12.877C114.897 12.9489 114.893 13.0007 114.885 13.0326C114.854 13.1124 114.826 13.1922 114.802 13.272L114.742 13.8346C114.734 13.9065 114.71 13.9942 114.67 14.098C114.638 14.2017 114.622 14.2735 114.622 14.3134C114.622 14.4092 114.626 14.501 114.634 14.5888C114.642 14.6686 114.654 14.7444 114.67 14.8162C114.686 14.888 114.718 14.9678 114.766 15.0556C114.814 15.1354 114.838 15.1992 114.838 15.2471C114.838 15.287 114.818 15.3389 114.778 15.4027C114.746 15.4666 114.726 15.5144 114.718 15.5464C114.702 15.5942 114.69 15.6461 114.682 15.702C114.674 15.7578 114.67 15.8097 114.67 15.8576C114.67 15.9055 114.678 15.9653 114.694 16.0371C114.71 16.109 114.726 16.1848 114.742 16.2646C114.79 16.4162 114.87 16.5638 114.981 16.7075C115.029 16.7713 115.073 16.8232 115.113 16.8631C115.201 16.9429 115.292 17.0227 115.388 17.1025C115.484 17.1823 115.556 17.2421 115.604 17.282C115.691 17.3538 115.735 17.4336 115.735 17.5214Z" fill="#212121"/>
</svg>
