<svg width="116" height="24" viewBox="0 0 116 24" fill="none" xmlns="http://www.w3.org/2000/svg">
<path d="M12.8558 14.1097C12.8558 14.2055 12.8478 14.2853 12.8319 14.3491C12.8239 14.413 12.8119 14.4808 12.796 14.5526C12.7561 14.776 12.6962 15.0154 12.6164 15.2708C12.5845 15.4065 12.5605 15.4942 12.5446 15.5341C12.5286 15.582 12.4927 15.6658 12.4369 15.7855C12.389 15.9052 12.3451 15.997 12.3052 16.0608C12.2733 16.1247 12.2174 16.2005 12.1376 16.2883C12.0259 16.408 11.8982 16.5077 11.7546 16.5875C11.7147 16.6115 11.6588 16.6394 11.587 16.6713C11.5152 16.7032 11.4354 16.7391 11.3476 16.779C11.2678 16.8189 11.164 16.9147 11.0364 17.0663C10.9167 17.21 10.8049 17.3097 10.7012 17.3656C10.6054 17.4214 10.5057 17.4693 10.4019 17.5092C10.3062 17.5491 10.2264 17.581 10.1625 17.605C10.0987 17.6289 9.98698 17.6648 9.82738 17.7127C9.66778 17.7526 9.54409 17.7805 9.45631 17.7965C9.36853 17.8125 9.28474 17.8284 9.20494 17.8444C9.13312 17.8524 8.91366 17.8723 8.54658 17.9042L7.74459 18C7.51317 18 7.24184 17.996 6.93062 17.988C6.62738 17.9721 6.4598 17.9641 6.42788 17.9641L5.76953 18C5.64982 18 5.50618 18.004 5.3386 18.012C5.179 18.0279 5.09122 18.0359 5.07526 18.0359C4.99546 18.0359 4.88773 18.0199 4.75207 17.988C4.62439 17.9561 4.54459 17.9401 4.51267 17.9401C4.19347 17.9002 3.85431 17.8803 3.49521 17.8803C3.37551 17.8803 3.26778 17.8923 3.17202 17.9162C3.08424 17.9322 2.98848 17.9481 2.88474 17.9641C2.781 17.98 2.64135 17.996 2.46578 18.012C2.2982 18.0279 2.16254 18.0359 2.0588 18.0359C1.94708 18.0359 1.84733 18.0319 1.75955 18.0239C1.67177 18.0239 1.56005 18.004 1.42439 17.9641C1.25681 17.9401 1.12115 17.9162 1.01741 17.8923C0.913665 17.8683 0.861795 17.8045 0.861795 17.7007C0.861795 17.613 0.901695 17.5411 0.981496 17.4853C1.0613 17.4214 1.1411 17.3616 1.2209 17.3057C1.4204 17.1701 1.6199 17.0304 1.8194 16.8868C1.96304 16.7192 2.06279 16.5317 2.11865 16.3242C2.11067 16.1646 2.10668 16.0489 2.10668 15.977C2.10668 15.9052 2.11865 15.8494 2.14259 15.8095C2.15855 15.7855 2.19446 15.7536 2.25032 15.7137C2.31416 15.6738 2.35805 15.6379 2.38199 15.606C2.44583 15.5262 2.47775 15.4184 2.47775 15.2828C2.47775 15.211 2.46977 15.1192 2.45381 15.0075C2.44583 14.8957 2.44184 14.8359 2.44184 14.8279C2.44184 14.6444 2.44982 14.4209 2.46578 14.1576C2.48972 13.8863 2.5017 13.7107 2.5017 13.6309C2.5017 13.4713 2.48972 13.2798 2.46578 13.0563C2.44982 12.8249 2.44184 12.6773 2.44184 12.6134C2.44184 12.4139 2.43785 12.1506 2.42987 11.8234C2.42189 11.4962 2.4179 11.2289 2.4179 11.0214L2.38199 9.10622V7.72966C2.38199 7.65784 2.378 7.5541 2.37002 7.41844C2.36204 7.2748 2.35805 7.16707 2.35805 7.09525C2.35805 6.97554 2.378 6.80796 2.4179 6.5925C2.42588 6.54462 2.46179 6.45684 2.52564 6.32916C2.58948 6.1935 2.6214 6.08178 2.6214 5.994C2.62938 5.88228 2.6214 5.78253 2.59746 5.69475C2.5815 5.59899 2.55756 5.48328 2.52564 5.34761C2.49372 5.21195 2.4578 5.06033 2.4179 4.89275C2.40992 4.83689 2.40593 4.78502 2.40593 4.73714C2.40593 4.69724 2.40593 4.66931 2.40593 4.65335C2.40593 4.54961 2.40992 4.41794 2.4179 4.25834C2.43386 4.09874 2.44184 4.01096 2.44184 3.995C2.44184 3.86731 2.43785 3.74761 2.42987 3.63589C2.42987 3.52417 2.40593 3.3925 2.35805 3.24088C2.31815 3.08926 2.27825 2.97355 2.23835 2.89375C2.20643 2.81395 2.14658 2.71021 2.0588 2.58253C2.0189 2.52667 1.979 2.47081 1.9391 2.41495C1.85132 2.31121 1.75955 2.22742 1.66379 2.16357C1.63187 2.13963 1.58399 2.1117 1.52015 2.07978C1.41641 2.02392 1.31666 1.98801 1.2209 1.97205C1.13312 1.94811 1.04135 1.92417 0.945585 1.90023C0.857805 1.85235 0.789974 1.78452 0.742094 1.69674C0.694214 1.60896 0.682244 1.51719 0.706184 1.42143C0.722144 1.35759 0.758054 1.30173 0.813915 1.25385C0.837855 1.23789 0.885735 1.20597 0.957556 1.15809C1.03736 1.11021 1.10918 1.08228 1.17302 1.0743C1.23686 1.06632 1.31666 1.06233 1.41242 1.06233C1.48424 1.06233 1.5401 1.06233 1.58 1.06233C1.72364 1.06233 1.85132 1.06632 1.96304 1.0743C2.08274 1.08228 2.20643 1.09425 2.33411 1.11021C2.46179 1.12617 2.58549 1.15011 2.70519 1.18203C2.83287 1.20597 2.93661 1.22592 3.01641 1.24188L3.579 1.36158C3.76254 1.3935 3.89022 1.41744 3.96204 1.4334C4.03386 1.44138 4.10568 1.44537 4.17751 1.44537C4.28125 1.44537 4.38499 1.4334 4.48873 1.40946C4.60045 1.38552 4.72813 1.35759 4.87177 1.32567C5.04733 1.31769 5.22289 1.30572 5.39845 1.28976C5.47825 1.29774 5.54209 1.30173 5.58997 1.30173C5.63785 1.30173 5.74958 1.32168 5.92514 1.36158C5.99696 1.37754 6.06479 1.38552 6.12863 1.38552C6.20843 1.3935 6.35207 1.40148 6.55955 1.40946C6.77501 1.41744 6.89072 1.42143 6.90668 1.42143L7.46928 1.44537H8.34309C8.51067 1.44537 8.6583 1.45734 8.78598 1.48128C8.91366 1.49724 9.07327 1.53714 9.26479 1.60098C9.45631 1.64886 9.59995 1.69674 9.69571 1.74462C9.79147 1.7925 10.0069 1.92417 10.3421 2.13963C10.4139 2.18751 10.4897 2.23939 10.5695 2.29525C10.6892 2.39101 10.8129 2.48677 10.9406 2.58253L11.3356 2.88178C11.4234 2.9536 11.5072 3.0334 11.587 3.12118C11.6668 3.20098 11.7506 3.28078 11.8384 3.36058C11.9261 3.4324 11.99 3.49225 12.0299 3.54013C12.0778 3.58003 12.1256 3.63988 12.1735 3.71968C12.2294 3.7915 12.2733 3.89126 12.3052 4.01894C12.3371 4.13864 12.365 4.24637 12.389 4.34213C12.4129 4.42991 12.4408 4.52567 12.4728 4.62941C12.5047 4.73315 12.5246 4.84088 12.5326 4.9526C12.5246 5.08826 12.5206 5.18801 12.5206 5.25185C12.5206 5.32367 12.5246 5.3915 12.5326 5.45534C12.5406 5.5112 12.5725 5.60297 12.6284 5.73066C12.6842 5.85036 12.7201 5.95011 12.7361 6.02991C12.7521 6.10173 12.76 6.19749 12.76 6.31719C12.76 6.42891 12.764 6.52068 12.772 6.5925C12.7401 6.86382 12.6603 7.10323 12.5326 7.31071C12.4209 7.51819 12.2812 7.67779 12.1137 7.78951C12.0578 7.82143 11.97 7.85734 11.8503 7.89724C11.7306 7.92916 11.6349 7.96507 11.563 8.00497C11.4992 8.03689 11.4553 8.06083 11.4314 8.07679C11.3755 8.12467 11.3316 8.16058 11.2997 8.18452C11.2678 8.20846 11.2199 8.26033 11.1561 8.34013C11.1002 8.41195 11.0603 8.45983 11.0364 8.48377C10.9805 8.52367 10.9047 8.56756 10.8089 8.61544C10.7132 8.65534 10.6573 8.67929 10.6413 8.68727C10.6094 8.70323 10.5376 8.73115 10.4259 8.77106C10.3221 8.80298 10.2543 8.85086 10.2224 8.9147C10.1985 8.97056 10.1865 9.02642 10.1865 9.08228C10.1865 9.14612 10.1905 9.194 10.1985 9.22592C10.2144 9.29774 10.2663 9.36557 10.3541 9.42941C10.4498 9.48527 10.5576 9.54911 10.6773 9.62093C10.8847 9.81245 11.0922 9.99998 11.2997 10.1835C11.3476 10.2234 11.4274 10.2793 11.5391 10.3511C11.6508 10.4149 11.7306 10.4788 11.7785 10.5426C11.8264 10.6065 11.8663 10.6783 11.8982 10.7581C11.9301 10.8379 11.962 10.9177 11.994 10.9975C12.1137 11.197 12.2334 11.3965 12.3531 11.596C12.385 11.6758 12.4129 11.7915 12.4369 11.9431C12.4608 12.0947 12.4807 12.2065 12.4967 12.2783L12.6523 12.9127C12.7002 13.0962 12.7441 13.2838 12.784 13.4753C12.8319 13.6588 12.8558 13.8703 12.8558 14.1097ZM10.0189 5.49126C10.0189 5.40347 10.0189 5.31968 10.0189 5.23988C10.0189 5.1521 10.0229 5.06432 10.0309 4.97654C10.0309 4.88078 10.0269 4.79699 10.0189 4.72517C10.0109 4.65335 9.99097 4.57754 9.95905 4.49774C9.93511 4.40996 9.91516 4.34213 9.8992 4.29425C9.8593 4.18253 9.8194 4.07081 9.7795 3.95909C9.74758 3.84737 9.69571 3.74761 9.62389 3.65983C9.59197 3.61195 9.53212 3.55609 9.44434 3.49225C9.36454 3.42841 9.31666 3.38452 9.3007 3.36058L9.14509 3.12118C9.07327 3.01744 9.02938 2.9536 9.01342 2.92966C8.95755 2.85784 8.9017 2.80198 8.84583 2.76208C8.71815 2.66632 8.55057 2.59849 8.34309 2.55859L7.94808 2.52268C7.9002 2.52268 7.82838 2.51869 7.73262 2.51071C7.63686 2.50273 7.56105 2.49874 7.50519 2.49874C7.44933 2.49874 7.3815 2.51071 7.30169 2.53465C7.22189 2.55061 7.17002 2.55859 7.14608 2.55859C7.05032 2.55859 6.96254 2.55061 6.88274 2.53465C6.81092 2.51869 6.74708 2.50672 6.69122 2.49874C6.66728 2.49076 6.61541 2.47081 6.53561 2.43889C6.45581 2.39899 6.38798 2.37904 6.33212 2.37904C6.1805 2.36308 6.00893 2.39101 5.81741 2.46283C5.63386 2.53465 5.47825 2.66632 5.35057 2.85784C5.27077 2.96956 5.21491 3.07729 5.18299 3.18103C5.15107 3.27679 5.13511 3.39649 5.13511 3.54013C5.13511 3.60397 5.15107 3.67579 5.18299 3.75559C5.25481 3.93914 5.29072 4.05884 5.29072 4.1147C5.29072 4.17056 5.27476 4.24238 5.24284 4.33016C5.2189 4.41794 5.20294 4.48577 5.19496 4.53365L5.07526 4.97654C5.03536 5.1122 5.00743 5.21594 4.99147 5.28776C4.98349 5.3516 4.97152 5.43938 4.95556 5.55111C4.95556 5.61495 4.95157 5.67879 4.94359 5.74263C4.94359 5.79849 4.94359 5.85435 4.94359 5.91021C4.94359 5.99001 4.94758 6.05784 4.95556 6.1137C4.97152 6.16956 5.00743 6.24936 5.06329 6.3531C5.11915 6.44886 5.15506 6.53265 5.17102 6.60447C5.19496 6.66831 5.21491 6.73215 5.23087 6.79599C5.24683 6.85983 5.25481 6.93165 5.25481 7.01145V7.40647C5.27077 7.54213 5.28274 7.64188 5.29072 7.70572C5.30668 7.76956 5.3386 7.84138 5.38648 7.92118C5.43436 8.00098 5.49022 8.0728 5.55406 8.13664C5.62588 8.1925 5.76554 8.25634 5.97302 8.32816C6.0608 8.36008 6.13262 8.38003 6.18848 8.38801C6.25232 8.39599 6.32813 8.39998 6.41591 8.39998C6.58349 8.392 6.71516 8.38801 6.81092 8.38801L7.52913 8.36407C7.64883 8.36407 7.73262 8.36407 7.7805 8.36407C7.95606 8.36407 8.10369 8.3521 8.22339 8.32816C8.34309 8.30422 8.45481 8.27629 8.55855 8.24437C8.66229 8.20447 8.75805 8.16058 8.84583 8.1127C8.93361 8.05684 9.02139 7.98502 9.10918 7.89724C9.14908 7.85734 9.2209 7.78153 9.32464 7.66981C9.39646 7.59799 9.44434 7.55011 9.46828 7.52617C9.51616 7.47829 9.56005 7.42642 9.59995 7.37056C9.71167 7.22692 9.77551 7.13913 9.79147 7.10721C9.84733 7.01943 9.89122 6.91569 9.92314 6.79599C9.96304 6.67629 9.98299 6.53664 9.98299 6.37704C9.98299 6.26532 9.98299 6.17754 9.98299 6.1137L10.0189 5.49126ZM10.2822 13.212C10.2743 13.1481 10.2503 13.0683 10.2104 12.9726C10.1705 12.8688 10.1466 12.797 10.1386 12.7571C10.1067 12.6454 10.0788 12.5456 10.0548 12.4578C10.0389 12.3621 10.0269 12.2823 10.0189 12.2184L9.92314 11.8354C9.88324 11.6199 9.84334 11.4005 9.80344 11.177C9.77152 11.0494 9.7396 10.9456 9.70768 10.8658C9.64384 10.7461 9.59596 10.6504 9.56404 10.5785C9.47626 10.403 9.4204 10.2913 9.39646 10.2434C9.33262 10.1396 9.25282 10.0439 9.15706 9.95609C9.0613 9.86831 8.98549 9.80846 8.92962 9.77654C8.84184 9.72068 8.75406 9.67679 8.66628 9.64487C8.50668 9.58901 8.34708 9.56108 8.18748 9.56108C8.10768 9.56108 8.01192 9.57305 7.9002 9.59699C7.78848 9.61295 7.71666 9.62093 7.68474 9.62093C7.61292 9.61295 7.52913 9.58901 7.43337 9.54911C7.33761 9.50123 7.24982 9.4733 7.17002 9.46532C7.0982 9.44936 7.02239 9.43739 6.94259 9.42941C6.86279 9.41345 6.75905 9.40547 6.63137 9.40547C6.51965 9.40547 6.41192 9.40946 6.30818 9.41744C6.21242 9.41744 6.11267 9.4334 6.00893 9.46532C5.90519 9.49724 5.81342 9.54113 5.73361 9.59699C5.68573 9.62891 5.60593 9.69674 5.49421 9.80048C5.19895 10.0878 5.05132 10.4349 5.05132 10.8419C5.05132 10.9297 5.07526 11.0414 5.12314 11.177C5.17102 11.3127 5.19496 11.4204 5.19496 11.5002C5.19496 11.6439 5.17501 11.7835 5.13511 11.9192C5.09521 12.0469 5.06728 12.1386 5.05132 12.1945C4.93162 12.4179 4.83985 12.5815 4.77601 12.6853C4.72015 12.789 4.69222 12.8928 4.69222 12.9965C4.69222 13.0763 4.69621 13.1322 4.70419 13.1641C4.71217 13.212 4.74808 13.2957 4.81192 13.4154C4.82788 13.4633 4.87576 13.5272 4.95556 13.607C5.03536 13.6868 5.08723 13.7626 5.11117 13.8344C5.13511 13.9062 5.14708 13.978 5.14708 14.0499C5.14708 14.1057 5.1391 14.1815 5.12314 14.2773C5.11516 14.3731 5.11117 14.4249 5.11117 14.4329C5.11117 14.5366 5.10319 14.6324 5.08723 14.7202C5.07925 14.8 5.05531 14.9037 5.01541 15.0314C4.95157 15.191 4.89172 15.3506 4.83586 15.5102C4.82788 15.5501 4.82389 15.61 4.82389 15.6898C4.82389 15.8174 4.8598 15.9491 4.93162 16.0848C4.9795 16.1726 5.0593 16.2484 5.17102 16.3122C5.28274 16.3681 5.37052 16.412 5.43436 16.4439L5.85332 16.6234C6.0209 16.6873 6.16454 16.7351 6.28424 16.7671C6.40394 16.799 6.55157 16.8309 6.72713 16.8628C6.79097 16.8708 6.87875 16.8788 6.99047 16.8868C7.10219 16.8947 7.20194 16.8987 7.28973 16.8987C7.39347 16.8987 7.49721 16.8987 7.60095 16.8987C7.71267 16.8987 7.82838 16.8947 7.94808 16.8868C8.24334 16.8868 8.53461 16.8389 8.82189 16.7431C8.94958 16.6952 9.04135 16.6593 9.09721 16.6354C9.20095 16.5875 9.28873 16.5317 9.36055 16.4678C9.43237 16.404 9.5002 16.3282 9.56404 16.2404C9.59596 16.1925 9.64783 16.1007 9.71965 15.9651C9.75955 15.8693 9.79546 15.7496 9.82738 15.606C9.86728 15.4623 9.90319 15.3546 9.93511 15.2828C9.96703 15.211 10.0029 15.1272 10.0428 15.0314C10.0508 15.0075 10.0588 14.9676 10.0668 14.9117C10.0668 14.8718 10.0708 14.8319 10.0788 14.792C10.0788 14.7521 10.0788 14.7122 10.0788 14.6723C10.0708 14.6005 10.0628 14.5247 10.0548 14.4449C10.0548 14.4129 10.0628 14.3571 10.0788 14.2773C10.0947 14.1975 10.1266 14.1097 10.1745 14.0139C10.2224 13.9102 10.2543 13.8105 10.2703 13.7147C10.2862 13.6189 10.2942 13.5152 10.2942 13.4035C10.2942 13.3237 10.2902 13.2598 10.2822 13.212Z" fill="#212121"/>
<path d="M21.4186 17.2818C21.3867 17.3456 21.3308 17.4134 21.251 17.4853C21.1712 17.5491 21.1074 17.601 21.0595 17.6409C20.9318 17.7366 20.8121 17.8125 20.7004 17.8683C20.5967 17.9242 20.477 17.9681 20.3413 18C20.2136 18.0319 20.0859 18.0479 19.9583 18.0479C19.7907 18.0399 19.659 18.0359 19.5632 18.0359C19.26 18.0359 18.9687 17.9721 18.6894 17.8444C18.6495 17.8284 18.5777 17.7765 18.474 17.6888C18.3782 17.593 18.2904 17.5451 18.2106 17.5451C18.1388 17.5451 18.075 17.5611 18.0191 17.593C17.9233 17.6568 17.8276 17.7207 17.7318 17.7845C17.66 17.8164 17.5762 17.8563 17.4805 17.9042C17.3927 17.9441 17.2889 17.976 17.1692 18C17.0495 18.0239 16.9378 18.0359 16.8341 18.0359C16.7463 18.0359 16.6306 18.0279 16.4869 18.012C16.3433 18.004 16.2595 18 16.2356 18C16.0919 18 15.9842 18 15.9124 18C15.7927 18 15.681 17.992 15.5772 17.976C15.4735 17.9521 15.3697 17.9082 15.266 17.8444C15.1702 17.7805 15.0904 17.7087 15.0266 17.6289C14.9468 17.5012 14.879 17.4015 14.8231 17.3297C14.7672 17.2499 14.7074 17.1661 14.6435 17.0783C14.5797 16.9825 14.5438 16.8788 14.5358 16.7671C14.5358 16.7032 14.5438 16.6274 14.5598 16.5396C14.5837 16.4439 14.5957 16.38 14.5957 16.3481C14.5957 16.2524 14.5997 16.1247 14.6076 15.9651C14.6156 15.7975 14.6196 15.6658 14.6196 15.5701L14.6795 15.0673C14.7273 14.8678 14.7672 14.7282 14.7992 14.6484C14.8311 14.5686 14.9029 14.4688 15.0146 14.3491C15.0625 14.2932 15.1343 14.2334 15.2301 14.1696C15.3258 14.1057 15.3937 14.0538 15.4336 14.0139C15.5134 13.9262 15.5932 13.8424 15.673 13.7626C15.7608 13.6748 15.8964 13.599 16.08 13.5351C16.2715 13.4713 16.4031 13.4234 16.475 13.3915C16.5867 13.3356 16.7104 13.2678 16.846 13.188C16.9258 13.1401 17.0296 13.0763 17.1573 12.9965C17.2929 12.9087 17.4126 12.8289 17.5164 12.7571C17.6281 12.6853 17.7318 12.5975 17.8276 12.4937C17.9792 12.3341 18.0829 12.2105 18.1388 12.1227C18.2027 12.0269 18.2625 11.8992 18.3184 11.7396C18.3822 11.58 18.4261 11.4204 18.45 11.2608C18.474 11.1012 18.4859 10.9416 18.4859 10.782C18.4859 10.7022 18.4899 10.6264 18.4979 10.5546C18.5059 10.4748 18.5139 10.399 18.5219 10.3272C18.5219 10.2075 18.4899 10.0997 18.4261 10.004C18.3623 9.90821 18.2825 9.8324 18.1867 9.77654C18.0989 9.7127 17.9992 9.68078 17.8874 9.68078C17.7917 9.68078 17.6919 9.70871 17.5882 9.76457C17.4924 9.82043 17.4007 9.8723 17.3129 9.92018C17.1214 10.0319 16.9338 10.1396 16.7503 10.2434C16.6545 10.2833 16.5468 10.3152 16.4271 10.3391C16.3074 10.3631 16.1797 10.387 16.044 10.411C15.9084 10.4269 15.7608 10.4469 15.6012 10.4708C15.5214 10.4708 15.4376 10.4548 15.3498 10.4229C15.262 10.383 15.1822 10.3391 15.1104 10.2913C15.0465 10.2434 15.0026 10.1795 14.9787 10.0997C14.9548 10.0199 14.9588 9.93614 14.9907 9.84836C15.1104 9.68078 15.1982 9.5531 15.254 9.46532C15.3418 9.32966 15.4376 9.21395 15.5413 9.11819C15.5972 9.06233 15.7169 8.97056 15.9004 8.84288C16.0919 8.70722 16.2595 8.59948 16.4031 8.51968C16.5468 8.43988 16.7224 8.37604 16.9298 8.32816C17.1373 8.2723 17.3967 8.24437 17.7079 8.24437C17.9712 8.24437 18.2066 8.2723 18.4141 8.32816C18.6216 8.38402 18.853 8.47579 19.1084 8.60347C19.3079 8.69924 19.4396 8.76707 19.5034 8.80696C19.6231 8.87879 19.7268 8.97854 19.8146 9.10622C19.9104 9.22592 19.9862 9.37355 20.0421 9.54911C20.066 9.62093 20.1059 9.78452 20.1618 10.0399C20.2176 10.2952 20.2455 10.5426 20.2455 10.782C20.2455 10.8618 20.2416 10.9895 20.2336 11.1651C20.2256 11.3406 20.2216 11.4843 20.2216 11.596L20.2455 13.3317C20.2455 13.4753 20.2416 13.6668 20.2336 13.9062C20.2256 14.1456 20.2216 14.3411 20.2216 14.4928C20.2216 14.5965 20.1977 14.7401 20.1498 14.9237C20.1099 15.1072 20.0899 15.2309 20.0899 15.2947C20.0899 15.3586 20.0939 15.4105 20.1019 15.4504C20.1498 15.6898 20.1937 15.8494 20.2336 15.9292C20.2815 16.009 20.3573 16.0888 20.461 16.1686C20.5169 16.2085 20.6046 16.2524 20.7243 16.3002C20.844 16.3401 20.9398 16.3721 21.0116 16.396C21.0834 16.4199 21.1513 16.4439 21.2151 16.4678C21.279 16.4918 21.3348 16.5317 21.3827 16.5875C21.4625 16.6913 21.5024 16.807 21.5024 16.9346C21.5024 17.0224 21.4745 17.1381 21.4186 17.2818ZM18.4261 16.0848C18.45 16.0209 18.462 15.9611 18.462 15.9052C18.462 15.8573 18.454 15.8015 18.4381 15.7376C18.4221 15.6738 18.4022 15.598 18.3782 15.5102C18.3543 15.4224 18.3303 15.3227 18.3064 15.211C18.3064 15.1711 18.3263 15.1192 18.3662 15.0553C18.4061 14.9915 18.4261 14.9356 18.4261 14.8878C18.4261 14.8239 18.4022 14.7521 18.3543 14.6723C18.3064 14.5925 18.2785 14.5326 18.2705 14.4928C18.2625 14.4129 18.2705 14.3212 18.2944 14.2174C18.3184 14.1137 18.3303 14.0459 18.3303 14.0139C18.3383 13.9661 18.3423 13.8982 18.3423 13.8105C18.3423 13.7626 18.3383 13.7227 18.3303 13.6908C18.2984 13.5312 18.2545 13.4274 18.1987 13.3795C18.1508 13.3237 18.0949 13.2957 18.0311 13.2957C17.9433 13.2957 17.8356 13.3596 17.7079 13.4873C17.5164 13.6788 17.4046 13.7865 17.3727 13.8105C17.2291 13.9142 17.1293 13.99 17.0735 14.0379C16.9777 14.1177 16.8979 14.2095 16.8341 14.3132C16.7463 14.4728 16.6825 14.6324 16.6426 14.792C16.6027 14.9516 16.5747 15.0713 16.5588 15.1511C16.5508 15.2229 16.5468 15.3027 16.5468 15.3905C16.5468 15.4384 16.5548 15.5341 16.5707 15.6778C16.5867 15.8134 16.6026 15.9172 16.6186 15.989C16.6425 16.0529 16.6944 16.1327 16.7742 16.2284C16.9179 16.404 17.0974 16.5037 17.3129 16.5277C17.4485 16.5516 17.5682 16.5436 17.672 16.5037C17.7837 16.4558 17.8635 16.4239 17.9114 16.408C18.0869 16.3361 18.1867 16.2962 18.2106 16.2883C18.3144 16.2404 18.3862 16.1726 18.4261 16.0848Z" fill="#212121"/>
<path d="M29.3534 8.98652C29.3693 9.02642 29.3693 9.08627 29.3534 9.16607C29.3374 9.24587 29.3294 9.29774 29.3294 9.32168C29.3294 9.40946 29.3294 9.47729 29.3294 9.52517C29.3294 9.66083 29.3175 9.77255 29.2935 9.86033C29.2456 10.0598 29.1658 10.2274 29.0541 10.3631C28.8945 10.5706 28.707 10.6903 28.4915 10.7222C28.4596 10.7302 28.4117 10.7341 28.3479 10.7341C28.2681 10.7341 28.1843 10.7222 28.0965 10.6982C28.0167 10.6743 27.9489 10.6543 27.893 10.6384C27.7733 10.5985 27.6815 10.5666 27.6177 10.5426C27.5618 10.5187 27.506 10.4828 27.4501 10.4349C27.4022 10.387 27.3584 10.3112 27.3185 10.2075C27.2786 10.0957 27.2387 10.0199 27.1988 9.98003C27.1589 9.93215 27.115 9.88427 27.0671 9.83639C27.0192 9.78851 26.9633 9.76457 26.8995 9.76457C26.8596 9.77255 26.7918 9.8324 26.696 9.94412C26.6322 10.0159 26.5883 10.0638 26.5643 10.0878C26.5165 10.1356 26.4806 10.1875 26.4566 10.2434C26.4087 10.3312 26.3768 10.4389 26.3608 10.5666C26.3449 10.6863 26.3369 10.7581 26.3369 10.782C26.3369 10.8538 26.3449 10.9456 26.3608 11.0573C26.3848 11.1611 26.3968 11.2289 26.3968 11.2608L26.3608 11.7995L26.301 12.6733L26.2771 13.2718V14.5526C26.2771 14.7122 26.2731 14.8598 26.2651 14.9955C26.2571 15.1312 26.2491 15.2628 26.2411 15.3905C26.2411 15.4703 26.2451 15.5541 26.2531 15.6419C26.2611 15.7217 26.2771 15.8095 26.301 15.9052C26.3249 15.993 26.3489 16.0768 26.3728 16.1566C26.4047 16.2364 26.4446 16.3202 26.4925 16.408C26.5484 16.4957 26.6521 16.5875 26.8037 16.6833C26.9554 16.7711 27.0591 16.8509 27.115 16.9227C27.1788 16.9945 27.2426 17.0703 27.3065 17.1501C27.3703 17.2219 27.3943 17.3057 27.3783 17.4015C27.3783 17.5292 27.2985 17.6369 27.1389 17.7247C27.0751 17.7646 27.0032 17.7845 26.9234 17.7845C26.8117 17.7686 26.7239 17.7606 26.6601 17.7606H25.8581H25.3195C25.2397 17.7606 25.1638 17.7606 25.092 17.7606C25.0761 17.7606 24.9524 17.7805 24.7209 17.8204C24.6411 17.8284 24.5534 17.8484 24.4576 17.8803C24.3698 17.9042 24.298 17.9242 24.2421 17.9401C24.1943 17.9481 24.1185 17.9681 24.0147 18C23.911 18.0399 23.8272 18.0598 23.7633 18.0598C23.6436 18.0758 23.5239 18.0918 23.4042 18.1077C23.3404 18.1077 23.2806 18.0918 23.2247 18.0598C23.1209 17.996 23.0531 17.9122 23.0212 17.8085C22.9973 17.6967 22.9853 17.6289 22.9853 17.605C22.9853 17.4853 23.0332 17.3576 23.1289 17.2219C23.1768 17.1581 23.2486 17.1022 23.3444 17.0543C23.4402 17.0065 23.508 16.9706 23.5479 16.9466C23.7075 16.8668 23.8192 16.811 23.883 16.779C24.0027 16.7152 24.0905 16.6394 24.1464 16.5516C24.2102 16.4638 24.2461 16.3481 24.2541 16.2045C24.2701 16.0608 24.282 15.9411 24.29 15.8454C24.306 15.7496 24.314 15.6738 24.314 15.6179C24.314 15.5541 24.314 15.5102 24.314 15.4863C24.314 15.3506 24.314 15.2349 24.314 15.1391C24.314 15.0354 24.3219 14.9197 24.3379 14.792C24.3618 14.6563 24.3898 14.4967 24.4217 14.3132C24.4137 14.2414 24.3818 14.1576 24.3259 14.0618C24.2781 13.9581 24.2501 13.8823 24.2421 13.8344C24.2342 13.8025 24.2302 13.7745 24.2302 13.7506C24.2302 13.7107 24.2302 13.6828 24.2302 13.6668C24.2302 13.595 24.2382 13.5112 24.2541 13.4154C24.2701 13.3117 24.286 13.212 24.302 13.1162C24.302 13.0284 24.31 12.9167 24.3259 12.781C24.3499 12.6374 24.3618 12.5496 24.3618 12.5177C24.3618 12.374 24.3579 12.2464 24.3499 12.1346C24.3419 12.0149 24.3259 11.8952 24.302 11.7755C24.286 11.6479 24.2701 11.5441 24.2541 11.4643C24.2382 11.3845 24.2102 11.2928 24.1703 11.189C24.1384 11.0773 24.1065 10.9696 24.0746 10.8658C24.0267 10.7621 23.9668 10.6823 23.895 10.6264C23.8312 10.5626 23.7394 10.5227 23.6197 10.5067C23.5 10.4828 23.4042 10.4548 23.3324 10.4229C23.2686 10.391 23.2008 10.3591 23.1289 10.3272C23.0571 10.2873 23.0092 10.2394 22.9853 10.1835C22.9613 10.1197 22.9494 10.0638 22.9494 10.0159C22.9494 9.9122 22.9893 9.80048 23.0691 9.68078C23.1249 9.60098 23.2007 9.54512 23.2965 9.5132C23.4002 9.4733 23.504 9.43739 23.6077 9.40547L24.2421 9.20198C24.3938 9.14612 24.4776 9.1142 24.4935 9.10622C24.5813 9.06632 24.6651 9.02642 24.7449 8.98652C24.8805 8.92268 25.0042 8.85086 25.116 8.77106C25.2596 8.65933 25.3753 8.57155 25.4631 8.50771C25.487 8.49175 25.5509 8.4319 25.6546 8.32816C25.7264 8.25634 25.7943 8.21644 25.8581 8.20846C25.9539 8.20048 26.0297 8.20846 26.0855 8.2324C26.1494 8.25634 26.2052 8.3122 26.2531 8.39998C26.301 8.48776 26.3489 8.54362 26.3968 8.56756C26.4845 8.6314 26.5723 8.66332 26.6601 8.66332C26.7319 8.66332 26.7918 8.64736 26.8397 8.61544C26.9274 8.5516 27.0192 8.48776 27.115 8.42392C27.2825 8.34412 27.4302 8.28826 27.5579 8.25634C27.6855 8.22442 27.7933 8.20048 27.881 8.18452C27.9768 8.16058 28.0606 8.14861 28.1324 8.14861C28.2282 8.14861 28.316 8.16457 28.3958 8.19649C28.4197 8.20447 28.4995 8.24836 28.6352 8.32816C28.707 8.36806 28.7748 8.42791 28.8387 8.50771C28.9105 8.57953 28.9823 8.65135 29.0541 8.72318C29.0701 8.73914 29.118 8.77505 29.1978 8.83091C29.2855 8.88677 29.3374 8.93864 29.3534 8.98652Z" fill="#212121"/>
<path d="M41.2119 17.7247C41.1879 17.8603 41.1161 17.9721 40.9964 18.0598C40.9485 18.0997 40.8807 18.1197 40.7929 18.1197C40.7451 18.1197 40.6692 18.1077 40.5655 18.0838C40.4697 18.0678 40.4059 18.0598 40.374 18.0598C40.2463 18.0598 40.1585 18.0558 40.1106 18.0479C39.967 18.0159 39.8234 17.988 39.6797 17.9641L38.6024 17.8803L38.1835 17.8444C38.0957 17.8444 37.984 17.8603 37.8483 17.8923C37.7206 17.9162 37.6129 17.9361 37.5251 17.9521C37.4453 17.9681 37.3456 17.984 37.2259 18C37.1062 17.992 36.9984 17.9441 36.9027 17.8563C36.8069 17.7606 36.751 17.6768 36.7351 17.605C36.7191 17.5331 36.7111 17.4653 36.7111 17.4015C36.7111 17.3536 36.7191 17.2898 36.7351 17.21C36.759 17.1302 36.775 17.0743 36.783 17.0424C36.8468 16.8908 36.9146 16.7391 36.9865 16.5875L37.0224 16.2643C37.0144 16.1606 36.9785 16.0648 36.9146 15.977C36.8588 15.8813 36.8029 15.7895 36.7471 15.7017C36.6992 15.606 36.6393 15.5062 36.5675 15.4025C36.4957 15.2908 36.4358 15.199 36.3879 15.1272C36.3002 14.9835 36.2363 14.8798 36.1964 14.8159C36.1565 14.7441 36.0927 14.6524 36.0049 14.5406C35.9171 14.4209 35.8293 14.3012 35.7416 14.1815C35.6538 14.0618 35.566 13.9661 35.4782 13.8942C35.3904 13.8224 35.3266 13.7706 35.2867 13.7386C35.2149 13.6828 35.1431 13.6548 35.0712 13.6548C34.9994 13.6548 34.9436 13.6628 34.9037 13.6788C34.8558 13.6947 34.772 13.7466 34.6523 13.8344C34.5007 13.9701 34.4009 14.1416 34.353 14.3491C34.3371 14.4289 34.3411 14.5287 34.365 14.6484C34.3969 14.7681 34.4129 14.8479 34.4129 14.8878C34.4129 14.9596 34.4169 15.0274 34.4249 15.0913C34.4328 15.1551 34.4408 15.2189 34.4488 15.2828C34.4488 15.3466 34.4368 15.4144 34.4129 15.4863C34.3171 15.59 34.2573 15.6818 34.2333 15.7616C34.2094 15.8414 34.1974 15.9132 34.1974 15.977C34.1974 16.0409 34.2094 16.1087 34.2333 16.1805C34.2573 16.2444 34.2892 16.3042 34.3291 16.3601C34.369 16.408 34.4129 16.4678 34.4608 16.5396C34.5086 16.6035 34.5605 16.6713 34.6164 16.7431C34.6722 16.807 34.7241 16.8668 34.772 16.9227C34.8837 17.0264 34.9954 17.1262 35.1072 17.2219C35.163 17.2937 35.2189 17.3656 35.2747 17.4374C35.3386 17.5012 35.3705 17.577 35.3705 17.6648C35.3705 17.8324 35.3226 17.9561 35.2269 18.0359C35.1949 18.0598 35.0952 18.0798 34.9276 18.0957H34.4727L33.9341 18.0598L33.551 18C33.4473 18 33.3236 18.004 33.18 18.012C33.0363 18.0279 32.9605 18.0359 32.9525 18.0359C32.777 18.0279 32.6453 18.0239 32.5575 18.0239C32.4618 18.0239 32.382 18.0279 32.3181 18.0359C32.2782 18.0359 32.1865 18.0558 32.0428 18.0957C31.987 18.1117 31.9311 18.1197 31.8752 18.1197C31.8114 18.1197 31.7675 18.1197 31.7436 18.1197C31.6239 18.1197 31.5121 18.1037 31.4084 18.0718C31.3047 18.0399 31.2368 18.0159 31.2049 18C31.157 17.976 31.0892 17.9322 31.0014 17.8683C30.9216 17.8045 30.8737 17.7366 30.8578 17.6648C30.8418 17.593 30.8658 17.5292 30.9296 17.4733C30.9934 17.4095 31.0613 17.3376 31.1331 17.2578C31.2049 17.178 31.2608 17.1142 31.3007 17.0663C31.3725 16.9865 31.4443 16.9267 31.5161 16.8868C31.6438 16.8389 31.7715 16.791 31.8992 16.7431C31.9949 16.6793 32.0707 16.5915 32.1266 16.4798C32.1825 16.3681 32.2104 16.2524 32.2104 16.1327C32.1944 15.997 32.1865 15.8893 32.1865 15.8095C32.1944 15.7616 32.1984 15.7217 32.1984 15.6898L32.2942 15.1511L32.3181 14.7322C32.3181 14.6524 32.3062 14.5566 32.2822 14.4449C32.2663 14.3331 32.2583 14.2613 32.2583 14.2294C32.2583 14.1257 32.2623 14.0459 32.2702 13.99C32.2862 13.9262 32.3022 13.8543 32.3181 13.7745L32.4378 13.1162C32.4697 12.9327 32.5017 12.7451 32.5336 12.5536C32.5336 12.402 32.5256 12.2304 32.5096 12.0389C32.5017 11.8394 32.4977 11.7317 32.4977 11.7157C32.4977 11.6359 32.5017 11.5441 32.5096 11.4404C32.5256 11.3287 32.5336 11.2688 32.5336 11.2608C32.5256 11.189 32.4977 11.1012 32.4498 10.9975C32.4099 10.8937 32.382 10.806 32.366 10.7341C32.358 10.6543 32.354 10.5346 32.354 10.375C32.354 10.2154 32.354 10.0838 32.354 9.98003C32.354 9.78851 32.362 9.56108 32.378 9.29774C32.4019 9.0344 32.4139 8.87081 32.4139 8.80696L32.4378 7.94512C32.4378 7.86532 32.4418 7.77355 32.4498 7.66981C32.4658 7.55809 32.4737 7.49824 32.4737 7.49026C32.4658 7.4344 32.4458 7.36657 32.4139 7.28677C32.382 7.19899 32.362 7.14711 32.354 7.13116C32.3381 7.06731 32.3181 6.99151 32.2942 6.90372C32.2702 6.80796 32.2583 6.70422 32.2583 6.5925C32.2663 6.54462 32.2782 6.49275 32.2942 6.43689C32.3101 6.38103 32.3341 6.30123 32.366 6.19749C32.4059 6.08577 32.4498 5.95809 32.4977 5.81445C32.4977 5.75859 32.4777 5.69475 32.4378 5.62293C32.4059 5.54313 32.386 5.48726 32.378 5.45534C32.37 5.3915 32.37 5.32367 32.378 5.25185C32.386 5.18003 32.3939 5.10821 32.4019 5.03639C32.4019 4.97255 32.3899 4.9127 32.366 4.85684C32.35 4.80098 32.3062 4.73714 32.2343 4.66532C32.1705 4.5935 32.1146 4.53764 32.0668 4.49774C32.0269 4.44986 31.959 4.39799 31.8633 4.34213C31.7675 4.27829 31.6997 4.23041 31.6598 4.19849C31.58 4.12667 31.5321 4.08278 31.5161 4.06682C31.4762 4.01894 31.4403 3.97106 31.4084 3.92317C31.3765 3.87529 31.3525 3.8314 31.3366 3.7915C31.2887 3.7117 31.2687 3.63988 31.2767 3.57604C31.2767 3.5122 31.2927 3.46033 31.3246 3.42043C31.3406 3.40447 31.4244 3.34462 31.576 3.24088C31.6478 3.193 31.7276 3.16108 31.8154 3.14512C31.9032 3.12916 31.9909 3.1132 32.0787 3.09724L32.6772 2.91769C32.8209 2.86183 32.9605 2.80198 33.0962 2.73814C33.152 2.7142 33.2797 2.64637 33.4792 2.53465C33.6787 2.42293 33.7904 2.35909 33.8144 2.34312C33.9421 2.26333 34.0418 2.18751 34.1136 2.11569C34.1855 2.03589 34.2533 1.92417 34.3171 1.78053C34.3889 1.63689 34.4408 1.54512 34.4727 1.50522C34.5366 1.38552 34.5884 1.29375 34.6283 1.22991C34.6762 1.15809 34.7441 1.12218 34.8318 1.12218C34.9276 1.10622 35.0074 1.12218 35.0712 1.17006C35.1431 1.20996 35.1989 1.26582 35.2388 1.33764C35.2787 1.40946 35.2987 1.48128 35.2987 1.5531C35.2987 1.60098 35.2907 1.65684 35.2747 1.72068C35.2588 1.77654 35.2388 1.85634 35.2149 1.96008C35.1989 2.06382 35.175 2.15958 35.1431 2.24736C35.0872 2.38303 35.0433 2.48677 35.0114 2.55859C34.9076 2.74213 34.8079 2.92168 34.7121 3.09724C34.7042 3.12118 34.6922 3.16906 34.6762 3.24088C34.6603 3.30472 34.6523 3.35659 34.6523 3.39649C34.6523 3.44437 34.6563 3.50023 34.6643 3.56407C34.6802 3.61993 34.6962 3.68377 34.7121 3.75559C34.7121 3.80347 34.7161 3.86333 34.7241 3.93515C34.7321 3.99899 34.7361 4.06682 34.7361 4.13864C34.7361 4.18652 34.7281 4.25834 34.7121 4.3541C34.7042 4.44188 34.6882 4.52168 34.6643 4.5935C34.6403 4.65734 34.6164 4.72916 34.5924 4.80896C34.5765 4.88876 34.5605 4.96457 34.5446 5.03639C34.5366 5.10023 34.5326 5.192 34.5326 5.3117C34.5326 5.36756 34.5485 5.45135 34.5805 5.56308C34.6124 5.66682 34.6283 5.74263 34.6283 5.79051C34.6283 5.88627 34.6244 5.96208 34.6164 6.01794C34.5845 6.2334 34.5685 6.35709 34.5685 6.38901V6.7122C34.5685 6.76806 34.5565 6.83988 34.5326 6.92766C34.5166 7.01544 34.5086 7.07529 34.5086 7.10721C34.5086 7.13913 34.5286 7.22293 34.5685 7.35859C34.5845 7.41445 34.5924 7.47031 34.5924 7.52617C34.6084 7.60597 34.6164 7.70971 34.6164 7.83739C34.6164 7.96507 34.6204 8.06881 34.6283 8.14861C34.6283 8.27629 34.6244 8.36407 34.6164 8.41195C34.5845 8.55559 34.5565 8.69924 34.5326 8.84288L34.5086 9.34562V9.76457C34.5086 9.85235 34.5086 9.93215 34.5086 10.004C34.5086 10.0678 34.5126 10.1476 34.5206 10.2434C34.5366 10.3312 34.5605 10.4269 34.5924 10.5307C34.6323 10.6264 34.6523 10.7022 34.6523 10.7581C34.6603 10.8219 34.6603 10.8858 34.6523 10.9496C34.6443 11.0055 34.6363 11.0613 34.6283 11.1172C34.5964 11.3007 34.5645 11.4843 34.5326 11.6678C34.5326 11.7955 34.5645 11.8913 34.6283 11.9551C34.6922 12.011 34.78 12.0389 34.8917 12.0389C34.9715 12.0389 35.0433 12.0149 35.1072 11.9671C35.179 11.9112 35.2468 11.8553 35.3106 11.7995C35.4463 11.7117 35.562 11.6239 35.6578 11.5361C35.6977 11.4962 35.8014 11.3845 35.969 11.201C36.0568 11.1052 36.1645 10.9735 36.2922 10.806C36.4199 10.6384 36.5236 10.5027 36.6034 10.399L36.9625 9.92018C36.9705 9.90422 37.0264 9.84038 37.1301 9.72866C37.2019 9.64886 37.2458 9.57305 37.2618 9.50123C37.2697 9.47729 37.2737 9.45335 37.2737 9.42941C37.2737 9.39749 37.2737 9.37754 37.2737 9.36956C37.2737 9.26582 37.2538 9.17006 37.2139 9.08228C37.182 8.9945 37.1261 8.9147 37.0463 8.84288C36.9745 8.77106 36.9266 8.7112 36.9027 8.66332C36.8707 8.61544 36.8428 8.56357 36.8189 8.50771C36.7949 8.45185 36.7909 8.392 36.8069 8.32816C36.8308 8.24836 36.8867 8.1925 36.9745 8.16058C37.0702 8.12866 37.1461 8.10472 37.2019 8.08876C37.2658 8.0728 37.3136 8.06482 37.3456 8.06482C37.4174 8.06482 37.5131 8.08477 37.6328 8.12467C37.7605 8.15659 37.8722 8.18053 37.968 8.19649C38.0638 8.20447 38.2074 8.20846 38.3989 8.20846C38.5904 8.20846 38.778 8.20846 38.9615 8.20846L39.56 8.26831C39.7196 8.28427 39.8473 8.29624 39.9431 8.30422C40.0388 8.3122 40.1306 8.33215 40.2184 8.36407C40.3062 8.39599 40.3939 8.42791 40.4817 8.45983C40.5695 8.49175 40.6214 8.54761 40.6373 8.62741C40.6533 8.70722 40.6373 8.78303 40.5894 8.85485C40.5416 8.91869 40.5096 8.96258 40.4937 8.98652C40.4378 9.06632 40.3381 9.13415 40.1944 9.19001C40.0508 9.24587 39.947 9.29375 39.8832 9.33365C39.8274 9.37355 39.7476 9.44537 39.6438 9.54911C39.5401 9.64487 39.4643 9.70871 39.4164 9.74063L38.9615 9.94412C38.9057 9.97604 38.8179 10.0439 38.6982 10.1476C38.5865 10.2434 38.4947 10.3152 38.4229 10.3631L37.7406 10.8179C37.6368 10.8818 37.5331 10.9496 37.4293 11.0214C37.3336 11.0853 37.2498 11.1531 37.178 11.2249C37.1062 11.2967 37.0583 11.3446 37.0343 11.3686C36.9466 11.4563 36.8907 11.5361 36.8668 11.608C36.8508 11.6798 36.8428 11.7317 36.8428 11.7636C36.8428 11.8274 36.8548 11.8992 36.8787 11.979C36.9027 12.0509 36.9306 12.1227 36.9625 12.1945C37.0104 12.3621 37.0862 12.5297 37.1899 12.6972C37.2937 12.8568 37.3974 13.0164 37.5012 13.176C37.6129 13.4075 37.6887 13.5711 37.7286 13.6668C37.7765 13.7546 37.8682 13.9102 38.0039 14.1336C38.0438 14.2055 38.1077 14.3092 38.1954 14.4449C38.2832 14.5726 38.359 14.6803 38.4229 14.7681C38.5346 14.9197 38.6303 15.0434 38.7101 15.1391C38.7979 15.2269 38.8937 15.3227 38.9974 15.4264C39.1171 15.578 39.2049 15.6858 39.2608 15.7496C39.4044 15.9252 39.564 16.0967 39.7396 16.2643C39.8832 16.392 40.0149 16.5037 40.1346 16.5995C40.3979 16.799 40.5376 16.9067 40.5535 16.9227C40.6972 17.0105 40.7969 17.0703 40.8528 17.1022C40.9565 17.1661 41.0403 17.2578 41.1042 17.3775C41.176 17.4972 41.2119 17.6129 41.2119 17.7247Z" fill="#212121"/>
<path d="M46.9191 3.39649C46.9191 3.50023 46.8792 3.61993 46.7994 3.75559C46.7755 3.79549 46.7396 3.83938 46.6917 3.88726C46.6438 3.93514 46.6119 3.97106 46.596 3.995L46.4763 4.19849C46.4443 4.23041 46.4004 4.26233 46.3446 4.29425C46.2887 4.32617 46.2329 4.3541 46.177 4.37804C46.0812 4.44188 45.9895 4.50173 45.9017 4.55759C45.8538 4.57355 45.7541 4.57355 45.6024 4.55759C45.4668 4.55759 45.3311 4.53764 45.1955 4.49774C45.0678 4.45784 44.988 4.4339 44.9561 4.42592C44.8683 4.394 44.8004 4.34612 44.7526 4.28228C44.7047 4.21844 44.6728 4.15859 44.6568 4.10273C44.6488 4.04687 44.6329 3.94712 44.6089 3.80347C44.585 3.65983 44.573 3.57604 44.573 3.5521C44.565 3.49624 44.561 3.41644 44.561 3.3127C44.561 3.17704 44.577 3.05734 44.6089 2.9536C44.6488 2.84986 44.6807 2.77006 44.7047 2.7142C44.7286 2.65834 44.7645 2.61046 44.8124 2.57056C44.8683 2.52268 44.9281 2.48677 44.992 2.46283C45.0558 2.43889 45.1196 2.41894 45.1835 2.40298C45.2553 2.38702 45.3271 2.37904 45.3989 2.37904C45.4708 2.37904 45.5306 2.37904 45.5785 2.37904C45.6982 2.37904 45.786 2.38303 45.8418 2.39101C45.8817 2.39899 45.9655 2.42293 46.0932 2.46283C46.2289 2.50273 46.3087 2.53066 46.3326 2.54662C46.3486 2.5546 46.3925 2.58652 46.4643 2.64238C46.5361 2.69026 46.588 2.73814 46.6199 2.78602C46.6438 2.81794 46.6797 2.8738 46.7276 2.9536C46.7755 3.0334 46.8194 3.10921 46.8593 3.18103C46.8992 3.24487 46.9191 3.31669 46.9191 3.39649ZM47.6374 17.7606C47.6134 17.7925 47.5735 17.8244 47.5177 17.8563C47.4698 17.8883 47.4099 17.9162 47.3381 17.9401C47.2663 17.9561 47.1984 17.9641 47.1346 17.9641C47.0708 17.9641 47.0109 17.9641 46.9551 17.9641C46.9231 17.9721 46.8753 17.984 46.8114 18C46.7556 18.0239 46.7117 18.0359 46.6797 18.0359C46.6159 18.0359 46.5361 18.0159 46.4403 17.976C46.3526 17.9361 46.2768 17.9122 46.2129 17.9042C46.1571 17.8883 46.0573 17.8803 45.9137 17.8803C45.8259 17.8803 45.7541 17.8803 45.6982 17.8803C45.5945 17.8803 45.4748 17.9002 45.3391 17.9401C45.2034 17.9721 45.0837 18.004 44.98 18.0359C44.9082 18.0359 44.8204 18.0279 44.7167 18.012C44.6209 18.004 44.569 18 44.561 18C44.5211 18 44.4653 18.0159 44.3935 18.0479C44.3216 18.0798 44.2658 18.0957 44.2259 18.0957L43.9027 18.0598C43.8628 18.0598 43.787 18.0678 43.6753 18.0838C43.5635 18.1077 43.4797 18.1117 43.4239 18.0957C43.376 18.0798 43.3361 18.0638 43.3042 18.0479C43.2723 18.0319 43.2124 17.984 43.1246 17.9042C43.0688 17.8723 43.0129 17.8364 42.9571 17.7965C42.9012 17.7486 42.8653 17.6967 42.8493 17.6409C42.8413 17.5611 42.8493 17.4932 42.8733 17.4374C42.8972 17.3975 42.9371 17.3416 42.993 17.2698C43.0488 17.19 43.1206 17.1341 43.2084 17.1022C43.2962 17.0703 43.388 17.0384 43.4837 17.0065C43.6912 16.9267 43.8987 16.8469 44.1062 16.7671C44.2418 16.6713 44.3416 16.5436 44.4054 16.384C44.4453 16.2962 44.4693 16.1885 44.4773 16.0608C44.4852 15.9332 44.4932 15.8095 44.5012 15.6898C44.5012 15.5302 44.5052 15.3626 44.5132 15.187C44.5211 15.0035 44.5251 14.8918 44.5251 14.8519C44.5251 14.7721 44.5331 14.6643 44.5491 14.5287C44.565 14.393 44.573 14.2933 44.573 14.2294C44.573 14.1257 44.5571 14.0219 44.5251 13.9182C44.4932 13.8144 44.4653 13.7187 44.4413 13.6309C44.4254 13.5351 44.4174 13.4713 44.4174 13.4394C44.4174 13.3995 44.4174 13.3596 44.4174 13.3197C44.4254 13.2479 44.4334 13.1721 44.4413 13.0923C44.4413 12.9327 44.4613 12.793 44.5012 12.6733C44.5411 12.5935 44.581 12.5137 44.6209 12.4339C44.6209 12.402 44.6129 12.3621 44.597 12.3142C44.573 12.2583 44.561 12.2184 44.561 12.1945L44.5251 11.7755C44.5331 11.6798 44.5371 11.612 44.5371 11.5721C44.5371 11.4683 44.5092 11.3765 44.4533 11.2967C44.4054 11.2169 44.3336 11.1651 44.2379 11.1411C44.1501 11.1092 44.0942 11.0933 44.0703 11.0933C43.9585 11.0933 43.8907 11.0893 43.8668 11.0813C43.8109 11.0653 43.7591 11.0374 43.7112 10.9975C43.6633 10.9576 43.6274 10.9257 43.6034 10.9017C43.5476 10.8618 43.5077 10.8339 43.4837 10.8179C43.4199 10.7701 43.38 10.7102 43.364 10.6384C43.3481 10.5586 43.376 10.4588 43.4478 10.3391C43.4877 10.2833 43.5396 10.2354 43.6034 10.1955C43.6992 10.1556 43.767 10.1237 43.8069 10.0997C43.8628 10.0678 43.9625 10.0199 44.1062 9.95609C44.1381 9.94013 44.198 9.90821 44.2857 9.86033C44.4214 9.78851 44.5052 9.74063 44.5371 9.71669C44.6408 9.65285 44.7167 9.60098 44.7645 9.56108C44.8124 9.52118 44.8723 9.45335 44.9441 9.35759C45.0239 9.25385 45.0957 9.18203 45.1595 9.14213C45.3191 9.08627 45.4788 9.02642 45.6384 8.96258C45.6623 8.93864 45.6942 8.90273 45.7341 8.85485C45.8139 8.74313 45.8618 8.67928 45.8778 8.66332C45.9256 8.59948 45.9735 8.54362 46.0214 8.49574C46.0693 8.44786 46.1172 8.40796 46.165 8.37604C46.2129 8.34412 46.2648 8.30821 46.3206 8.26831C46.3845 8.22841 46.4563 8.20846 46.5361 8.20846C46.5999 8.20846 46.6478 8.21245 46.6797 8.22043C46.7276 8.23639 46.7715 8.2723 46.8114 8.32816C46.8593 8.37604 46.8753 8.46781 46.8593 8.60347C46.8354 8.66732 46.8154 8.73115 46.7994 8.795C46.7835 8.85884 46.7675 8.97056 46.7516 9.13016C46.7356 9.28178 46.7236 9.38552 46.7157 9.44138C46.6598 9.70472 46.6079 9.96407 46.56 10.2194C46.5521 10.403 46.5441 10.5346 46.5361 10.6144C46.5361 10.6942 46.5361 10.7701 46.5361 10.8419C46.5361 11.0095 46.5361 11.1411 46.5361 11.2369C46.5361 11.4045 46.5241 11.608 46.5002 11.8474C46.4842 12.0868 46.4763 12.2424 46.4763 12.3142C46.4763 12.3701 46.4962 12.5097 46.5361 12.7332C46.5521 12.8209 46.56 12.9087 46.56 12.9965C46.56 13.0843 46.5561 13.204 46.5481 13.3556C46.5401 13.5072 46.5361 13.6269 46.5361 13.7147V14.6125C46.5361 14.7641 46.5401 14.9037 46.5481 15.0314C46.5561 15.1511 46.568 15.2908 46.584 15.4504C46.6079 15.61 46.6279 15.7735 46.6438 15.9411C46.6678 16.1087 46.7157 16.2524 46.7875 16.3721C46.8673 16.4838 46.9551 16.5835 47.0508 16.6713C47.1466 16.7431 47.2184 16.799 47.2663 16.8389C47.3221 16.8788 47.386 16.9267 47.4578 16.9825C47.5296 17.0304 47.5815 17.0903 47.6134 17.1621C47.6852 17.3057 47.7211 17.4254 47.7211 17.5212C47.7211 17.6169 47.6932 17.6967 47.6374 17.7606Z" fill="#212121"/>
<path d="M58.2577 17.581C58.2258 17.6449 58.1739 17.6928 58.1021 17.7247C58.0383 17.7566 57.9505 17.7885 57.8388 17.8204C57.7909 17.8284 57.731 17.8324 57.6592 17.8324C57.6113 17.8324 57.5634 17.8324 57.5156 17.8324C57.4597 17.8324 57.4078 17.8284 57.36 17.8204C57.2642 17.8204 57.1884 17.8164 57.1325 17.8085C56.9171 17.7765 56.7934 17.7606 56.7614 17.7606C56.6737 17.7606 56.5979 17.7686 56.534 17.7845C56.4782 17.7925 56.4143 17.8045 56.3425 17.8204L55.8996 17.8803L55.6243 17.9042L54.942 17.9401C54.8143 17.9481 54.7225 17.9521 54.6667 17.9521C54.5789 17.9521 54.4792 17.9361 54.3674 17.9042C54.2637 17.8643 54.1839 17.8045 54.128 17.7247C54.1121 17.7087 54.0961 17.6648 54.0802 17.593C54.0722 17.5212 54.0482 17.4853 54.0083 17.4853C53.9764 17.4853 53.9445 17.5092 53.9126 17.5571C53.8966 17.589 53.8806 17.6169 53.8647 17.6409C53.8008 17.6967 53.737 17.7526 53.6732 17.8085C53.6173 17.8643 53.5495 17.9082 53.4697 17.9401C53.3899 17.9721 53.3021 17.992 53.2063 18C53.1186 18 53.0467 18 52.9909 18H52.3325L51.5305 17.9641C51.4427 17.9641 51.355 17.9681 51.2672 17.976C51.1874 17.976 51.1076 17.976 51.0278 17.976C50.8762 17.976 50.7046 17.9641 50.5131 17.9401C50.3614 17.9082 50.2098 17.8763 50.0582 17.8444C50.0023 17.8444 49.9305 17.8563 49.8427 17.8803C49.7629 17.8962 49.7151 17.9042 49.6991 17.9042C49.6831 17.9042 49.6432 17.8962 49.5794 17.8803C49.3639 17.7925 49.2562 17.6329 49.2562 17.4015C49.2562 17.3057 49.2841 17.2219 49.34 17.1501C49.3719 17.1102 49.4437 17.0424 49.5555 16.9466C49.6113 16.8987 49.6911 16.8628 49.7949 16.8389C49.9066 16.807 49.9864 16.775 50.0343 16.7431C50.0742 16.7112 50.1181 16.6793 50.1659 16.6474C50.2138 16.6075 50.2497 16.5676 50.2737 16.5277C50.2976 16.4957 50.3136 16.4519 50.3215 16.396C50.3375 16.3322 50.3495 16.2763 50.3575 16.2284L50.4173 15.9292C50.4333 15.8494 50.4412 15.7456 50.4412 15.6179C50.4412 15.5062 50.4412 15.4105 50.4412 15.3307C50.4412 15.2429 50.4452 15.1631 50.4532 15.0913C50.4532 15.0514 50.4732 14.9676 50.5131 14.8399C50.529 14.792 50.537 14.7401 50.537 14.6843C50.537 14.6364 50.5171 14.5805 50.4772 14.5167C50.4452 14.4529 50.4253 14.405 50.4173 14.3731C50.4093 14.3252 50.4053 14.2613 50.4053 14.1815C50.4133 14.0459 50.4173 13.9421 50.4173 13.8703C50.4173 13.7985 50.4253 13.7107 50.4412 13.607C50.4652 13.5032 50.4772 13.4394 50.4772 13.4154V12.9726L50.537 12.5536C50.5689 12.402 50.6008 12.2504 50.6328 12.0987C50.6328 11.9711 50.6328 11.8793 50.6328 11.8234C50.6328 11.7037 50.6208 11.612 50.5969 11.5481C50.5809 11.4763 50.553 11.4125 50.5131 11.3566C50.4811 11.3007 50.4452 11.2329 50.4053 11.1531C50.3654 11.0733 50.3216 10.9815 50.2737 10.8778C50.2657 10.8219 50.2777 10.7501 50.3096 10.6623C50.3415 10.5666 50.3575 10.4987 50.3575 10.4588C50.3734 10.3312 50.3734 10.2514 50.3575 10.2194C50.3335 10.1636 50.2896 10.1277 50.2258 10.1117C50.1699 10.0957 50.0981 10.0758 50.0103 10.0519C49.9305 10.0279 49.8547 10.004 49.7829 9.98003C49.7111 9.95609 49.6552 9.91619 49.6153 9.86033C49.5515 9.77255 49.5196 9.6728 49.5196 9.56108C49.5196 9.48926 49.5395 9.42542 49.5794 9.36956C49.5874 9.36158 49.6432 9.3137 49.747 9.22592C49.8507 9.13016 49.9944 9.06233 50.1779 9.02243C50.2098 9.01445 50.2497 9.01046 50.2976 9.01046C50.4093 9.01844 50.521 9.02243 50.6328 9.02243C50.7206 9.00647 50.8083 8.97056 50.8961 8.9147C50.9919 8.85086 51.0836 8.78702 51.1714 8.72318L51.6502 8.38801C51.7699 8.30821 51.8896 8.22841 52.0093 8.14861C52.1929 8.06083 52.3724 8.00098 52.548 7.96906C52.6677 7.96108 52.7874 7.94911 52.9071 7.93315C53.0188 7.93315 53.1026 7.9531 53.1585 7.993C53.2143 8.0329 53.2662 8.06482 53.3141 8.08876C53.4018 8.1526 53.4457 8.2324 53.4457 8.32816C53.4457 8.38402 53.4138 8.44786 53.35 8.51968C53.2861 8.5915 53.2462 8.64737 53.2303 8.68727C53.1904 8.77505 53.1624 8.8349 53.1465 8.86682C53.1225 8.93066 53.1225 8.99051 53.1465 9.04637C53.1864 9.11819 53.2742 9.17006 53.4098 9.20198C53.5215 9.22592 53.6452 9.18602 53.7809 9.08228C53.8767 9.01046 53.9525 8.95859 54.0083 8.92667C54.144 8.83889 54.2836 8.7511 54.4273 8.66332C54.539 8.62342 54.6108 8.59948 54.6427 8.59151C54.7066 8.57554 54.7864 8.56756 54.8821 8.56756C55.0657 8.56756 55.2333 8.58751 55.3849 8.62741C55.5365 8.65933 55.7201 8.71918 55.9355 8.80696C56.151 8.89475 56.3465 9.00647 56.522 9.14213C56.6178 9.21395 56.7136 9.28976 56.8093 9.36956C56.9131 9.44138 56.9889 9.53315 57.0368 9.64487C57.0607 9.70073 57.0767 9.77255 57.0846 9.86033C57.1006 9.94811 57.1166 10.0319 57.1325 10.1117C57.1565 10.1835 57.1764 10.2354 57.1924 10.2673C57.2402 10.3631 57.2762 10.4349 57.3001 10.4828C57.3799 10.6184 57.4597 10.7501 57.5395 10.8778C57.5555 10.9576 57.5634 11.0174 57.5634 11.0573C57.5634 11.0813 57.5555 11.1491 57.5395 11.2608C57.5395 11.3167 57.5275 11.3726 57.5036 11.4284C57.4797 11.4843 57.4517 11.5481 57.4198 11.6199C57.4118 11.7077 57.4158 11.8075 57.4318 11.9192C57.4477 12.0309 57.4557 12.0908 57.4557 12.0987C57.4557 12.1466 57.4398 12.2224 57.4078 12.3262C57.3759 12.4219 57.36 12.4778 57.36 12.4937C57.352 12.5496 57.348 12.5975 57.348 12.6374C57.348 12.7012 57.348 12.7491 57.348 12.781C57.348 12.9007 57.352 12.9965 57.36 13.0683C57.3679 13.1322 57.3799 13.188 57.3959 13.2359C57.4517 13.4194 57.4836 13.5471 57.4916 13.6189C57.4996 13.6828 57.5156 13.7745 57.5395 13.8942C57.5395 13.974 57.5395 14.0538 57.5395 14.1336V14.5287C57.5395 14.5845 57.5275 14.6563 57.5036 14.7441C57.4876 14.8319 57.4797 14.8878 57.4797 14.9117C57.4876 14.9596 57.5036 15.0115 57.5275 15.0673C57.5515 15.1232 57.5674 15.1631 57.5754 15.187C57.5914 15.2588 57.6033 15.3267 57.6113 15.3905C57.6273 15.4464 57.6353 15.5262 57.6353 15.6299L57.5994 15.9292C57.5914 16.0249 57.5834 16.1167 57.5754 16.2045C57.5754 16.2843 57.5954 16.3601 57.6353 16.4319C57.6831 16.5037 57.743 16.5755 57.8148 16.6474C57.8388 16.6713 57.8906 16.7032 57.9704 16.7431C58.0502 16.775 58.1061 16.8149 58.138 16.8628C58.2018 16.9506 58.2378 17.0504 58.2457 17.1621C58.2617 17.2658 58.2777 17.3576 58.2936 17.4374C58.2936 17.4853 58.2817 17.5331 58.2577 17.581ZM55.4208 14.7681L55.361 14.4688C55.345 14.381 55.325 14.2773 55.3011 14.1576C55.2772 14.0299 55.2652 13.9022 55.2652 13.7745L55.3011 13.1162L55.361 12.5775C55.361 12.4499 55.3649 12.3302 55.3729 12.2184C55.3809 12.1067 55.3889 11.991 55.3969 11.8713C55.3969 11.8075 55.3969 11.7596 55.3969 11.7277C55.3889 11.6798 55.3849 11.6439 55.3849 11.6199C55.3849 11.4444 55.3769 11.3207 55.361 11.2489C55.353 11.1691 55.3211 11.0653 55.2652 10.9376C55.2093 10.802 55.1176 10.6703 54.9899 10.5426C54.8702 10.4149 54.7345 10.3072 54.5829 10.2194C54.535 10.1955 54.4792 10.1676 54.4153 10.1356C54.3595 10.0957 54.3036 10.0718 54.2477 10.0638H54.0083C53.9604 10.0718 53.9046 10.1037 53.8408 10.1596C53.7769 10.2075 53.7051 10.2434 53.6253 10.2673C53.5535 10.2833 53.4697 10.3072 53.3739 10.3391C53.2861 10.3631 53.2263 10.391 53.1944 10.4229C53.1465 10.4628 53.0866 10.5346 53.0148 10.6384C52.951 10.7341 52.9031 10.8259 52.8712 10.9137C52.8393 10.9935 52.7954 11.1292 52.7395 11.3207C52.6916 11.5122 52.6677 11.7117 52.6677 11.9192C52.6677 12.0788 52.6757 12.2663 52.6916 12.4818C52.7156 12.6972 52.7275 12.8289 52.7275 12.8768L52.6916 13.176C52.6517 13.3037 52.6238 13.4035 52.6078 13.4753C52.5679 13.6588 52.548 13.8504 52.548 14.0499C52.548 14.1297 52.552 14.2334 52.56 14.3611C52.5679 14.4888 52.5719 14.5925 52.5719 14.6723C52.5719 14.7601 52.5679 14.8758 52.56 15.0194C52.552 15.1631 52.548 15.2788 52.548 15.3666C52.548 15.5661 52.552 15.7097 52.56 15.7975C52.5759 15.8773 52.6118 15.997 52.6677 16.1566C52.7235 16.3082 52.7674 16.4199 52.7994 16.4918C52.8393 16.5556 52.9031 16.6274 52.9909 16.7072C53.0388 16.7551 53.1146 16.807 53.2183 16.8628C53.33 16.9107 53.4138 16.9506 53.4697 16.9825C53.4777 16.9905 53.5495 17.0464 53.6851 17.1501C53.7649 17.2139 53.8447 17.2459 53.9245 17.2459C53.9964 17.2538 54.0762 17.2499 54.1639 17.2339C54.2597 17.21 54.3395 17.1661 54.4033 17.1022C54.523 16.9905 54.5909 16.9307 54.6068 16.9227C54.7026 16.8668 54.7744 16.8229 54.8223 16.791C54.8782 16.7591 54.942 16.7072 55.0138 16.6354C55.0856 16.5636 55.1335 16.5117 55.1575 16.4798C55.1974 16.4239 55.2293 16.3601 55.2532 16.2883C55.2851 16.2164 55.3011 16.1247 55.3011 16.013C55.3011 15.9332 55.3011 15.8693 55.3011 15.8214C55.3011 15.7656 55.3011 15.7217 55.3011 15.6898L55.361 15.2469C55.361 15.175 55.3689 15.0873 55.3849 14.9835C55.4088 14.8718 55.4208 14.8 55.4208 14.7681Z" fill="#212121"/>
<path d="M68.5193 18.8977C68.5193 19.0174 68.5153 19.173 68.5073 19.3646C68.4994 19.5561 68.4954 19.7117 68.4954 19.8314C68.4954 19.9351 68.4954 20.011 68.4954 20.0588C68.4954 20.1147 68.4954 20.1745 68.4954 20.2384C68.4794 20.3182 68.4634 20.398 68.4475 20.4778C68.4315 20.5656 68.4076 20.6414 68.3757 20.7052C68.3597 20.7371 68.3078 20.8249 68.2201 20.9686C68.1881 21.0244 68.1363 21.0883 68.0644 21.1601C67.9926 21.2319 67.9368 21.2957 67.8969 21.3516C67.7612 21.5272 67.6255 21.7027 67.4899 21.8783C67.3622 22.0618 67.2425 22.2055 67.1308 22.3092C67.051 22.389 66.9113 22.5047 66.7118 22.6563C66.5203 22.808 66.3607 22.9237 66.233 23.0035C66.1133 23.0913 65.9497 23.191 65.7422 23.3027C65.6066 23.3745 65.4749 23.4424 65.3472 23.5062C65.2196 23.578 65.0919 23.6259 64.9642 23.6499C64.8445 23.6818 64.7527 23.7017 64.6889 23.7097C64.625 23.7257 64.5652 23.7336 64.5093 23.7336C64.4455 23.7336 64.3976 23.7297 64.3657 23.7217C64.3258 23.7057 64.2739 23.6778 64.2101 23.6379C64.1462 23.598 64.0984 23.574 64.0664 23.5661C64.0186 23.5581 63.9308 23.5621 63.8031 23.578C63.6754 23.594 63.6036 23.602 63.5876 23.602C63.4999 23.602 63.3762 23.586 63.2166 23.5541C63.057 23.5222 62.9253 23.5062 62.8216 23.5062C62.7657 23.5062 62.7218 23.5062 62.6899 23.5062C62.5462 23.5062 62.4305 23.4903 62.3428 23.4583C62.255 23.4344 62.1672 23.3985 62.0794 23.3506C61.9996 23.3027 61.9118 23.2628 61.8161 23.2309C61.7283 23.199 61.6206 23.1631 61.4929 23.1232C61.429 23.0833 61.3612 22.9835 61.2894 22.8239C61.2575 22.7521 61.2136 22.6883 61.1577 22.6324C61.1019 22.5845 61.0141 22.5327 60.8944 22.4768C60.7827 22.4209 60.6989 22.373 60.643 22.3331C60.5871 22.2932 60.4954 22.2015 60.3677 22.0578C60.248 21.9142 60.1442 21.7506 60.0565 21.5671C60.0166 21.4873 59.9807 21.3875 59.9487 21.2678C59.9248 21.1481 59.9009 21.0563 59.8769 20.9925L59.7213 20.6932C59.6734 20.5895 59.6255 20.4898 59.5777 20.394C59.5617 20.3222 59.5657 20.2424 59.5896 20.1546C59.6136 20.0748 59.6295 19.999 59.6375 19.9272C59.6535 19.8633 59.6734 19.7995 59.6974 19.7356C59.7053 19.7197 59.7333 19.6519 59.7812 19.5322C59.8051 19.4683 59.849 19.3805 59.9128 19.2688C59.9846 19.1651 60.0325 19.0932 60.0565 19.0533C60.1123 18.9097 60.1722 18.7701 60.236 18.6344C60.2759 18.5785 60.3118 18.5346 60.3438 18.5027C60.4714 18.383 60.5433 18.3152 60.5592 18.2992C60.631 18.1636 60.7029 18.0319 60.7747 17.9042C60.8625 17.8005 60.9502 17.7207 61.038 17.6648C61.0699 17.6489 61.1178 17.6289 61.1817 17.605C61.2455 17.581 61.2894 17.5531 61.3133 17.5212C61.3373 17.4733 61.3492 17.4294 61.3492 17.3895C61.3333 17.3017 61.3213 17.2339 61.3133 17.186C61.2974 17.1381 61.2814 17.0982 61.2654 17.0663C61.2176 17.0025 61.1737 16.9346 61.1338 16.8628C61.0699 16.7591 61.0221 16.6793 60.9901 16.6234C60.9582 16.5676 60.9223 16.4918 60.8824 16.396C60.8425 16.2923 60.8066 16.2045 60.7747 16.1327C60.7507 16.0528 60.7388 15.9651 60.7388 15.8693C60.7388 15.7496 60.7467 15.6259 60.7627 15.4982C60.7787 15.3706 60.7906 15.2588 60.7986 15.1631C60.8146 15.0673 60.8465 14.9755 60.8944 14.8878C60.9742 14.792 61.038 14.7122 61.0859 14.6484C61.1418 14.5845 61.2056 14.5127 61.2774 14.4329C61.3253 14.3292 61.3452 14.2294 61.3373 14.1336C61.3373 14.0778 61.3173 14.0139 61.2774 13.9421C61.2216 13.8703 61.1817 13.8144 61.1577 13.7745C61.1258 13.7346 61.0739 13.6868 61.0021 13.6309C60.9303 13.575 60.8824 13.5351 60.8585 13.5112C60.8106 13.4474 60.7667 13.3716 60.7268 13.2838C60.6949 13.188 60.6709 13.1122 60.655 13.0563C60.6151 12.9686 60.5752 12.8808 60.5353 12.793C60.5033 12.7052 60.4714 12.6055 60.4395 12.4937C60.4156 12.374 60.3996 12.3062 60.3916 12.2903C60.3677 12.2025 60.3557 12.1307 60.3557 12.0748L60.3198 11.5361C60.3198 11.4404 60.3198 11.3646 60.3198 11.3087C60.3198 11.2449 60.3398 11.1691 60.3797 11.0813C60.4196 10.9935 60.4555 10.9177 60.4874 10.8538C60.5193 10.782 60.5353 10.6982 60.5353 10.6025C60.5433 10.4987 60.5512 10.391 60.5592 10.2793C60.5752 10.1676 60.5951 10.0479 60.6191 9.92018C60.651 9.85634 60.7188 9.7925 60.8226 9.72866C60.9343 9.66482 61.0101 9.61295 61.05 9.57305C61.0979 9.53315 61.1737 9.44936 61.2774 9.32168C61.3492 9.22592 61.4011 9.16607 61.433 9.14213C61.5048 9.07031 61.5767 9.00248 61.6485 8.93864C61.7203 8.8748 61.7921 8.81894 61.8639 8.77106C61.9437 8.72318 62.0196 8.67928 62.0914 8.63938C62.1632 8.59948 62.3108 8.52766 62.5343 8.42392C62.6779 8.34412 62.7817 8.29225 62.8455 8.26831C62.8854 8.25235 62.9772 8.22841 63.1208 8.19649C63.2645 8.16457 63.448 8.14861 63.6714 8.14861H64.629L65.1078 8.20846L65.5268 8.24437C65.5986 8.25235 65.6984 8.2723 65.826 8.30422C65.9537 8.33614 66.0694 8.36008 66.1732 8.37604C66.2769 8.38402 66.3807 8.38801 66.4844 8.38801C66.5881 8.38801 66.6999 8.38801 66.8196 8.38801C66.8994 8.38801 67.0031 8.38003 67.1308 8.36407C67.2585 8.34013 67.3422 8.32816 67.3821 8.32816C67.446 8.32816 67.5058 8.32816 67.5617 8.32816C67.6255 8.32816 67.6894 8.32417 67.7532 8.31619C67.8171 8.31619 67.8769 8.32018 67.9328 8.32816C67.9886 8.33614 68.0445 8.35609 68.1004 8.38801C68.2201 8.45185 68.2879 8.48776 68.3038 8.49574C68.3597 8.53564 68.3996 8.58751 68.4235 8.65135C68.4475 8.70721 68.4595 8.74712 68.4595 8.77106C68.4595 8.80298 68.4595 8.83091 68.4595 8.85485C68.4595 8.95859 68.4315 9.05435 68.3757 9.14213C68.3118 9.20597 68.252 9.26582 68.1961 9.32168C68.1722 9.36158 68.1602 9.41744 68.1602 9.48926C68.1602 9.56108 68.1522 9.61295 68.1363 9.64487C68.0724 9.72467 68.0126 9.80447 67.9567 9.88427C67.9408 9.92417 67.9328 9.98402 67.9328 10.0638C67.9328 10.0957 67.9368 10.1556 67.9447 10.2434C67.9607 10.3232 67.9886 10.407 68.0285 10.4947C68.0764 10.5745 68.1004 10.6224 68.1004 10.6384C68.1403 10.7182 68.1642 10.774 68.1722 10.806C68.1881 10.8538 68.2041 10.9097 68.2201 10.9735C68.236 11.0374 68.244 11.1092 68.244 11.189C68.244 11.2608 68.248 11.3167 68.256 11.3566C68.256 11.4843 68.256 11.584 68.256 11.6558L68.1961 12.0149C68.1881 12.0788 68.1802 12.1426 68.1722 12.2065C68.1722 12.2623 68.1682 12.3062 68.1602 12.3381C68.1442 12.394 68.1163 12.4499 68.0764 12.5057C68.0046 12.6015 67.9647 12.6573 67.9567 12.6733C67.9088 12.7611 67.8649 12.8768 67.825 13.0204C67.7851 13.1641 67.7532 13.2678 67.7293 13.3317C67.7133 13.3875 67.6934 13.4514 67.6694 13.5232C67.6455 13.595 67.6216 13.6509 67.5976 13.6908C67.5737 13.7307 67.5418 13.7666 67.5019 13.7985C67.4061 13.8703 67.3303 13.9302 67.2744 13.978C67.2265 14.0179 67.1587 14.0658 67.0709 14.1217C66.9831 14.1696 66.8874 14.2214 66.7836 14.2773C66.6799 14.3252 66.5842 14.3691 66.4964 14.409C66.4166 14.4409 66.3447 14.4688 66.2809 14.4928C66.2171 14.5326 66.1692 14.5566 66.1373 14.5646C66.0974 14.5805 66.0455 14.5965 65.9817 14.6125C65.9577 14.6204 65.9098 14.6284 65.838 14.6364C65.7742 14.6444 65.7024 14.6484 65.6226 14.6484C65.5747 14.6484 65.5348 14.6484 65.5028 14.6484H65.2275C65.1557 14.6563 65.0719 14.6883 64.9762 14.7441C64.8884 14.792 64.8166 14.8239 64.7607 14.8399C64.7048 14.8479 64.649 14.8598 64.5931 14.8758C64.5373 14.8838 64.4615 14.8878 64.3657 14.8878C64.3019 14.8878 64.2101 14.8798 64.0904 14.8638C63.9707 14.8399 63.8909 14.8279 63.851 14.8279L63.3482 14.7681C63.3004 14.7601 63.2245 14.7282 63.1208 14.6723C63.025 14.6164 62.9452 14.5885 62.8814 14.5885C62.7936 14.5805 62.7298 14.5765 62.6899 14.5765C62.634 14.5765 62.5941 14.5805 62.5702 14.5885C62.4664 14.6444 62.4146 14.7521 62.4146 14.9117C62.4146 14.9995 62.4345 15.0753 62.4744 15.1391C62.5223 15.203 62.5742 15.2668 62.63 15.3307C62.8136 15.5701 63.041 15.7217 63.3123 15.7855C63.4081 15.8015 63.4719 15.8095 63.5038 15.8095C63.5597 15.8095 63.6236 15.8055 63.6954 15.7975C63.7672 15.7815 63.851 15.7656 63.9467 15.7496C63.9866 15.7496 64.0585 15.7376 64.1622 15.7137C64.2739 15.6818 64.3617 15.6658 64.4255 15.6658C64.5053 15.6658 64.5891 15.6818 64.6769 15.7137C64.7727 15.7456 64.8485 15.7696 64.9043 15.7855L65.2036 15.9052C65.2754 15.9292 65.3831 15.9411 65.5268 15.9411C65.6704 15.9411 65.7901 15.9491 65.8859 15.9651L66.3408 16.0489C66.5083 16.0888 66.648 16.1327 66.7597 16.1805C66.8794 16.2284 67.0071 16.2962 67.1427 16.384C67.2066 16.4239 67.2744 16.4758 67.3462 16.5396C67.426 16.5955 67.4859 16.6514 67.5258 16.7072C67.5657 16.7551 67.6016 16.811 67.6335 16.8748C67.7133 17.0583 67.7612 17.1621 67.7772 17.186C67.825 17.2658 67.8809 17.3376 67.9447 17.4015C68.0565 17.5052 68.1203 17.5731 68.1363 17.605C68.2719 17.8204 68.3677 18.0399 68.4235 18.2633C68.4874 18.4868 68.5193 18.6982 68.5193 18.8977ZM66.2809 10.6982C66.257 10.5626 66.2171 10.4229 66.1612 10.2793C66.1293 10.2234 66.0774 10.1516 66.0056 10.0638C65.9338 9.97604 65.8859 9.91619 65.862 9.88427C65.846 9.86831 65.7901 9.77255 65.6944 9.59699C65.6305 9.49325 65.5587 9.41345 65.4789 9.35759C65.3991 9.30173 65.3153 9.26183 65.2275 9.23789C65.1398 9.21395 65.052 9.19001 64.9642 9.16607C64.7168 9.10223 64.5492 9.06233 64.4615 9.04637C64.3817 9.03041 64.258 9.02243 64.0904 9.02243C63.9547 9.00647 63.8231 8.98652 63.6954 8.96258C63.6315 8.96258 63.5837 8.97056 63.5517 8.98652C63.5039 9.00248 63.448 9.04238 63.3842 9.10622C63.3203 9.17006 63.2764 9.20996 63.2525 9.22592C63.2046 9.26582 63.1248 9.3137 63.0131 9.36956C62.9014 9.41744 62.8136 9.47729 62.7497 9.54911C62.6939 9.61295 62.646 9.73265 62.6061 9.90821C62.5662 10.0758 62.5343 10.1875 62.5103 10.2434C62.4146 10.403 62.3228 10.5626 62.235 10.7222C62.2031 10.802 62.1832 10.8778 62.1752 10.9496C62.1672 11.0214 62.1632 11.0972 62.1632 11.177C62.1712 11.3127 62.1752 11.4204 62.1752 11.5002C62.1911 11.6519 62.2031 11.7396 62.2111 11.7636C62.227 11.8274 62.251 11.8992 62.2829 11.979C62.3148 12.0509 62.3547 12.1267 62.4026 12.2065C62.4585 12.2783 62.5024 12.3421 62.5343 12.398C62.5901 12.5496 62.65 12.7012 62.7138 12.8528C62.7617 12.9327 62.8096 12.9965 62.8575 13.0444C62.8814 13.0683 62.9452 13.1242 63.049 13.212C63.1128 13.2598 63.2046 13.3157 63.3243 13.3795C63.452 13.4354 63.5597 13.4873 63.6475 13.5351C63.7752 13.6149 63.9029 13.6947 64.0305 13.7745C64.1103 13.7905 64.1662 13.7985 64.1981 13.7985C64.23 13.7985 64.2859 13.7945 64.3657 13.7865C64.4535 13.7785 64.5014 13.7745 64.5093 13.7745C64.645 13.7825 64.7408 13.7865 64.7966 13.7865C64.8924 13.7865 64.9642 13.7745 65.0121 13.7506C65.0679 13.7267 65.1198 13.6908 65.1677 13.6429C65.2235 13.587 65.2754 13.5312 65.3233 13.4753C65.459 13.3317 65.5986 13.184 65.7422 13.0324C65.8619 12.9446 65.9817 12.8528 66.1014 12.7571C66.1572 12.6773 66.1971 12.5935 66.2211 12.5057C66.245 12.41 66.257 12.3341 66.257 12.2783C66.257 12.1985 66.245 12.1107 66.2211 12.0149C66.1812 11.9192 66.1413 11.8194 66.1014 11.7157C66.1014 11.6678 66.1173 11.608 66.1492 11.5361C66.1891 11.4643 66.2131 11.4125 66.2211 11.3805C66.2689 11.189 66.2929 11.0214 66.2929 10.8778C66.2929 10.798 66.2889 10.7381 66.2809 10.6982ZM66.8794 20.6932C66.9034 20.5735 66.9153 20.4578 66.9153 20.3461C66.9153 20.2184 66.8914 20.1067 66.8435 20.011C66.7797 19.9152 66.7198 19.8234 66.6639 19.7356C66.656 19.6957 66.656 19.6319 66.6639 19.5441C66.6719 19.4643 66.6719 19.4085 66.6639 19.3765C66.64 19.2808 66.6041 19.201 66.5562 19.1371C66.5163 19.0733 66.4844 19.0254 66.4605 18.9935C66.4046 18.9137 66.3447 18.8459 66.2809 18.79C66.257 18.7661 66.1851 18.7142 66.0654 18.6344C66.0016 18.5785 65.9178 18.5227 65.8141 18.4668C65.7183 18.411 65.6425 18.3671 65.5866 18.3351C65.4829 18.2633 65.4111 18.2154 65.3712 18.1915C65.2914 18.1436 65.2156 18.0997 65.1437 18.0598C65.0719 18.0199 65.0201 17.992 64.9881 17.976C64.9323 17.9441 64.8684 17.9202 64.7966 17.9042C64.7328 17.8883 64.637 17.8803 64.5093 17.8803C64.4136 17.8803 64.3218 17.8883 64.234 17.9042C64.1542 17.9202 64.0664 17.9401 63.9707 17.9641C63.8829 17.98 63.7752 18.004 63.6475 18.0359C63.5677 18.0359 63.4719 18.0279 63.3602 18.012C63.2565 18.004 63.2006 18 63.1926 18L62.9532 18.0359C62.8176 18.0758 62.7178 18.1436 62.654 18.2394C62.63 18.2793 62.6141 18.3272 62.6061 18.383C62.5981 18.4469 62.5941 18.5107 62.5941 18.5745C62.626 18.6783 62.658 18.786 62.6899 18.8977C62.6739 18.9456 62.63 18.9935 62.5582 19.0414C62.4864 19.0972 62.4385 19.1411 62.4146 19.173C62.3108 19.3167 62.2191 19.4643 62.1393 19.6159C62.0595 19.7755 62.0116 19.8673 61.9956 19.8913C61.9477 19.987 61.9118 20.0828 61.8879 20.1785C61.8639 20.2823 61.84 20.39 61.8161 20.5017C61.7921 20.6134 61.7802 20.7012 61.7802 20.7651C61.7802 20.8289 61.7881 20.9486 61.8041 21.1242C61.828 21.2997 61.9637 21.4873 62.2111 21.6868C62.2829 21.7426 62.3747 21.7905 62.4864 21.8304C62.6061 21.8703 62.6979 21.9022 62.7617 21.9262C62.8335 21.9581 62.9213 21.998 63.025 22.0459C63.1368 22.1017 63.2445 22.1376 63.3482 22.1536C63.46 22.1775 63.5438 22.1895 63.5996 22.1895C63.6634 22.1895 63.7273 22.1895 63.7911 22.1895L64.3657 22.2254C64.4615 22.2254 64.5652 22.2294 64.6769 22.2374C64.7966 22.2454 64.8724 22.2494 64.9043 22.2494C65.0719 22.2494 65.2275 22.2294 65.3712 22.1895C65.5148 22.1576 65.6226 22.1297 65.6944 22.1057C65.7662 22.0818 65.862 22.0299 65.9817 21.9501C66.1093 21.8703 66.2091 21.7905 66.2809 21.7107C66.3208 21.6708 66.3966 21.5671 66.5083 21.3995C66.6201 21.2399 66.6959 21.1282 66.7358 21.0643C66.8076 20.9446 66.8555 20.8209 66.8794 20.6932Z" fill="#212121"/>
<path d="M93.6424 11.2369C93.6424 11.4524 93.6304 11.6359 93.6065 11.7875C93.5905 11.9391 93.5546 12.0868 93.4987 12.2304C93.4509 12.374 93.399 12.4858 93.3431 12.5656C93.2952 12.6454 93.2434 12.7292 93.1875 12.8169C93.1077 12.9686 93.0239 13.1242 92.9361 13.2838C92.8563 13.4434 92.7925 13.599 92.7446 13.7506C92.7287 13.8543 92.7167 13.9262 92.7087 13.9661C92.7007 14.006 92.6808 14.0419 92.6489 14.0738C92.585 14.1137 92.5371 14.1456 92.5052 14.1696C92.4573 14.2015 92.4135 14.2573 92.3736 14.3371C92.3336 14.409 92.2977 14.4808 92.2658 14.5526C92.0903 14.8239 91.9626 15.0154 91.8828 15.1272C91.7631 15.2947 91.6194 15.4743 91.4519 15.6658C91.2204 15.9292 90.9691 16.1686 90.6977 16.384C90.4823 16.5516 90.195 16.7591 89.8359 17.0065C89.5247 17.2139 89.2533 17.3855 89.0219 17.5212C88.7905 17.6568 88.5152 17.7965 88.196 17.9401C88.0045 18.0279 87.805 18.1157 87.5975 18.2035C87.398 18.2992 87.2065 18.3631 87.0229 18.395C86.9591 18.403 86.8913 18.407 86.8194 18.407C86.7476 18.4149 86.6957 18.4189 86.6638 18.4189C86.5361 18.4189 86.3606 18.407 86.1371 18.383C85.9217 18.3671 85.778 18.3591 85.7062 18.3591L84.5691 18.4189C84.5212 18.4269 84.4414 18.4389 84.3297 18.4548C84.2259 18.4708 84.1461 18.4788 84.0903 18.4788C84.0184 18.4788 83.9466 18.4788 83.8748 18.4788C83.803 18.4788 83.7351 18.4828 83.6713 18.4908C83.6075 18.4908 83.5357 18.4868 83.4558 18.4788C83.376 18.4788 83.2683 18.4588 83.1327 18.4189C83.1007 18.411 83.0489 18.391 82.977 18.3591C82.9132 18.3272 82.8573 18.3072 82.8095 18.2992C82.7855 18.2913 82.7616 18.2873 82.7376 18.2873C82.7057 18.2873 82.6858 18.2873 82.6778 18.2873C82.6299 18.2873 82.5581 18.2952 82.4623 18.3112C82.3666 18.3272 82.2908 18.3351 82.2349 18.3351C82.0514 18.3351 81.8997 18.3232 81.78 18.2992C81.6603 18.2753 81.4848 18.2274 81.2533 18.1556C80.9421 18.0598 80.6429 17.9282 80.3556 17.7606C80.2439 17.6967 80.1122 17.597 79.9606 17.4613C79.7371 17.2698 79.6095 17.1581 79.5775 17.1262L79.0628 16.7072C78.9591 16.6354 78.8873 16.5875 78.8474 16.5636C78.7596 16.5077 78.6918 16.4558 78.6439 16.408C78.5561 16.3282 78.4723 16.1965 78.3925 16.013C78.3127 15.8214 78.2489 15.6937 78.201 15.6299C78.1611 15.5581 78.1212 15.4903 78.0813 15.4264C78.0095 15.3227 77.9376 15.2309 77.8658 15.1511C77.802 15.0713 77.7142 14.9915 77.6025 14.9117C77.3631 14.7361 77.2154 14.6125 77.1596 14.5406C77.1037 14.4688 77.0439 14.373 76.98 14.2533C76.9162 14.1336 76.8484 14.0219 76.7765 13.9182C76.7127 13.8144 76.6489 13.7067 76.585 13.595C76.5212 13.4753 76.4613 13.3556 76.4055 13.2359C76.174 12.9327 76.0145 12.7092 75.9267 12.5656C75.8389 12.4219 75.779 12.2743 75.7471 12.1227C75.7232 11.9711 75.7112 11.8434 75.7112 11.7396C75.7112 11.6918 75.7112 11.6519 75.7112 11.6199L75.6873 10.7581L75.6514 9.92018C75.6514 9.81644 75.6434 9.71669 75.6274 9.62093C75.5875 9.37355 75.5676 9.21395 75.5676 9.14213C75.5436 9.00647 75.5277 8.90672 75.5197 8.84288C75.5197 8.77904 75.5197 8.69525 75.5197 8.59151C75.5277 8.52766 75.5317 8.47978 75.5317 8.44786C75.5396 8.34412 75.5596 8.24038 75.5915 8.13664C75.6234 8.0329 75.6553 7.92916 75.6873 7.82542L75.8668 7.22692C75.9067 7.1152 75.9546 6.9915 76.0105 6.85584C76.0344 6.79998 76.0863 6.68427 76.1661 6.50871C76.214 6.39699 76.2658 6.28128 76.3217 6.16158C76.3775 6.0339 76.4254 5.93016 76.4653 5.85036L76.6688 5.49126C76.7486 5.34761 76.8085 5.24387 76.8484 5.18003C76.9202 5.06033 76.9601 4.9925 76.9681 4.97654C77.0399 4.89674 77.1117 4.81694 77.1835 4.73714C77.2075 4.69724 77.2194 4.63739 77.2194 4.55759C77.2194 4.43789 77.2274 4.35809 77.2434 4.31819C77.2673 4.25435 77.3032 4.19849 77.3511 4.15061C77.4389 4.07081 77.5307 3.98702 77.6264 3.89923C77.6583 3.86731 77.7421 3.76357 77.8778 3.58801C77.9656 3.46831 78.0613 3.37255 78.1651 3.30073L78.5601 3.06133C78.6319 3.00547 78.7356 2.90572 78.8713 2.76208C79.0149 2.61844 79.1426 2.50672 79.2543 2.42692C79.374 2.34712 79.5297 2.26332 79.7212 2.17554C79.9207 2.08776 80.0763 2.01993 80.188 1.97205C80.2997 1.91619 80.4115 1.86033 80.5232 1.80447C80.6429 1.74861 80.7466 1.70472 80.8344 1.6728C80.9222 1.6329 81.0459 1.58901 81.2055 1.54113C81.3651 1.48527 81.4888 1.44936 81.5765 1.4334C81.6723 1.40946 81.8 1.38552 81.9596 1.36158C82.1192 1.33764 82.2309 1.31769 82.2947 1.30173C82.5262 1.22193 82.7576 1.14213 82.989 1.06233C83.0608 1.04637 83.1606 1.03839 83.2883 1.03839C83.3441 1.03839 83.4319 1.04238 83.5516 1.05036C83.6713 1.05834 83.7711 1.06233 83.8509 1.06233L84.6888 1.00248C84.8324 1.00248 84.9441 0.998487 85.0239 0.990508C85.3431 0.958587 85.5227 0.942627 85.5626 0.942627L86.3047 0.966567C86.4324 0.966567 86.5441 0.974547 86.6399 0.990508C86.7356 0.998487 86.8952 1.02642 87.1187 1.0743C87.3421 1.1142 87.5855 1.19001 87.8489 1.30173C87.9366 1.33365 88.192 1.45335 88.615 1.66083C88.7586 1.73265 88.8942 1.80048 89.0219 1.86432C89.1496 1.92018 89.2933 1.99998 89.4529 2.10372C89.8359 2.35909 90.1631 2.65036 90.4344 2.97754C90.4903 3.04138 90.5701 3.14911 90.6738 3.30073C90.7775 3.44437 90.8653 3.56407 90.9371 3.65983C91.0169 3.75559 91.0967 3.84736 91.1765 3.93515C91.2085 3.97505 91.3521 4.1147 91.6075 4.3541C91.783 4.52168 91.9626 4.68926 92.1461 4.85684C92.202 4.92068 92.2578 5.00447 92.3137 5.10821C92.3696 5.20397 92.4135 5.27978 92.4454 5.33564C92.5172 5.45535 92.6688 5.68278 92.9002 6.01794C93.0838 6.28926 93.2194 6.52068 93.3072 6.7122C93.3471 6.80796 93.387 6.89574 93.4269 6.97554C93.4668 7.05534 93.5067 7.17505 93.5466 7.33465C93.5865 7.48627 93.6105 7.59799 93.6184 7.66981C93.6344 7.74163 93.6424 7.84138 93.6424 7.96906C93.6424 8.05684 93.6224 8.16058 93.5825 8.28028C93.5506 8.39998 93.5307 8.49574 93.5227 8.56756C93.4908 8.76707 93.4588 8.96657 93.4269 9.16607C93.4349 9.24587 93.4548 9.32168 93.4868 9.3935C93.5825 9.60896 93.6344 9.76058 93.6424 9.84836C93.6583 9.93614 93.6663 9.99998 93.6663 10.0399C93.6663 10.0798 93.6623 10.1556 93.6544 10.2673C93.6464 10.379 93.6424 10.4708 93.6424 10.5426V11.2369ZM90.4344 10.6384C90.4344 10.4149 90.4065 10.2234 90.3506 10.0638C90.3267 10.008 90.2628 9.91619 90.1591 9.78851C90.1032 9.72467 90.0633 9.66482 90.0394 9.60896C90.0154 9.54512 89.9915 9.4733 89.9676 9.3935C89.9516 9.3137 89.9436 9.24188 89.9436 9.17804C89.9436 9.12218 89.9516 9.06632 89.9676 9.01046C89.9915 8.9546 90.0194 8.88677 90.0514 8.80696C90.0593 8.74312 90.0553 8.67928 90.0394 8.61544C90.0234 8.54362 90.0075 8.45983 89.9915 8.36407C89.9915 8.29225 89.9955 8.20048 90.0035 8.08876C90.0115 7.96906 90.0154 7.88128 90.0154 7.82542C90.0314 7.6339 90.0434 7.52218 90.0514 7.49026C90.0673 7.41844 90.0952 7.31071 90.1351 7.16707C90.1431 7.13515 90.187 7.05933 90.2668 6.93963C90.3227 6.85185 90.3506 6.76806 90.3506 6.68826C90.3506 6.52866 90.3147 6.37704 90.2429 6.2334C90.179 6.08178 90.1192 5.97006 90.0633 5.89824C90.0075 5.82642 89.9237 5.75061 89.812 5.67081C89.7481 5.62293 89.6683 5.57904 89.5726 5.53913C89.4289 5.4753 89.3491 5.43938 89.3332 5.4314C89.1975 5.3516 89.0778 5.2718 88.9741 5.192C88.8783 5.1122 88.7785 5.01245 88.6748 4.89275C88.603 4.82093 88.5351 4.72517 88.4713 4.60547C88.3277 4.35011 88.2239 4.18652 88.1601 4.1147C88.0564 3.97904 87.9486 3.85933 87.8369 3.75559C87.6853 3.61195 87.5656 3.50023 87.4778 3.42043L86.999 3.00148C86.8713 2.9137 86.7795 2.84986 86.7237 2.80996C86.6279 2.73814 86.5401 2.66233 86.4603 2.58253C86.4125 2.53465 86.3646 2.46283 86.3167 2.36707C86.2209 2.18352 86.1371 2.06781 86.0653 2.01993C85.9536 1.93215 85.8219 1.88427 85.6703 1.87629C85.5187 1.86033 85.391 1.84836 85.2873 1.84038C84.984 1.7925 84.7247 1.76856 84.5092 1.76856C84.3097 1.76856 84.0663 1.7925 83.779 1.84038C83.4918 1.88028 83.2085 1.96008 82.9292 2.07978C82.7855 2.13564 82.6538 2.19549 82.5341 2.25934C82.4703 2.29125 82.3426 2.37106 82.1511 2.49874C82.0553 2.56258 81.9476 2.64238 81.8279 2.73814C81.5486 2.97754 81.377 3.11719 81.3132 3.15709C81.2494 3.19699 81.2015 3.22492 81.1696 3.24088C81.1137 3.2728 81.0618 3.3127 81.014 3.36058C80.9741 3.40048 80.9342 3.46033 80.8942 3.54013C80.8304 3.67579 80.7905 3.75559 80.7746 3.77953C80.7267 3.84338 80.6549 3.92318 80.5591 4.01894C80.4633 4.10672 80.3955 4.17854 80.3556 4.2344C80.3157 4.29026 80.2559 4.37405 80.176 4.48577C80.0962 4.59749 80.0364 4.69325 79.9965 4.77305C79.9167 4.92467 79.8449 5.10023 79.781 5.29973C79.6853 5.61096 79.6254 5.79849 79.6015 5.86233C79.5775 5.91819 79.5576 5.97405 79.5416 6.02991C79.5017 6.13365 79.4578 6.23739 79.41 6.34113C79.3701 6.44487 79.3102 6.55659 79.2304 6.67629C79.1506 6.78801 79.0748 6.89973 79.003 7.01145C78.995 7.02741 78.9351 7.11918 78.8234 7.28677C78.7596 7.39051 78.7117 7.49026 78.6798 7.58602C78.6239 7.72966 78.592 7.81744 78.584 7.84936C78.576 7.88128 78.5721 7.93315 78.5721 8.00497C78.5721 8.05285 78.576 8.09275 78.584 8.12467C78.6 8.18851 78.6359 8.25634 78.6918 8.32816C78.7476 8.392 78.7915 8.44387 78.8234 8.48377C78.9192 8.57155 79.0189 8.65934 79.1227 8.74712C79.1706 8.82692 79.1945 8.92268 79.1945 9.0344C79.1865 9.13016 79.1825 9.20597 79.1825 9.26183C79.1825 9.36557 79.1586 9.50522 79.1107 9.68078C79.0628 9.85634 79.0389 9.99599 79.0389 10.0997C79.0149 10.3312 79.003 10.5307 79.003 10.6982C79.003 10.8339 79.011 10.9815 79.0269 11.1411C79.0509 11.3007 79.0908 11.4803 79.1466 11.6798C79.2105 11.8793 79.2424 12.0389 79.2424 12.1586C79.2424 12.3341 79.2384 12.5177 79.2304 12.7092C79.2224 12.9007 79.2184 13.0164 79.2184 13.0563C79.2184 13.2638 79.2304 13.4434 79.2543 13.595C79.2783 13.7466 79.3262 13.9182 79.398 14.1097C79.4459 14.2533 79.5257 14.405 79.6374 14.5646C79.8289 14.8519 79.9287 14.9995 79.9366 15.0075C79.9526 15.0314 80.0045 15.1192 80.0923 15.2708C80.1481 15.3666 80.204 15.4464 80.2598 15.5102C80.3955 15.6698 80.5591 15.8055 80.7506 15.9172C80.8783 15.981 80.998 16.0409 81.1097 16.0967C81.2214 16.1526 81.3212 16.2045 81.409 16.2524C81.5047 16.2923 81.6125 16.3242 81.7322 16.3481C81.8598 16.3721 81.9875 16.392 82.1152 16.408C82.2189 16.4957 82.2987 16.5556 82.3546 16.5875C82.5062 16.6833 82.6219 16.7511 82.7017 16.791C82.7895 16.8309 82.8773 16.8588 82.9651 16.8748C83.0608 16.8908 83.1486 16.8987 83.2284 16.8987C83.3082 16.8987 83.408 16.8947 83.5277 16.8868C83.6553 16.8708 83.7232 16.8628 83.7312 16.8628C83.8668 16.8628 83.9865 16.8708 84.0903 16.8868C84.194 16.9027 84.3057 16.9346 84.4254 16.9825C84.4893 17.0065 84.5691 17.0543 84.6648 17.1262C84.7606 17.19 84.8444 17.2299 84.9162 17.2459C84.988 17.2618 85.0439 17.2698 85.0838 17.2698C85.1636 17.2698 85.2553 17.2538 85.3591 17.2219C85.4708 17.19 85.5785 17.1621 85.6823 17.1381C85.786 17.1062 85.9057 17.0663 86.0414 17.0184C86.177 16.9626 86.2848 16.9187 86.3646 16.8868L86.9631 16.6474C87.3302 16.4798 87.6813 16.2803 88.0164 16.0489C88.2239 15.9132 88.3955 15.7855 88.5312 15.6658C88.7067 15.5142 88.8623 15.3626 88.998 15.211C89.1736 15.0115 89.2773 14.8957 89.3092 14.8638C89.405 14.7441 89.4967 14.6005 89.5845 14.4329C89.6723 14.2653 89.7361 14.0459 89.776 13.7745C89.8239 13.5032 89.8558 13.3237 89.8718 13.2359C89.9277 12.8529 89.9875 12.4658 90.0514 12.0748C90.0753 11.987 90.0992 11.9192 90.1232 11.8713C90.179 11.7596 90.2349 11.6479 90.2908 11.5361C90.3865 11.2409 90.4344 10.9416 90.4344 10.6384Z" fill="#212121"/>
<path d="M108.77 9.02243C108.77 9.10223 108.75 9.17405 108.71 9.23789C108.678 9.29375 108.618 9.36956 108.53 9.46532C108.482 9.52118 108.443 9.56108 108.411 9.58502C108.291 9.64886 108.199 9.70073 108.135 9.74063C108.08 9.78053 108.02 9.81644 107.956 9.84836C107.892 9.88028 107.84 9.91619 107.8 9.95609C107.76 9.99599 107.72 10.0479 107.681 10.1117C107.665 10.1356 107.609 10.2514 107.513 10.4588L107.274 10.9975C107.258 11.0454 107.23 11.1332 107.19 11.2608C107.158 11.3885 107.126 11.4962 107.094 11.584C107.062 11.6718 107.022 11.7636 106.974 11.8593C106.926 11.9551 106.886 12.0349 106.855 12.0987C106.767 12.3142 106.703 12.4658 106.663 12.5536C106.599 12.7052 106.523 12.8529 106.436 12.9965C106.356 13.1322 106.276 13.2638 106.196 13.3915C106.172 13.4633 106.156 13.5591 106.148 13.6788C106.14 13.7905 106.124 13.8743 106.1 13.9302C106.084 13.986 106.049 14.0618 105.993 14.1576C105.937 14.2454 105.897 14.3092 105.873 14.3491C105.857 14.381 105.817 14.4409 105.753 14.5287C105.697 14.6164 105.658 14.6923 105.634 14.7561C105.61 14.8199 105.586 14.9117 105.562 15.0314C105.538 15.1511 105.51 15.2548 105.478 15.3426C105.446 15.4304 105.422 15.4903 105.406 15.5222C105.358 15.594 105.322 15.6499 105.298 15.6898C105.283 15.7217 105.251 15.7696 105.203 15.8334C105.163 15.8893 105.135 15.9332 105.119 15.9651C105.095 16.0289 105.075 16.1047 105.059 16.1925C105.051 16.2723 105.043 16.3242 105.035 16.3481L104.856 16.9825C104.8 17.1421 104.748 17.3017 104.7 17.4613C104.636 17.581 104.576 17.7007 104.52 17.8204C104.441 17.9401 104.341 18 104.221 18C104.07 18 103.954 17.98 103.874 17.9401C103.794 17.9002 103.734 17.8284 103.694 17.7247C103.655 17.6209 103.619 17.5371 103.587 17.4733C103.563 17.4095 103.535 17.3097 103.503 17.174C103.471 17.0384 103.439 16.9267 103.407 16.8389C103.375 16.7431 103.339 16.6593 103.299 16.5875C103.26 16.5157 103.22 16.4439 103.18 16.3721C103.148 16.2923 103.116 16.2164 103.084 16.1446C103.02 16.009 102.976 15.9012 102.952 15.8214C102.928 15.7336 102.904 15.6259 102.881 15.4982C102.865 15.3706 102.841 15.2548 102.809 15.1511C102.785 15.0394 102.765 14.9636 102.749 14.9237C102.733 14.8758 102.701 14.796 102.653 14.6843C102.605 14.5726 102.573 14.4928 102.557 14.4449C102.517 14.3571 102.466 14.3052 102.402 14.2893C102.33 14.2653 102.23 14.2853 102.102 14.3491C102.023 14.389 101.963 14.4529 101.923 14.5406C101.883 14.6683 101.851 14.7641 101.827 14.8279C101.811 14.8678 101.799 14.9396 101.791 15.0434C101.783 15.1391 101.767 15.2149 101.743 15.2708C101.719 15.3187 101.672 15.3825 101.6 15.4623C101.528 15.5421 101.476 15.61 101.444 15.6658C101.436 15.6818 101.416 15.7376 101.384 15.8334C101.352 15.9212 101.32 15.993 101.288 16.0489C101.217 16.1526 101.149 16.2524 101.085 16.3481C101.061 16.404 101.045 16.4838 101.037 16.5875C101.029 16.6913 101.013 16.7711 100.989 16.8269C100.973 16.8828 100.953 16.9267 100.929 16.9586C100.882 17.0304 100.838 17.0942 100.798 17.1501C100.766 17.198 100.738 17.2698 100.714 17.3656C100.69 17.4613 100.662 17.5331 100.63 17.581C100.566 17.7007 100.526 17.7726 100.51 17.7965C100.463 17.8763 100.403 17.9322 100.331 17.9641C100.235 18.0279 100.127 18.0598 100.008 18.0598C99.88 18.0598 99.7842 18.0519 99.7204 18.0359C99.6645 18.0279 99.6047 18 99.5409 17.9521C99.477 17.8962 99.4291 17.8364 99.3972 17.7726C99.3653 17.7087 99.3334 17.6369 99.3015 17.5571C99.2775 17.4693 99.2655 17.4095 99.2655 17.3775C99.2735 17.2339 99.2815 17.0903 99.2895 16.9466C99.2735 16.8748 99.2376 16.799 99.1818 16.7192C99.102 16.5995 99.0581 16.5277 99.0501 16.5037L98.8346 15.9292C98.7867 15.7935 98.7588 15.7177 98.7508 15.7017C98.695 15.606 98.6551 15.5341 98.6311 15.4863C98.4875 15.3187 98.3478 15.1471 98.2122 14.9716C98.1962 14.9077 98.1882 14.8638 98.1882 14.8399C98.1882 14.792 98.1922 14.7322 98.2002 14.6603C98.2162 14.5885 98.2241 14.5486 98.2241 14.5406C98.2241 14.4928 98.2202 14.4568 98.2122 14.4329C98.1962 14.385 98.1723 14.3332 98.1404 14.2773C98.0845 14.1895 98.0286 14.1017 97.9728 14.0139C97.9568 13.982 97.9129 13.9142 97.8411 13.8105C97.7773 13.6987 97.7254 13.603 97.6855 13.5232C97.6536 13.4434 97.6137 13.3317 97.5658 13.188C97.5498 13.1401 97.5259 13.0843 97.494 13.0204C97.47 12.9486 97.4102 12.8289 97.3144 12.6613C97.2745 12.5975 97.2346 12.5297 97.1947 12.4578C97.091 12.2982 96.9912 12.1386 96.8955 11.979L96.68 11.5361C96.6241 11.3765 96.5803 11.2568 96.5483 11.177C96.5244 11.0893 96.5044 11.0015 96.4885 10.9137C96.4725 10.8259 96.4606 10.7262 96.4526 10.6144C96.4526 10.4947 96.4366 10.411 96.4047 10.3631C96.3808 10.3072 96.3409 10.2553 96.285 10.2075C96.1892 10.1356 96.1334 10.0878 96.1174 10.0638L95.8182 9.70472L95.5429 9.44138L95.3035 9.10622C95.2795 9.0743 95.2596 9.03839 95.2436 8.99849C95.1957 8.92667 95.1638 8.85485 95.1478 8.78303C95.1399 8.70323 95.1359 8.64337 95.1359 8.60347C95.1359 8.53963 95.1518 8.48776 95.1837 8.44786C95.2236 8.40796 95.2835 8.38402 95.3633 8.37604C95.4511 8.36008 95.5069 8.3521 95.5309 8.3521C95.5628 8.3521 95.5827 8.3521 95.5907 8.3521C95.6546 8.3521 95.7344 8.36008 95.8301 8.37604C95.9339 8.38402 95.9897 8.38801 95.9977 8.38801L96.9553 8.48377C97.0511 8.48377 97.1668 8.49574 97.3025 8.51968C97.4461 8.53564 97.5379 8.54362 97.5778 8.54362C97.6735 8.54362 97.7613 8.53564 97.8411 8.51968C97.9289 8.50372 98.0326 8.47978 98.1523 8.44786L98.4755 8.38801C98.5234 8.38801 98.5753 8.38402 98.6311 8.37604C98.679 8.36806 98.7269 8.36008 98.7748 8.3521C98.8386 8.3521 98.8905 8.37604 98.9304 8.42392C98.9703 8.4718 98.9902 8.5516 98.9902 8.66332C98.9902 8.71918 98.9703 8.78303 98.9304 8.85485C98.8905 8.91869 98.8546 8.98253 98.8227 9.04637C98.7907 9.11021 98.7548 9.17006 98.7149 9.22592C98.675 9.28178 98.6391 9.33764 98.6072 9.3935C98.5753 9.44138 98.5274 9.50921 98.4635 9.59699C98.3997 9.67679 98.3638 9.74462 98.3558 9.80048C98.3399 9.88826 98.3478 9.97604 98.3798 10.0638C98.4436 10.1835 98.4875 10.2753 98.5114 10.3391C98.5354 10.395 98.5753 10.4708 98.6311 10.5666C98.687 10.6543 98.7269 10.7182 98.7508 10.7581C98.8067 10.8778 98.8506 10.9935 98.8825 11.1052C98.9144 11.2169 98.9503 11.3287 98.9902 11.4404L99.1339 11.8952L99.2895 12.2783C99.3693 12.4778 99.4491 12.6773 99.5289 12.8768C99.5369 12.9007 99.5488 12.9805 99.5648 13.1162C99.5808 13.2439 99.6047 13.3396 99.6366 13.4035C99.6765 13.4593 99.7084 13.4992 99.7324 13.5232C99.8441 13.6189 99.9039 13.6748 99.9119 13.6908C99.9438 13.7386 99.9718 13.8025 99.9957 13.8823C100.02 13.9541 100.048 14.0299 100.08 14.1097C100.111 14.1895 100.135 14.2454 100.151 14.2773C100.207 14.3571 100.247 14.4209 100.271 14.4688C100.327 14.5885 100.371 14.6843 100.403 14.7561C100.443 14.8279 100.498 14.8838 100.57 14.9237C100.642 14.9556 100.706 14.9755 100.762 14.9835C100.81 14.9915 100.858 14.9875 100.905 14.9716C100.953 14.9556 100.993 14.9277 101.025 14.8878C101.049 14.8558 101.073 14.812 101.097 14.7561C101.129 14.7002 101.145 14.6324 101.145 14.5526C101.137 14.4409 101.133 14.3531 101.133 14.2893C101.133 14.2334 101.137 14.1935 101.145 14.1696C101.161 14.0977 101.181 14.0419 101.205 14.002C101.229 13.9461 101.257 13.8903 101.288 13.8344L101.504 13.4154C101.56 13.3197 101.62 13.2199 101.684 13.1162C101.699 13.0683 101.707 13.0045 101.707 12.9247C101.707 12.8608 101.695 12.785 101.672 12.6972C101.648 12.6095 101.628 12.5257 101.612 12.4459C101.596 12.3661 101.572 12.2903 101.54 12.2184C101.484 12.1067 101.44 12.0149 101.408 11.9431C101.376 11.8633 101.32 11.7636 101.241 11.6439C101.169 11.5242 101.117 11.4284 101.085 11.3566C100.957 11.0933 100.846 10.8219 100.75 10.5426C100.742 10.5267 100.722 10.4469 100.69 10.3032C100.658 10.1596 100.618 10.0519 100.57 9.98003C100.49 9.82841 100.371 9.69674 100.211 9.58502C100.155 9.54512 100.087 9.50921 100.008 9.47729C99.9279 9.43739 99.868 9.40547 99.8281 9.38153L99.5528 9.20198C99.5049 9.16208 99.4571 9.11819 99.4092 9.07031C99.3613 9.02243 99.3294 8.96258 99.3134 8.89076C99.2975 8.81894 99.2895 8.76308 99.2895 8.72318C99.2895 8.61145 99.3254 8.52367 99.3972 8.45983C99.469 8.39599 99.5808 8.36407 99.7324 8.36407C99.8361 8.36407 99.9079 8.36806 99.9478 8.37604C100.012 8.392 100.123 8.41195 100.283 8.43589C100.443 8.45983 100.65 8.48377 100.905 8.50771C101.073 8.54761 101.241 8.58751 101.408 8.62741C101.488 8.62741 101.564 8.61943 101.636 8.60347C101.715 8.58751 101.847 8.56756 102.031 8.54362C102.222 8.5117 102.45 8.49574 102.713 8.49574C102.849 8.49574 102.988 8.49973 103.132 8.50771C103.284 8.50771 103.439 8.50771 103.599 8.50771C103.686 8.50771 103.794 8.51569 103.922 8.53165C104.058 8.53963 104.129 8.54362 104.137 8.54362C104.305 8.5117 104.473 8.47978 104.64 8.44786C104.8 8.48776 104.907 8.54761 104.963 8.62741C105.019 8.70722 105.047 8.79899 105.047 8.90273C105.047 8.98253 105.039 9.05036 105.023 9.10622C105.015 9.16208 105.003 9.20996 104.987 9.24986C104.971 9.28178 104.935 9.33365 104.88 9.40547C104.832 9.47729 104.748 9.54113 104.628 9.59699C104.564 9.62891 104.492 9.66881 104.413 9.71669C104.341 9.75659 104.289 9.78452 104.257 9.80048C104.153 9.85634 104.066 9.92417 103.994 10.004C103.922 10.0758 103.862 10.1596 103.814 10.2553C103.766 10.3431 103.722 10.4309 103.683 10.5187C103.603 10.6703 103.547 10.778 103.515 10.8419C103.459 10.9536 103.411 11.0693 103.371 11.189C103.339 11.3007 103.315 11.3925 103.299 11.4643C103.284 11.5361 103.284 11.608 103.299 11.6798C103.315 11.7436 103.347 11.8035 103.395 11.8593C103.443 11.9152 103.491 11.9671 103.539 12.0149L103.683 12.2543C103.738 12.3661 103.786 12.5217 103.826 12.7212C103.866 12.9207 103.89 13.0324 103.898 13.0563L104.042 13.6309C104.082 13.7825 104.121 13.9302 104.161 14.0738C104.217 14.1775 104.265 14.2613 104.305 14.3252C104.353 14.381 104.433 14.4369 104.544 14.4928C104.656 14.5406 104.748 14.5526 104.82 14.5287C104.891 14.5047 104.935 14.4489 104.951 14.3611C104.967 14.2653 104.983 14.1696 104.999 14.0738C105.055 13.9302 105.115 13.7825 105.179 13.6309C105.195 13.599 105.231 13.5591 105.286 13.5112C105.342 13.4633 105.378 13.4234 105.394 13.3915C105.418 13.3436 105.438 13.2798 105.454 13.2C105.47 13.1122 105.486 13.0164 105.502 12.9127C105.526 12.801 105.542 12.7132 105.55 12.6494C105.566 12.5855 105.594 12.5217 105.634 12.4578C105.697 12.394 105.765 12.3262 105.837 12.2543C105.877 12.1825 105.897 12.0987 105.897 12.003C105.897 11.9152 105.897 11.8514 105.897 11.8115C105.897 11.7556 105.897 11.7117 105.897 11.6798C105.905 11.6159 105.925 11.5202 105.957 11.3925C105.997 11.2648 106.017 11.1611 106.017 11.0813V10.5785C106.017 10.5147 106.025 10.4349 106.041 10.3391C106.057 10.2434 106.065 10.1716 106.065 10.1237C106.065 10.0598 106.061 10.012 106.053 9.98003C106.037 9.92417 106.021 9.87629 106.005 9.83639C105.981 9.78851 105.937 9.71669 105.873 9.62093C105.777 9.53315 105.686 9.44138 105.598 9.34562C105.55 9.25784 105.51 9.17405 105.478 9.09425C105.454 9.00647 105.454 8.92268 105.478 8.84288C105.534 8.65934 105.646 8.54761 105.813 8.50771C105.861 8.49973 105.909 8.50372 105.957 8.51968C106.005 8.53564 106.088 8.55559 106.208 8.57953C106.328 8.60347 106.483 8.6314 106.675 8.66332C106.731 8.65534 106.795 8.63141 106.867 8.59151C106.946 8.5516 107.03 8.52367 107.118 8.50771C107.206 8.48377 107.297 8.4718 107.393 8.4718C107.561 8.47978 107.692 8.48377 107.788 8.48377C107.852 8.48377 107.932 8.47579 108.028 8.45983C108.131 8.43589 108.191 8.42392 108.207 8.42392C108.239 8.42392 108.287 8.4319 108.351 8.44786C108.494 8.49574 108.606 8.57554 108.686 8.68727C108.742 8.79101 108.77 8.90273 108.77 9.02243ZM103.144 9.74063C103.144 9.71669 103.104 9.64487 103.024 9.52517C102.992 9.48527 102.964 9.44537 102.94 9.40547C102.916 9.38153 102.873 9.3536 102.809 9.32168C102.753 9.28178 102.697 9.26183 102.641 9.26183C102.529 9.26183 102.442 9.29774 102.378 9.36956C102.314 9.4334 102.282 9.5132 102.282 9.60896C102.282 9.65684 102.29 9.74462 102.306 9.8723C102.33 9.99998 102.39 10.1037 102.485 10.1835C102.525 10.2234 102.565 10.2593 102.605 10.2913C102.653 10.3232 102.705 10.3391 102.761 10.3391C102.825 10.3391 102.873 10.3032 102.904 10.2314C102.936 10.1516 102.968 10.0758 103 10.004C103.048 9.94811 103.08 9.90821 103.096 9.88427C103.136 9.83639 103.152 9.78851 103.144 9.74063Z" fill="#212121"/>
<path d="M115.735 17.5212C115.735 17.6568 115.675 17.7765 115.556 17.8803C115.5 17.9202 115.424 17.9441 115.328 17.9521C115.241 17.9601 115.165 17.9641 115.101 17.9641C115.013 17.9641 114.905 17.9561 114.778 17.9401C114.65 17.9162 114.57 17.9042 114.538 17.9042C114.451 17.9042 114.331 17.9002 114.179 17.8923C114.028 17.8843 113.908 17.8803 113.82 17.8803C113.7 17.8803 113.593 17.8883 113.497 17.9042C113.401 17.9202 113.309 17.9361 113.222 17.9521C113.134 17.9601 113.026 17.984 112.898 18.0239C112.771 18.0638 112.679 18.0878 112.623 18.0957H111.869H111.067C110.947 18.0878 110.852 18.0798 110.78 18.0718C110.708 18.0718 110.648 18.0519 110.6 18.012C110.552 17.9721 110.516 17.9282 110.492 17.8803C110.476 17.8484 110.453 17.7845 110.421 17.6888C110.389 17.593 110.373 17.5371 110.373 17.5212C110.373 17.4334 110.409 17.3576 110.48 17.2937C110.584 17.2219 110.664 17.1621 110.72 17.1142C110.784 17.0663 110.864 17.0224 110.959 16.9825C111.135 16.9107 111.231 16.8708 111.247 16.8628C111.326 16.8149 111.41 16.7671 111.498 16.7192C111.586 16.6633 111.662 16.5995 111.725 16.5277C111.797 16.4479 111.857 16.3521 111.905 16.2404C111.929 16.1925 111.965 16.0928 112.013 15.9411C112.061 15.7895 112.092 15.6658 112.108 15.5701C112.132 15.4743 112.144 15.3706 112.144 15.2588C112.136 15.1072 112.132 14.9915 112.132 14.9117C112.132 14.8479 112.14 14.788 112.156 14.7322C112.18 14.6763 112.216 14.6164 112.264 14.5526C112.312 14.4808 112.34 14.4329 112.348 14.409C112.388 14.2972 112.412 14.2134 112.42 14.1576C112.436 14.0937 112.444 14.0259 112.444 13.9541C112.436 13.8823 112.424 13.8224 112.408 13.7745C112.368 13.6628 112.348 13.603 112.348 13.595C112.34 13.5471 112.336 13.4753 112.336 13.3795C112.336 13.3077 112.344 13.2 112.36 13.0563C112.376 12.9127 112.384 12.793 112.384 12.6972C112.384 12.5855 112.376 12.4898 112.36 12.41C112.304 12.1307 112.276 11.987 112.276 11.979C112.276 11.8913 112.288 11.8154 112.312 11.7516C112.336 11.6878 112.376 11.6199 112.432 11.5481C112.487 11.4683 112.519 11.4125 112.527 11.3805C112.575 11.2449 112.599 11.1212 112.599 11.0095C112.599 10.9616 112.595 10.9017 112.587 10.8299C112.579 10.7581 112.571 10.7022 112.563 10.6623C112.555 10.6065 112.531 10.5227 112.491 10.411C112.46 10.2992 112.444 10.2354 112.444 10.2194C112.42 10.0598 112.408 9.92018 112.408 9.80048C112.408 9.73664 112.408 9.68477 112.408 9.64487C112.416 9.56507 112.452 9.45335 112.515 9.30971C112.587 9.16607 112.623 9.05036 112.623 8.96258C112.623 8.8748 112.615 8.76308 112.599 8.62741C112.591 8.48377 112.587 8.40397 112.587 8.38801L112.563 7.78951C112.563 7.63789 112.559 7.51819 112.551 7.43041C112.519 7.08726 112.503 6.88776 112.503 6.8319C112.503 6.72018 112.507 6.6324 112.515 6.56856C112.515 6.56058 112.527 6.49275 112.551 6.36507C112.575 6.22941 112.599 6.11769 112.623 6.02991C112.623 5.95809 112.619 5.90622 112.611 5.8743C112.579 5.7945 112.551 5.7147 112.527 5.6349C112.519 5.61096 112.511 5.52318 112.503 5.37156C112.503 5.21993 112.487 5.10422 112.456 5.02442C112.432 4.94462 112.4 4.87679 112.36 4.82093C112.328 4.76507 112.264 4.68926 112.168 4.5935C112.12 4.54562 112.073 4.50173 112.025 4.46183C111.985 4.41395 111.917 4.37405 111.821 4.34213C111.733 4.31021 111.63 4.2743 111.51 4.2344C111.374 4.12268 111.306 3.98303 111.306 3.81544C111.306 3.70372 111.33 3.60796 111.378 3.52816C111.402 3.48826 111.466 3.41245 111.57 3.30073C111.626 3.24487 111.693 3.19699 111.773 3.15709C111.893 3.09325 111.965 3.05335 111.989 3.03739L112.324 2.76208C112.452 2.6344 112.579 2.50672 112.707 2.37904C112.851 2.30722 112.95 2.25534 113.006 2.22343C113.07 2.18352 113.134 2.13564 113.198 2.07978C113.27 2.01594 113.337 1.95609 113.401 1.90023C113.505 1.80447 113.613 1.70472 113.724 1.60098C113.924 1.45734 114.123 1.34562 114.323 1.26582C114.395 1.2339 114.455 1.20597 114.502 1.18203C114.558 1.15809 114.61 1.14612 114.658 1.14612C114.754 1.14612 114.834 1.16607 114.897 1.20597C114.961 1.23789 115.025 1.29375 115.089 1.37355C115.153 1.44537 115.185 1.53714 115.185 1.64886C115.169 1.7925 115.161 1.90422 115.161 1.98402C115.161 2.1117 115.145 2.24338 115.113 2.37904C115.081 2.50672 115.049 2.6344 115.017 2.76208L114.862 3.33664L114.742 3.8753L114.682 4.43789V4.77305L114.718 5.85036L114.742 6.98751V7.82542C114.742 7.90522 114.75 8.00497 114.766 8.12467C114.782 8.23639 114.786 8.32417 114.778 8.38801C114.762 8.45185 114.73 8.53165 114.682 8.62741C114.634 8.72318 114.606 8.795 114.598 8.84288C114.542 8.97056 114.502 9.07031 114.478 9.14213C114.455 9.20597 114.443 9.28577 114.443 9.38153C114.443 9.48527 114.455 9.58502 114.478 9.68078C114.502 9.77654 114.522 9.85634 114.538 9.92018C114.546 9.9521 114.562 10.008 114.586 10.0878C114.61 10.1596 114.622 10.2234 114.622 10.2793C114.622 10.3431 114.61 10.4229 114.586 10.5187C114.57 10.6065 114.562 10.6663 114.562 10.6982V11.3207V11.7157C114.562 11.8194 114.562 11.9072 114.562 11.979C114.562 12.0429 114.57 12.1067 114.586 12.1706C114.602 12.2344 114.626 12.2903 114.658 12.3381C114.746 12.4818 114.794 12.5616 114.802 12.5775C114.858 12.7052 114.889 12.805 114.897 12.8768C114.897 12.9486 114.893 13.0005 114.885 13.0324C114.854 13.1122 114.826 13.192 114.802 13.2718L114.742 13.8344C114.734 13.9062 114.71 13.994 114.67 14.0977C114.638 14.2015 114.622 14.2733 114.622 14.3132C114.622 14.409 114.626 14.5007 114.634 14.5885C114.642 14.6683 114.654 14.7441 114.67 14.8159C114.686 14.8878 114.718 14.9676 114.766 15.0553C114.814 15.1351 114.838 15.199 114.838 15.2469C114.838 15.2868 114.818 15.3386 114.778 15.4025C114.746 15.4663 114.726 15.5142 114.718 15.5461C114.702 15.594 114.69 15.6459 114.682 15.7017C114.674 15.7576 114.67 15.8095 114.67 15.8573C114.67 15.9052 114.678 15.9651 114.694 16.0369C114.71 16.1087 114.726 16.1845 114.742 16.2643C114.79 16.4159 114.87 16.5636 114.981 16.7072C115.029 16.7711 115.073 16.8229 115.113 16.8628C115.201 16.9426 115.292 17.0224 115.388 17.1022C115.484 17.182 115.556 17.2419 115.604 17.2818C115.691 17.3536 115.735 17.4334 115.735 17.5212Z" fill="#212121"/>
</svg>
