<svg width="116" height="24" viewBox="0 0 116 24" fill="none" xmlns="http://www.w3.org/2000/svg">
<path d="M12.8559 14.1097C12.8559 14.2055 12.8479 14.2853 12.8319 14.3491C12.8239 14.413 12.812 14.4808 12.796 14.5526C12.7561 14.7761 12.6963 15.0155 12.6165 15.2708C12.5845 15.4065 12.5606 15.4943 12.5446 15.5342C12.5287 15.582 12.4928 15.6658 12.4369 15.7855C12.389 15.9052 12.3451 15.997 12.3052 16.0608C12.2733 16.1247 12.2175 16.2005 12.1377 16.2883C12.0259 16.408 11.8982 16.5077 11.7546 16.5875C11.7147 16.6115 11.6588 16.6394 11.587 16.6713C11.5152 16.7032 11.4354 16.7392 11.3476 16.7791C11.2678 16.819 11.1641 16.9147 11.0364 17.0663C10.9167 17.21 10.805 17.3097 10.7012 17.3656C10.6055 17.4214 10.5057 17.4693 10.402 17.5092C10.3062 17.5491 10.2264 17.581 10.1626 17.605C10.0987 17.6289 9.98703 17.6648 9.82743 17.7127C9.66783 17.7526 9.54413 17.7805 9.45635 17.7965C9.36857 17.8125 9.28478 17.8284 9.20498 17.8444C9.13316 17.8524 8.91371 17.8723 8.54663 17.9042L7.74463 18C7.51321 18 7.24189 17.996 6.93067 17.988C6.62743 17.9721 6.45985 17.9641 6.42793 17.9641L5.76957 18C5.64987 18 5.50623 18.004 5.33865 18.012C5.17905 18.0279 5.09127 18.0359 5.07531 18.0359C4.99551 18.0359 4.88778 18.0199 4.75211 17.988C4.62443 17.9561 4.54463 17.9401 4.51271 17.9401C4.19351 17.9002 3.85436 17.8803 3.49526 17.8803C3.37556 17.8803 3.26783 17.8923 3.17207 17.9162C3.08428 17.9322 2.98852 17.9481 2.88478 17.9641C2.78104 17.98 2.64139 17.996 2.46583 18.012C2.29825 18.0279 2.16259 18.0359 2.05885 18.0359C1.94713 18.0359 1.84738 18.0319 1.7596 18.0239C1.67182 18.0239 1.5601 18.004 1.42443 17.9641C1.25685 17.9401 1.12119 17.9162 1.01745 17.8923C0.913711 17.8683 0.861841 17.8045 0.861841 17.7007C0.861841 17.613 0.901741 17.5411 0.981541 17.4853C1.06134 17.4214 1.14114 17.3616 1.22094 17.3057C1.42044 17.1701 1.61995 17.0304 1.81945 16.8868C1.96309 16.7192 2.06284 16.5317 2.1187 16.3242C2.11072 16.1646 2.10673 16.0489 2.10673 15.9771C2.10673 15.9052 2.1187 15.8494 2.14264 15.8095C2.1586 15.7855 2.19451 15.7536 2.25037 15.7137C2.31421 15.6738 2.3581 15.6379 2.38204 15.606C2.44588 15.5262 2.4778 15.4185 2.4778 15.2828C2.4778 15.211 2.46982 15.1192 2.45386 15.0075C2.44588 14.8958 2.44189 14.8359 2.44189 14.8279C2.44189 14.6444 2.44987 14.4209 2.46583 14.1576C2.48977 13.8863 2.50174 13.7107 2.50174 13.6309C2.50174 13.4713 2.48977 13.2798 2.46583 13.0564C2.44987 12.8249 2.44189 12.6773 2.44189 12.6135C2.44189 12.414 2.4379 12.1506 2.42992 11.8234C2.42194 11.4963 2.41795 11.2289 2.41795 11.0214L2.38204 9.10623V7.72967C2.38204 7.65785 2.37805 7.55411 2.37007 7.41845C2.36209 7.27481 2.3581 7.16708 2.3581 7.09526C2.3581 6.97556 2.37805 6.80798 2.41795 6.59252C2.42593 6.54464 2.46184 6.45686 2.52568 6.32917C2.58952 6.19351 2.62144 6.08179 2.62144 5.99401C2.62942 5.88229 2.62144 5.78254 2.5975 5.69476C2.58154 5.599 2.5576 5.48329 2.52568 5.34763C2.49376 5.21197 2.45785 5.06035 2.41795 4.89277C2.40997 4.83691 2.40598 4.78504 2.40598 4.73716C2.40598 4.69726 2.40598 4.66932 2.40598 4.65336C2.40598 4.54962 2.40997 4.41795 2.41795 4.25835C2.43391 4.09875 2.44189 4.01097 2.44189 3.99501C2.44189 3.86733 2.4379 3.74763 2.42992 3.63591C2.42992 3.52419 2.40598 3.39252 2.3581 3.2409C2.3182 3.08928 2.2783 2.97356 2.2384 2.89376C2.20648 2.81396 2.14663 2.71022 2.05885 2.58254C2.01895 2.52668 1.97905 2.47082 1.93915 2.41496C1.85137 2.31122 1.7596 2.22743 1.66384 2.16359C1.63192 2.13965 1.58404 2.11172 1.52019 2.0798C1.41645 2.02394 1.3167 1.98803 1.22094 1.97207C1.13316 1.94813 1.04139 1.92419 0.945631 1.90025C0.857851 1.85237 0.79002 1.78454 0.74214 1.69676C0.69426 1.60898 0.68229 1.51721 0.70623 1.42144C0.72219 1.3576 0.7581 1.30174 0.81396 1.25386C0.837901 1.2379 0.885781 1.20598 0.957601 1.1581C1.0374 1.11022 1.10922 1.08229 1.17306 1.07431C1.2369 1.06633 1.3167 1.06234 1.41246 1.06234C1.48428 1.06234 1.54014 1.06234 1.58005 1.06234C1.72369 1.06234 1.85137 1.06633 1.96309 1.07431C2.08279 1.08229 2.20648 1.09426 2.33416 1.11022C2.46184 1.12618 2.58553 1.15012 2.70523 1.18204C2.83291 1.20598 2.93665 1.22593 3.01645 1.24189L3.57905 1.36159C3.76259 1.39352 3.89027 1.41746 3.96209 1.43341C4.03391 1.4414 4.10573 1.44539 4.17755 1.44539C4.28129 1.44539 4.38503 1.43342 4.48877 1.40948C4.60049 1.38554 4.72817 1.3576 4.87182 1.32568C5.04738 1.3177 5.22294 1.30573 5.3985 1.28977C5.4783 1.29775 5.54214 1.30174 5.59002 1.30174C5.6379 1.30174 5.74962 1.32169 5.92518 1.36159C5.997 1.37755 6.06483 1.38553 6.12867 1.38553C6.20847 1.39351 6.35211 1.40149 6.5596 1.40948C6.77506 1.41745 6.89077 1.42144 6.90673 1.42144L7.46932 1.44539H8.34314C8.51072 1.44539 8.65835 1.45736 8.78603 1.4813C8.91371 1.49726 9.07331 1.53716 9.26483 1.601C9.45635 1.64888 9.59999 1.69676 9.69576 1.74464C9.79152 1.79252 10.007 1.92419 10.3421 2.13965C10.414 2.18753 10.4898 2.2394 10.5696 2.29526C10.6893 2.39102 10.813 2.48678 10.9406 2.58254L11.3357 2.88179C11.4234 2.95361 11.5072 3.03341 11.587 3.12119C11.6668 3.201 11.7506 3.2808 11.8384 3.3606C11.9262 3.43242 11.99 3.49227 12.0299 3.54015C12.0778 3.58005 12.1257 3.6399 12.1736 3.7197C12.2294 3.79152 12.2733 3.89127 12.3052 4.01895C12.3372 4.13865 12.3651 4.24638 12.389 4.34214C12.413 4.42992 12.4409 4.52568 12.4728 4.62943C12.5047 4.73317 12.5247 4.8409 12.5327 4.95262C12.5247 5.08828 12.5207 5.18803 12.5207 5.25187C12.5207 5.32369 12.5247 5.39152 12.5327 5.45536C12.5406 5.51122 12.5726 5.60299 12.6284 5.73067C12.6843 5.85037 12.7202 5.95012 12.7362 6.02992C12.7521 6.10174 12.7601 6.1975 12.7601 6.31721C12.7601 6.42893 12.7641 6.5207 12.7721 6.59252C12.7401 6.86384 12.6603 7.10324 12.5327 7.31072C12.4209 7.5182 12.2813 7.6778 12.1137 7.78952C12.0579 7.82144 11.9701 7.85735 11.8504 7.89725C11.7307 7.92917 11.6349 7.96509 11.5631 8.00499C11.4992 8.03691 11.4554 8.06085 11.4314 8.07681C11.3756 8.12469 11.3317 8.1606 11.2997 8.18454C11.2678 8.20848 11.2199 8.26035 11.1561 8.34015C11.1002 8.41197 11.0603 8.45985 11.0364 8.48379C10.9805 8.52369 10.9047 8.56758 10.809 8.61546C10.7132 8.65536 10.6574 8.6793 10.6414 8.68728C10.6095 8.70324 10.5377 8.73117 10.4259 8.77107C10.3222 8.80299 10.2544 8.85087 10.2224 8.91471C10.1985 8.97057 10.1865 9.02643 10.1865 9.08229C10.1865 9.14613 10.1905 9.19401 10.1985 9.22593C10.2145 9.29775 10.2663 9.36558 10.3541 9.42942C10.4499 9.48528 10.5576 9.54913 10.6773 9.62095C10.8848 9.81247 11.0923 10 11.2997 10.1835C11.3476 10.2234 11.4274 10.2793 11.5391 10.3511C11.6509 10.415 11.7307 10.4788 11.7785 10.5426C11.8264 10.6065 11.8663 10.6783 11.8982 10.7581C11.9302 10.8379 11.9621 10.9177 11.994 10.9975C12.1137 11.197 12.2334 11.3965 12.3531 11.596C12.385 11.6758 12.413 11.7915 12.4369 11.9431C12.4608 12.0948 12.4808 12.2065 12.4968 12.2783L12.6524 12.9127C12.7002 13.0963 12.7441 13.2838 12.784 13.4753C12.8319 13.6589 12.8559 13.8703 12.8559 14.1097ZM10.0189 5.49127C10.0189 5.40349 10.0189 5.3197 10.0189 5.2399C10.0189 5.15212 10.0229 5.06434 10.0309 4.97656C10.0309 4.8808 10.0269 4.79701 10.0189 4.72519C10.011 4.65337 9.99102 4.57755 9.9591 4.49775C9.93516 4.40997 9.91521 4.34214 9.89925 4.29426C9.85935 4.18254 9.81945 4.07082 9.77955 3.9591C9.74763 3.84738 9.69576 3.74763 9.62393 3.65985C9.59201 3.61197 9.53216 3.55611 9.44438 3.49227C9.36458 3.42843 9.3167 3.38454 9.30074 3.3606L9.14513 3.12119C9.07331 3.01745 9.02942 2.95361 9.01346 2.92967C8.9576 2.85785 8.90174 2.80199 8.84588 2.76209C8.7182 2.66633 8.55062 2.5985 8.34314 2.5586L7.94812 2.52269C7.90024 2.52269 7.82842 2.5187 7.73266 2.51072C7.6369 2.50274 7.56109 2.49875 7.50523 2.49875C7.44937 2.49875 7.38154 2.51072 7.30174 2.53466C7.22194 2.55062 7.17007 2.5586 7.14613 2.5586C7.05037 2.5586 6.96259 2.55062 6.88279 2.53466C6.81097 2.5187 6.74713 2.50673 6.69127 2.49875C6.66733 2.49077 6.61546 2.47082 6.53566 2.4389C6.45586 2.399 6.38802 2.37905 6.33216 2.37905C6.18054 2.36309 6.00897 2.39102 5.81745 2.46284C5.63391 2.53466 5.4783 2.66633 5.35062 2.85785C5.27082 2.96957 5.21496 3.07731 5.18304 3.18105C5.15112 3.27681 5.13516 3.39651 5.13516 3.54015C5.13516 3.60399 5.15112 3.67581 5.18304 3.75561C5.25486 3.93915 5.29077 4.05885 5.29077 4.11471C5.29077 4.17057 5.27481 4.24239 5.24289 4.33017C5.21895 4.41795 5.20299 4.48578 5.19501 4.53366L5.07531 4.97656C5.03541 5.11222 5.00748 5.21596 4.99152 5.28778C4.98354 5.35162 4.97157 5.4394 4.95561 5.55112C4.95561 5.61496 4.95162 5.6788 4.94364 5.74264C4.94364 5.7985 4.94364 5.85436 4.94364 5.91022C4.94364 5.99002 4.94763 6.05785 4.95561 6.11371C4.97157 6.16957 5.00748 6.24937 5.06334 6.35312C5.1192 6.44888 5.15511 6.53267 5.17107 6.60449C5.19501 6.66833 5.21496 6.73217 5.23092 6.79601C5.24688 6.85985 5.25486 6.93167 5.25486 7.01147V7.40648C5.27082 7.54214 5.28279 7.64189 5.29077 7.70573C5.30673 7.76957 5.33865 7.8414 5.38653 7.9212C5.43441 8.001 5.49027 8.07282 5.55411 8.13666C5.62593 8.19252 5.76558 8.25636 5.97306 8.32818C6.06084 8.3601 6.13266 8.38005 6.18852 8.38803C6.25236 8.39601 6.32817 8.4 6.41596 8.4C6.58354 8.39202 6.71521 8.38803 6.81097 8.38803L7.52917 8.36409C7.64887 8.36409 7.73266 8.36409 7.78054 8.36409C7.9561 8.36409 8.10374 8.35212 8.22344 8.32818C8.34314 8.30424 8.45486 8.27631 8.5586 8.24439C8.66234 8.20449 8.7581 8.1606 8.84588 8.11272C8.93366 8.05686 9.02144 7.98504 9.10922 7.89725C9.14912 7.85735 9.22094 7.78155 9.32468 7.66982C9.3965 7.598 9.44438 7.55012 9.46832 7.52618C9.5162 7.4783 9.56009 7.42643 9.59999 7.37057C9.71172 7.22693 9.77556 7.13915 9.79152 7.10723C9.84738 7.01945 9.89127 6.91571 9.92319 6.79601C9.96309 6.67631 9.98304 6.53666 9.98304 6.37706C9.98304 6.26534 9.98304 6.17755 9.98304 6.11371L10.0189 5.49127ZM10.2823 13.212C10.2743 13.1481 10.2504 13.0683 10.2105 12.9726C10.1706 12.8688 10.1466 12.797 10.1386 12.7571C10.1067 12.6454 10.0788 12.5456 10.0549 12.4579C10.0389 12.3621 10.0269 12.2823 10.0189 12.2185L9.92319 11.8354C9.88329 11.6199 9.84339 11.4005 9.80349 11.1771C9.77157 11.0494 9.73965 10.9456 9.70773 10.8658C9.64389 10.7461 9.596 10.6504 9.56408 10.5786C9.4763 10.403 9.42044 10.2913 9.3965 10.2434C9.33266 10.1396 9.25286 10.0439 9.1571 9.95611C9.06134 9.86833 8.98553 9.80848 8.92967 9.77656C8.84189 9.7207 8.75411 9.67681 8.66633 9.64489C8.50673 9.58903 8.34713 9.5611 8.18753 9.5611C8.10773 9.5611 8.01197 9.57307 7.90024 9.59701C7.78852 9.61297 7.7167 9.62095 7.68478 9.62095C7.61296 9.61297 7.52917 9.58903 7.43341 9.54913C7.33765 9.50125 7.24987 9.47332 7.17007 9.46533C7.09825 9.44937 7.02244 9.4374 6.94264 9.42942C6.86284 9.41346 6.7591 9.40548 6.63142 9.40548C6.5197 9.40548 6.41197 9.40947 6.30822 9.41745C6.21246 9.41745 6.11271 9.43341 6.00897 9.46533C5.90523 9.49726 5.81346 9.54115 5.73366 9.59701C5.68578 9.62893 5.60598 9.69676 5.49426 9.8005C5.199 10.0878 5.05137 10.4349 5.05137 10.8419C5.05137 10.9297 5.07531 11.0414 5.12319 11.1771C5.17107 11.3127 5.19501 11.4204 5.19501 11.5002C5.19501 11.6439 5.17506 11.7835 5.13516 11.9192C5.09526 12.0469 5.06733 12.1387 5.05137 12.1945C4.93167 12.418 4.8399 12.5815 4.77605 12.6853C4.72019 12.789 4.69226 12.8928 4.69226 12.9965C4.69226 13.0763 4.69625 13.1322 4.70423 13.1641C4.71221 13.212 4.74812 13.2958 4.81196 13.4155C4.82793 13.4633 4.87581 13.5272 4.95561 13.607C5.03541 13.6868 5.08728 13.7626 5.11122 13.8344C5.13516 13.9062 5.14713 13.9781 5.14713 14.0499C5.14713 14.1057 5.13915 14.1815 5.12319 14.2773C5.11521 14.3731 5.11122 14.4249 5.11122 14.4329C5.11122 14.5367 5.10324 14.6324 5.08728 14.7202C5.0793 14.8 5.05536 14.9037 5.01546 15.0314C4.95162 15.191 4.89177 15.3506 4.83591 15.5102C4.82793 15.5501 4.82394 15.61 4.82394 15.6898C4.82394 15.8175 4.85985 15.9491 4.93167 16.0848C4.97955 16.1726 5.05935 16.2484 5.17107 16.3122C5.28279 16.3681 5.37057 16.412 5.43441 16.4439L5.85336 16.6234C6.02094 16.6873 6.16458 16.7352 6.28428 16.7671C6.40399 16.799 6.55162 16.8309 6.72718 16.8628C6.79102 16.8708 6.8788 16.8788 6.99052 16.8868C7.10224 16.8948 7.20199 16.8988 7.28977 16.8988C7.39351 16.8988 7.49725 16.8988 7.60099 16.8988C7.71271 16.8988 7.82842 16.8948 7.94812 16.8868C8.24339 16.8868 8.53466 16.8389 8.82194 16.7431C8.94962 16.6953 9.04139 16.6594 9.09725 16.6354C9.20099 16.5875 9.28877 16.5317 9.36059 16.4678C9.43241 16.404 9.50024 16.3282 9.56408 16.2404C9.596 16.1925 9.64787 16.1007 9.7197 15.9651C9.7596 15.8693 9.79551 15.7496 9.82743 15.606C9.86733 15.4623 9.90324 15.3546 9.93516 15.2828C9.96708 15.211 10.003 15.1272 10.0429 15.0314C10.0509 15.0075 10.0588 14.9676 10.0668 14.9117C10.0668 14.8718 10.0708 14.8319 10.0788 14.792C10.0788 14.7521 10.0788 14.7122 10.0788 14.6723C10.0708 14.6005 10.0628 14.5247 10.0549 14.4449C10.0549 14.413 10.0628 14.3571 10.0788 14.2773C10.0948 14.1975 10.1267 14.1097 10.1746 14.014C10.2224 13.9102 10.2544 13.8105 10.2703 13.7147C10.2863 13.619 10.2943 13.5152 10.2943 13.4035C10.2943 13.3237 10.2903 13.2598 10.2823 13.212Z" fill="#212121"/>
<path d="M21.4187 17.2818C21.3867 17.3456 21.3309 17.4135 21.2511 17.4853C21.1713 17.5491 21.1074 17.601 21.0596 17.6409C20.9319 17.7367 20.8122 17.8125 20.7005 17.8683C20.5967 17.9242 20.477 17.9681 20.3413 18C20.2137 18.0319 20.086 18.0479 19.9583 18.0479C19.7907 18.0399 19.6591 18.0359 19.5633 18.0359C19.2601 18.0359 18.9688 17.9721 18.6895 17.8444C18.6496 17.8284 18.5778 17.7766 18.474 17.6888C18.3783 17.593 18.2905 17.5451 18.2107 17.5451C18.1389 17.5451 18.075 17.5611 18.0192 17.593C17.9234 17.6569 17.8276 17.7207 17.7319 17.7845C17.6601 17.8165 17.5763 17.8564 17.4805 17.9042C17.3927 17.9441 17.289 17.9761 17.1693 18C17.0496 18.0239 16.9379 18.0359 16.8341 18.0359C16.7463 18.0359 16.6306 18.0279 16.487 18.012C16.3433 18.004 16.2596 18 16.2356 18C16.092 18 15.9842 18 15.9124 18C15.7927 18 15.681 17.992 15.5773 17.9761C15.4735 17.9521 15.3698 17.9082 15.266 17.8444C15.1703 17.7805 15.0905 17.7087 15.0266 17.6289C14.9468 17.5012 14.879 17.4015 14.8231 17.3297C14.7673 17.2499 14.7074 17.1661 14.6436 17.0783C14.5798 16.9825 14.5438 16.8788 14.5359 16.7671C14.5359 16.7032 14.5438 16.6274 14.5598 16.5396C14.5837 16.4439 14.5957 16.38 14.5957 16.3481C14.5957 16.2524 14.5997 16.1247 14.6077 15.9651C14.6157 15.7975 14.6197 15.6658 14.6197 15.5701L14.6795 15.0673C14.7274 14.8678 14.7673 14.7282 14.7992 14.6484C14.8311 14.5686 14.9029 14.4688 15.0147 14.3491C15.0625 14.2933 15.1344 14.2334 15.2301 14.1696C15.3259 14.1057 15.3937 14.0539 15.4336 14.014C15.5134 13.9262 15.5932 13.8424 15.673 13.7626C15.7608 13.6748 15.8965 13.599 16.08 13.5352C16.2715 13.4713 16.4032 13.4234 16.475 13.3915C16.5867 13.3357 16.7104 13.2678 16.8461 13.188C16.9259 13.1401 17.0296 13.0763 17.1573 12.9965C17.293 12.9087 17.4127 12.8289 17.5164 12.7571C17.6281 12.6853 17.7319 12.5975 17.8276 12.4938C17.9793 12.3342 18.083 12.2105 18.1389 12.1227C18.2027 12.0269 18.2625 11.8992 18.3184 11.7396C18.3822 11.58 18.4261 11.4204 18.4501 11.2608C18.474 11.1012 18.486 10.9416 18.486 10.782C18.486 10.7022 18.49 10.6264 18.498 10.5546C18.5059 10.4748 18.5139 10.399 18.5219 10.3272C18.5219 10.2075 18.49 10.0997 18.4261 10.004C18.3623 9.90823 18.2825 9.83242 18.1867 9.77656C18.099 9.71272 17.9992 9.6808 17.8875 9.6808C17.7917 9.6808 17.692 9.70873 17.5882 9.76459C17.4925 9.82045 17.4007 9.87232 17.3129 9.9202C17.1214 10.0319 16.9339 10.1396 16.7503 10.2434C16.6546 10.2833 16.5468 10.3152 16.4271 10.3392C16.3074 10.3631 16.1798 10.387 16.0441 10.411C15.9084 10.4269 15.7608 10.4469 15.6012 10.4708C15.5214 10.4708 15.4376 10.4549 15.3498 10.4229C15.262 10.383 15.1822 10.3392 15.1104 10.2913C15.0466 10.2434 15.0027 10.1795 14.9788 10.0997C14.9548 10.0199 14.9588 9.93616 14.9907 9.84838C15.1104 9.6808 15.1982 9.55312 15.2541 9.46533C15.3418 9.32967 15.4376 9.21396 15.5413 9.1182C15.5972 9.06234 15.7169 8.97057 15.9005 8.84289C16.092 8.70723 16.2596 8.5995 16.4032 8.5197C16.5468 8.4399 16.7224 8.37606 16.9299 8.32818C17.1374 8.27232 17.3967 8.24439 17.7079 8.24439C17.9713 8.24439 18.2067 8.27232 18.4142 8.32818C18.6216 8.38404 18.8531 8.47581 19.1084 8.60349C19.3079 8.69925 19.4396 8.76708 19.5034 8.80698C19.6231 8.8788 19.7269 8.97855 19.8147 9.10623C19.9104 9.22593 19.9862 9.37356 20.0421 9.54913C20.066 9.62095 20.1059 9.78454 20.1618 10.0399C20.2177 10.2953 20.2456 10.5426 20.2456 10.782C20.2456 10.8618 20.2416 10.9895 20.2336 11.1651C20.2256 11.3406 20.2216 11.4843 20.2216 11.596L20.2456 13.3317C20.2456 13.4753 20.2416 13.6668 20.2336 13.9062C20.2256 14.1456 20.2216 14.3411 20.2216 14.4928C20.2216 14.5965 20.1977 14.7401 20.1498 14.9237C20.1099 15.1072 20.09 15.2309 20.09 15.2948C20.09 15.3586 20.094 15.4105 20.1019 15.4504C20.1498 15.6898 20.1937 15.8494 20.2336 15.9292C20.2815 16.009 20.3573 16.0888 20.4611 16.1686C20.5169 16.2085 20.6047 16.2524 20.7244 16.3002C20.8441 16.3401 20.9399 16.3721 21.0117 16.396C21.0835 16.4199 21.1513 16.4439 21.2152 16.4678C21.279 16.4918 21.3349 16.5317 21.3827 16.5875C21.4625 16.6913 21.5024 16.807 21.5024 16.9347C21.5024 17.0224 21.4745 17.1382 21.4187 17.2818ZM18.4261 16.0848C18.4501 16.0209 18.462 15.9611 18.462 15.9052C18.462 15.8574 18.4541 15.8015 18.4381 15.7377C18.4221 15.6738 18.4022 15.598 18.3783 15.5102C18.3543 15.4224 18.3304 15.3227 18.3064 15.211C18.3064 15.1711 18.3264 15.1192 18.3663 15.0554C18.4062 14.9915 18.4261 14.9357 18.4261 14.8878C18.4261 14.8239 18.4022 14.7521 18.3543 14.6723C18.3064 14.5925 18.2785 14.5327 18.2705 14.4928C18.2625 14.413 18.2705 14.3212 18.2945 14.2175C18.3184 14.1137 18.3304 14.0459 18.3304 14.014C18.3384 13.9661 18.3423 13.8983 18.3423 13.8105C18.3423 13.7626 18.3384 13.7227 18.3304 13.6908C18.2985 13.5312 18.2546 13.4274 18.1987 13.3795C18.1508 13.3237 18.095 13.2958 18.0311 13.2958C17.9433 13.2958 17.8356 13.3596 17.7079 13.4873C17.5164 13.6788 17.4047 13.7865 17.3728 13.8105C17.2291 13.9142 17.1294 13.99 17.0735 14.0379C16.9778 14.1177 16.898 14.2095 16.8341 14.3132C16.7463 14.4728 16.6825 14.6324 16.6426 14.792C16.6027 14.9516 16.5748 15.0713 16.5588 15.1511C16.5508 15.2229 16.5468 15.3027 16.5468 15.3905C16.5468 15.4384 16.5548 15.5342 16.5708 15.6778C16.5867 15.8135 16.6027 15.9172 16.6187 15.989C16.6426 16.0529 16.6945 16.1327 16.7743 16.2284C16.9179 16.404 17.0975 16.5037 17.3129 16.5277C17.4486 16.5516 17.5683 16.5436 17.672 16.5037C17.7837 16.4559 17.8635 16.4239 17.9114 16.408C18.087 16.3362 18.1867 16.2963 18.2107 16.2883C18.3144 16.2404 18.3862 16.1726 18.4261 16.0848Z" fill="#212121"/>
<path d="M29.3534 8.98653C29.3694 9.02643 29.3694 9.08628 29.3534 9.16608C29.3375 9.24588 29.3295 9.29775 29.3295 9.32169C29.3295 9.40947 29.3295 9.47731 29.3295 9.52519C29.3295 9.66085 29.3175 9.77257 29.2936 9.86035C29.2457 10.0598 29.1659 10.2274 29.0542 10.3631C28.8946 10.5706 28.707 10.6903 28.4916 10.7222C28.4596 10.7302 28.4118 10.7342 28.3479 10.7342C28.2681 10.7342 28.1843 10.7222 28.0966 10.6983C28.0168 10.6743 27.9489 10.6544 27.8931 10.6384C27.7734 10.5985 27.6816 10.5666 27.6178 10.5426C27.5619 10.5187 27.506 10.4828 27.4502 10.4349C27.4023 10.387 27.3584 10.3112 27.3185 10.2075C27.2786 10.0958 27.2387 10.0199 27.1988 9.98005C27.1589 9.93217 27.115 9.88429 27.0671 9.83641C27.0192 9.78853 26.9634 9.76459 26.8995 9.76459C26.8596 9.77257 26.7918 9.83242 26.6961 9.94414C26.6322 10.016 26.5883 10.0638 26.5644 10.0878C26.5165 10.1357 26.4806 10.1875 26.4567 10.2434C26.4088 10.3312 26.3769 10.4389 26.3609 10.5666C26.3449 10.6863 26.337 10.7581 26.337 10.782C26.337 10.8539 26.3449 10.9456 26.3609 11.0574C26.3848 11.1611 26.3968 11.2289 26.3968 11.2608L26.3609 11.7995L26.301 12.6733L26.2771 13.2718V14.5526C26.2771 14.7122 26.2731 14.8598 26.2651 14.9955C26.2572 15.1312 26.2492 15.2628 26.2412 15.3905C26.2412 15.4703 26.2452 15.5541 26.2532 15.6419C26.2611 15.7217 26.2771 15.8095 26.301 15.9052C26.325 15.993 26.3489 16.0768 26.3729 16.1566C26.4048 16.2364 26.4447 16.3202 26.4926 16.408C26.5484 16.4958 26.6522 16.5875 26.8038 16.6833C26.9554 16.7711 27.0591 16.8509 27.115 16.9227C27.1788 16.9945 27.2427 17.0703 27.3065 17.1501C27.3704 17.2219 27.3943 17.3057 27.3784 17.4015C27.3784 17.5292 27.2985 17.6369 27.1389 17.7247C27.0751 17.7646 27.0033 17.7845 26.9235 17.7845C26.8118 17.7686 26.724 17.7606 26.6601 17.7606H25.8582H25.3195C25.2397 17.7606 25.1639 17.7606 25.0921 17.7606C25.0761 17.7606 24.9524 17.7805 24.721 17.8204C24.6412 17.8284 24.5534 17.8484 24.4577 17.8803C24.3699 17.9042 24.2981 17.9242 24.2422 17.9401C24.1943 17.9481 24.1185 17.9681 24.0148 18C23.911 18.0399 23.8272 18.0598 23.7634 18.0598C23.6437 18.0758 23.524 18.0918 23.4043 18.1077C23.3404 18.1077 23.2806 18.0918 23.2247 18.0598C23.121 17.996 23.0532 17.9122 23.0212 17.8085C22.9973 17.6968 22.9853 17.6289 22.9853 17.605C22.9853 17.4853 23.0332 17.3576 23.129 17.2219C23.1769 17.1581 23.2487 17.1022 23.3444 17.0544C23.4402 17.0065 23.508 16.9706 23.5479 16.9466C23.7075 16.8668 23.8192 16.811 23.8831 16.7791C24.0028 16.7152 24.0906 16.6394 24.1464 16.5516C24.2103 16.4638 24.2462 16.3481 24.2542 16.2045C24.2701 16.0608 24.2821 15.9411 24.2901 15.8454C24.306 15.7496 24.314 15.6738 24.314 15.618C24.314 15.5541 24.314 15.5102 24.314 15.4863C24.314 15.3506 24.314 15.2349 24.314 15.1392C24.314 15.0354 24.322 14.9197 24.338 14.792C24.3619 14.6564 24.3898 14.4968 24.4217 14.3132C24.4138 14.2414 24.3818 14.1576 24.326 14.0618C24.2781 13.9581 24.2502 13.8823 24.2422 13.8344C24.2342 13.8025 24.2302 13.7746 24.2302 13.7506C24.2302 13.7107 24.2302 13.6828 24.2302 13.6668C24.2302 13.595 24.2382 13.5112 24.2542 13.4155C24.2701 13.3117 24.2861 13.212 24.302 13.1162C24.302 13.0284 24.31 12.9167 24.326 12.781C24.3499 12.6374 24.3619 12.5496 24.3619 12.5177C24.3619 12.3741 24.3579 12.2464 24.3499 12.1347C24.3419 12.015 24.326 11.8953 24.302 11.7756C24.2861 11.6479 24.2701 11.5441 24.2542 11.4643C24.2382 11.3845 24.2103 11.2928 24.1704 11.189C24.1384 11.0773 24.1065 10.9696 24.0746 10.8658C24.0267 10.7621 23.9669 10.6823 23.8951 10.6264C23.8312 10.5626 23.7394 10.5227 23.6197 10.5067C23.5 10.4828 23.4043 10.4549 23.3325 10.4229C23.2686 10.391 23.2008 10.3591 23.129 10.3272C23.0572 10.2873 23.0093 10.2394 22.9853 10.1835C22.9614 10.1197 22.9494 10.0638 22.9494 10.016C22.9494 9.91222 22.9893 9.8005 23.0691 9.6808C23.125 9.601 23.2008 9.54514 23.2966 9.51322C23.4003 9.47332 23.504 9.4374 23.6078 9.40548L24.2422 9.20199C24.3938 9.14613 24.4776 9.11421 24.4936 9.10623C24.5813 9.06633 24.6651 9.02643 24.7449 8.98653C24.8806 8.92269 25.0043 8.85087 25.116 8.77107C25.2596 8.65935 25.3754 8.57157 25.4631 8.50773C25.4871 8.49177 25.5509 8.43192 25.6547 8.32818C25.7265 8.25636 25.7943 8.21646 25.8582 8.20848C25.9539 8.2005 26.0297 8.20848 26.0856 8.23242C26.1494 8.25636 26.2053 8.31222 26.2532 8.4C26.301 8.48778 26.3489 8.54364 26.3968 8.56758C26.4846 8.63142 26.5724 8.66334 26.6601 8.66334C26.732 8.66334 26.7918 8.64738 26.8397 8.61546C26.9275 8.55162 27.0192 8.48778 27.115 8.42394C27.2826 8.34414 27.4302 8.28828 27.5579 8.25636C27.6856 8.22444 27.7933 8.2005 27.8811 8.18454C27.9769 8.1606 28.0606 8.14863 28.1325 8.14863C28.2282 8.14863 28.316 8.16459 28.3958 8.19651C28.4197 8.20449 28.4995 8.24838 28.6352 8.32818C28.707 8.36808 28.7749 8.42793 28.8387 8.50773C28.9105 8.57955 28.9823 8.65137 29.0542 8.72319C29.0701 8.73915 29.118 8.77506 29.1978 8.83092C29.2856 8.88678 29.3375 8.93865 29.3534 8.98653Z" fill="#212121"/>
<path d="M41.2119 17.7247C41.188 17.8603 41.1162 17.9721 40.9965 18.0598C40.9486 18.0997 40.8808 18.1197 40.793 18.1197C40.7451 18.1197 40.6693 18.1077 40.5656 18.0838C40.4698 18.0678 40.406 18.0598 40.374 18.0598C40.2464 18.0598 40.1586 18.0559 40.1107 18.0479C39.967 18.016 39.8234 17.988 39.6798 17.9641L38.6025 17.8803L38.1835 17.8444C38.0957 17.8444 37.984 17.8603 37.8483 17.8923C37.7207 17.9162 37.6129 17.9362 37.5252 17.9521C37.4453 17.9681 37.3456 17.984 37.2259 18C37.1062 17.992 36.9985 17.9441 36.9027 17.8564C36.8069 17.7606 36.7511 17.6768 36.7351 17.605C36.7192 17.5332 36.7112 17.4653 36.7112 17.4015C36.7112 17.3536 36.7192 17.2898 36.7351 17.21C36.7591 17.1302 36.775 17.0743 36.783 17.0424C36.8468 16.8908 36.9147 16.7392 36.9865 16.5875L37.0224 16.2643C37.0144 16.1606 36.9785 16.0648 36.9147 15.9771C36.8588 15.8813 36.803 15.7895 36.7471 15.7017C36.6992 15.606 36.6394 15.5062 36.5675 15.4025C36.4957 15.2908 36.4359 15.199 36.388 15.1272C36.3002 14.9835 36.2364 14.8798 36.1965 14.816C36.1566 14.7441 36.0927 14.6524 36.005 14.5406C35.9172 14.4209 35.8294 14.3012 35.7416 14.1815C35.6538 14.0618 35.566 13.9661 35.4783 13.8943C35.3905 13.8224 35.3266 13.7706 35.2867 13.7387C35.2149 13.6828 35.1431 13.6549 35.0713 13.6549C34.9995 13.6549 34.9436 13.6628 34.9037 13.6788C34.8558 13.6948 34.772 13.7466 34.6523 13.8344C34.5007 13.9701 34.401 14.1416 34.3531 14.3491C34.3371 14.4289 34.3411 14.5287 34.3651 14.6484C34.397 14.7681 34.4129 14.8479 34.4129 14.8878C34.4129 14.9596 34.4169 15.0274 34.4249 15.0913C34.4329 15.1551 34.4409 15.219 34.4488 15.2828C34.4488 15.3466 34.4369 15.4145 34.4129 15.4863C34.3172 15.59 34.2573 15.6818 34.2334 15.7616C34.2094 15.8414 34.1975 15.9132 34.1975 15.9771C34.1975 16.0409 34.2094 16.1087 34.2334 16.1805C34.2573 16.2444 34.2892 16.3042 34.3291 16.3601C34.369 16.408 34.4129 16.4678 34.4608 16.5396C34.5087 16.6035 34.5606 16.6713 34.6164 16.7431C34.6723 16.807 34.7242 16.8668 34.772 16.9227C34.8838 17.0264 34.9955 17.1262 35.1072 17.2219C35.1631 17.2938 35.2189 17.3656 35.2748 17.4374C35.3386 17.5012 35.3705 17.5771 35.3705 17.6648C35.3705 17.8324 35.3227 17.9561 35.2269 18.0359C35.195 18.0598 35.0952 18.0798 34.9276 18.0958H34.4728L33.9341 18.0598L33.5511 18C33.4473 18 33.3237 18.004 33.18 18.012C33.0364 18.0279 32.9606 18.0359 32.9526 18.0359C32.777 18.0279 32.6454 18.0239 32.5576 18.0239C32.4618 18.0239 32.382 18.0279 32.3182 18.0359C32.2783 18.0359 32.1865 18.0559 32.0429 18.0958C31.987 18.1117 31.9311 18.1197 31.8753 18.1197C31.8114 18.1197 31.7675 18.1197 31.7436 18.1197C31.6239 18.1197 31.5122 18.1037 31.4084 18.0718C31.3047 18.0399 31.2369 18.016 31.205 18C31.1571 17.9761 31.0892 17.9322 31.0015 17.8683C30.9217 17.8045 30.8738 17.7367 30.8578 17.6648C30.8419 17.593 30.8658 17.5292 30.9296 17.4733C30.9935 17.4095 31.0613 17.3377 31.1331 17.2579C31.205 17.1781 31.2608 17.1142 31.3007 17.0663C31.3725 16.9865 31.4444 16.9267 31.5162 16.8868C31.6439 16.8389 31.7715 16.791 31.8992 16.7431C31.995 16.6793 32.0708 16.5915 32.1266 16.4798C32.1825 16.3681 32.2104 16.2524 32.2104 16.1327C32.1945 15.997 32.1865 15.8893 32.1865 15.8095C32.1945 15.7616 32.1985 15.7217 32.1985 15.6898L32.2942 15.1511L32.3182 14.7322C32.3182 14.6524 32.3062 14.5566 32.2823 14.4449C32.2663 14.3332 32.2583 14.2613 32.2583 14.2294C32.2583 14.1257 32.2623 14.0459 32.2703 13.99C32.2863 13.9262 32.3022 13.8544 32.3182 13.7746L32.4379 13.1162C32.4698 12.9327 32.5017 12.7451 32.5336 12.5536C32.5336 12.402 32.5256 12.2304 32.5097 12.0389C32.5017 11.8394 32.4977 11.7317 32.4977 11.7157C32.4977 11.6359 32.5017 11.5441 32.5097 11.4404C32.5256 11.3287 32.5336 11.2688 32.5336 11.2608C32.5257 11.189 32.4977 11.1012 32.4498 10.9975C32.4099 10.8938 32.382 10.806 32.3661 10.7342C32.3581 10.6544 32.3541 10.5347 32.3541 10.3751C32.3541 10.2155 32.3541 10.0838 32.3541 9.98005C32.3541 9.78853 32.3621 9.5611 32.378 9.29775C32.402 9.03441 32.4139 8.87082 32.4139 8.80698L32.4379 7.94514C32.4379 7.86533 32.4419 7.77357 32.4498 7.66982C32.4658 7.5581 32.4738 7.49825 32.4738 7.49027C32.4658 7.43441 32.4458 7.36658 32.4139 7.28678C32.382 7.199 32.3621 7.14713 32.3541 7.13117C32.3381 7.06733 32.3182 6.99152 32.2942 6.90374C32.2703 6.80798 32.2583 6.70424 32.2583 6.59252C32.2663 6.54464 32.2783 6.49277 32.2942 6.43691C32.3102 6.38105 32.3341 6.30124 32.3661 6.1975C32.406 6.08578 32.4498 5.9581 32.4977 5.81446C32.4977 5.7586 32.4778 5.69476 32.4379 5.62294C32.4059 5.54314 32.386 5.48728 32.378 5.45536C32.37 5.39152 32.37 5.32369 32.378 5.25187C32.386 5.18005 32.394 5.10823 32.402 5.03641C32.402 4.97257 32.39 4.91272 32.3661 4.85686C32.3501 4.801 32.3062 4.73715 32.2344 4.66533C32.1705 4.59351 32.1147 4.53765 32.0668 4.49775C32.0269 4.44987 31.9591 4.398 31.8633 4.34214C31.7675 4.2783 31.6997 4.23042 31.6598 4.1985C31.58 4.12668 31.5321 4.08279 31.5162 4.06683C31.4763 4.01895 31.4404 3.97107 31.4084 3.92319C31.3765 3.87531 31.3526 3.83142 31.3366 3.79152C31.2887 3.71172 31.2688 3.6399 31.2768 3.57606C31.2768 3.51222 31.2927 3.46035 31.3247 3.42045C31.3406 3.40449 31.4244 3.34464 31.576 3.2409C31.6478 3.19302 31.7276 3.1611 31.8154 3.14514C31.9032 3.12918 31.991 3.11322 32.0788 3.09726L32.6773 2.91771C32.8209 2.86184 32.9606 2.80199 33.0962 2.73815C33.1521 2.71421 33.2798 2.64638 33.4793 2.53466C33.6788 2.42294 33.7905 2.3591 33.8144 2.34314C33.9421 2.26334 34.0419 2.18753 34.1137 2.11571C34.1855 2.03591 34.2533 1.92419 34.3172 1.78055C34.389 1.63691 34.4409 1.54514 34.4728 1.50524C34.5366 1.38553 34.5885 1.29376 34.6284 1.22992C34.6763 1.1581 34.7441 1.12219 34.8319 1.12219C34.9276 1.10623 35.0074 1.12219 35.0713 1.17007C35.1431 1.20997 35.199 1.26583 35.2389 1.33766C35.2788 1.40948 35.2987 1.4813 35.2987 1.55312C35.2987 1.601 35.2907 1.65686 35.2748 1.7207C35.2588 1.77656 35.2389 1.85636 35.2149 1.9601C35.199 2.06384 35.175 2.1596 35.1431 2.24738C35.0872 2.38304 35.0434 2.48678 35.0114 2.5586C34.9077 2.74214 34.8079 2.92169 34.7122 3.09726C34.7042 3.1212 34.6922 3.16908 34.6763 3.2409C34.6603 3.30474 34.6523 3.35661 34.6523 3.39651C34.6523 3.44439 34.6563 3.50025 34.6643 3.56409C34.6803 3.61995 34.6962 3.68379 34.7122 3.75561C34.7122 3.80349 34.7162 3.86334 34.7242 3.93516C34.7321 3.999 34.7361 4.06683 34.7361 4.13865C34.7361 4.18653 34.7281 4.25835 34.7122 4.35411C34.7042 4.44189 34.6882 4.5217 34.6643 4.59352C34.6404 4.65736 34.6164 4.72917 34.5925 4.80898C34.5765 4.88878 34.5606 4.96459 34.5446 5.03641C34.5366 5.10025 34.5326 5.19202 34.5326 5.31172C34.5326 5.36758 34.5486 5.45137 34.5805 5.56309C34.6124 5.66683 34.6284 5.74264 34.6284 5.79052C34.6284 5.88628 34.6244 5.96209 34.6164 6.01795C34.5845 6.23342 34.5685 6.35711 34.5685 6.38903V6.71222C34.5685 6.76808 34.5566 6.8399 34.5326 6.92768C34.5167 7.01546 34.5087 7.07531 34.5087 7.10723C34.5087 7.13915 34.5286 7.22294 34.5685 7.3586C34.5845 7.41446 34.5925 7.47032 34.5925 7.52618C34.6084 7.60598 34.6164 7.70972 34.6164 7.83741C34.6164 7.96509 34.6204 8.06883 34.6284 8.14863C34.6284 8.27631 34.6244 8.36409 34.6164 8.41197C34.5845 8.55561 34.5566 8.69925 34.5326 8.84289L34.5087 9.34563V9.76459C34.5087 9.85237 34.5087 9.93217 34.5087 10.004C34.5087 10.0678 34.5127 10.1476 34.5207 10.2434C34.5366 10.3312 34.5606 10.4269 34.5925 10.5307C34.6324 10.6264 34.6523 10.7022 34.6523 10.7581C34.6603 10.8219 34.6603 10.8858 34.6523 10.9496C34.6444 11.0055 34.6364 11.0613 34.6284 11.1172C34.5965 11.3007 34.5646 11.4843 34.5326 11.6678C34.5326 11.7955 34.5646 11.8913 34.6284 11.9551C34.6922 12.011 34.78 12.0389 34.8917 12.0389C34.9715 12.0389 35.0434 12.015 35.1072 11.9671C35.179 11.9112 35.2468 11.8554 35.3107 11.7995C35.4463 11.7117 35.5621 11.6239 35.6578 11.5362C35.6977 11.4963 35.8015 11.3845 35.969 11.201C36.0568 11.1052 36.1646 10.9736 36.2922 10.806C36.4199 10.6384 36.5237 10.5027 36.6035 10.399L36.9626 9.9202C36.9705 9.90424 37.0264 9.8404 37.1301 9.72868C37.202 9.64888 37.2459 9.57307 37.2618 9.50125C37.2698 9.47731 37.2738 9.45336 37.2738 9.42942C37.2738 9.3975 37.2738 9.37755 37.2738 9.36957C37.2738 9.26583 37.2538 9.17007 37.2139 9.08229C37.182 8.99451 37.1261 8.91471 37.0463 8.84289C36.9745 8.77107 36.9266 8.71122 36.9027 8.66334C36.8708 8.61546 36.8429 8.56359 36.8189 8.50773C36.795 8.45187 36.791 8.39202 36.8069 8.32818C36.8309 8.24838 36.8867 8.19252 36.9745 8.1606C37.0703 8.12868 37.1461 8.10474 37.202 8.08878C37.2658 8.07282 37.3137 8.06484 37.3456 8.06484C37.4174 8.06484 37.5132 8.08479 37.6329 8.12469C37.7606 8.15661 37.8723 8.18055 37.968 8.19651C38.0638 8.20449 38.2074 8.20848 38.399 8.20848C38.5905 8.20848 38.778 8.20848 38.9616 8.20848L39.5601 8.26833C39.7197 8.28429 39.8473 8.29626 39.9431 8.30424C40.0389 8.31222 40.1306 8.33217 40.2184 8.36409C40.3062 8.39601 40.394 8.42793 40.4818 8.45985C40.5695 8.49177 40.6214 8.54763 40.6374 8.62743C40.6533 8.70723 40.6374 8.78304 40.5895 8.85486C40.5416 8.9187 40.5097 8.96259 40.4937 8.98653C40.4379 9.06633 40.3381 9.13416 40.1945 9.19002C40.0508 9.24588 39.9471 9.29376 39.8833 9.33366C39.8274 9.37356 39.7476 9.44538 39.6439 9.54913C39.5401 9.64489 39.4643 9.70873 39.4164 9.74065L38.9616 9.94414C38.9057 9.97606 38.8179 10.0439 38.6982 10.1476C38.5865 10.2434 38.4947 10.3152 38.4229 10.3631L37.7406 10.818C37.6369 10.8818 37.5331 10.9496 37.4294 11.0214C37.3336 11.0853 37.2498 11.1531 37.178 11.2249C37.1062 11.2968 37.0583 11.3446 37.0344 11.3686C36.9466 11.4564 36.8907 11.5362 36.8668 11.608C36.8508 11.6798 36.8429 11.7317 36.8429 11.7636C36.8429 11.8274 36.8548 11.8992 36.8788 11.979C36.9027 12.0509 36.9306 12.1227 36.9626 12.1945C37.0104 12.3621 37.0863 12.5297 37.19 12.6973C37.2937 12.8569 37.3975 13.0165 37.5012 13.1761C37.6129 13.4075 37.6887 13.5711 37.7286 13.6668C37.7765 13.7546 37.8683 13.9102 38.004 14.1337C38.0439 14.2055 38.1077 14.3092 38.1955 14.4449C38.2833 14.5726 38.3591 14.6803 38.4229 14.7681C38.5346 14.9197 38.6304 15.0434 38.7102 15.1392C38.798 15.2269 38.8937 15.3227 38.9975 15.4264C39.1172 15.5781 39.205 15.6858 39.2608 15.7496C39.4045 15.9252 39.5641 16.0968 39.7396 16.2643C39.8833 16.392 40.0149 16.5037 40.1346 16.5995C40.398 16.799 40.5376 16.9067 40.5536 16.9227C40.6972 17.0105 40.797 17.0703 40.8528 17.1022C40.9566 17.1661 41.0404 17.2579 41.1042 17.3776C41.176 17.4973 41.2119 17.613 41.2119 17.7247Z" fill="#212121"/>
<path d="M46.9192 3.39651C46.9192 3.50025 46.8793 3.61995 46.7995 3.75561C46.7756 3.79551 46.7396 3.8394 46.6918 3.88728C46.6439 3.93516 46.612 3.97107 46.596 3.99501L46.4763 4.1985C46.4444 4.23042 46.4005 4.26234 46.3446 4.29426C46.2888 4.32618 46.2329 4.35411 46.1771 4.37805C46.0813 4.44189 45.9895 4.50174 45.9017 4.5576C45.8539 4.57356 45.7541 4.57356 45.6025 4.5576C45.4668 4.5576 45.3312 4.53765 45.1955 4.49775C45.0678 4.45785 44.988 4.43391 44.9561 4.42593C44.8683 4.39401 44.8005 4.34613 44.7526 4.28229C44.7047 4.21845 44.6728 4.1586 44.6568 4.10274C44.6489 4.04688 44.6329 3.94713 44.609 3.80349C44.585 3.65985 44.5731 3.57606 44.5731 3.55212C44.5651 3.49626 44.5611 3.41646 44.5611 3.31272C44.5611 3.17706 44.5771 3.05736 44.609 2.95362C44.6489 2.84987 44.6808 2.77007 44.7047 2.71421C44.7287 2.65835 44.7646 2.61047 44.8125 2.57057C44.8683 2.52269 44.9282 2.48678 44.992 2.46284C45.0559 2.4389 45.1197 2.41895 45.1835 2.40299C45.2554 2.38703 45.3272 2.37905 45.399 2.37905C45.4708 2.37905 45.5307 2.37905 45.5785 2.37905C45.6982 2.37905 45.786 2.38304 45.8419 2.39102C45.8818 2.399 45.9656 2.42294 46.0933 2.46284C46.2289 2.50274 46.3087 2.53067 46.3327 2.54663C46.3486 2.55461 46.3925 2.58653 46.4643 2.64239C46.5362 2.69027 46.588 2.73815 46.6199 2.78603C46.6439 2.81795 46.6798 2.87381 46.7277 2.95362C46.7756 3.03341 46.8194 3.10923 46.8593 3.18105C46.8992 3.24489 46.9192 3.31671 46.9192 3.39651ZM47.6374 17.7606C47.6135 17.7925 47.5736 17.8244 47.5177 17.8564C47.4698 17.8883 47.41 17.9162 47.3381 17.9401C47.2663 17.9561 47.1985 17.9641 47.1347 17.9641C47.0708 17.9641 47.011 17.9641 46.9551 17.9641C46.9232 17.9721 46.8753 17.984 46.8115 18C46.7556 18.0239 46.7117 18.0359 46.6798 18.0359C46.616 18.0359 46.5362 18.016 46.4404 17.9761C46.3526 17.9362 46.2768 17.9122 46.213 17.9042C46.1571 17.8883 46.0573 17.8803 45.9137 17.8803C45.8259 17.8803 45.7541 17.8803 45.6982 17.8803C45.5945 17.8803 45.4748 17.9002 45.3391 17.9401C45.2035 17.9721 45.0838 18.004 44.98 18.0359C44.9082 18.0359 44.8204 18.0279 44.7167 18.012C44.6209 18.004 44.5691 18 44.5611 18C44.5212 18 44.4653 18.016 44.3935 18.0479C44.3217 18.0798 44.2658 18.0958 44.2259 18.0958L43.9027 18.0598C43.8628 18.0598 43.787 18.0678 43.6753 18.0838C43.5636 18.1077 43.4798 18.1117 43.4239 18.0958C43.3761 18.0798 43.3362 18.0638 43.3042 18.0479C43.2723 18.0319 43.2125 17.984 43.1247 17.9042C43.0688 17.8723 43.013 17.8364 42.9571 17.7965C42.9012 17.7486 42.8653 17.6968 42.8494 17.6409C42.8414 17.5611 42.8494 17.4933 42.8733 17.4374C42.8973 17.3975 42.9372 17.3416 42.993 17.2698C43.0489 17.19 43.1207 17.1342 43.2085 17.1022C43.2962 17.0703 43.388 17.0384 43.4838 17.0065C43.6913 16.9267 43.8987 16.8469 44.1062 16.7671C44.2419 16.6713 44.3416 16.5436 44.4055 16.384C44.4454 16.2963 44.4693 16.1885 44.4773 16.0608C44.4853 15.9332 44.4933 15.8095 44.5012 15.6898C44.5012 15.5302 44.5052 15.3626 44.5132 15.187C44.5212 15.0035 44.5252 14.8918 44.5252 14.8519C44.5252 14.7721 44.5332 14.6643 44.5491 14.5287C44.5651 14.393 44.5731 14.2933 44.5731 14.2294C44.5731 14.1257 44.5571 14.0219 44.5252 13.9182C44.4933 13.8145 44.4653 13.7187 44.4414 13.6309C44.4254 13.5352 44.4174 13.4713 44.4174 13.4394C44.4174 13.3995 44.4174 13.3596 44.4174 13.3197C44.4254 13.2479 44.4334 13.1721 44.4414 13.0923C44.4414 12.9327 44.4613 12.793 44.5012 12.6733C44.5411 12.5935 44.581 12.5137 44.6209 12.4339C44.6209 12.402 44.613 12.3621 44.597 12.3142C44.5731 12.2584 44.5611 12.2185 44.5611 12.1945L44.5252 11.7756C44.5332 11.6798 44.5371 11.612 44.5371 11.5721C44.5371 11.4683 44.5092 11.3766 44.4534 11.2968C44.4055 11.217 44.3337 11.1651 44.2379 11.1411C44.1501 11.1092 44.0943 11.0933 44.0703 11.0933C43.9586 11.0933 43.8908 11.0893 43.8668 11.0813C43.811 11.0653 43.7591 11.0374 43.7112 10.9975C43.6633 10.9576 43.6274 10.9257 43.6035 10.9017C43.5476 10.8618 43.5077 10.8339 43.4838 10.818C43.4199 10.7701 43.38 10.7102 43.3641 10.6384C43.3481 10.5586 43.3761 10.4589 43.4479 10.3392C43.4878 10.2833 43.5396 10.2354 43.6035 10.1955C43.6992 10.1556 43.7671 10.1237 43.807 10.0997C43.8628 10.0678 43.9626 10.0199 44.1062 9.95611C44.1381 9.94015 44.198 9.90823 44.2858 9.86035C44.4214 9.78853 44.5052 9.74065 44.5371 9.71671C44.6409 9.65287 44.7167 9.601 44.7646 9.5611C44.8125 9.52119 44.8723 9.45337 44.9441 9.3576C45.0239 9.25386 45.0958 9.18204 45.1596 9.14214C45.3192 9.08628 45.4788 9.02643 45.6384 8.96259C45.6623 8.93865 45.6943 8.90274 45.7342 8.85486C45.814 8.74314 45.8618 8.6793 45.8778 8.66334C45.9257 8.5995 45.9736 8.54364 46.0214 8.49576C46.0693 8.44788 46.1172 8.40798 46.1651 8.37606C46.213 8.34414 46.2648 8.30823 46.3207 8.26833C46.3845 8.22843 46.4564 8.20848 46.5362 8.20848C46.6 8.20848 46.6479 8.21247 46.6798 8.22045C46.7277 8.23641 46.7716 8.27232 46.8115 8.32818C46.8593 8.37606 46.8753 8.46783 46.8593 8.60349C46.8354 8.66733 46.8155 8.73117 46.7995 8.79501C46.7835 8.85885 46.7676 8.97057 46.7516 9.13017C46.7357 9.28179 46.7237 9.38553 46.7157 9.44139C46.6598 9.70474 46.608 9.96409 46.5601 10.2194C46.5521 10.403 46.5441 10.5347 46.5362 10.6145C46.5362 10.6943 46.5362 10.7701 46.5362 10.8419C46.5362 11.0095 46.5362 11.1411 46.5362 11.2369C46.5362 11.4045 46.5242 11.608 46.5002 11.8474C46.4843 12.0868 46.4763 12.2424 46.4763 12.3142C46.4763 12.3701 46.4963 12.5097 46.5362 12.7332C46.5521 12.8209 46.5601 12.9087 46.5601 12.9965C46.5601 13.0843 46.5561 13.204 46.5481 13.3556C46.5401 13.5072 46.5362 13.6269 46.5362 13.7147V14.6125C46.5362 14.7641 46.5401 14.9037 46.5481 15.0314C46.5561 15.1511 46.5681 15.2908 46.584 15.4504C46.608 15.61 46.6279 15.7736 46.6439 15.9411C46.6678 16.1087 46.7157 16.2524 46.7875 16.3721C46.8673 16.4838 46.9551 16.5835 47.0509 16.6713C47.1466 16.7431 47.2184 16.799 47.2663 16.8389C47.3222 16.8788 47.386 16.9267 47.4578 16.9825C47.5297 17.0304 47.5815 17.0903 47.6135 17.1621C47.6853 17.3057 47.7212 17.4254 47.7212 17.5212C47.7212 17.617 47.6933 17.6968 47.6374 17.7606Z" fill="#212121"/>
<path d="M58.2578 17.581C58.2258 17.6449 58.174 17.6928 58.1021 17.7247C58.0383 17.7566 57.9505 17.7885 57.8388 17.8204C57.7909 17.8284 57.7311 17.8324 57.6593 17.8324C57.6114 17.8324 57.5635 17.8324 57.5156 17.8324C57.4597 17.8324 57.4079 17.8284 57.36 17.8204C57.2642 17.8204 57.1884 17.8165 57.1326 17.8085C56.9171 17.7766 56.7934 17.7606 56.7615 17.7606C56.6737 17.7606 56.5979 17.7686 56.5341 17.7845C56.4782 17.7925 56.4144 17.8045 56.3425 17.8204L55.8997 17.8803L55.6243 17.9042L54.942 17.9401C54.8144 17.9481 54.7226 17.9521 54.6667 17.9521C54.579 17.9521 54.4792 17.9362 54.3675 17.9042C54.2637 17.8643 54.1839 17.8045 54.1281 17.7247C54.1121 17.7087 54.0962 17.6648 54.0802 17.593C54.0722 17.5212 54.0483 17.4853 54.0084 17.4853C53.9765 17.4853 53.9445 17.5092 53.9126 17.5571C53.8967 17.589 53.8807 17.617 53.8647 17.6409C53.8009 17.6968 53.7371 17.7526 53.6732 17.8085C53.6174 17.8643 53.5495 17.9082 53.4697 17.9401C53.3899 17.9721 53.3021 17.992 53.2064 18C53.1186 18 53.0468 18 52.9909 18H52.3326L51.5306 17.9641C51.4428 17.9641 51.355 17.9681 51.2672 17.9761C51.1874 17.9761 51.1076 17.9761 51.0278 17.9761C50.8762 17.9761 50.7046 17.9641 50.5131 17.9401C50.3615 17.9082 50.2099 17.8763 50.0583 17.8444C50.0024 17.8444 49.9306 17.8564 49.8428 17.8803C49.763 17.8963 49.7151 17.9042 49.6992 17.9042C49.6832 17.9042 49.6433 17.8963 49.5794 17.8803C49.364 17.7925 49.2563 17.6329 49.2563 17.4015C49.2563 17.3057 49.2842 17.2219 49.34 17.1501C49.372 17.1102 49.4438 17.0424 49.5555 16.9466C49.6114 16.8988 49.6912 16.8628 49.7949 16.8389C49.9066 16.807 49.9864 16.7751 50.0343 16.7431C50.0742 16.7112 50.1181 16.6793 50.166 16.6474C50.2139 16.6075 50.2498 16.5676 50.2737 16.5277C50.2977 16.4958 50.3136 16.4519 50.3216 16.396C50.3376 16.3322 50.3495 16.2763 50.3575 16.2284L50.4174 15.9292C50.4333 15.8494 50.4413 15.7456 50.4413 15.618C50.4413 15.5062 50.4413 15.4105 50.4413 15.3307C50.4413 15.2429 50.4453 15.1631 50.4533 15.0913C50.4533 15.0514 50.4732 14.9676 50.5131 14.8399C50.5291 14.792 50.5371 14.7401 50.5371 14.6843C50.5371 14.6364 50.5171 14.5805 50.4772 14.5167C50.4453 14.4529 50.4253 14.405 50.4174 14.3731C50.4094 14.3252 50.4054 14.2613 50.4054 14.1815C50.4134 14.0459 50.4174 13.9421 50.4174 13.8703C50.4174 13.7985 50.4253 13.7107 50.4413 13.607C50.4652 13.5032 50.4772 13.4394 50.4772 13.4155V12.9726L50.5371 12.5536C50.569 12.402 50.6009 12.2504 50.6328 12.0988C50.6328 11.9711 50.6328 11.8793 50.6328 11.8234C50.6328 11.7037 50.6208 11.612 50.5969 11.5481C50.5809 11.4763 50.553 11.4125 50.5131 11.3566C50.4812 11.3007 50.4453 11.2329 50.4054 11.1531C50.3655 11.0733 50.3216 10.9815 50.2737 10.8778C50.2657 10.8219 50.2777 10.7501 50.3096 10.6623C50.3415 10.5666 50.3575 10.4988 50.3575 10.4589C50.3735 10.3312 50.3735 10.2514 50.3575 10.2194C50.3336 10.1636 50.2897 10.1277 50.2258 10.1117C50.17 10.0958 50.0982 10.0758 50.0104 10.0519C49.9306 10.0279 49.8548 10.004 49.7829 9.98005C49.7111 9.95611 49.6553 9.91621 49.6154 9.86035C49.5515 9.77257 49.5196 9.67282 49.5196 9.5611C49.5196 9.48927 49.5395 9.42544 49.5794 9.36957C49.5874 9.36159 49.6433 9.31371 49.747 9.22593C49.8508 9.13017 49.9944 9.06234 50.178 9.02244C50.2099 9.01446 50.2498 9.01047 50.2977 9.01047C50.4094 9.01845 50.5211 9.02244 50.6328 9.02244C50.7206 9.00648 50.8084 8.97057 50.8962 8.91471C50.9919 8.85087 51.0837 8.78703 51.1715 8.72319L51.6503 8.38803C51.77 8.30823 51.8897 8.22843 52.0094 8.14863C52.1929 8.06085 52.3725 8.001 52.548 7.96908C52.6677 7.9611 52.7874 7.94913 52.9071 7.93317C53.0189 7.93317 53.1026 7.95312 53.1585 7.99302C53.2144 8.03292 53.2662 8.06484 53.3141 8.08878C53.4019 8.15262 53.4458 8.23242 53.4458 8.32818C53.4458 8.38404 53.4139 8.44788 53.35 8.5197C53.2862 8.59152 53.2463 8.64738 53.2303 8.68728C53.1904 8.77506 53.1625 8.83491 53.1465 8.86683C53.1226 8.93067 53.1226 8.99052 53.1465 9.04638C53.1864 9.1182 53.2742 9.17007 53.4099 9.20199C53.5216 9.22593 53.6453 9.18603 53.7809 9.08229C53.8767 9.01047 53.9525 8.9586 54.0084 8.92668C54.144 8.8389 54.2837 8.75112 54.4273 8.66334C54.5391 8.62344 54.6109 8.5995 54.6428 8.59152C54.7066 8.57556 54.7864 8.56758 54.8822 8.56758C55.0657 8.56758 55.2333 8.58753 55.3849 8.62743C55.5366 8.65935 55.7201 8.7192 55.9356 8.80698C56.151 8.89476 56.3465 9.00648 56.5221 9.14214C56.6179 9.21396 56.7136 9.28977 56.8094 9.36957C56.9131 9.4414 56.9889 9.53317 57.0368 9.64489C57.0607 9.70075 57.0767 9.77257 57.0847 9.86035C57.1006 9.94813 57.1166 10.0319 57.1326 10.1117C57.1565 10.1835 57.1765 10.2354 57.1924 10.2673C57.2403 10.3631 57.2762 10.4349 57.3001 10.4828C57.3799 10.6185 57.4598 10.7501 57.5396 10.8778C57.5555 10.9576 57.5635 11.0175 57.5635 11.0574C57.5635 11.0813 57.5555 11.1491 57.5396 11.2608C57.5396 11.3167 57.5276 11.3726 57.5036 11.4284C57.4797 11.4843 57.4518 11.5481 57.4198 11.6199C57.4119 11.7077 57.4159 11.8075 57.4318 11.9192C57.4478 12.0309 57.4558 12.0908 57.4558 12.0988C57.4558 12.1466 57.4398 12.2224 57.4079 12.3262C57.376 12.4219 57.36 12.4778 57.36 12.4938C57.352 12.5496 57.348 12.5975 57.348 12.6374C57.348 12.7012 57.348 12.7491 57.348 12.781C57.348 12.9007 57.352 12.9965 57.36 13.0683C57.368 13.1322 57.3799 13.188 57.3959 13.2359C57.4518 13.4194 57.4837 13.5471 57.4917 13.619C57.4996 13.6828 57.5156 13.7746 57.5396 13.8943C57.5396 13.9741 57.5396 14.0539 57.5396 14.1337V14.5287C57.5396 14.5845 57.5276 14.6564 57.5036 14.7441C57.4877 14.8319 57.4797 14.8878 57.4797 14.9117C57.4877 14.9596 57.5036 15.0115 57.5276 15.0673C57.5515 15.1232 57.5675 15.1631 57.5755 15.187C57.5914 15.2589 57.6034 15.3267 57.6114 15.3905C57.6273 15.4464 57.6353 15.5262 57.6353 15.6299L57.5994 15.9292C57.5914 16.0249 57.5834 16.1167 57.5755 16.2045C57.5755 16.2843 57.5954 16.3601 57.6353 16.4319C57.6832 16.5037 57.743 16.5756 57.8149 16.6474C57.8388 16.6713 57.8907 16.7032 57.9705 16.7431C58.0503 16.7751 58.1061 16.815 58.1381 16.8628C58.2019 16.9506 58.2378 17.0504 58.2458 17.1621C58.2617 17.2658 58.2777 17.3576 58.2937 17.4374C58.2937 17.4853 58.2817 17.5332 58.2578 17.581ZM55.4208 14.7681L55.361 14.4688C55.345 14.381 55.3251 14.2773 55.3011 14.1576C55.2772 14.0299 55.2652 13.9022 55.2652 13.7746L55.3011 13.1162L55.361 12.5776C55.361 12.4499 55.365 12.3302 55.373 12.2185C55.3809 12.1067 55.3889 11.991 55.3969 11.8713C55.3969 11.8075 55.3969 11.7596 55.3969 11.7277C55.3889 11.6798 55.3849 11.6439 55.3849 11.6199C55.3849 11.4444 55.377 11.3207 55.361 11.2489C55.353 11.1691 55.3211 11.0653 55.2652 10.9377C55.2094 10.802 55.1176 10.6703 54.9899 10.5426C54.8702 10.415 54.7346 10.3072 54.5829 10.2194C54.5351 10.1955 54.4792 10.1676 54.4154 10.1357C54.3595 10.0958 54.3036 10.0718 54.2478 10.0638H54.0084C53.9605 10.0718 53.9046 10.1037 53.8408 10.1596C53.777 10.2075 53.7051 10.2434 53.6253 10.2673C53.5535 10.2833 53.4697 10.3072 53.374 10.3392C53.2862 10.3631 53.2263 10.391 53.1944 10.4229C53.1465 10.4628 53.0867 10.5347 53.0149 10.6384C52.951 10.7342 52.9031 10.8259 52.8712 10.9137C52.8393 10.9935 52.7954 11.1292 52.7396 11.3207C52.6917 11.5122 52.6677 11.7117 52.6677 11.9192C52.6677 12.0788 52.6757 12.2663 52.6917 12.4818C52.7156 12.6973 52.7276 12.8289 52.7276 12.8768L52.6917 13.1761C52.6518 13.3037 52.6238 13.4035 52.6079 13.4753C52.568 13.6589 52.548 13.8504 52.548 14.0499C52.548 14.1297 52.552 14.2334 52.56 14.3611C52.568 14.4888 52.572 14.5925 52.572 14.6723C52.572 14.7601 52.568 14.8758 52.56 15.0194C52.552 15.1631 52.548 15.2788 52.548 15.3666C52.548 15.5661 52.552 15.7097 52.56 15.7975C52.576 15.8773 52.6119 15.997 52.6677 16.1566C52.7236 16.3082 52.7675 16.4199 52.7994 16.4918C52.8393 16.5556 52.9031 16.6274 52.9909 16.7072C53.0388 16.7551 53.1146 16.807 53.2184 16.8628C53.3301 16.9107 53.4139 16.9506 53.4697 16.9825C53.4777 16.9905 53.5495 17.0464 53.6852 17.1501C53.765 17.214 53.8448 17.2459 53.9246 17.2459C53.9964 17.2539 54.0762 17.2499 54.164 17.2339C54.2598 17.21 54.3395 17.1661 54.4034 17.1022C54.5231 16.9905 54.5909 16.9307 54.6069 16.9227C54.7026 16.8668 54.7745 16.8229 54.8223 16.791C54.8782 16.7591 54.942 16.7072 55.0139 16.6354C55.0857 16.5636 55.1336 16.5117 55.1575 16.4798C55.1974 16.4239 55.2293 16.3601 55.2533 16.2883C55.2852 16.2165 55.3011 16.1247 55.3011 16.013C55.3011 15.9332 55.3011 15.8693 55.3011 15.8214C55.3011 15.7656 55.3011 15.7217 55.3011 15.6898L55.361 15.2469C55.361 15.1751 55.369 15.0873 55.3849 14.9835C55.4089 14.8718 55.4208 14.8 55.4208 14.7681Z" fill="#212121"/>
<path d="M68.5194 18.8978C68.5194 19.0175 68.5154 19.1731 68.5074 19.3646C68.4994 19.5561 68.4954 19.7117 68.4954 19.8314C68.4954 19.9352 68.4954 20.011 68.4954 20.0589C68.4954 20.1147 68.4954 20.1746 68.4954 20.2384C68.4795 20.3182 68.4635 20.398 68.4475 20.4778C68.4316 20.5656 68.4076 20.6414 68.3757 20.7052C68.3597 20.7372 68.3079 20.8249 68.2201 20.9686C68.1882 21.0244 68.1363 21.0883 68.0645 21.1601C67.9927 21.2319 67.9368 21.2958 67.8969 21.3516C67.7613 21.5272 67.6256 21.7027 67.4899 21.8783C67.3622 22.0618 67.2425 22.2055 67.1308 22.3092C67.051 22.389 66.9114 22.5047 66.7119 22.6564C66.5204 22.808 66.3608 22.9237 66.2331 23.0035C66.1134 23.0913 65.9498 23.191 65.7423 23.3027C65.6066 23.3746 65.475 23.4424 65.3473 23.5062C65.2196 23.5781 65.0919 23.6259 64.9642 23.6499C64.8445 23.6818 64.7528 23.7017 64.6889 23.7097C64.6251 23.7257 64.5652 23.7337 64.5094 23.7337C64.4455 23.7337 64.3977 23.7297 64.3657 23.7217C64.3258 23.7057 64.274 23.6778 64.2101 23.6379C64.1463 23.598 64.0984 23.5741 64.0665 23.5661C64.0186 23.5581 63.9308 23.5621 63.8032 23.5781C63.6755 23.594 63.6036 23.602 63.5877 23.602C63.4999 23.602 63.3762 23.586 63.2166 23.5541C63.057 23.5222 62.9253 23.5062 62.8216 23.5062C62.7657 23.5062 62.7219 23.5062 62.6899 23.5062C62.5463 23.5062 62.4306 23.4903 62.3428 23.4584C62.255 23.4344 62.1672 23.3985 62.0795 23.3506C61.9997 23.3027 61.9119 23.2628 61.8161 23.2309C61.7283 23.199 61.6206 23.1631 61.4929 23.1232C61.4291 23.0833 61.3613 22.9835 61.2894 22.8239C61.2575 22.7521 61.2136 22.6883 61.1578 22.6324C61.1019 22.5845 61.0141 22.5327 60.8944 22.4768C60.7827 22.4209 60.6989 22.3731 60.643 22.3332C60.5872 22.2933 60.4954 22.2015 60.3677 22.0579C60.248 21.9142 60.1443 21.7506 60.0565 21.5671C60.0166 21.4873 59.9807 21.3875 59.9488 21.2678C59.9248 21.1481 59.9009 21.0564 59.877 20.9925L59.7214 20.6933C59.6735 20.5895 59.6256 20.4898 59.5777 20.394C59.5618 20.3222 59.5657 20.2424 59.5897 20.1546C59.6136 20.0748 59.6296 19.999 59.6376 19.9272C59.6535 19.8633 59.6735 19.7995 59.6974 19.7357C59.7054 19.7197 59.7333 19.6519 59.7812 19.5322C59.8051 19.4683 59.849 19.3805 59.9129 19.2688C59.9847 19.1651 60.0326 19.0933 60.0565 19.0534C60.1124 18.9097 60.1722 18.7701 60.2361 18.6344C60.276 18.5786 60.3119 18.5347 60.3438 18.5027C60.4715 18.383 60.5433 18.3152 60.5593 18.2992C60.6311 18.1636 60.7029 18.0319 60.7747 17.9042C60.8625 17.8005 60.9503 17.7207 61.0381 17.6648C61.07 17.6489 61.1179 17.6289 61.1817 17.605C61.2455 17.581 61.2894 17.5531 61.3134 17.5212C61.3373 17.4733 61.3493 17.4294 61.3493 17.3895C61.3333 17.3017 61.3214 17.2339 61.3134 17.186C61.2974 17.1382 61.2815 17.0983 61.2655 17.0663C61.2176 17.0025 61.1737 16.9347 61.1338 16.8628C61.07 16.7591 61.0221 16.6793 60.9902 16.6234C60.9583 16.5676 60.9224 16.4918 60.8825 16.396C60.8425 16.2923 60.8066 16.2045 60.7747 16.1327C60.7508 16.0529 60.7388 15.9651 60.7388 15.8693C60.7388 15.7496 60.7468 15.6259 60.7627 15.4983C60.7787 15.3706 60.7907 15.2589 60.7987 15.1631C60.8146 15.0673 60.8465 14.9756 60.8944 14.8878C60.9742 14.792 61.0381 14.7122 61.0859 14.6484C61.1418 14.5845 61.2056 14.5127 61.2775 14.4329C61.3253 14.3292 61.3453 14.2294 61.3373 14.1337C61.3373 14.0778 61.3174 14.014 61.2775 13.9421C61.2216 13.8703 61.1817 13.8145 61.1578 13.7746C61.1258 13.7347 61.074 13.6868 61.0022 13.6309C60.9303 13.5751 60.8824 13.5352 60.8585 13.5112C60.8106 13.4474 60.7667 13.3716 60.7268 13.2838C60.6949 13.188 60.671 13.1122 60.655 13.0564C60.6151 12.9686 60.5752 12.8808 60.5353 12.793C60.5034 12.7052 60.4715 12.6055 60.4396 12.4938C60.4156 12.3741 60.3997 12.3062 60.3917 12.2903C60.3677 12.2025 60.3558 12.1307 60.3558 12.0748L60.3199 11.5362C60.3199 11.4404 60.3199 11.3646 60.3199 11.3087C60.3199 11.2449 60.3398 11.1691 60.3797 11.0813C60.4196 10.9935 60.4555 10.9177 60.4874 10.8539C60.5194 10.782 60.5353 10.6983 60.5353 10.6025C60.5433 10.4988 60.5513 10.391 60.5593 10.2793C60.5752 10.1676 60.5952 10.0479 60.6191 9.9202C60.651 9.85636 60.7189 9.79252 60.8226 9.72868C60.9343 9.66484 61.0101 9.61297 61.05 9.57307C61.0979 9.53317 61.1737 9.44938 61.2775 9.32169C61.3493 9.22593 61.4012 9.16608 61.4331 9.14214C61.5049 9.07032 61.5767 9.00249 61.6485 8.93865C61.7204 8.87481 61.7922 8.81895 61.864 8.77107C61.9438 8.72319 62.0196 8.6793 62.0914 8.6394C62.1632 8.5995 62.3109 8.52768 62.5343 8.42394C62.678 8.34414 62.7817 8.29227 62.8455 8.26833C62.8854 8.25237 62.9772 8.22843 63.1209 8.19651C63.2645 8.16459 63.448 8.14863 63.6715 8.14863H64.6291L65.1079 8.20848L65.5268 8.24439C65.5987 8.25237 65.6984 8.27232 65.8261 8.30424C65.9538 8.33616 66.0695 8.3601 66.1732 8.37606C66.277 8.38404 66.3807 8.38803 66.4844 8.38803C66.5882 8.38803 66.6999 8.38803 66.8196 8.38803C66.8994 8.38803 67.0031 8.38005 67.1308 8.36409C67.2585 8.34015 67.3423 8.32818 67.3822 8.32818C67.446 8.32818 67.5059 8.32818 67.5617 8.32818C67.6256 8.32818 67.6894 8.32419 67.7533 8.31621C67.8171 8.31621 67.877 8.3202 67.9328 8.32818C67.9887 8.33616 68.0445 8.35611 68.1004 8.38803C68.2201 8.45187 68.2879 8.48778 68.3039 8.49576C68.3598 8.53566 68.3997 8.58753 68.4236 8.65137C68.4475 8.70723 68.4595 8.74713 68.4595 8.77107C68.4595 8.80299 68.4595 8.83092 68.4595 8.85486C68.4595 8.9586 68.4316 9.05436 68.3757 9.14214C68.3119 9.20598 68.252 9.26583 68.1962 9.32169C68.1722 9.36159 68.1602 9.41745 68.1602 9.48927C68.1602 9.5611 68.1523 9.61297 68.1363 9.64489C68.0725 9.72469 68.0126 9.80449 67.9568 9.88429C67.9408 9.92419 67.9328 9.98404 67.9328 10.0638C67.9328 10.0958 67.9368 10.1556 67.9448 10.2434C67.9607 10.3232 67.9887 10.407 68.0286 10.4948C68.0765 10.5746 68.1004 10.6224 68.1004 10.6384C68.1403 10.7182 68.1642 10.7741 68.1722 10.806C68.1882 10.8539 68.2041 10.9097 68.2201 10.9736C68.2361 11.0374 68.244 11.1092 68.244 11.189C68.244 11.2608 68.248 11.3167 68.256 11.3566C68.256 11.4843 68.256 11.584 68.256 11.6559L68.1962 12.015C68.1882 12.0788 68.1802 12.1426 68.1722 12.2065C68.1722 12.2623 68.1682 12.3062 68.1602 12.3382C68.1443 12.394 68.1164 12.4499 68.0765 12.5057C68.0046 12.6015 67.9647 12.6574 67.9568 12.6733C67.9089 12.7611 67.865 12.8768 67.8251 13.0204C67.7852 13.1641 67.7533 13.2678 67.7293 13.3317C67.7134 13.3875 67.6934 13.4514 67.6695 13.5232C67.6455 13.595 67.6216 13.6509 67.5977 13.6908C67.5737 13.7307 67.5418 13.7666 67.5019 13.7985C67.4061 13.8703 67.3303 13.9302 67.2745 13.9781C67.2266 14.018 67.1588 14.0658 67.071 14.1217C66.9832 14.1696 66.8874 14.2214 66.7837 14.2773C66.68 14.3252 66.5842 14.3691 66.4964 14.409C66.4166 14.4409 66.3448 14.4688 66.281 14.4928C66.2171 14.5327 66.1692 14.5566 66.1373 14.5646C66.0974 14.5805 66.0455 14.5965 65.9817 14.6125C65.9578 14.6204 65.9099 14.6284 65.8381 14.6364C65.7742 14.6444 65.7024 14.6484 65.6226 14.6484C65.5747 14.6484 65.5348 14.6484 65.5029 14.6484H65.2276C65.1558 14.6564 65.072 14.6883 64.9762 14.7441C64.8884 14.792 64.8166 14.8239 64.7607 14.8399C64.7049 14.8479 64.649 14.8598 64.5932 14.8758C64.5373 14.8838 64.4615 14.8878 64.3657 14.8878C64.3019 14.8878 64.2101 14.8798 64.0904 14.8638C63.9707 14.8399 63.8909 14.8279 63.851 14.8279L63.3483 14.7681C63.3004 14.7601 63.2246 14.7282 63.1209 14.6723C63.0251 14.6165 62.9453 14.5885 62.8815 14.5885C62.7937 14.5805 62.7298 14.5766 62.6899 14.5766C62.6341 14.5766 62.5942 14.5805 62.5702 14.5885C62.4665 14.6444 62.4146 14.7521 62.4146 14.9117C62.4146 14.9995 62.4346 15.0753 62.4745 15.1392C62.5223 15.203 62.5742 15.2668 62.6301 15.3307C62.8136 15.5701 63.0411 15.7217 63.3124 15.7855C63.4081 15.8015 63.472 15.8095 63.5039 15.8095C63.5598 15.8095 63.6236 15.8055 63.6954 15.7975C63.7672 15.7815 63.851 15.7656 63.9468 15.7496C63.9867 15.7496 64.0585 15.7377 64.1623 15.7137C64.274 15.6818 64.3618 15.6658 64.4256 15.6658C64.5054 15.6658 64.5892 15.6818 64.677 15.7137C64.7727 15.7456 64.8485 15.7696 64.9044 15.7855L65.2036 15.9052C65.2755 15.9292 65.3832 15.9411 65.5268 15.9411C65.6705 15.9411 65.7902 15.9491 65.8859 15.9651L66.3408 16.0489C66.5084 16.0888 66.648 16.1327 66.7598 16.1805C66.8795 16.2284 67.0071 16.2963 67.1428 16.384C67.2066 16.4239 67.2745 16.4758 67.3463 16.5396C67.4261 16.5955 67.4859 16.6514 67.5258 16.7072C67.5657 16.7551 67.6016 16.811 67.6336 16.8748C67.7134 17.0584 67.7612 17.1621 67.7772 17.186C67.8251 17.2658 67.8809 17.3377 67.9448 17.4015C68.0565 17.5052 68.1204 17.5731 68.1363 17.605C68.272 17.8204 68.3677 18.0399 68.4236 18.2633C68.4874 18.4868 68.5194 18.6983 68.5194 18.8978ZM66.281 10.6983C66.257 10.5626 66.2171 10.4229 66.1612 10.2793C66.1293 10.2234 66.0775 10.1516 66.0056 10.0638C65.9338 9.97606 65.8859 9.91621 65.862 9.88429C65.846 9.86833 65.7902 9.77257 65.6944 9.59701C65.6306 9.49327 65.5588 9.41347 65.479 9.3576C65.3992 9.30174 65.3154 9.26184 65.2276 9.2379C65.1398 9.21396 65.052 9.19002 64.9642 9.16608C64.7169 9.10224 64.5493 9.06234 64.4615 9.04638C64.3817 9.03042 64.258 9.02244 64.0904 9.02244C63.9548 9.00648 63.8231 8.98653 63.6954 8.96259C63.6316 8.96259 63.5837 8.97057 63.5518 8.98653C63.5039 9.00249 63.448 9.04239 63.3842 9.10623C63.3204 9.17007 63.2765 9.20997 63.2525 9.22593C63.2046 9.26583 63.1248 9.31371 63.0131 9.36957C62.9014 9.41745 62.8136 9.4773 62.7498 9.54913C62.6939 9.61297 62.646 9.73267 62.6061 9.90823C62.5662 10.0758 62.5343 10.1875 62.5104 10.2434C62.4146 10.403 62.3228 10.5626 62.2351 10.7222C62.2031 10.802 62.1832 10.8778 62.1752 10.9496C62.1672 11.0214 62.1632 11.0973 62.1632 11.1771C62.1712 11.3127 62.1752 11.4204 62.1752 11.5002C62.1912 11.6519 62.2031 11.7396 62.2111 11.7636C62.2271 11.8274 62.251 11.8992 62.2829 11.979C62.3149 12.0509 62.3548 12.1267 62.4026 12.2065C62.4585 12.2783 62.5024 12.3421 62.5343 12.398C62.5902 12.5496 62.65 12.7012 62.7139 12.8529C62.7618 12.9327 62.8096 12.9965 62.8575 13.0444C62.8815 13.0683 62.9453 13.1242 63.049 13.212C63.1129 13.2598 63.2046 13.3157 63.3243 13.3795C63.452 13.4354 63.5598 13.4873 63.6475 13.5352C63.7752 13.615 63.9029 13.6948 64.0306 13.7746C64.1104 13.7905 64.1662 13.7985 64.1982 13.7985C64.2301 13.7985 64.2859 13.7945 64.3657 13.7865C64.4535 13.7786 64.5014 13.7746 64.5094 13.7746C64.645 13.7825 64.7408 13.7865 64.7967 13.7865C64.8924 13.7865 64.9642 13.7746 65.0121 13.7506C65.068 13.7267 65.1199 13.6908 65.1677 13.6429C65.2236 13.587 65.2755 13.5312 65.3233 13.4753C65.459 13.3317 65.5987 13.184 65.7423 13.0324C65.862 12.9446 65.9817 12.8529 66.1014 12.7571C66.1573 12.6773 66.1972 12.5935 66.2211 12.5057C66.245 12.41 66.257 12.3342 66.257 12.2783C66.257 12.1985 66.245 12.1107 66.2211 12.015C66.1812 11.9192 66.1413 11.8195 66.1014 11.7157C66.1014 11.6678 66.1174 11.608 66.1493 11.5362C66.1892 11.4643 66.2131 11.4125 66.2211 11.3805C66.269 11.189 66.2929 11.0214 66.2929 10.8778C66.2929 10.798 66.2889 10.7382 66.281 10.6983ZM66.8795 20.6933C66.9034 20.5736 66.9154 20.4579 66.9154 20.3461C66.9154 20.2185 66.8914 20.1067 66.8435 20.011C66.7797 19.9152 66.7199 19.8234 66.664 19.7357C66.656 19.6958 66.656 19.6319 66.664 19.5441C66.672 19.4643 66.672 19.4085 66.664 19.3766C66.6401 19.2808 66.6041 19.201 66.5563 19.1372C66.5164 19.0733 66.4844 19.0254 66.4605 18.9935C66.4046 18.9137 66.3448 18.8459 66.281 18.79C66.257 18.7661 66.1852 18.7142 66.0655 18.6344C66.0017 18.5786 65.9179 18.5227 65.8141 18.4668C65.7184 18.411 65.6425 18.3671 65.5867 18.3352C65.4829 18.2633 65.4111 18.2155 65.3712 18.1915C65.2914 18.1436 65.2156 18.0997 65.1438 18.0598C65.072 18.0199 65.0201 17.992 64.9882 17.9761C64.9323 17.9441 64.8685 17.9202 64.7967 17.9042C64.7328 17.8883 64.6371 17.8803 64.5094 17.8803C64.4136 17.8803 64.3219 17.8883 64.2341 17.9042C64.1543 17.9202 64.0665 17.9401 63.9707 17.9641C63.8829 17.98 63.7752 18.004 63.6475 18.0359C63.5677 18.0359 63.472 18.0279 63.3603 18.012C63.2565 18.004 63.2007 18 63.1927 18L62.9533 18.0359C62.8176 18.0758 62.7179 18.1436 62.654 18.2394C62.6301 18.2793 62.6141 18.3272 62.6061 18.383C62.5982 18.4469 62.5942 18.5107 62.5942 18.5746C62.6261 18.6783 62.658 18.786 62.6899 18.8978C62.674 18.9456 62.6301 18.9935 62.5583 19.0414C62.4864 19.0973 62.4386 19.1411 62.4146 19.1731C62.3109 19.3167 62.2191 19.4643 62.1393 19.616C62.0595 19.7756 62.0116 19.8673 61.9957 19.8913C61.9478 19.987 61.9119 20.0828 61.8879 20.1786C61.864 20.2823 61.8401 20.39 61.8161 20.5017C61.7922 20.6135 61.7802 20.7012 61.7802 20.7651C61.7802 20.8289 61.7882 20.9486 61.8041 21.1242C61.8281 21.2997 61.9637 21.4873 62.2111 21.6868C62.2829 21.7426 62.3747 21.7905 62.4864 21.8304C62.6061 21.8703 62.6979 21.9022 62.7618 21.9262C62.8336 21.9581 62.9214 21.998 63.0251 22.0459C63.1368 22.1017 63.2445 22.1377 63.3483 22.1536C63.46 22.1776 63.5438 22.1895 63.5997 22.1895C63.6635 22.1895 63.7273 22.1895 63.7912 22.1895L64.3657 22.2254C64.4615 22.2254 64.5652 22.2294 64.677 22.2374C64.7967 22.2454 64.8725 22.2494 64.9044 22.2494C65.072 22.2494 65.2276 22.2294 65.3712 22.1895C65.5149 22.1576 65.6226 22.1297 65.6944 22.1057C65.7662 22.0818 65.862 22.0299 65.9817 21.9501C66.1094 21.8703 66.2091 21.7905 66.281 21.7107C66.3209 21.6708 66.3967 21.5671 66.5084 21.3995C66.6201 21.2399 66.6959 21.1282 66.7358 21.0643C66.8076 20.9446 66.8555 20.8209 66.8795 20.6933Z" fill="#212121"/>
<path d="M93.6424 11.2369C93.6424 11.4524 93.6305 11.6359 93.6065 11.7875C93.5906 11.9392 93.5546 12.0868 93.4988 12.2304C93.4509 12.3741 93.399 12.4858 93.3432 12.5656C93.2953 12.6454 93.2434 12.7292 93.1876 12.817C93.1078 12.9686 93.024 13.1242 92.9362 13.2838C92.8564 13.4434 92.7925 13.599 92.7447 13.7506C92.7287 13.8544 92.7167 13.9262 92.7088 13.9661C92.7008 14.006 92.6808 14.0419 92.6489 14.0738C92.5851 14.1137 92.5372 14.1456 92.5053 14.1696C92.4574 14.2015 92.4135 14.2574 92.3736 14.3372C92.3337 14.409 92.2978 14.4808 92.2659 14.5526C92.0903 14.8239 91.9626 15.0155 91.8828 15.1272C91.7631 15.2948 91.6195 15.4743 91.4519 15.6658C91.2205 15.9292 90.9691 16.1686 90.6978 16.384C90.4823 16.5516 90.195 16.7591 89.8359 17.0065C89.5247 17.214 89.2534 17.3855 89.022 17.5212C88.7906 17.6569 88.5152 17.7965 88.196 17.9401C88.0045 18.0279 87.805 18.1157 87.5975 18.2035C87.398 18.2992 87.2065 18.3631 87.023 18.395C86.9591 18.403 86.8913 18.407 86.8195 18.407C86.7477 18.415 86.6958 18.419 86.6639 18.419C86.5362 18.419 86.3606 18.407 86.1372 18.383C85.9217 18.3671 85.7781 18.3591 85.7063 18.3591L84.5691 18.419C84.5212 18.4269 84.4414 18.4389 84.3297 18.4549C84.226 18.4708 84.1462 18.4788 84.0903 18.4788C84.0185 18.4788 83.9467 18.4788 83.8748 18.4788C83.803 18.4788 83.7352 18.4828 83.6713 18.4908C83.6075 18.4908 83.5357 18.4868 83.4559 18.4788C83.3761 18.4788 83.2684 18.4589 83.1327 18.419C83.1008 18.411 83.0489 18.391 82.9771 18.3591C82.9132 18.3272 82.8574 18.3072 82.8095 18.2992C82.7856 18.2913 82.7616 18.2873 82.7377 18.2873C82.7058 18.2873 82.6858 18.2873 82.6778 18.2873C82.63 18.2873 82.5581 18.2953 82.4624 18.3112C82.3666 18.3272 82.2908 18.3352 82.2349 18.3352C82.0514 18.3352 81.8998 18.3232 81.7801 18.2992C81.6604 18.2753 81.4848 18.2274 81.2534 18.1556C80.9422 18.0598 80.6429 17.9282 80.3556 17.7606C80.2439 17.6968 80.1123 17.597 79.9606 17.4613C79.7372 17.2698 79.6095 17.1581 79.5776 17.1262L79.0629 16.7072C78.9591 16.6354 78.8873 16.5875 78.8474 16.5636C78.7596 16.5077 78.6918 16.4559 78.6439 16.408C78.5561 16.3282 78.4723 16.1965 78.3925 16.013C78.3127 15.8214 78.2489 15.6938 78.201 15.6299C78.1611 15.5581 78.1212 15.4903 78.0813 15.4264C78.0095 15.3227 77.9377 15.2309 77.8659 15.1511C77.802 15.0713 77.7142 14.9915 77.6025 14.9117C77.3631 14.7362 77.2155 14.6125 77.1596 14.5406C77.1038 14.4688 77.0439 14.3731 76.9801 14.2534C76.9162 14.1337 76.8484 14.0219 76.7766 13.9182C76.7127 13.8145 76.6489 13.7067 76.5851 13.595C76.5212 13.4753 76.4614 13.3556 76.4055 13.2359C76.1741 12.9327 76.0145 12.7092 75.9267 12.5656C75.8389 12.4219 75.7791 12.2743 75.7472 12.1227C75.7232 11.9711 75.7113 11.8434 75.7113 11.7396C75.7113 11.6918 75.7113 11.6519 75.7113 11.6199L75.6873 10.7581L75.6514 9.9202C75.6514 9.81646 75.6434 9.71671 75.6275 9.62095C75.5876 9.37356 75.5676 9.21396 75.5676 9.14214C75.5437 9.00648 75.5277 8.90673 75.5197 8.84289C75.5197 8.77905 75.5197 8.69526 75.5197 8.59152C75.5277 8.52768 75.5317 8.4798 75.5317 8.44788C75.5397 8.34414 75.5596 8.2404 75.5916 8.13666C75.6235 8.03292 75.6554 7.92918 75.6873 7.82544L75.8669 7.22693C75.9068 7.11521 75.9546 6.99152 76.0105 6.85586C76.0344 6.8 76.0863 6.68429 76.1661 6.50873C76.214 6.39701 76.2659 6.2813 76.3217 6.16159C76.3776 6.03391 76.4255 5.93017 76.4654 5.85037L76.6689 5.49127C76.7487 5.34763 76.8085 5.24389 76.8484 5.18005C76.9202 5.06035 76.9601 4.99252 76.9681 4.97656C77.0399 4.89676 77.1118 4.81696 77.1836 4.73716C77.2075 4.69726 77.2195 4.63741 77.2195 4.5576C77.2195 4.4379 77.2275 4.3581 77.2434 4.3182C77.2674 4.25436 77.3033 4.1985 77.3512 4.15062C77.4389 4.07082 77.5307 3.98703 77.6265 3.89925C77.6584 3.86733 77.7422 3.76359 77.8778 3.58803C77.9656 3.46833 78.0614 3.37257 78.1651 3.30075L78.5601 3.06135C78.6319 3.00549 78.7357 2.90573 78.8714 2.76209C79.015 2.61845 79.1427 2.50673 79.2544 2.42693C79.3741 2.34713 79.5297 2.26334 79.7212 2.17556C79.9207 2.08778 80.0763 2.01995 80.1881 1.97207C80.2998 1.91621 80.4115 1.86035 80.5232 1.80449C80.6429 1.74863 80.7467 1.70474 80.8344 1.67282C80.9222 1.63292 81.0459 1.58903 81.2055 1.54115C81.3651 1.48529 81.4888 1.44938 81.5766 1.43341C81.6724 1.40947 81.8 1.38553 81.9596 1.36159C82.1192 1.33765 82.231 1.3177 82.2948 1.30174C82.5262 1.22194 82.7576 1.14214 82.9891 1.06234C83.0609 1.04638 83.1606 1.0384 83.2883 1.0384C83.3442 1.0384 83.432 1.04239 83.5517 1.05037C83.6714 1.05835 83.7711 1.06234 83.8509 1.06234L84.6888 1.00249C84.8325 1.00249 84.9442 0.998502 85.024 0.990523C85.3432 0.958602 85.5227 0.942642 85.5626 0.942642L86.3048 0.966582C86.4325 0.966582 86.5442 0.974562 86.6399 0.990523C86.7357 0.998502 86.8953 1.02643 87.1187 1.07431C87.3422 1.11421 87.5856 1.19002 87.8489 1.30174C87.9367 1.33366 88.1921 1.45336 88.615 1.66085C88.7586 1.73267 88.8943 1.8005 89.022 1.86434C89.1497 1.9202 89.2933 2 89.4529 2.10374C89.8359 2.3591 90.1631 2.65037 90.4344 2.97755C90.4903 3.04139 90.5701 3.14913 90.6738 3.30075C90.7776 3.44439 90.8654 3.56409 90.9372 3.65985C91.017 3.75561 91.0968 3.84738 91.1766 3.93516C91.2085 3.97506 91.3522 4.11471 91.6075 4.35411C91.7831 4.52169 91.9626 4.68928 92.1462 4.85686C92.202 4.9207 92.2579 5.00449 92.3137 5.10823C92.3696 5.20399 92.4135 5.2798 92.4454 5.33566C92.5172 5.45536 92.6689 5.68279 92.9003 6.01795C93.0838 6.28928 93.2195 6.5207 93.3073 6.71222C93.3472 6.80798 93.3871 6.89576 93.427 6.97556C93.4669 7.05536 93.5068 7.17506 93.5467 7.33466C93.5866 7.48628 93.6105 7.598 93.6185 7.66982C93.6344 7.74164 93.6424 7.8414 93.6424 7.96908C93.6424 8.05686 93.6225 8.1606 93.5826 8.2803C93.5507 8.4 93.5307 8.49576 93.5227 8.56758C93.4908 8.76708 93.4589 8.96658 93.427 9.16608C93.4349 9.24588 93.4549 9.32169 93.4868 9.39351C93.5826 9.60898 93.6344 9.7606 93.6424 9.84838C93.6584 9.93616 93.6664 10 93.6664 10.0399C93.6664 10.0798 93.6624 10.1556 93.6544 10.2673C93.6464 10.3791 93.6424 10.4708 93.6424 10.5426V11.2369ZM90.4344 10.6384C90.4344 10.415 90.4065 10.2234 90.3507 10.0638C90.3267 10.008 90.2629 9.91621 90.1591 9.78853C90.1033 9.72469 90.0634 9.66484 90.0394 9.60898C90.0155 9.54514 89.9916 9.47332 89.9676 9.39351C89.9517 9.31371 89.9437 9.24189 89.9437 9.17805C89.9437 9.12219 89.9517 9.06633 89.9676 9.01047C89.9916 8.95461 90.0195 8.88678 90.0514 8.80698C90.0594 8.74314 90.0554 8.6793 90.0394 8.61546C90.0235 8.54364 90.0075 8.45985 89.9916 8.36409C89.9916 8.29227 89.9955 8.2005 90.0035 8.08878C90.0115 7.96908 90.0155 7.8813 90.0155 7.82544C90.0315 7.63391 90.0434 7.52219 90.0514 7.49027C90.0674 7.41845 90.0953 7.31072 90.1352 7.16708C90.1432 7.13516 90.1871 7.05935 90.2669 6.93965C90.3227 6.85187 90.3507 6.76808 90.3507 6.68828C90.3507 6.52868 90.3147 6.37706 90.2429 6.23341C90.1791 6.08179 90.1192 5.97007 90.0634 5.89825C90.0075 5.82643 89.9237 5.75062 89.812 5.67082C89.7482 5.62294 89.6684 5.57905 89.5726 5.53915C89.429 5.47531 89.3492 5.4394 89.3332 5.43142C89.1975 5.35162 89.0778 5.27182 88.9741 5.19202C88.8783 5.11222 88.7786 5.01247 88.6748 4.89277C88.603 4.82095 88.5352 4.72519 88.4714 4.60549C88.3277 4.35012 88.224 4.18653 88.1601 4.11471C88.0564 3.97905 87.9487 3.85935 87.8369 3.75561C87.6853 3.61197 87.5656 3.50025 87.4778 3.42045L86.999 3.00149C86.8714 2.91371 86.7796 2.84987 86.7237 2.80997C86.628 2.73815 86.5402 2.66234 86.4604 2.58254C86.4125 2.53466 86.3646 2.46284 86.3167 2.36708C86.221 2.18354 86.1372 2.06783 86.0654 2.01995C85.9536 1.93217 85.822 1.88429 85.6704 1.87631C85.5187 1.86035 85.3911 1.84838 85.2873 1.8404C84.9841 1.79252 84.7247 1.76858 84.5093 1.76858C84.3098 1.76858 84.0664 1.79252 83.7791 1.8404C83.4918 1.8803 83.2085 1.9601 82.9292 2.0798C82.7856 2.13566 82.6539 2.19551 82.5342 2.25935C82.4704 2.29127 82.3427 2.37107 82.1512 2.49875C82.0554 2.56259 81.9477 2.64239 81.828 2.73815C81.5487 2.97755 81.3771 3.11721 81.3132 3.15711C81.2494 3.19701 81.2015 3.22494 81.1696 3.2409C81.1137 3.27282 81.0619 3.31272 81.014 3.3606C80.9741 3.4005 80.9342 3.46035 80.8943 3.54015C80.8305 3.67581 80.7906 3.75561 80.7746 3.77955C80.7267 3.84339 80.6549 3.92319 80.5591 4.01895C80.4634 4.10673 80.3955 4.17855 80.3556 4.23441C80.3157 4.29027 80.2559 4.37406 80.1761 4.48578C80.0963 4.5975 80.0364 4.69326 79.9965 4.77307C79.9167 4.92469 79.8449 5.10025 79.7811 5.29975C79.6853 5.61097 79.6255 5.7985 79.6015 5.86234C79.5776 5.9182 79.5576 5.97406 79.5417 6.02992C79.5018 6.13366 79.4579 6.2374 79.41 6.34115C79.3701 6.44489 79.3103 6.55661 79.2305 6.67631C79.1507 6.78803 79.0748 6.89975 79.003 7.01147C78.995 7.02743 78.9352 7.1192 78.8235 7.28678C78.7596 7.39052 78.7118 7.49027 78.6798 7.58603C78.624 7.72967 78.592 7.81745 78.5841 7.84937C78.5761 7.8813 78.5721 7.93317 78.5721 8.00499C78.5721 8.05287 78.5761 8.09277 78.5841 8.12469C78.6 8.18853 78.6359 8.25636 78.6918 8.32818C78.7477 8.39202 78.7916 8.44389 78.8235 8.48379C78.9192 8.57157 79.019 8.65935 79.1227 8.74713C79.1706 8.82693 79.1945 8.92269 79.1945 9.03441C79.1866 9.13017 79.1826 9.20598 79.1826 9.26184C79.1826 9.36558 79.1586 9.50524 79.1108 9.6808C79.0629 9.85636 79.0389 9.99601 79.0389 10.0997C79.015 10.3312 79.003 10.5307 79.003 10.6983C79.003 10.8339 79.011 10.9815 79.027 11.1411C79.0509 11.3007 79.0908 11.4803 79.1467 11.6798C79.2105 11.8793 79.2424 12.0389 79.2424 12.1586C79.2424 12.3342 79.2384 12.5177 79.2305 12.7092C79.2225 12.9007 79.2185 13.0165 79.2185 13.0564C79.2185 13.2638 79.2305 13.4434 79.2544 13.595C79.2783 13.7466 79.3262 13.9182 79.398 14.1097C79.4459 14.2534 79.5257 14.405 79.6374 14.5646C79.829 14.8519 79.9287 14.9995 79.9367 15.0075C79.9527 15.0314 80.0045 15.1192 80.0923 15.2708C80.1482 15.3666 80.204 15.4464 80.2599 15.5102C80.3955 15.6698 80.5591 15.8055 80.7507 15.9172C80.8783 15.981 80.998 16.0409 81.1098 16.0968C81.2215 16.1526 81.3212 16.2045 81.409 16.2524C81.5048 16.2923 81.6125 16.3242 81.7322 16.3481C81.8599 16.3721 81.9876 16.392 82.1152 16.408C82.219 16.4958 82.2988 16.5556 82.3546 16.5875C82.5063 16.6833 82.622 16.7511 82.7018 16.791C82.7896 16.8309 82.8773 16.8589 82.9651 16.8748C83.0609 16.8908 83.1487 16.8988 83.2285 16.8988C83.3083 16.8988 83.408 16.8948 83.5277 16.8868C83.6554 16.8708 83.7232 16.8628 83.7312 16.8628C83.8669 16.8628 83.9866 16.8708 84.0903 16.8868C84.194 16.9027 84.3058 16.9347 84.4255 16.9825C84.4893 17.0065 84.5691 17.0544 84.6649 17.1262C84.7606 17.19 84.8444 17.2299 84.9162 17.2459C84.9881 17.2618 85.0439 17.2698 85.0838 17.2698C85.1636 17.2698 85.2554 17.2539 85.3591 17.2219C85.4709 17.19 85.5786 17.1621 85.6823 17.1382C85.7861 17.1062 85.9058 17.0663 86.0414 17.0185C86.1771 16.9626 86.2848 16.9187 86.3646 16.8868L86.9631 16.6474C87.3302 16.4798 87.6813 16.2803 88.0165 16.0489C88.224 15.9132 88.3955 15.7855 88.5312 15.6658C88.7068 15.5142 88.8624 15.3626 88.998 15.211C89.1736 15.0115 89.2773 14.8958 89.3093 14.8638C89.405 14.7441 89.4968 14.6005 89.5846 14.4329C89.6724 14.2653 89.7362 14.0459 89.7761 13.7746C89.824 13.5032 89.8559 13.3237 89.8718 13.2359C89.9277 12.8529 89.9876 12.4658 90.0514 12.0748C90.0753 11.987 90.0993 11.9192 90.1232 11.8713C90.1791 11.7596 90.2349 11.6479 90.2908 11.5362C90.3866 11.2409 90.4344 10.9416 90.4344 10.6384Z" fill="#212121"/>
<path d="M108.77 9.02244C108.77 9.10224 108.75 9.17406 108.71 9.2379C108.678 9.29376 108.618 9.36957 108.53 9.46533C108.483 9.5212 108.443 9.5611 108.411 9.58504C108.291 9.64888 108.199 9.70075 108.135 9.74065C108.08 9.78055 108.02 9.81646 107.956 9.84838C107.892 9.8803 107.84 9.91621 107.8 9.95611C107.76 9.99601 107.72 10.0479 107.681 10.1117C107.665 10.1357 107.609 10.2514 107.513 10.4589L107.274 10.9975C107.258 11.0454 107.23 11.1332 107.19 11.2608C107.158 11.3885 107.126 11.4963 107.094 11.584C107.062 11.6718 107.022 11.7636 106.974 11.8594C106.926 11.9551 106.887 12.0349 106.855 12.0988C106.767 12.3142 106.703 12.4658 106.663 12.5536C106.599 12.7052 106.523 12.8529 106.436 12.9965C106.356 13.1322 106.276 13.2638 106.196 13.3915C106.172 13.4633 106.156 13.5591 106.148 13.6788C106.14 13.7905 106.124 13.8743 106.101 13.9302C106.085 13.986 106.049 14.0618 105.993 14.1576C105.937 14.2454 105.897 14.3092 105.873 14.3491C105.857 14.381 105.817 14.4409 105.753 14.5287C105.698 14.6165 105.658 14.6923 105.634 14.7561C105.61 14.8199 105.586 14.9117 105.562 15.0314C105.538 15.1511 105.51 15.2549 105.478 15.3426C105.446 15.4304 105.422 15.4903 105.406 15.5222C105.358 15.594 105.322 15.6499 105.299 15.6898C105.283 15.7217 105.251 15.7696 105.203 15.8334C105.163 15.8893 105.135 15.9332 105.119 15.9651C105.095 16.0289 105.075 16.1047 105.059 16.1925C105.051 16.2723 105.043 16.3242 105.035 16.3481L104.856 16.9825C104.8 17.1421 104.748 17.3017 104.7 17.4613C104.636 17.581 104.576 17.7007 104.52 17.8204C104.441 17.9401 104.341 18 104.221 18C104.07 18 103.954 17.98 103.874 17.9401C103.794 17.9002 103.734 17.8284 103.695 17.7247C103.655 17.6209 103.619 17.5372 103.587 17.4733C103.563 17.4095 103.535 17.3097 103.503 17.1741C103.471 17.0384 103.439 16.9267 103.407 16.8389C103.375 16.7431 103.339 16.6594 103.3 16.5875C103.26 16.5157 103.22 16.4439 103.18 16.3721C103.148 16.2923 103.116 16.2165 103.084 16.1446C103.02 16.009 102.976 15.9012 102.952 15.8214C102.928 15.7337 102.904 15.6259 102.881 15.4983C102.865 15.3706 102.841 15.2549 102.809 15.1511C102.785 15.0394 102.765 14.9636 102.749 14.9237C102.733 14.8758 102.701 14.796 102.653 14.6843C102.605 14.5726 102.573 14.4928 102.557 14.4449C102.517 14.3571 102.466 14.3052 102.402 14.2893C102.33 14.2653 102.23 14.2853 102.103 14.3491C102.023 14.389 101.963 14.4529 101.923 14.5406C101.883 14.6683 101.851 14.7641 101.827 14.8279C101.811 14.8678 101.799 14.9396 101.791 15.0434C101.783 15.1392 101.767 15.215 101.743 15.2708C101.719 15.3187 101.672 15.3825 101.6 15.4623C101.528 15.5421 101.476 15.61 101.444 15.6658C101.436 15.6818 101.416 15.7377 101.384 15.8334C101.352 15.9212 101.32 15.993 101.289 16.0489C101.217 16.1526 101.149 16.2524 101.085 16.3481C101.061 16.404 101.045 16.4838 101.037 16.5875C101.029 16.6913 101.013 16.7711 100.989 16.8269C100.973 16.8828 100.953 16.9267 100.929 16.9586C100.882 17.0304 100.838 17.0943 100.798 17.1501C100.766 17.198 100.738 17.2698 100.714 17.3656C100.69 17.4613 100.662 17.5332 100.63 17.581C100.566 17.7007 100.526 17.7726 100.51 17.7965C100.463 17.8763 100.403 17.9322 100.331 17.9641C100.235 18.0279 100.127 18.0598 100.008 18.0598C99.8801 18.0598 99.7843 18.0519 99.7205 18.0359C99.6646 18.0279 99.6047 18 99.5409 17.9521C99.4771 17.8963 99.4292 17.8364 99.3973 17.7726C99.3653 17.7087 99.3334 17.6369 99.3015 17.5571C99.2776 17.4693 99.2656 17.4095 99.2656 17.3776C99.2736 17.2339 99.2815 17.0903 99.2895 16.9466C99.2736 16.8748 99.2377 16.799 99.1818 16.7192C99.102 16.5995 99.0581 16.5277 99.0501 16.5037L98.8347 15.9292C98.7868 15.7935 98.7589 15.7177 98.7509 15.7017C98.695 15.606 98.6551 15.5342 98.6312 15.4863C98.4875 15.3187 98.3479 15.1471 98.2122 14.9716C98.1963 14.9077 98.1883 14.8638 98.1883 14.8399C98.1883 14.792 98.1923 14.7322 98.2003 14.6603C98.2162 14.5885 98.2242 14.5486 98.2242 14.5406C98.2242 14.4928 98.2202 14.4569 98.2122 14.4329C98.1963 14.385 98.1723 14.3332 98.1404 14.2773C98.0845 14.1895 98.0287 14.1017 97.9728 14.014C97.9569 13.982 97.913 13.9142 97.8411 13.8105C97.7773 13.6988 97.7254 13.603 97.6855 13.5232C97.6536 13.4434 97.6137 13.3317 97.5658 13.188C97.5499 13.1401 97.5259 13.0843 97.494 13.0204C97.4701 12.9486 97.4102 12.8289 97.3145 12.6613C97.2746 12.5975 97.2347 12.5297 97.1948 12.4579C97.091 12.2983 96.9913 12.1387 96.8955 11.979L96.6801 11.5362C96.6242 11.3766 96.5803 11.2569 96.5484 11.1771C96.5244 11.0893 96.5045 11.0015 96.4885 10.9137C96.4726 10.8259 96.4606 10.7262 96.4526 10.6145C96.4526 10.4948 96.4367 10.411 96.4047 10.3631C96.3808 10.3072 96.3409 10.2554 96.285 10.2075C96.1893 10.1357 96.1334 10.0878 96.1175 10.0638L95.8182 9.70474L95.5429 9.44139L95.3035 9.10623C95.2796 9.07431 95.2596 9.0384 95.2436 8.9985C95.1958 8.92668 95.1638 8.85486 95.1479 8.78304C95.1399 8.70324 95.1359 8.64339 95.1359 8.60349C95.1359 8.53965 95.1519 8.48778 95.1838 8.44788C95.2237 8.40798 95.2835 8.38404 95.3633 8.37606C95.4511 8.3601 95.507 8.35212 95.5309 8.35212C95.5628 8.35212 95.5828 8.35212 95.5908 8.35212C95.6546 8.35212 95.7344 8.3601 95.8302 8.37606C95.9339 8.38404 95.9898 8.38803 95.9978 8.38803L96.9554 8.48379C97.0511 8.48379 97.1668 8.49576 97.3025 8.5197C97.4461 8.53566 97.5379 8.54364 97.5778 8.54364C97.6736 8.54364 97.7613 8.53566 97.8411 8.5197C97.9289 8.50374 98.0327 8.4798 98.1524 8.44788L98.4756 8.38803C98.5234 8.38803 98.5753 8.38404 98.6312 8.37606C98.6791 8.36808 98.7269 8.3601 98.7748 8.35212C98.8387 8.35212 98.8905 8.37606 98.9304 8.42394C98.9703 8.47182 98.9903 8.55162 98.9903 8.66334C98.9903 8.7192 98.9703 8.78304 98.9304 8.85486C98.8905 8.9187 98.8546 8.98254 98.8227 9.04638C98.7908 9.11022 98.7549 9.17007 98.715 9.22593C98.6751 9.28179 98.6392 9.33765 98.6072 9.39351C98.5753 9.44139 98.5274 9.50923 98.4636 9.59701C98.3998 9.67681 98.3638 9.74464 98.3559 9.8005C98.3399 9.88828 98.3479 9.97606 98.3798 10.0638C98.4436 10.1835 98.4875 10.2753 98.5115 10.3392C98.5354 10.395 98.5753 10.4708 98.6312 10.5666C98.687 10.6544 98.7269 10.7182 98.7509 10.7581C98.8067 10.8778 98.8506 10.9935 98.8825 11.1052C98.9145 11.217 98.9504 11.3287 98.9903 11.4404L99.1339 11.8953L99.2895 12.2783C99.3693 12.4778 99.4491 12.6773 99.5289 12.8768C99.5369 12.9007 99.5489 12.9805 99.5648 13.1162C99.5808 13.2439 99.6047 13.3396 99.6367 13.4035C99.6766 13.4594 99.7085 13.4992 99.7324 13.5232C99.8441 13.619 99.904 13.6748 99.912 13.6908C99.9439 13.7387 99.9718 13.8025 99.9958 13.8823C100.02 13.9541 100.048 14.0299 100.08 14.1097C100.111 14.1895 100.135 14.2454 100.151 14.2773C100.207 14.3571 100.247 14.4209 100.271 14.4688C100.327 14.5885 100.371 14.6843 100.403 14.7561C100.443 14.8279 100.499 14.8838 100.57 14.9237C100.642 14.9556 100.706 14.9756 100.762 14.9835C100.81 14.9915 100.858 14.9875 100.905 14.9716C100.953 14.9556 100.993 14.9277 101.025 14.8878C101.049 14.8559 101.073 14.812 101.097 14.7561C101.129 14.7002 101.145 14.6324 101.145 14.5526C101.137 14.4409 101.133 14.3531 101.133 14.2893C101.133 14.2334 101.137 14.1935 101.145 14.1696C101.161 14.0978 101.181 14.0419 101.205 14.002C101.229 13.9461 101.257 13.8903 101.289 13.8344L101.504 13.4155C101.56 13.3197 101.62 13.2199 101.684 13.1162C101.7 13.0683 101.707 13.0045 101.707 12.9247C101.707 12.8608 101.696 12.785 101.672 12.6973C101.648 12.6095 101.628 12.5257 101.612 12.4459C101.596 12.3661 101.572 12.2903 101.54 12.2185C101.484 12.1067 101.44 12.015 101.408 11.9431C101.376 11.8633 101.32 11.7636 101.241 11.6439C101.169 11.5242 101.117 11.4284 101.085 11.3566C100.957 11.0933 100.846 10.8219 100.75 10.5426C100.742 10.5267 100.722 10.4469 100.69 10.3032C100.658 10.1596 100.618 10.0519 100.57 9.98005C100.491 9.82843 100.371 9.69676 100.211 9.58504C100.155 9.54514 100.088 9.50923 100.008 9.47731C99.9279 9.43741 99.8681 9.40549 99.8282 9.38155L99.5529 9.20199C99.505 9.16209 99.4571 9.1182 99.4092 9.07032C99.3614 9.02244 99.3294 8.96259 99.3135 8.89077C99.2975 8.81895 99.2895 8.76309 99.2895 8.72319C99.2895 8.61147 99.3254 8.52369 99.3973 8.45985C99.4691 8.39601 99.5808 8.36409 99.7324 8.36409C99.8362 8.36409 99.908 8.36808 99.9479 8.37606C100.012 8.39202 100.123 8.41197 100.283 8.43591C100.443 8.45985 100.65 8.48379 100.905 8.50773C101.073 8.54763 101.241 8.58753 101.408 8.62743C101.488 8.62743 101.564 8.61945 101.636 8.60349C101.715 8.58753 101.847 8.56758 102.031 8.54364C102.222 8.51172 102.45 8.49576 102.713 8.49576C102.849 8.49576 102.988 8.49975 103.132 8.50773C103.284 8.50773 103.439 8.50773 103.599 8.50773C103.687 8.50773 103.794 8.51571 103.922 8.53167C104.058 8.53965 104.129 8.54364 104.137 8.54364C104.305 8.51172 104.473 8.4798 104.64 8.44788C104.8 8.48778 104.907 8.54763 104.963 8.62743C105.019 8.70723 105.047 8.799 105.047 8.90274C105.047 8.98254 105.039 9.05037 105.023 9.10623C105.015 9.16209 105.003 9.20997 104.987 9.24987C104.971 9.28179 104.935 9.33366 104.88 9.40548C104.832 9.4773 104.748 9.54115 104.628 9.59701C104.564 9.62893 104.493 9.66883 104.413 9.71671C104.341 9.75661 104.289 9.78454 104.257 9.8005C104.153 9.85636 104.066 9.92419 103.994 10.004C103.922 10.0758 103.862 10.1596 103.814 10.2554C103.766 10.3431 103.722 10.4309 103.683 10.5187C103.603 10.6703 103.547 10.7781 103.515 10.8419C103.459 10.9536 103.411 11.0693 103.371 11.189C103.339 11.3007 103.315 11.3925 103.3 11.4643C103.284 11.5362 103.284 11.608 103.3 11.6798C103.315 11.7436 103.347 11.8035 103.395 11.8594C103.443 11.9152 103.491 11.9671 103.539 12.015L103.683 12.2544C103.738 12.3661 103.786 12.5217 103.826 12.7212C103.866 12.9207 103.89 13.0324 103.898 13.0564L104.042 13.6309C104.082 13.7825 104.121 13.9302 104.161 14.0738C104.217 14.1776 104.265 14.2613 104.305 14.3252C104.353 14.381 104.433 14.4369 104.544 14.4928C104.656 14.5406 104.748 14.5526 104.82 14.5287C104.892 14.5047 104.935 14.4489 104.951 14.3611C104.967 14.2653 104.983 14.1696 104.999 14.0738C105.055 13.9302 105.115 13.7825 105.179 13.6309C105.195 13.599 105.231 13.5591 105.287 13.5112C105.342 13.4633 105.378 13.4234 105.394 13.3915C105.418 13.3436 105.438 13.2798 105.454 13.2C105.47 13.1122 105.486 13.0165 105.502 12.9127C105.526 12.801 105.542 12.7132 105.55 12.6494C105.566 12.5855 105.594 12.5217 105.634 12.4579C105.698 12.394 105.765 12.3262 105.837 12.2544C105.877 12.1825 105.897 12.0988 105.897 12.003C105.897 11.9152 105.897 11.8514 105.897 11.8115C105.897 11.7556 105.897 11.7117 105.897 11.6798C105.905 11.616 105.925 11.5202 105.957 11.3925C105.997 11.2648 106.017 11.1611 106.017 11.0813V10.5786C106.017 10.5147 106.025 10.4349 106.041 10.3392C106.057 10.2434 106.065 10.1716 106.065 10.1237C106.065 10.0598 106.061 10.012 106.053 9.98005C106.037 9.92419 106.021 9.87631 106.005 9.83641C105.981 9.78853 105.937 9.71671 105.873 9.62095C105.777 9.53317 105.686 9.4414 105.598 9.34563C105.55 9.25785 105.51 9.17406 105.478 9.09426C105.454 9.00648 105.454 8.92269 105.478 8.84289C105.534 8.65935 105.646 8.54763 105.813 8.50773C105.861 8.49975 105.909 8.50374 105.957 8.5197C106.005 8.53566 106.089 8.55561 106.208 8.57955C106.328 8.60349 106.484 8.63142 106.675 8.66334C106.731 8.65536 106.795 8.63142 106.867 8.59152C106.946 8.55162 107.03 8.52369 107.118 8.50773C107.206 8.48379 107.298 8.47182 107.393 8.47182C107.561 8.4798 107.693 8.48379 107.788 8.48379C107.852 8.48379 107.932 8.47581 108.028 8.45985C108.131 8.43591 108.191 8.42394 108.207 8.42394C108.239 8.42394 108.287 8.43192 108.351 8.44788C108.495 8.49576 108.606 8.57556 108.686 8.68728C108.742 8.79102 108.77 8.90274 108.77 9.02244ZM103.144 9.74065C103.144 9.71671 103.104 9.64489 103.024 9.52519C102.992 9.48529 102.964 9.44538 102.94 9.40548C102.916 9.38154 102.873 9.35361 102.809 9.32169C102.753 9.28179 102.697 9.26184 102.641 9.26184C102.529 9.26184 102.442 9.29775 102.378 9.36957C102.314 9.43341 102.282 9.51322 102.282 9.60898C102.282 9.65686 102.29 9.74464 102.306 9.87232C102.33 10 102.39 10.1037 102.486 10.1835C102.525 10.2234 102.565 10.2594 102.605 10.2913C102.653 10.3232 102.705 10.3392 102.761 10.3392C102.825 10.3392 102.873 10.3032 102.904 10.2314C102.936 10.1516 102.968 10.0758 103 10.004C103.048 9.94813 103.08 9.90823 103.096 9.88429C103.136 9.83641 103.152 9.78853 103.144 9.74065Z" fill="#212121"/>
<path d="M115.735 17.5212C115.735 17.6569 115.676 17.7766 115.556 17.8803C115.5 17.9202 115.424 17.9441 115.328 17.9521C115.241 17.9601 115.165 17.9641 115.101 17.9641C115.013 17.9641 114.905 17.9561 114.778 17.9401C114.65 17.9162 114.57 17.9042 114.538 17.9042C114.451 17.9042 114.331 17.9002 114.179 17.8923C114.028 17.8843 113.908 17.8803 113.82 17.8803C113.7 17.8803 113.593 17.8883 113.497 17.9042C113.401 17.9202 113.309 17.9362 113.222 17.9521C113.134 17.9601 113.026 17.984 112.898 18.0239C112.771 18.0638 112.679 18.0878 112.623 18.0958H111.869H111.067C110.947 18.0878 110.852 18.0798 110.78 18.0718C110.708 18.0718 110.648 18.0519 110.6 18.012C110.552 17.9721 110.516 17.9282 110.493 17.8803C110.477 17.8484 110.453 17.7845 110.421 17.6888C110.389 17.593 110.373 17.5372 110.373 17.5212C110.373 17.4334 110.409 17.3576 110.481 17.2938C110.584 17.2219 110.664 17.1621 110.72 17.1142C110.784 17.0663 110.864 17.0224 110.959 16.9825C111.135 16.9107 111.231 16.8708 111.247 16.8628C111.326 16.815 111.41 16.7671 111.498 16.7192C111.586 16.6633 111.662 16.5995 111.725 16.5277C111.797 16.4479 111.857 16.3521 111.905 16.2404C111.929 16.1925 111.965 16.0928 112.013 15.9411C112.061 15.7895 112.093 15.6658 112.108 15.5701C112.132 15.4743 112.144 15.3706 112.144 15.2589C112.136 15.1072 112.132 14.9915 112.132 14.9117C112.132 14.8479 112.14 14.788 112.156 14.7322C112.18 14.6763 112.216 14.6165 112.264 14.5526C112.312 14.4808 112.34 14.4329 112.348 14.409C112.388 14.2973 112.412 14.2135 112.42 14.1576C112.436 14.0938 112.444 14.0259 112.444 13.9541C112.436 13.8823 112.424 13.8224 112.408 13.7746C112.368 13.6628 112.348 13.603 112.348 13.595C112.34 13.5471 112.336 13.4753 112.336 13.3795C112.336 13.3077 112.344 13.2 112.36 13.0564C112.376 12.9127 112.384 12.793 112.384 12.6973C112.384 12.5855 112.376 12.4898 112.36 12.41C112.304 12.1307 112.276 11.987 112.276 11.979C112.276 11.8913 112.288 11.8155 112.312 11.7516C112.336 11.6878 112.376 11.6199 112.432 11.5481C112.488 11.4683 112.519 11.4125 112.527 11.3805C112.575 11.2449 112.599 11.1212 112.599 11.0095C112.599 10.9616 112.595 10.9017 112.587 10.8299C112.579 10.7581 112.571 10.7022 112.563 10.6623C112.555 10.6065 112.531 10.5227 112.492 10.411C112.46 10.2993 112.444 10.2354 112.444 10.2194C112.42 10.0598 112.408 9.9202 112.408 9.8005C112.408 9.73666 112.408 9.68479 112.408 9.64489C112.416 9.56509 112.452 9.45336 112.515 9.30972C112.587 9.16608 112.623 9.05037 112.623 8.96259C112.623 8.87481 112.615 8.76309 112.599 8.62743C112.591 8.48379 112.587 8.40399 112.587 8.38803L112.563 7.78952C112.563 7.6379 112.559 7.5182 112.551 7.43042C112.519 7.08728 112.503 6.88778 112.503 6.83192C112.503 6.7202 112.507 6.63242 112.515 6.56858C112.515 6.5606 112.527 6.49277 112.551 6.36509C112.575 6.22942 112.599 6.1177 112.623 6.02992C112.623 5.9581 112.619 5.90623 112.611 5.87431C112.579 5.79451 112.551 5.71471 112.527 5.63491C112.519 5.61097 112.511 5.52319 112.503 5.37157C112.503 5.21995 112.488 5.10424 112.456 5.02444C112.432 4.94464 112.4 4.87681 112.36 4.82095C112.328 4.76509 112.264 4.68928 112.168 4.59352C112.12 4.54564 112.073 4.50174 112.025 4.46184C111.985 4.41396 111.917 4.37406 111.821 4.34214C111.733 4.31022 111.63 4.27431 111.51 4.23441C111.374 4.12269 111.306 3.98304 111.306 3.81546C111.306 3.70374 111.33 3.60798 111.378 3.52818C111.402 3.48828 111.466 3.41247 111.57 3.30075C111.626 3.24489 111.693 3.19701 111.773 3.15711C111.893 3.09327 111.965 3.05337 111.989 3.03741L112.324 2.76209C112.452 2.63441 112.579 2.50673 112.707 2.37905C112.851 2.30723 112.95 2.25536 113.006 2.22344C113.07 2.18354 113.134 2.13566 113.198 2.0798C113.27 2.01596 113.337 1.95611 113.401 1.90025C113.505 1.80449 113.613 1.70474 113.724 1.601C113.924 1.45736 114.123 1.34563 114.323 1.26583C114.395 1.23391 114.455 1.20598 114.502 1.18204C114.558 1.1581 114.61 1.14613 114.658 1.14613C114.754 1.14613 114.834 1.16608 114.897 1.20598C114.961 1.2379 115.025 1.29376 115.089 1.37357C115.153 1.44539 115.185 1.53716 115.185 1.64888C115.169 1.79252 115.161 1.90424 115.161 1.98404C115.161 2.11172 115.145 2.24339 115.113 2.37905C115.081 2.50673 115.049 2.63441 115.017 2.76209L114.862 3.33666L114.742 3.87531L114.682 4.4379V4.77307L114.718 5.85037L114.742 6.98753V7.82544C114.742 7.90524 114.75 8.00499 114.766 8.12469C114.782 8.23641 114.786 8.32419 114.778 8.38803C114.762 8.45187 114.73 8.53167 114.682 8.62743C114.634 8.72319 114.606 8.79501 114.598 8.84289C114.542 8.97057 114.502 9.07032 114.479 9.14214C114.455 9.20598 114.443 9.28578 114.443 9.38155C114.443 9.48529 114.455 9.58504 114.479 9.6808C114.502 9.77656 114.522 9.85636 114.538 9.9202C114.546 9.95212 114.562 10.008 114.586 10.0878C114.61 10.1596 114.622 10.2234 114.622 10.2793C114.622 10.3431 114.61 10.4229 114.586 10.5187C114.57 10.6065 114.562 10.6663 114.562 10.6983V11.3207V11.7157C114.562 11.8195 114.562 11.9072 114.562 11.979C114.562 12.0429 114.57 12.1067 114.586 12.1706C114.602 12.2344 114.626 12.2903 114.658 12.3382C114.746 12.4818 114.794 12.5616 114.802 12.5776C114.858 12.7052 114.89 12.805 114.897 12.8768C114.897 12.9486 114.894 13.0005 114.886 13.0324C114.854 13.1122 114.826 13.192 114.802 13.2718L114.742 13.8344C114.734 13.9062 114.71 13.994 114.67 14.0978C114.638 14.2015 114.622 14.2733 114.622 14.3132C114.622 14.409 114.626 14.5007 114.634 14.5885C114.642 14.6683 114.654 14.7441 114.67 14.816C114.686 14.8878 114.718 14.9676 114.766 15.0554C114.814 15.1352 114.838 15.199 114.838 15.2469C114.838 15.2868 114.818 15.3387 114.778 15.4025C114.746 15.4663 114.726 15.5142 114.718 15.5461C114.702 15.594 114.69 15.6459 114.682 15.7017C114.674 15.7576 114.67 15.8095 114.67 15.8574C114.67 15.9052 114.678 15.9651 114.694 16.0369C114.71 16.1087 114.726 16.1845 114.742 16.2643C114.79 16.416 114.87 16.5636 114.981 16.7072C115.029 16.7711 115.073 16.8229 115.113 16.8628C115.201 16.9426 115.293 17.0224 115.388 17.1022C115.484 17.182 115.556 17.2419 115.604 17.2818C115.692 17.3536 115.735 17.4334 115.735 17.5212Z" fill="#212121"/>
</svg>
