<svg width="1442" height="7" viewBox="0 0 1442 7" fill="none" xmlns="http://www.w3.org/2000/svg">
<path d="M1 4.34637C15.2197 3.80078 44.6994 3.03695 48.8613 4.34637C58.3988 4.52823 78.4104 4.56461 82.1561 3.25519C91.6936 3.25519 115.451 3.69166 134.179 5.43755C157.59 7.61991 204.931 2.7096 212.214 3.25519C219.497 3.80078 301.173 5.43755 304.815 4.89196C308.457 4.34637 338.11 3.25519 357.879 3.25519C377.647 3.25519 403.659 4.34637 412.503 3.25519C419.578 2.38225 433.486 2.89146 439.555 3.25519C465.22 4.7101 520.607 6.96521 536.838 4.34637C557.127 1.07283 590.422 5.43755 606.549 4.34637C622.676 3.25519 642.965 4.34637 645.566 4.34637C648.168 4.34637 651.289 3.80078 655.451 3.25519C659.613 2.7096 683.023 4.34637 685.624 4.34637C687.705 4.34637 801.289 3.61892 857.821 3.25519C874.815 4.16451 910.26 5.43755 916.087 3.25519C923.37 0.527239 1031.06 -0.0183513 1044.06 3.25519C1057.07 6.52873 1075.8 -0.0183468 1079.96 1.61842C1083.29 2.92784 1100.42 2.16401 1108.57 1.61842C1133.2 2.7096 1183.38 4.56461 1187.13 3.25519C1190.87 1.94578 1240.71 1.61842 1265.16 1.61842C1289.61 2.7096 1343.82 4.56461 1365.05 3.25519C1386.27 1.94578 1424.53 2.7096 1441 3.25519" stroke="black" stroke-width="1.5"/>
</svg>
