<svg width="160" height="112" viewBox="0 0 160 112" fill="none" xmlns="http://www.w3.org/2000/svg">
<path d="M78.3533 23.185C81.3817 22.0366 88.877 21.271 94.6309 27.3958C100.385 33.5205 107.375 29.9477 110.151 27.3958" stroke="black" stroke-width="3" stroke-linecap="round"/>
<path d="M96.902 52.6601C110.53 40.7169 123.527 16.0393 128.322 5.19343C129.457 3.66224 130.744 1.13579 126.807 3.27945C121.886 5.95902 98.7947 40.4106 96.902 44.2386C95.0092 48.0665 88.5739 56.9909 75.7032 51.1289C65.4067 46.4393 29.0154 35.9047 12.1069 31.2235L4.53589 32.3719L4.91444 35.4343C67.3751 53.8085 54.1259 51.8945 73.4319 56.1052C88.8767 59.4738 95.514 55.2121 96.902 52.6601Z" fill="black" stroke="black"/>
<path d="M2.26537 34.286C7.71648 49.5978 33.5588 90.6845 45.7986 109.314C48.8271 110.539 52.1077 109.824 53.3694 109.314C84.9152 101.275 148.84 85.0447 152.171 84.4322C156.335 83.6666 157.092 82.901 157.849 82.5182C158.455 82.212 157.092 80.6043 156.335 79.8387C155.729 75.2451 140.436 28.6717 132.865 5.95912C131.956 1.97804 127.944 1.74836 126.051 2.13116C92.7385 7.4903 8.32216 29.6924 4.91521 31.2236C2.18966 32.4486 2.013 33.7756 2.26537 34.286Z" stroke="black" stroke-width="4"/>
<path d="M126.807 3.27951C111.06 9.40424 38.4791 26.2472 4.15728 33.9032C2.94592 33.9032 3.14781 33.3928 3.40018 33.1376L15.5138 28.1612L83.6527 11.3182L125.293 2.51392L126.807 3.27951Z" fill="black" stroke="black"/>
<path d="M48.8267 105.103C44.2841 92.8537 17.4071 52.5326 4.53642 33.9032H3.02222L4.53642 37.7311C6.95913 45.6933 32.5491 87.7498 45.0412 107.783L48.8267 109.697L157.849 82.5182L155.956 79.0731L132.108 5.1935L129.836 2.89673L128.322 5.1935C127.111 17.443 143.464 60.0609 151.792 79.8386C104.246 86.8821 63.3378 99.6164 48.8267 105.103Z" fill="black" stroke="black"/>
<path d="M68.8898 52.6602C64.65 58.4786 54.2525 90.0465 49.5837 105.103L51.4765 105.486C62.6816 82.212 68.7636 61.0817 70.404 53.4257L68.8898 52.6602Z" fill="black" stroke="black"/>
<path d="M98.06 50.5681C103.765 56.3412 136.735 73.2129 152.508 80.927L153.231 78.8173C129.49 62.321 107.28 52.0339 99.1428 48.9524L98.06 50.5681Z" fill="black" stroke="black"/>
<path d="M42.3914 27.013C45.0412 25.9922 52.3851 25.6349 60.5617 32.3722C68.7384 39.1094 76.587 34.4137 79.4892 31.2238" stroke="black" stroke-width="2" stroke-linecap="round"/>
<path d="M73.4324 44.563C75.0007 43.9788 79.347 43.7743 84.1863 47.63C89.0255 51.4858 93.6706 48.7985 95.3883 46.9728" stroke="black" stroke-width="2" stroke-linecap="round"/>
<path d="M96.9021 10.8769C98.4704 10.2927 102.817 10.0883 107.656 13.944C112.495 17.7998 117.14 15.1124 118.858 13.2868" stroke="black" stroke-width="2" stroke-linecap="round"/>
<path d="M20.4353 29.3438C22.1658 28.5927 26.9618 28.3298 32.3017 33.2872C37.6415 38.2446 42.7672 34.7895 44.6625 32.4422" stroke="black" stroke-width="2" stroke-linecap="round"/>
</svg>
