<svg width="22" height="22" viewBox="0 0 22 22" fill="none" xmlns="http://www.w3.org/2000/svg">
<path d="M18.48 4.58332C17.5083 3.6091 16.2202 3.01448 14.8485 2.90689C13.4767 2.79931 12.1117 3.18583 11 3.99666C9.83367 3.12916 8.38198 2.73579 6.93725 2.89577C5.49252 3.05576 4.16206 3.7572 3.2138 4.85886C2.26554 5.96051 1.76991 7.38055 1.82672 8.833C1.88354 10.2855 2.48857 11.6624 3.51999 12.6867L9.21249 18.3883C9.68917 18.8575 10.3312 19.1204 11 19.1204C11.6688 19.1204 12.3108 18.8575 12.7875 18.3883L18.48 12.6867C19.5503 11.6098 20.151 10.1532 20.151 8.63499C20.151 7.11674 19.5503 5.66016 18.48 4.58332Z" fill="#37807E"/>
</svg>
