<svg width="20" height="18" viewBox="0 0 512.000000 512.000000" fill="none" xmlns="http://www.w3.org/2000/svg">
    <g xmlns="http://www.w3.org/2000/svg" transform="translate(0.000000,512.000000) scale(0.100000,-0.100000)" fill="#000000" stroke="none">
        <path d="M2235 5104 c-470 -63 -887 -237 -1255 -522 -117 -91 -316 -287 -413 -407 -255 -315 -437 -696 -516 -1080 -70 -342 -70 -728 0 -1070 101 -488 352 -941 720 -1300 411 -400 897 -634 1472 -710 156 -20 478 -20 634 0 475 63 891 235 1263 523 117 91 316 287 413 407 255 315 437 696 516 1080 70 342 70 728 0 1070 -76 368 -247 735 -487 1045 -91 117 -287 316 -407 413 -377 304 -808 487 -1298 552 -146 19 -500 19 -642 -1z m580 -445 c377 -43 771 -210 1075 -456 90 -74 250 -234 321 -323 196 -245 345 -556 413 -862 36 -164 48 -283 48 -458 0 -329 -69 -630 -212 -925 -100 -207 -227 -385 -398 -558 -339 -344 -771 -557 -1252 -618 -122 -15 -378 -15 -500 0 -481 61 -913 274 -1252 618 -171 173 -298 351 -398 558 -143 295 -212 596 -212 925 0 329 69 630 212 925 100 207 227 385 398 558 290 294 648 493 1044 581 239 52 460 63 713 35z" fill="#37807E"/>
        <path d="M1760 2560 l0 -920 285 0 285 0 0 920 0 920 -285 0 -285 0 0 -920z" fill="#37807E"/>
        <path d="M2790 2560 l0 -920 285 0 285 0 0 920 0 920 -285 0 -285 0 0 -920z" fill="#37807E"/>
    </g>
</svg>
