<svg width="17" height="19" viewBox="0 0 17 19" fill="none" xmlns="http://www.w3.org/2000/svg">
<path d="M13.7554 1.57701C11.7331 2.96786 10.1545 6.59984 9.6179 8.24198C8.9987 9.25633 8.70469 10.1199 8.63508 10.4249C7.98373 7.90605 5.94418 2.70247 2.99672 2.03861C0.0492526 1.37475 1.0545 2.6269 1.92556 3.33595C6.25023 5.77168 7.60215 13.1089 7.73752 16.473C8.06947 17.394 8.37022 17.8015 8.4791 17.8901C8.78613 17.9593 9.43608 17.8557 9.57969 16.8879C9.72329 15.9202 10.0986 13.0621 10.2683 11.7541C11.9397 4.4375 14.5852 3.87941 15.1208 3.23074C15.6564 2.58207 15.5681 1.69681 15.2415 1.43091C14.9802 1.2182 14.1419 1.43968 13.7554 1.57701Z" fill="black" stroke="black"/>
</svg>
