<svg width="18" height="17" viewBox="0 0 18 17" fill="none" xmlns="http://www.w3.org/2000/svg">
<path d="M1.07701 3.24461C2.46786 5.26686 6.09984 6.84554 7.74198 7.3821C8.75633 8.0013 9.61988 8.29531 9.92485 8.36492C7.40605 9.01627 2.20247 11.0558 1.53861 14.0033C0.874747 16.9507 2.1269 15.9455 2.83595 15.0744C5.27168 10.7498 12.6089 9.39785 15.973 9.26248C16.894 8.93053 17.3015 8.62978 17.3901 8.5209C17.4593 8.21387 17.3557 7.56392 16.3879 7.42031C15.4202 7.27671 12.5621 6.90142 11.2541 6.73172C3.9375 5.06025 3.37941 2.41475 2.73074 1.87917C2.08207 1.34359 1.19681 1.43187 0.930913 1.75852C0.718196 2.01983 0.939681 2.85812 1.07701 3.24461Z" fill="black" stroke="black"/>
</svg>
