<svg width="20" height="18" viewBox="0 0 20 18" fill="none" xmlns="http://www.w3.org/2000/svg">
<path d="M17.4801 2.58332C16.5084 1.6091 15.2203 1.01448 13.8485 0.906895C12.4768 0.799305 11.1118 1.18583 10.0001 1.99666C8.83374 1.12916 7.38204 0.735791 5.93731 0.895773C4.49258 1.05576 3.16212 1.7572 2.21386 2.85886C1.2656 3.96051 0.76997 5.38055 0.826783 6.833C0.883597 8.28545 1.48863 9.66244 2.52005 10.6867L8.21255 16.3883C8.68923 16.8575 9.33124 17.1204 10.0001 17.1204C10.6689 17.1204 11.3109 16.8575 11.7876 16.3883L17.4801 10.6867C18.5503 9.60982 19.1511 8.15324 19.1511 6.63499C19.1511 5.11674 18.5503 3.66016 17.4801 2.58332ZM16.1876 9.42166L10.4951 15.1142C10.4303 15.1796 10.3532 15.2315 10.2682 15.2669C10.1833 15.3024 10.0921 15.3206 10.0001 15.3206C9.908 15.3206 9.81685 15.3024 9.73189 15.2669C9.64693 15.2315 9.56983 15.1796 9.50505 15.1142L3.81255 9.39416C3.09366 8.65931 2.69111 7.67217 2.69111 6.64416C2.69111 5.61615 3.09366 4.62901 3.81255 3.89416C4.54511 3.17089 5.53311 2.76534 6.56255 2.76534C7.59199 2.76534 8.57999 3.17089 9.31255 3.89416C9.39777 3.98007 9.49915 4.04827 9.61086 4.09481C9.72256 4.14134 9.84237 4.1653 9.96338 4.1653C10.0844 4.1653 10.2042 4.14134 10.3159 4.09481C10.4276 4.04827 10.529 3.98007 10.6142 3.89416C11.3468 3.17089 12.3348 2.76534 13.3642 2.76534C14.3937 2.76534 15.3817 3.17089 16.1142 3.89416C16.843 4.61938 17.2588 5.60116 17.2725 6.6292C17.2862 7.65724 16.8967 8.64976 16.1876 9.39416V9.42166Z" fill="#37807E"/>
</svg>
