<svg width="20" height="18" viewBox="0 0 20 18" fill="none" xmlns="http://www.w3.org/2000/svg">
<path d="M17.48 2.58332C16.5083 1.6091 15.2202 1.01448 13.8485 0.906895C12.4767 0.799305 11.1117 1.18583 9.99999 1.99666C8.83367 1.12916 7.38198 0.735791 5.93725 0.895773C4.49252 1.05576 3.16206 1.7572 2.2138 2.85886C1.26554 3.96051 0.769909 5.38055 0.826722 6.833C0.883536 8.28545 1.48857 9.66244 2.51999 10.6867L8.21249 16.3883C8.68917 16.8575 9.33118 17.1204 9.99999 17.1204C10.6688 17.1204 11.3108 16.8575 11.7875 16.3883L17.48 10.6867C18.5503 9.60982 19.151 8.15324 19.151 6.63499C19.151 5.11674 18.5503 3.66016 17.48 2.58332ZM16.1875 9.42166L10.495 15.1142C10.4302 15.1796 10.3531 15.2315 10.2682 15.2669C10.1832 15.3024 10.092 15.3206 9.99999 15.3206C9.90793 15.3206 9.81679 15.3024 9.73183 15.2669C9.64686 15.2315 9.56977 15.1796 9.50499 15.1142L3.81249 9.39416C3.0936 8.65931 2.69105 7.67217 2.69105 6.64416C2.69105 5.61615 3.0936 4.62901 3.81249 3.89416C4.54505 3.17089 5.53305 2.76534 6.56249 2.76534C7.59193 2.76534 8.57993 3.17089 9.31249 3.89416C9.39771 3.98007 9.49909 4.04827 9.6108 4.09481C9.7225 4.14134 9.84231 4.1653 9.96332 4.1653C10.0843 4.1653 10.2041 4.14134 10.3159 4.09481C10.4276 4.04827 10.5289 3.98007 10.6142 3.89416C11.3467 3.17089 12.3347 2.76534 13.3642 2.76534C14.3936 2.76534 15.3816 3.17089 16.1142 3.89416C16.8429 4.61938 17.2587 5.60116 17.2724 6.6292C17.2861 7.65724 16.8967 8.64976 16.1875 9.39416V9.42166Z" fill="#37807E"/>
</svg>
