<svg width="18" height="17" viewBox="0 0 18 17" fill="none" xmlns="http://www.w3.org/2000/svg">
<path d="M1.07701 3.24467C2.46786 5.26692 6.09984 6.8456 7.74198 7.38216C8.75633 8.00136 9.61988 8.29538 9.92485 8.36499C7.40605 9.01633 2.20247 11.0559 1.53861 14.0033C0.874747 16.9508 2.1269 15.9456 2.83595 15.0745C5.27168 10.7498 12.6089 9.39791 15.973 9.26254C16.894 8.9306 17.3015 8.62984 17.3901 8.52096C17.4593 8.21394 17.3557 7.56398 16.3879 7.42038C15.4202 7.27677 12.5621 6.90148 11.2541 6.73178C3.9375 5.06031 3.37941 2.41481 2.73074 1.87923C2.08207 1.34365 1.19681 1.43193 0.930913 1.75858C0.718196 2.01989 0.939681 2.85818 1.07701 3.24467Z" fill="black" stroke="black"/>
</svg>
