<svg width="17" height="19" viewBox="0 0 17 19" fill="none" xmlns="http://www.w3.org/2000/svg">
<path d="M13.7552 1.57701C11.7329 2.96786 10.1542 6.59984 9.61765 8.24198C8.99846 9.25633 8.70444 10.1199 8.63483 10.4249C7.98349 7.90605 5.94393 2.70247 2.99647 2.03861C0.0490085 1.37475 1.05426 2.6269 1.92531 3.33595C6.24999 5.77168 7.6019 13.1089 7.73728 16.473C8.06922 17.394 8.36997 17.8015 8.47885 17.8901C8.78588 17.9593 9.43584 17.8557 9.57944 16.8879C9.72305 15.9202 10.0983 13.0621 10.268 11.7541C11.9395 4.4375 14.585 3.87941 15.1206 3.23074C15.6562 2.58207 15.5679 1.69681 15.2412 1.43091C14.9799 1.2182 14.1416 1.43968 13.7552 1.57701Z" fill="black" stroke="black"/>
</svg>
