<svg width="17" height="19" viewBox="0 0 17 19" fill="none" xmlns="http://www.w3.org/2000/svg">
<path d="M13.7553 1.57701C11.733 2.96786 10.1543 6.59984 9.61778 8.24198C8.99858 9.25633 8.70456 10.1199 8.63495 10.4249C7.98361 7.90605 5.94406 2.70247 2.99659 2.03861C0.0491305 1.37475 1.05438 2.6269 1.92543 3.33595C6.25011 5.77168 7.60202 13.1089 7.7374 16.473C8.06934 17.394 8.37009 17.8015 8.47898 17.8901C8.786 17.9593 9.43596 17.8557 9.57956 16.8879C9.72317 15.9202 10.0985 13.0621 10.2682 11.7541C11.9396 4.4375 14.5851 3.87941 15.1207 3.23074C15.6563 2.58207 15.568 1.69681 15.2414 1.43091C14.98 1.2182 14.1418 1.43968 13.7553 1.57701Z" fill="black" stroke="black"/>
</svg>
