<svg width="18" height="17" viewBox="0 0 18 17" fill="none" xmlns="http://www.w3.org/2000/svg">
<path d="M16.923 13.7553C15.5321 11.733 11.9002 10.1543 10.258 9.61778C9.24367 8.99858 8.38012 8.70456 8.07515 8.63495C10.594 7.98361 15.7975 5.94406 16.4614 2.99659C17.1253 0.0491306 15.8731 1.05438 15.164 1.92543C12.7283 6.25011 5.39113 7.60202 2.027 7.7374C1.106 8.06934 0.698487 8.37009 0.609855 8.47897C0.540703 8.786 0.644337 9.43596 1.61208 9.57956C2.57983 9.72317 5.43789 10.0985 6.74594 10.2682C14.0625 11.9396 14.6206 14.5851 15.2693 15.1207C15.9179 15.6563 16.8032 15.568 17.0691 15.2414C17.2818 14.98 17.0603 14.1418 16.923 13.7553Z" fill="black" stroke="black"/>
</svg>
