<svg width="18" height="18" viewBox="0 0 18 18" fill="none" xmlns="http://www.w3.org/2000/svg">
<path d="M9 18C4.0293 18 0 13.9707 0 9C0 4.0293 4.0293 0 9 0C13.9707 0 18 4.0293 18 9C18 13.9707 13.9707 18 9 18ZM9 16.2C10.9096 16.2 12.7409 15.4414 14.0912 14.0912C15.4414 12.7409 16.2 10.9096 16.2 9C16.2 7.09044 15.4414 5.25909 14.0912 3.90883C12.7409 2.55857 10.9096 1.8 9 1.8C7.09044 1.8 5.25909 2.55857 3.90883 3.90883C2.55857 5.25909 1.8 7.09044 1.8 9C1.8 10.9096 2.55857 12.7409 3.90883 14.0912C5.25909 15.4414 7.09044 16.2 9 16.2ZM7.7598 5.7735L12.1509 8.7003C12.2003 8.73316 12.2408 8.77772 12.2688 8.83C12.2968 8.88229 12.3115 8.94068 12.3115 9C12.3115 9.05932 12.2968 9.11771 12.2688 9.17C12.2408 9.22228 12.2003 9.26684 12.1509 9.2997L7.7589 12.2265C7.70475 12.2624 7.64188 12.283 7.57698 12.286C7.51208 12.2891 7.44757 12.2745 7.39027 12.2439C7.33297 12.2133 7.28503 12.1677 7.25153 12.112C7.21803 12.0564 7.20023 11.9927 7.2 11.9277V6.0723C7.20012 6.00719 7.2179 5.94332 7.25144 5.88751C7.28499 5.8317 7.33304 5.78604 7.39048 5.75537C7.44793 5.72471 7.51261 5.71021 7.57765 5.7134C7.64268 5.71659 7.70563 5.73736 7.7598 5.7735Z" fill="#37807E"/>
</svg>
