<svg width="22" height="22" viewBox="-1 -2 22 22" fill="none" xmlns="http://www.w3.org/2000/svg">
<path d="M17.4799 2.58332C16.5082 1.6091 15.2202 1.01448 13.8484 0.906895C12.4766 0.799305 11.1116 1.18583 9.99993 1.99666C8.83361 1.12916 7.38192 0.735791 5.93719 0.895773C4.49246 1.05576 3.162 1.7572 2.21374 2.85886C1.26547 3.96051 0.769847 5.38055 0.826661 6.833C0.883475 8.28545 1.48851 9.66244 2.51993 10.6867L8.21243 16.3883C8.68911 16.8575 9.33112 17.1204 9.99993 17.1204C10.6687 17.1204 11.3107 16.8575 11.7874 16.3883L17.4799 10.6867C18.5502 9.60982 19.1509 8.15324 19.1509 6.63499C19.1509 5.11674 18.5502 3.66016 17.4799 2.58332ZM16.1874 9.42166L10.4949 15.1142C10.4302 15.1796 10.3531 15.2315 10.2681 15.2669C10.1831 15.3024 10.092 15.3206 9.99993 15.3206C9.90787 15.3206 9.81673 15.3024 9.73177 15.2669C9.6468 15.2315 9.56971 15.1796 9.50493 15.1142L3.81243 9.39416C3.09354 8.65931 2.69099 7.67217 2.69099 6.64416C2.69099 5.61615 3.09354 4.62901 3.81243 3.89416C4.54499 3.17089 5.53299 2.76534 6.56243 2.76534C7.59187 2.76534 8.57987 3.17089 9.31243 3.89416C9.39764 3.98007 9.49903 4.04827 9.61073 4.09481C9.72244 4.14134 9.84225 4.1653 9.96326 4.1653C10.0843 4.1653 10.2041 4.14134 10.3158 4.09481C10.4275 4.04827 10.5289 3.98007 10.6141 3.89416C11.3467 3.17089 12.3347 2.76534 13.3641 2.76534C14.3935 2.76534 15.3815 3.17089 16.1141 3.89416C16.8429 4.61938 17.2586 5.60116 17.2723 6.6292C17.2861 7.65724 16.8966 8.64976 16.1874 9.39416V9.42166Z" fill="#37807E"/>
</svg>
