<svg width="18" height="17" viewBox="0 0 18 17" fill="none" xmlns="http://www.w3.org/2000/svg">
<path d="M16.923 13.7553C15.5321 11.7331 11.9001 10.1544 10.258 9.61784C9.24365 8.99864 8.38011 8.70462 8.07513 8.63501C10.5939 7.98367 15.7975 5.94412 16.4614 2.99666C17.1252 0.0491916 15.8731 1.05444 15.164 1.9255C12.7283 6.25017 5.39111 7.60208 2.02698 7.73746C1.10598 8.0694 0.698471 8.37015 0.609839 8.47904C0.540688 8.78606 0.644322 9.43602 1.61207 9.57962C2.57982 9.72323 5.43787 10.0985 6.74593 10.2682C14.0625 11.9397 14.6206 14.5852 15.2692 15.1208C15.9179 15.6563 16.8032 15.5681 17.0691 15.2414C17.2818 14.9801 17.0603 14.1418 16.923 13.7553Z" fill="black" stroke="black"/>
</svg>
